<svg width="1488" height="121" viewBox="0 0 1488 121" fill="none" xmlns="http://www.w3.org/2000/svg">
<path d="M86.2034 21.042H4.68144V5.922H89.9834C91.8314 5.922 93.5534 6.3 95.1494 7.056C96.7454 7.728 98.1314 8.694 99.3074 9.954C100.483 11.13 101.407 12.516 102.079 14.112C102.751 15.624 103.087 17.22 103.087 18.9V92.988H108.883V108.108H0.523438V92.988H18.5414V47.502H35.4254V92.988H53.8214V47.502H70.7054V92.988H86.2034V21.042Z" fill="#5A5A5A"/>
<path d="M180.703 0C185.491 0 189.943 0.840002 194.059 2.52001C198.259 4.116 201.913 6.258 205.021 8.946C208.129 11.886 210.565 15.204 212.329 18.9C214.093 22.596 214.975 26.712 214.975 31.248C214.975 35.112 214.261 38.64 212.833 41.832C211.489 45.024 209.641 47.838 207.289 50.274H234.883V65.394H211.825V75.726H220.015C222.871 75.726 225.097 76.566 226.693 78.246C228.289 79.842 229.087 81.984 229.087 84.672V115.164H212.203V90.846H130.681V75.726H149.581V65.394H126.523V50.274H154.117C151.681 47.838 149.791 45.024 148.447 41.832C147.103 38.64 146.431 35.112 146.431 31.248C146.431 26.712 147.271 22.596 148.951 18.9C150.715 15.204 153.151 11.886 156.259 8.946C159.283 6.258 162.895 4.116 167.095 2.52001C171.295 0.840002 175.831 0 180.703 0ZM180.703 15.12C178.183 15.12 175.831 15.54 173.647 16.38C171.547 17.22 169.741 18.354 168.229 19.782C166.717 21.21 165.499 22.932 164.575 24.948C163.735 26.88 163.315 28.98 163.315 31.248C163.315 33.516 163.735 35.616 164.575 37.548C165.499 39.48 166.717 41.202 168.229 42.714C169.741 44.142 171.547 45.276 173.647 46.116C175.831 46.956 178.183 47.376 180.703 47.376C185.827 47.376 189.943 45.822 193.051 42.714C196.411 39.606 198.091 35.784 198.091 31.248C198.091 28.98 197.629 26.88 196.705 24.948C195.865 22.932 194.647 21.21 193.051 19.782C191.539 18.354 189.733 17.22 187.633 16.38C185.533 15.54 183.223 15.12 180.703 15.12ZM166.465 75.726H194.941V65.394H166.465V75.726Z" fill="#5A5A5A"/>
<path d="M336.691 67.284V5.922H353.575V67.284H336.691ZM299.899 48.384V34.524H269.407V48.384H299.899ZM252.523 49.266V5.922H269.407V19.404H299.899V5.922H316.657V63.504H264.619C262.939 63.504 261.343 63.168 259.831 62.496C258.403 61.74 257.143 60.732 256.051 59.472C254.959 58.128 254.077 56.616 253.405 54.936C252.817 53.172 252.523 51.282 252.523 49.266ZM344.503 73.206C347.275 73.206 349.459 74.046 351.055 75.726C352.735 77.322 353.575 79.464 353.575 82.152V115.164H336.691V88.326H258.949V73.206H344.503Z" fill="#5A5A5A"/>
<path d="M440.641 115.164V51.534H420.481V36.414H440.641V5.922H457.525V115.164H440.641ZM465.463 115.164V5.922H482.347V115.164H465.463ZM378.523 20.034C378.523 18.102 378.817 16.296 379.405 14.616C380.077 12.852 380.959 11.34 382.051 10.08C383.143 8.82 384.403 7.812 385.831 7.056C387.343 6.3 388.939 5.922 390.619 5.922H429.301V21.042H395.407V69.804H432.829V84.924H390.619C388.939 84.924 387.343 84.588 385.831 83.916C384.403 83.16 383.143 82.152 382.051 80.892C380.959 79.548 380.077 78.036 379.405 76.356C378.817 74.592 378.523 72.702 378.523 70.686V20.034Z" fill="#5A5A5A"/>
<path d="M535.015 5.796C539.887 5.796 544.381 6.804 548.497 8.82C552.697 10.752 556.351 13.482 559.459 17.01C562.399 20.538 564.751 24.654 566.515 29.358C568.279 34.062 569.161 39.186 569.161 44.73C569.161 50.274 568.279 55.398 566.515 60.102C564.751 64.806 562.399 68.964 559.459 72.576C556.351 76.104 552.697 78.834 548.497 80.766C544.381 82.698 539.887 83.664 535.015 83.664C529.975 83.664 525.397 82.698 521.281 80.766C517.249 78.834 513.679 76.104 510.571 72.576C507.547 68.964 505.153 64.806 503.389 60.102C501.709 55.398 500.869 50.274 500.869 44.73C500.869 39.186 501.709 34.062 503.389 29.358C505.153 24.654 507.547 20.538 510.571 17.01C513.679 13.482 517.249 10.752 521.281 8.82C525.397 6.804 529.975 5.796 535.015 5.796ZM535.015 20.916C529.975 20.916 525.817 23.184 522.541 27.72C519.433 32.088 517.879 37.758 517.879 44.73C517.879 51.702 519.433 57.372 522.541 61.74C525.817 66.276 529.975 68.544 535.015 68.544C539.971 68.544 544.087 66.276 547.363 61.74C550.639 57.372 552.277 51.702 552.277 44.73C552.277 37.926 550.639 32.256 547.363 27.72C544.087 23.184 539.971 20.916 535.015 20.916ZM605.701 115.164H588.817V5.922H605.701V115.164Z" fill="#5A5A5A"/>
<path d="M731.575 115.164H714.691V55.944H697.177V40.824H714.691V5.922H731.575V115.164ZM630.523 20.034C630.523 18.102 630.817 16.296 631.405 14.616C632.077 12.852 632.959 11.34 634.051 10.08C635.143 8.82 636.403 7.812 637.831 7.056C639.343 6.3 640.939 5.922 642.619 5.922H694.405V21.042H647.407V40.824H693.145V55.944H647.407V77.994H697.303V93.114H642.619C640.939 93.114 639.343 92.736 637.831 91.98C636.403 91.224 635.143 90.216 634.051 88.956C632.959 87.696 632.077 86.226 631.405 84.546C630.817 82.782 630.523 80.934 630.523 79.002V20.034Z" fill="#5A5A5A"/>
<path d="M810.703 0C815.239 0 819.313 0.714001 822.925 2.142C826.537 3.486 829.729 5.292 832.501 7.56C835.273 10.08 837.415 13.02 838.927 16.38C840.439 19.656 841.195 23.226 841.195 27.09C841.195 31.122 840.439 34.776 838.927 38.052C837.415 41.244 835.273 44.1 832.501 46.62C829.729 48.972 826.537 50.82 822.925 52.164C819.313 53.508 815.239 54.18 810.703 54.18C806.167 54.18 802.051 53.508 798.355 52.164C794.743 50.82 791.551 48.972 788.779 46.62C786.091 44.1 783.991 41.244 782.479 38.052C780.967 34.776 780.211 31.122 780.211 27.09C780.211 23.226 780.967 19.656 782.479 16.38C783.991 13.02 786.091 10.08 788.779 7.56C791.551 5.292 794.743 3.486 798.355 2.142C802.051 0.714001 806.167 0 810.703 0ZM810.703 14.49C806.671 14.49 803.395 15.666 800.875 18.018C798.355 20.286 797.095 23.31 797.095 27.09C797.095 30.954 798.355 34.02 800.875 36.288C803.395 38.556 806.671 39.69 810.703 39.69C814.735 39.69 818.011 38.556 820.531 36.288C823.051 34.02 824.311 30.954 824.311 27.09C824.311 23.31 823.051 20.286 820.531 18.018C818.011 15.666 814.735 14.49 810.703 14.49ZM841.069 69.804C843.337 72.324 845.101 75.18 846.361 78.372C847.621 81.48 848.251 84.714 848.251 88.074C848.251 93.198 847.327 97.776 845.479 101.808C843.715 105.924 841.195 109.368 837.919 112.14C831.031 118.02 821.959 120.96 810.703 120.96C805.159 120.96 800.077 120.204 795.457 118.692C790.921 117.264 787.015 115.08 783.739 112.14C776.683 106.512 773.155 98.49 773.155 88.074C773.155 84.546 773.743 81.27 774.919 78.246C776.179 75.138 777.943 72.324 780.211 69.804H756.523V56.322H864.883V69.804H841.069ZM810.703 70.308C804.403 70.308 799.447 71.946 795.835 75.222C792.223 78.414 790.417 82.698 790.417 88.074C790.417 93.618 792.223 97.944 795.835 101.052C799.447 104.244 804.403 105.84 810.703 105.84C817.087 105.84 822.043 104.244 825.571 101.052C829.183 97.944 830.989 93.618 830.989 88.074C830.989 82.698 829.183 78.414 825.571 75.222C822.043 71.946 817.087 70.308 810.703 70.308Z" fill="#5A5A5A"/>
<path d="M936.703 0C941.239 0 945.313 0.714001 948.925 2.142C952.537 3.486 955.729 5.292 958.501 7.56C961.273 10.08 963.415 13.02 964.927 16.38C966.439 19.656 967.195 23.226 967.195 27.09C967.195 30.618 966.607 33.81 965.431 36.666C964.339 39.522 962.785 42.042 960.769 44.226H967.825V56.322H990.883V69.804H967.069C969.337 72.408 971.101 75.264 972.361 78.372C973.621 81.48 974.251 84.714 974.251 88.074C974.251 93.198 973.327 97.776 971.479 101.808C969.715 105.924 967.195 109.368 963.919 112.14C957.031 118.02 947.959 120.96 936.703 120.96C931.159 120.96 926.077 120.204 921.457 118.692C916.921 117.264 913.015 115.08 909.739 112.14C902.683 106.512 899.155 98.49 899.155 88.074C899.155 84.546 899.743 81.27 900.919 78.246C902.179 75.138 903.943 72.324 906.211 69.804H882.523V56.322H905.581V44.226H912.637C910.705 42.042 909.151 39.522 907.975 36.666C906.799 33.81 906.211 30.618 906.211 27.09C906.211 23.226 906.967 19.656 908.479 16.38C909.991 13.02 912.091 10.08 914.779 7.56C917.551 5.292 920.743 3.486 924.355 2.142C928.051 0.714001 932.167 0 936.703 0ZM950.941 51.282C948.757 52.374 946.447 53.13 944.011 53.55C941.659 53.97 939.223 54.18 936.703 54.18C934.099 54.18 931.579 53.97 929.143 53.55C926.707 53.13 924.481 52.374 922.465 51.282V56.322H950.941V51.282ZM936.703 14.49C932.671 14.49 929.395 15.666 926.875 18.018C924.355 20.286 923.095 23.31 923.095 27.09C923.095 30.954 924.355 34.02 926.875 36.288C929.395 38.556 932.671 39.69 936.703 39.69C940.735 39.69 944.011 38.556 946.531 36.288C949.051 34.02 950.311 30.954 950.311 27.09C950.311 23.31 949.051 20.286 946.531 18.018C944.011 15.666 940.735 14.49 936.703 14.49ZM936.703 70.308C930.403 70.308 925.447 71.946 921.835 75.222C918.223 78.414 916.417 82.698 916.417 88.074C916.417 93.618 918.223 97.944 921.835 101.052C925.447 104.244 930.403 105.84 936.703 105.84C943.087 105.84 948.043 104.244 951.571 101.052C955.183 97.944 956.989 93.618 956.989 88.074C956.989 82.698 955.183 78.414 951.571 75.222C948.043 71.946 943.087 70.308 936.703 70.308Z" fill="#5A5A5A"/>
<path d="M1092.69 79.632V56.952H1074.3V41.832H1092.69V27.468H1074.3V12.348H1092.69V5.922H1109.58V79.632H1092.69ZM1038.26 2.142C1043.05 2.142 1047.5 3.024 1051.62 4.788C1055.73 6.468 1059.3 8.694 1062.33 11.466C1065.43 14.49 1067.83 17.976 1069.51 21.924C1071.19 25.788 1072.03 30.03 1072.03 34.65C1072.03 39.186 1071.19 43.428 1069.51 47.376C1067.83 51.324 1065.43 54.768 1062.33 57.708C1059.3 60.648 1055.73 62.958 1051.62 64.638C1047.5 66.234 1043.05 67.032 1038.26 67.032C1033.22 67.032 1028.64 66.234 1024.53 64.638C1020.41 62.958 1016.84 60.648 1013.82 57.708C1010.71 54.768 1008.31 51.324 1006.63 47.376C1005.04 43.428 1004.24 39.186 1004.24 34.65C1004.24 30.03 1005.04 25.788 1006.63 21.924C1008.31 17.976 1010.71 14.49 1013.82 11.466C1016.84 8.694 1020.41 6.468 1024.53 4.788C1028.64 3.024 1033.22 2.142 1038.26 2.142ZM1038.26 17.262C1035.74 17.262 1033.43 17.724 1031.33 18.648C1029.23 19.488 1027.42 20.706 1025.91 22.302C1024.4 23.898 1023.22 25.746 1022.38 27.846C1021.54 29.946 1021.12 32.214 1021.12 34.65C1021.12 37.17 1021.54 39.48 1022.38 41.58C1023.22 43.68 1024.4 45.486 1025.91 46.998C1027.42 48.51 1029.23 49.728 1031.33 50.652C1033.43 51.492 1035.74 51.912 1038.26 51.912C1040.7 51.912 1042.92 51.492 1044.94 50.652C1047.04 49.728 1048.84 48.51 1050.36 46.998C1051.87 45.486 1053.04 43.68 1053.88 41.58C1054.72 39.48 1055.14 37.17 1055.14 34.65C1055.14 29.862 1053.55 25.746 1050.36 22.302C1047.25 18.942 1043.22 17.262 1038.26 17.262ZM1033.22 74.97V100.044H1110.21V115.164H1029.44C1025.16 115.164 1021.88 113.862 1019.61 111.258C1017.34 108.738 1016.21 105.588 1016.21 101.808V74.97H1033.22Z" fill="#5A5A5A"/>
<path d="M1180.26 115.164V75.6H1134.52V60.48H1220.2V21.042H1138.68V5.922H1223.98C1225.83 5.922 1227.55 6.3 1229.15 7.056C1230.75 7.728 1232.13 8.694 1233.31 9.954C1234.48 11.13 1235.41 12.516 1236.08 14.112C1236.75 15.624 1237.09 17.22 1237.09 18.9V60.48H1242.88V75.6H1197.15V115.164H1180.26Z" fill="#5A5A5A"/>
<path d="M1287.74 45.108C1287.15 47.04 1285.98 49.224 1284.21 51.66C1282.53 54.096 1280.35 56.406 1277.66 58.59C1275.14 60.774 1272.16 62.706 1268.71 64.386C1265.27 65.982 1261.53 66.99 1257.5 67.41V51.66C1263.46 50.148 1268.59 46.746 1272.87 41.454C1277.16 36.078 1279.3 28.56 1279.3 18.9V5.922H1296.18V18.9C1296.18 28.476 1298.28 35.994 1302.48 41.454C1306.77 46.746 1311.93 50.148 1317.98 51.66V67.41C1313.95 66.99 1310.21 65.982 1306.77 64.386C1303.32 62.706 1300.34 60.774 1297.82 58.59C1295.05 56.406 1292.78 54.096 1291.02 51.66C1289.34 49.224 1288.24 47.04 1287.74 45.108ZM1323.65 79.884V38.556H1308.78V23.436H1323.65V5.922H1340.66V79.884H1323.65ZM1347.46 79.884V5.922H1364.35V79.884H1347.46ZM1285.35 74.97V100.044H1364.98V115.164H1281.69C1277.41 115.164 1274.13 113.862 1271.86 111.258C1269.6 108.738 1268.46 105.588 1268.46 101.808V74.97H1285.35Z" fill="#5A5A5A"/>
<path d="M1487.58 115.164H1470.69V55.944H1453.18V40.824H1470.69V5.922H1487.58V115.164ZM1386.52 20.034C1386.52 18.102 1386.82 16.296 1387.41 14.616C1388.08 12.852 1388.96 11.34 1390.05 10.08C1391.14 8.82 1392.4 7.812 1393.83 7.056C1395.34 6.3 1396.94 5.922 1398.62 5.922H1450.41V21.042H1403.41V40.824H1449.15V55.944H1403.41V77.994H1453.3V93.114H1398.62C1396.94 93.114 1395.34 92.736 1393.83 91.98C1392.4 91.224 1391.14 90.216 1390.05 88.956C1388.96 87.696 1388.08 86.226 1387.41 84.546C1386.82 82.782 1386.52 80.934 1386.52 79.002V20.034Z" fill="#5A5A5A"/>
</svg>
