<svg width="361" height="23" viewBox="0 0 361 23" fill="none" xmlns="http://www.w3.org/2000/svg">
<path d="M0.482422 19.39V1.86766H8.36895V3.88377H3.44728V9.19087H7.50914V11.4145H3.44728V17.4332H8.36895V19.39H0.482422Z" fill="black"/>
<path d="M13.8217 19.6272C13.0904 19.6272 12.4876 19.5382 12.0132 19.3603C11.5388 19.1627 11.1633 18.8958 10.8865 18.5598C10.6296 18.204 10.4517 17.7692 10.3529 17.2553C10.254 16.7216 10.2046 16.1188 10.2046 15.4467V8.12352C10.2046 7.58985 10.254 7.10558 10.3529 6.67074C10.4715 6.21613 10.6592 5.83069 10.9162 5.51444C11.1731 5.17843 11.519 4.92147 11.9539 4.74358C12.3887 4.54592 12.9422 4.44709 13.6142 4.44709C14.4048 4.44709 15.0176 4.56569 15.4524 4.80288C15.907 5.04006 16.2332 5.32667 16.4308 5.66269V0.711366H18.269V19.39H16.9942L16.8163 17.9965C16.6977 18.2535 16.5198 18.5104 16.2826 18.7674C16.0652 19.0046 15.7588 19.2121 15.3635 19.39C14.9879 19.5481 14.474 19.6272 13.8217 19.6272ZM14.1479 18.5005C14.7211 18.5005 15.1658 18.4017 15.4821 18.204C15.7983 17.9866 16.0157 17.7099 16.1343 17.3739C16.2727 17.0379 16.3518 16.6722 16.3715 16.2769C16.4111 15.8618 16.4308 15.4566 16.4308 15.0613V7.02652C16.3715 6.84863 16.2628 6.65097 16.1047 6.43355C15.9663 6.21613 15.7489 6.02835 15.4524 5.87022C15.1559 5.7121 14.7507 5.63304 14.2368 5.63304C13.6636 5.63304 13.2288 5.7121 12.9323 5.87022C12.6358 6.02835 12.4184 6.24577 12.28 6.5225C12.1614 6.77945 12.0922 7.07594 12.0725 7.41195C12.0527 7.74797 12.0428 8.09387 12.0428 8.44965V15.6839C12.0428 16.1583 12.0725 16.6129 12.1318 17.0478C12.1911 17.4826 12.369 17.8384 12.6655 18.1151C12.9619 18.3721 13.4561 18.5005 14.1479 18.5005Z" fill="black"/>
<path d="M24.6208 19.6272C23.593 19.6272 22.832 19.4493 22.3378 19.0935C21.8437 18.718 21.5275 18.2337 21.3891 17.6407C21.2507 17.0478 21.1816 16.4152 21.1816 15.7432V4.71393H23.0198V15.506C23.0198 15.9409 23.0395 16.3757 23.0791 16.8106C23.1384 17.2256 23.3261 17.5715 23.6424 17.8483C23.9586 18.1052 24.4824 18.2337 25.2138 18.2337C25.7277 18.2337 26.1329 18.1447 26.4294 17.9669C26.7258 17.789 26.9531 17.5814 27.1113 17.3442C27.2694 17.0873 27.3682 16.86 27.4078 16.6623V4.71393H29.246V19.39H27.6746L27.5264 17.789C27.3682 18.2633 27.0421 18.6883 26.548 19.0639C26.0736 19.4394 25.4312 19.6272 24.6208 19.6272Z" fill="black"/>
<path d="M32.1247 12.215V10.9105H38.1433V12.215H32.1247Z" fill="black"/>
<path d="M40.9308 19.39V1.86766H46.8308C47.8982 1.86766 48.7284 2.11473 49.3213 2.60888C49.9143 3.10302 50.2108 3.83435 50.2108 4.80288V6.84863C50.2108 7.3823 50.1317 7.86657 49.9736 8.30141C49.8352 8.71649 49.6178 9.06239 49.3213 9.33911C49.0644 9.59607 48.758 9.77396 48.4022 9.87279C48.0662 9.97162 47.75 10.0309 47.4535 10.0507C47.8093 10.0507 48.1552 10.0902 48.4912 10.1693C48.8272 10.2483 49.1336 10.4065 49.4103 10.6437C49.7265 10.9204 49.9736 11.2762 50.1515 11.711C50.3491 12.1458 50.448 12.6795 50.448 13.312V15.7432C50.448 16.7315 50.28 17.4925 49.944 18.0262C49.6277 18.5401 49.1731 18.8958 48.5801 19.0935C48.0069 19.2912 47.3151 19.39 46.5047 19.39H40.9308ZM43.777 17.8779H45.8821C46.2379 17.8779 46.5344 17.8186 46.7715 17.7C47.0285 17.5814 47.2262 17.3541 47.3645 17.0181C47.5029 16.6821 47.5721 16.1978 47.5721 15.5653V13.3417C47.5721 12.5115 47.3942 11.968 47.0384 11.711C46.7024 11.4343 46.2576 11.2959 45.7042 11.2959H43.777V17.8779ZM43.777 9.45771H45.6449C46.2379 9.45771 46.6925 9.27982 47.0087 8.92403C47.325 8.56825 47.4831 7.98516 47.4831 7.17476V5.3069C47.4831 4.65463 47.3349 4.18025 47.0384 3.88377C46.7617 3.58728 46.4059 3.43904 45.971 3.43904H43.777V9.45771Z" fill="black"/>
<path d="M53.1224 19.39V4.71393H54.9309V19.39H53.1224ZM54.0415 2.90536C53.7252 2.90536 53.4584 2.80653 53.241 2.60888C53.0235 2.39145 52.9148 2.12462 52.9148 1.80836C52.9148 1.51188 53.0235 1.26481 53.241 1.06715C53.4584 0.849727 53.7252 0.741016 54.0415 0.741016C54.338 0.741016 54.5949 0.849727 54.8123 1.06715C55.0495 1.26481 55.1681 1.51188 55.1681 1.80836C55.1681 2.12462 55.0495 2.39145 54.8123 2.60888C54.5949 2.80653 54.338 2.90536 54.0415 2.90536Z" fill="black"/>
<path d="M61.4534 22.8589C61.236 22.8589 60.979 22.849 60.6825 22.8292C60.3861 22.8095 60.0896 22.7897 59.7931 22.7699C59.5164 22.7502 59.2693 22.7205 59.0519 22.681C58.8542 22.6612 58.7257 22.6415 58.6664 22.6217V21.5543C58.9036 21.5741 59.2396 21.6136 59.6745 21.6729C60.1291 21.7322 60.5343 21.7619 60.8901 21.7619C61.1273 21.7619 61.4139 21.7421 61.7499 21.7026C62.0859 21.6828 62.412 21.5741 62.7283 21.3764C63.0643 21.1986 63.341 20.9021 63.5584 20.487C63.7956 20.0917 63.9142 19.5185 63.9142 18.7674V16.7513C63.7956 17.1268 63.6079 17.4628 63.3509 17.7593C63.1137 18.0558 62.7975 18.293 62.4022 18.4709C62.0068 18.629 61.5226 18.7081 60.9494 18.7081C60.6134 18.7081 60.2477 18.6784 59.8524 18.6191C59.4768 18.5401 59.121 18.3819 58.785 18.1448C58.4688 17.9076 58.2118 17.532 58.0142 17.0181C57.8165 16.4844 57.7177 15.7531 57.7177 14.8241V8.00493C57.7177 7.25383 57.8066 6.65097 57.9845 6.19636C58.1624 5.72198 58.3996 5.3662 58.6961 5.12901C58.9926 4.89182 59.3286 4.7337 59.7041 4.65463C60.0994 4.57557 60.5244 4.53604 60.979 4.53604C61.5918 4.53604 62.1847 4.62498 62.7579 4.80288C63.3311 4.98077 63.7166 5.35632 63.9142 5.92952L64.1218 4.77323H65.7228V18.1448C65.7228 18.9156 65.624 19.5877 65.4263 20.1609C65.2484 20.7538 64.9816 21.248 64.6258 21.6433C64.27 22.0584 63.8253 22.3647 63.2916 22.5624C62.7579 22.7601 62.1452 22.8589 61.4534 22.8589ZM61.6016 17.5221C62.2539 17.5221 62.7382 17.364 63.0544 17.0478C63.3904 16.7117 63.6079 16.2967 63.7067 15.8025C63.8253 15.2886 63.8846 14.7747 63.8846 14.2608V7.05617C63.8253 6.87828 63.7067 6.68062 63.5288 6.4632C63.3707 6.24577 63.1335 6.058 62.8172 5.89987C62.5208 5.74175 62.1156 5.66269 61.6016 5.66269C60.8703 5.66269 60.3465 5.84058 60.0303 6.19636C59.714 6.55214 59.5559 7.20441 59.5559 8.15317V15.2688C59.5559 15.7827 59.6251 16.1978 59.7634 16.5141C59.9018 16.8303 60.0797 17.0576 60.2971 17.196C60.5343 17.3344 60.7715 17.4233 61.0087 17.4628C61.2459 17.5024 61.4435 17.5221 61.6016 17.5221Z" fill="black"/>
<path d="M71.9319 19.6272C71.2005 19.6272 70.5977 19.5382 70.1233 19.3603C69.6489 19.1627 69.2734 18.8958 68.9967 18.5598C68.7397 18.204 68.5618 17.7692 68.463 17.2553C68.3642 16.7216 68.3147 16.1188 68.3147 15.4467V8.12352C68.3147 7.58985 68.3642 7.10558 68.463 6.67074C68.5816 6.21613 68.7694 5.83069 69.0263 5.51444C69.2833 5.17843 69.6292 4.92147 70.064 4.74358C70.4988 4.54592 71.0523 4.44709 71.7243 4.44709C72.515 4.44709 73.1277 4.56569 73.5625 4.80288C74.0172 5.04006 74.3433 5.32667 74.5409 5.66269V0.711366H76.3792V19.39H75.1043L74.9264 17.9965C74.8078 18.2535 74.6299 18.5104 74.3927 18.7674C74.1753 19.0046 73.8689 19.2121 73.4736 19.39C73.098 19.5481 72.5841 19.6272 71.9319 19.6272ZM72.258 18.5005C72.8312 18.5005 73.2759 18.4017 73.5922 18.204C73.9084 17.9866 74.1259 17.7099 74.2445 17.3739C74.3828 17.0379 74.4619 16.6722 74.4817 16.2769C74.5212 15.8618 74.5409 15.4566 74.5409 15.0613V7.02652C74.4816 6.84863 74.3729 6.65097 74.2148 6.43355C74.0765 6.21613 73.859 6.02835 73.5625 5.87022C73.2661 5.7121 72.8609 5.63304 72.3469 5.63304C71.7737 5.63304 71.3389 5.7121 71.0424 5.87022C70.7459 6.02835 70.5285 6.24577 70.3901 6.5225C70.2715 6.77945 70.2024 7.07594 70.1826 7.41195C70.1628 7.74797 70.153 8.09387 70.153 8.44965V15.6839C70.153 16.1583 70.1826 16.6129 70.2419 17.0478C70.3012 17.4826 70.4791 17.8384 70.7756 18.1151C71.0721 18.3721 71.5662 18.5005 72.258 18.5005Z" fill="black"/>
<path d="M82.1676 19.5975C81.713 19.5975 81.2485 19.5284 80.7741 19.39C80.3195 19.2714 79.9242 18.9848 79.5882 18.5302C79.2719 18.0558 79.1138 17.3245 79.1138 16.3362V14.9131C79.1138 13.9248 79.4103 13.1341 80.0032 12.5412C80.616 11.9284 81.4461 11.3849 82.4937 10.9105C83.1658 10.5745 83.7093 10.278 84.1244 10.021C84.5592 9.76408 84.8854 9.47747 85.1028 9.16122C85.3202 8.84497 85.4289 8.42001 85.4289 7.88633V7.26371C85.4289 6.78933 85.3301 6.42367 85.1324 6.16671C84.9348 5.90976 84.6679 5.73187 84.3319 5.63304C84.0157 5.53421 83.6797 5.48479 83.3239 5.48479C82.4344 5.48479 81.8513 5.73187 81.5746 6.22601C81.2979 6.70039 81.1595 7.41195 81.1595 8.36071V9.60595H79.4696V8.18282C79.4696 7.45149 79.5684 6.8091 79.766 6.25566C79.9637 5.68245 80.3393 5.23772 80.8927 4.92147C81.4461 4.58545 82.2565 4.41744 83.3239 4.41744C84.4505 4.41744 85.2906 4.54592 85.844 4.80288C86.4172 5.05983 86.7928 5.4255 86.9707 5.89987C87.1683 6.37425 87.2671 6.93758 87.2671 7.58984V19.39H85.4586L85.4289 17.5518C85.1917 18.2238 84.7668 18.7377 84.154 19.0935C83.5413 19.4295 82.8792 19.5975 82.1676 19.5975ZM82.8495 18.3523C83.739 18.3523 84.3814 18.036 84.7767 17.4035C85.1917 16.771 85.3993 15.931 85.3993 14.8834V10.1989C85.2016 10.5152 84.8755 10.8018 84.4209 11.0587C83.9663 11.3157 83.5018 11.5726 83.0274 11.8296C82.3554 12.2249 81.8316 12.64 81.456 13.0748C81.1002 13.4899 80.9223 14.073 80.9223 14.8241V15.9804C80.9223 16.692 81.0212 17.2158 81.2188 17.5518C81.4165 17.8878 81.6636 18.1052 81.96 18.204C82.2565 18.3029 82.553 18.3523 82.8495 18.3523Z" fill="black"/>
<path d="M93.3266 19.4196C92.8917 19.4196 92.4964 19.3702 92.1406 19.2714C91.7849 19.1726 91.4785 19.0144 91.2215 18.797C90.9646 18.5598 90.7669 18.2633 90.6286 17.9076C90.4902 17.532 90.421 17.0675 90.421 16.5141V5.87022H89.1165V4.92147L90.5396 4.71393L90.8658 1.95661H92.2592V4.71393H95.4316V5.87022H92.2592V16.1879C92.2592 16.7414 92.3581 17.2059 92.5557 17.5814C92.7534 17.957 93.1882 18.1448 93.8603 18.1448C94.137 18.1448 94.4335 18.1349 94.7497 18.1151C95.066 18.0756 95.2933 18.0558 95.4316 18.0558V19.2417C95.2735 19.2417 94.9968 19.2714 94.6015 19.3307C94.2062 19.39 93.7812 19.4196 93.3266 19.4196Z" fill="black"/>
<path d="M100.003 19.5975C99.5485 19.5975 99.084 19.5284 98.6096 19.39C98.155 19.2714 97.7597 18.9848 97.4237 18.5302C97.1074 18.0558 96.9493 17.3245 96.9493 16.3362V14.9131C96.9493 13.9248 97.2458 13.1341 97.8387 12.5412C98.4515 11.9284 99.2816 11.3849 100.329 10.9105C101.001 10.5745 101.545 10.278 101.96 10.021C102.395 9.76408 102.721 9.47747 102.938 9.16122C103.156 8.84497 103.264 8.42001 103.264 7.88633V7.26371C103.264 6.78933 103.166 6.42367 102.968 6.16671C102.77 5.90976 102.503 5.73187 102.167 5.63304C101.851 5.53421 101.515 5.48479 101.159 5.48479C100.27 5.48479 99.6868 5.73187 99.4101 6.22601C99.1334 6.70039 98.995 7.41195 98.995 8.36071V9.60595H97.3051V8.18282C97.3051 7.45149 97.4039 6.8091 97.6015 6.25566C97.7992 5.68245 98.1747 5.23772 98.7282 4.92147C99.2816 4.58545 100.092 4.41744 101.159 4.41744C102.286 4.41744 103.126 4.54592 103.68 4.80288C104.253 5.05983 104.628 5.4255 104.806 5.89987C105.004 6.37425 105.103 6.93758 105.103 7.58984V19.39H103.294L103.264 17.5518C103.027 18.2238 102.602 18.7377 101.99 19.0935C101.377 19.4295 100.715 19.5975 100.003 19.5975ZM100.685 18.3523C101.574 18.3523 102.217 18.036 102.612 17.4035C103.027 16.771 103.235 15.931 103.235 14.8834V10.1989C103.037 10.5152 102.711 10.8018 102.256 11.0587C101.802 11.3157 101.337 11.5726 100.863 11.8296C100.191 12.2249 99.6671 12.64 99.2915 13.0748C98.9357 13.4899 98.7578 14.073 98.7578 14.8241V15.9804C98.7578 16.692 98.8567 17.2158 99.0543 17.5518C99.252 17.8878 99.4991 18.1052 99.7955 18.204C100.092 18.3029 100.389 18.3523 100.685 18.3523Z" fill="black"/>
<path d="M112.217 19.39L115.626 1.86766H119.599L122.949 19.39H119.807L119.095 15.8322H115.893L115.241 19.39H112.217ZM115.952 14.3794H119.066L117.524 4.62498L115.952 14.3794Z" fill="black"/>
<path d="M124.841 22.8292V4.71393H126.56L126.62 6.01847C126.798 5.60339 127.084 5.2476 127.479 4.95112C127.875 4.65463 128.527 4.50639 129.436 4.50639C130.365 4.50639 131.077 4.66452 131.571 4.98077C132.065 5.29702 132.411 5.73187 132.609 6.28531C132.806 6.83875 132.905 7.48113 132.905 8.21247V15.4467C132.905 16.2571 132.816 16.9786 132.638 17.6111C132.46 18.2436 132.124 18.7377 131.63 19.0935C131.136 19.4295 130.405 19.5975 129.436 19.5975C128.685 19.5975 128.082 19.4789 127.628 19.2417C127.193 19.0046 126.867 18.7081 126.649 18.3523V22.8292H124.841ZM128.873 18.4709C129.426 18.4709 129.851 18.3918 130.148 18.2337C130.444 18.0756 130.662 17.868 130.8 17.6111C130.938 17.3344 131.018 17.0379 131.037 16.7216C131.057 16.3856 131.067 16.0298 131.067 15.6543V8.50895C131.067 8.1334 131.057 7.7875 131.037 7.47125C131.018 7.13523 130.938 6.82886 130.8 6.55214C130.662 6.27542 130.444 6.058 130.148 5.89987C129.851 5.74175 129.426 5.66269 128.873 5.66269C128.319 5.66269 127.895 5.76151 127.598 5.95917C127.302 6.15683 127.084 6.42367 126.946 6.75968C126.807 7.07594 126.728 7.42184 126.709 7.79739C126.689 8.17293 126.679 8.52872 126.679 8.86474V15.8618C126.679 16.3362 126.718 16.7809 126.798 17.196C126.896 17.5913 127.094 17.9076 127.391 18.1448C127.707 18.3622 128.201 18.4709 128.873 18.4709Z" fill="black"/>
<path d="M135.669 22.8292V4.71393H137.389L137.448 6.01847C137.626 5.60339 137.913 5.2476 138.308 4.95112C138.703 4.65463 139.356 4.50639 140.265 4.50639C141.194 4.50639 141.906 4.66452 142.4 4.98077C142.894 5.29702 143.24 5.73187 143.437 6.28531C143.635 6.83875 143.734 7.48113 143.734 8.21247V15.4467C143.734 16.2571 143.645 16.9786 143.467 17.6111C143.289 18.2436 142.953 18.7377 142.459 19.0935C141.965 19.4295 141.233 19.5975 140.265 19.5975C139.514 19.5975 138.911 19.4789 138.456 19.2417C138.022 19.0046 137.695 18.7081 137.478 18.3523V22.8292H135.669ZM139.702 18.4709C140.255 18.4709 140.68 18.3918 140.977 18.2337C141.273 18.0756 141.49 17.868 141.629 17.6111C141.767 17.3344 141.846 17.0379 141.866 16.7216C141.886 16.3856 141.896 16.0298 141.896 15.6543V8.50895C141.896 8.1334 141.886 7.7875 141.866 7.47125C141.846 7.13523 141.767 6.82886 141.629 6.55214C141.49 6.27542 141.273 6.058 140.977 5.89987C140.68 5.74175 140.255 5.66269 139.702 5.66269C139.148 5.66269 138.723 5.76151 138.427 5.95917C138.13 6.15683 137.913 6.42367 137.774 6.75968C137.636 7.07594 137.557 7.42184 137.537 7.79739C137.518 8.17293 137.508 8.52872 137.508 8.86474V15.8618C137.508 16.3362 137.547 16.7809 137.626 17.196C137.725 17.5913 137.923 17.9076 138.219 18.1448C138.535 18.3622 139.03 18.4709 139.702 18.4709Z" fill="black"/>
<path d="M146.498 19.39V0.592773H148.307V19.39H146.498Z" fill="black"/>
<path d="M151.449 19.39V4.71393H153.258V19.39H151.449ZM152.368 2.90536C152.052 2.90536 151.785 2.80653 151.568 2.60888C151.35 2.39145 151.242 2.12462 151.242 1.80836C151.242 1.51188 151.35 1.26481 151.568 1.06715C151.785 0.849727 152.052 0.741016 152.368 0.741016C152.665 0.741016 152.922 0.849727 153.139 1.06715C153.376 1.26481 153.495 1.51188 153.495 1.80836C153.495 2.12462 153.376 2.39145 153.139 2.60888C152.922 2.80653 152.665 2.90536 152.368 2.90536Z" fill="black"/>
<path d="M160.166 19.6568C159.197 19.6568 158.407 19.5481 157.794 19.3307C157.181 19.0935 156.736 18.6784 156.46 18.0855C156.183 17.4727 156.045 16.5833 156.045 15.4171V8.18282C156.045 6.73992 156.351 5.76151 156.964 5.2476C157.596 4.71393 158.634 4.44709 160.077 4.44709C161.48 4.44709 162.488 4.70405 163.101 5.21796C163.733 5.73187 164.05 6.68062 164.05 8.06422V9.99138H162.211V8.00493C162.211 7.155 162.073 6.54226 161.796 6.16671C161.52 5.7714 160.946 5.57374 160.077 5.57374C159.207 5.57374 158.624 5.7714 158.327 6.16671C158.031 6.54226 157.883 7.155 157.883 8.00493V15.8915C157.883 16.8402 158.031 17.5122 158.327 17.9076C158.624 18.2831 159.227 18.4709 160.136 18.4709C160.966 18.4709 161.52 18.2831 161.796 17.9076C162.073 17.532 162.211 16.86 162.211 15.8915V13.905H164.05V15.4171C164.05 16.5437 163.911 17.4134 163.635 18.0262C163.358 18.6389 162.933 19.0639 162.36 19.301C161.786 19.5382 161.055 19.6568 160.166 19.6568Z" fill="black"/>
<path d="M169.347 19.5975C168.893 19.5975 168.428 19.5284 167.954 19.39C167.499 19.2714 167.104 18.9848 166.768 18.5302C166.452 18.0558 166.293 17.3245 166.293 16.3362V14.9131C166.293 13.9248 166.59 13.1341 167.183 12.5412C167.796 11.9284 168.626 11.3849 169.673 10.9105C170.345 10.5745 170.889 10.278 171.304 10.021C171.739 9.76408 172.065 9.47747 172.282 9.16122C172.5 8.84497 172.609 8.42001 172.609 7.88633V7.26371C172.609 6.78933 172.51 6.42367 172.312 6.16671C172.114 5.90976 171.848 5.73187 171.512 5.63304C171.195 5.53421 170.859 5.48479 170.504 5.48479C169.614 5.48479 169.031 5.73187 168.754 6.22601C168.478 6.70039 168.339 7.41195 168.339 8.36071V9.60595H166.649V8.18282C166.649 7.45149 166.748 6.8091 166.946 6.25566C167.143 5.68245 167.519 5.23772 168.072 4.92147C168.626 4.58545 169.436 4.41744 170.504 4.41744C171.63 4.41744 172.47 4.54592 173.024 4.80288C173.597 5.05983 173.972 5.4255 174.15 5.89987C174.348 6.37425 174.447 6.93758 174.447 7.58984V19.39H172.638L172.609 17.5518C172.371 18.2238 171.946 18.7377 171.334 19.0935C170.721 19.4295 170.059 19.5975 169.347 19.5975ZM170.029 18.3523C170.919 18.3523 171.561 18.036 171.956 17.4035C172.371 16.771 172.579 15.931 172.579 14.8834V10.1989C172.381 10.5152 172.055 10.8018 171.601 11.0587C171.146 11.3157 170.681 11.5726 170.207 11.8296C169.535 12.2249 169.011 12.64 168.636 13.0748C168.28 13.4899 168.102 14.073 168.102 14.8241V15.9804C168.102 16.692 168.201 17.2158 168.398 17.5518C168.596 17.8878 168.843 18.1052 169.14 18.204C169.436 18.3029 169.733 18.3523 170.029 18.3523Z" fill="black"/>
<path d="M180.506 19.4196C180.071 19.4196 179.676 19.3702 179.32 19.2714C178.964 19.1726 178.658 19.0144 178.401 18.797C178.144 18.5598 177.947 18.2633 177.808 17.9076C177.67 17.532 177.601 17.0675 177.601 16.5141V5.87022H176.296V4.92147L177.719 4.71393L178.045 1.95661H179.439V4.71393H182.611V5.87022H179.439V16.1879C179.439 16.7414 179.538 17.2059 179.735 17.5814C179.933 17.957 180.368 18.1448 181.04 18.1448C181.317 18.1448 181.613 18.1349 181.929 18.1151C182.246 18.0756 182.473 18.0558 182.611 18.0558V19.2417C182.453 19.2417 182.176 19.2714 181.781 19.3307C181.386 19.39 180.961 19.4196 180.506 19.4196Z" fill="black"/>
<path d="M184.514 19.39V4.71393H186.323V19.39H184.514ZM185.433 2.90536C185.117 2.90536 184.85 2.80653 184.633 2.60888C184.416 2.39145 184.307 2.12462 184.307 1.80836C184.307 1.51188 184.416 1.26481 184.633 1.06715C184.85 0.849727 185.117 0.741016 185.433 0.741016C185.73 0.741016 185.987 0.849727 186.204 1.06715C186.442 1.26481 186.56 1.51188 186.56 1.80836C186.56 2.12462 186.442 2.39145 186.204 2.60888C185.987 2.80653 185.73 2.90536 185.433 2.90536Z" fill="black"/>
<path d="M193.142 19.5975C192.035 19.5975 191.185 19.4295 190.592 19.0935C190.019 18.7575 189.624 18.2732 189.406 17.6407C189.208 16.9885 189.11 16.2077 189.11 15.2985V8.44965C189.11 7.67879 189.208 6.99687 189.406 6.4039C189.604 5.81093 189.999 5.34643 190.592 5.01042C191.185 4.65463 192.035 4.47674 193.142 4.47674C194.269 4.47674 195.118 4.65463 195.692 5.01042C196.265 5.34643 196.65 5.81093 196.848 6.4039C197.065 6.99687 197.174 7.67879 197.174 8.44965V15.2985C197.174 16.2077 197.065 16.9885 196.848 17.6407C196.631 18.2732 196.225 18.7575 195.632 19.0935C195.059 19.4295 194.229 19.5975 193.142 19.5975ZM193.142 18.4709C193.834 18.4709 194.328 18.3325 194.624 18.0558C194.921 17.7791 195.109 17.4332 195.188 17.0181C195.286 16.5833 195.336 16.1385 195.336 15.6839V8.36071C195.336 7.9061 195.286 7.47125 195.188 7.05617C195.109 6.64109 194.921 6.30507 194.624 6.04812C194.328 5.7714 193.834 5.63304 193.142 5.63304C192.47 5.63304 191.976 5.7714 191.659 6.04812C191.343 6.30507 191.146 6.64109 191.066 7.05617C190.987 7.47125 190.948 7.9061 190.948 8.36071V15.6839C190.948 16.1385 190.987 16.5833 191.066 17.0181C191.146 17.4332 191.343 17.7791 191.659 18.0558C191.976 18.3325 192.47 18.4709 193.142 18.4709Z" fill="black"/>
<path d="M199.918 19.39V4.71393H201.43L201.667 6.31495C201.865 5.66268 202.24 5.19819 202.794 4.92147C203.347 4.62498 203.93 4.47674 204.543 4.47674C205.591 4.47674 206.351 4.66451 206.826 5.04006C207.32 5.39585 207.636 5.87023 207.775 6.4632C207.913 7.0364 207.982 7.66891 207.982 8.36071V19.39H206.144V8.5979C206.144 8.26188 206.134 7.92586 206.114 7.58984C206.095 7.25383 206.015 6.95734 205.877 6.70039C205.759 6.42367 205.551 6.20624 205.254 6.04812C204.958 5.88999 204.523 5.81093 203.95 5.81093C203.456 5.81093 203.051 5.90976 202.734 6.10741C202.438 6.28531 202.211 6.50273 202.052 6.75968C201.914 6.99687 201.815 7.22418 201.756 7.4416V19.39H199.918Z" fill="black"/>
<path d="M216.66 19.39V1.86766H222.175C223.163 1.86766 223.963 2.10485 224.576 2.57923C225.189 3.03384 225.495 3.76517 225.495 4.77323V7.61949C225.495 8.62755 225.189 9.40829 224.576 9.96173C223.983 10.5152 223.173 10.8117 222.145 10.8512V10.8215C222.777 10.8611 223.252 11.0884 223.568 11.5035C223.884 11.8988 224.161 12.5214 224.398 13.3713L226.207 19.39H224.191L222.59 13.4899C222.491 13.1144 222.362 12.7685 222.204 12.4522C222.046 12.1162 221.848 11.8395 221.611 11.6221C221.394 11.4046 221.097 11.2959 220.722 11.2959H218.587V19.39H216.66ZM218.587 10.021H221.196C222.007 10.021 222.619 9.83326 223.034 9.45771C223.449 9.06239 223.657 8.40024 223.657 7.47125V5.09936C223.657 4.34826 223.459 3.80471 223.064 3.46869C222.669 3.13267 222.204 2.96466 221.671 2.96466H218.587V10.021Z" fill="black"/>
<path d="M232.435 19.6568C231.447 19.6568 230.646 19.5481 230.033 19.3307C229.421 19.0935 228.976 18.6685 228.699 18.0558C228.422 17.4431 228.284 16.5536 228.284 15.3874V8.06422C228.284 6.70039 228.59 5.76151 229.203 5.2476C229.836 4.7337 230.873 4.47674 232.316 4.47674C233.72 4.47674 234.728 4.7337 235.34 5.2476C235.973 5.76151 236.289 6.70039 236.289 8.06422V11.8592H230.122V16.0101C230.122 16.9588 230.27 17.621 230.567 17.9965C230.863 18.3523 231.466 18.5302 232.376 18.5302C233.206 18.5302 233.759 18.3523 234.036 17.9965C234.313 17.6407 234.451 16.9786 234.451 16.0101V14.1125H236.289V15.3578C236.289 16.5042 236.151 17.3937 235.874 18.0262C235.597 18.6389 235.172 19.0639 234.599 19.301C234.046 19.5382 233.324 19.6568 232.435 19.6568ZM230.122 10.9105H234.451V7.91598C234.451 7.08582 234.313 6.48296 234.036 6.10741C233.759 5.73187 233.186 5.54409 232.316 5.54409C231.447 5.54409 230.863 5.73187 230.567 6.10741C230.27 6.48296 230.122 7.08582 230.122 7.91598V10.9105Z" fill="black"/>
<path d="M242.476 19.6272C241.527 19.6272 240.776 19.5185 240.223 19.301C239.669 19.0639 239.264 18.7575 239.007 18.3819C238.75 17.9866 238.582 17.5419 238.503 17.0478C238.424 16.5536 238.385 16.0298 238.385 15.4764V14.3794H240.253V15.7432C240.253 16.2571 240.272 16.7315 240.312 17.1663C240.371 17.5814 240.559 17.9174 240.875 18.1744C241.191 18.4116 241.715 18.5302 242.447 18.5302C243.119 18.5302 243.603 18.4116 243.899 18.1744C244.216 17.9174 244.403 17.6012 244.463 17.2256C244.542 16.8501 244.581 16.5042 244.581 16.1879V15.3578C244.581 14.8636 244.492 14.4387 244.314 14.0829C244.137 13.7271 243.85 13.4207 243.455 13.1638C243.079 12.8871 242.585 12.6301 241.972 12.3929C241.32 12.136 240.747 11.8592 240.253 11.5628C239.758 11.2663 239.363 10.8907 239.067 10.4361C238.79 9.96173 238.652 9.35888 238.652 8.62755V7.73809C238.652 6.71027 238.948 5.89987 239.541 5.3069C240.154 4.71393 241.182 4.41744 242.624 4.41744C243.573 4.41744 244.324 4.54592 244.878 4.80288C245.451 5.05983 245.866 5.47491 246.123 6.04812C246.4 6.62132 246.538 7.37242 246.538 8.30141V9.54665H244.73V8.09387C244.73 7.10558 244.562 6.43355 244.225 6.07777C243.889 5.70222 243.356 5.51444 242.624 5.51444C241.794 5.51444 241.231 5.7121 240.934 6.10741C240.658 6.50273 240.519 6.99687 240.519 7.58984V8.39036C240.519 8.96356 240.638 9.42806 240.875 9.78384C241.132 10.1396 241.488 10.446 241.943 10.7029C242.397 10.9401 242.941 11.1872 243.573 11.4442C244.146 11.6814 244.65 11.9383 245.085 12.215C245.54 12.4917 245.896 12.8574 246.153 13.312C246.41 13.7666 246.538 14.3991 246.538 15.2095V15.8915C246.538 16.5437 246.439 17.1565 246.242 17.7297C246.044 18.2831 245.659 18.7377 245.085 19.0935C244.512 19.4493 243.642 19.6272 242.476 19.6272Z" fill="black"/>
<path d="M252.992 19.6568C252.004 19.6568 251.203 19.5481 250.59 19.3307C249.978 19.0935 249.533 18.6685 249.256 18.0558C248.98 17.4431 248.841 16.5536 248.841 15.3874V8.06422C248.841 6.70039 249.148 5.76151 249.76 5.2476C250.393 4.7337 251.43 4.47674 252.873 4.47674C254.277 4.47674 255.285 4.7337 255.898 5.2476C256.53 5.76151 256.846 6.70039 256.846 8.06422V11.8592H250.679V16.0101C250.679 16.9588 250.828 17.621 251.124 17.9965C251.421 18.3523 252.023 18.5302 252.933 18.5302C253.763 18.5302 254.316 18.3523 254.593 17.9965C254.87 17.6407 255.008 16.9786 255.008 16.0101V14.1125H256.846V15.3578C256.846 16.5042 256.708 17.3937 256.431 18.0262C256.155 18.6389 255.73 19.0639 255.156 19.301C254.603 19.5382 253.881 19.6568 252.992 19.6568ZM250.679 10.9105H255.008V7.91598C255.008 7.08582 254.87 6.48296 254.593 6.10741C254.316 5.73187 253.743 5.54409 252.873 5.54409C252.004 5.54409 251.421 5.73187 251.124 6.10741C250.828 6.48296 250.679 7.08582 250.679 7.91598V10.9105Z" fill="black"/>
<path d="M262.144 19.5975C261.689 19.5975 261.225 19.5284 260.75 19.39C260.296 19.2714 259.901 18.9848 259.564 18.5302C259.248 18.0558 259.09 17.3245 259.09 16.3362V14.9131C259.09 13.9248 259.387 13.1341 259.98 12.5412C260.592 11.9284 261.422 11.3849 262.47 10.9105C263.142 10.5745 263.686 10.278 264.101 10.021C264.536 9.76408 264.862 9.47747 265.079 9.16122C265.297 8.84497 265.405 8.42001 265.405 7.88633V7.26371C265.405 6.78933 265.306 6.42367 265.109 6.16671C264.911 5.90976 264.644 5.73187 264.308 5.63304C263.992 5.53421 263.656 5.48479 263.3 5.48479C262.411 5.48479 261.828 5.73187 261.551 6.22601C261.274 6.70039 261.136 7.41195 261.136 8.36071V9.60595H259.446V8.18282C259.446 7.45149 259.545 6.8091 259.742 6.25566C259.94 5.68245 260.316 5.23772 260.869 4.92147C261.422 4.58545 262.233 4.41744 263.3 4.41744C264.427 4.41744 265.267 4.54592 265.82 4.80288C266.394 5.05983 266.769 5.4255 266.947 5.89987C267.145 6.37425 267.243 6.93758 267.243 7.58984V19.39H265.435L265.405 17.5518C265.168 18.2238 264.743 18.7377 264.13 19.0935C263.518 19.4295 262.855 19.5975 262.144 19.5975ZM262.826 18.3523C263.715 18.3523 264.358 18.036 264.753 17.4035C265.168 16.771 265.376 15.931 265.376 14.8834V10.1989C265.178 10.5152 264.852 10.8018 264.397 11.0587C263.943 11.3157 263.478 11.5726 263.004 11.8296C262.332 12.2249 261.808 12.64 261.432 13.0748C261.077 13.4899 260.899 14.073 260.899 14.8241V15.9804C260.899 16.692 260.998 17.2158 261.195 17.5518C261.393 17.8878 261.64 18.1052 261.936 18.204C262.233 18.3029 262.529 18.3523 262.826 18.3523Z" fill="black"/>
<path d="M270.131 19.39V4.71393H271.672L271.88 6.28531C272.097 5.73187 272.453 5.33655 272.947 5.09936C273.441 4.86217 273.935 4.71393 274.43 4.65463C274.983 4.53604 275.517 4.52616 276.031 4.62498V6.04812C275.952 6.00859 275.813 5.97894 275.616 5.95917C275.418 5.93941 275.2 5.93941 274.963 5.95917C274.746 5.95917 274.538 5.9987 274.341 6.07777C273.669 6.13706 273.105 6.38414 272.651 6.81898C272.196 7.23406 271.969 7.7875 271.969 8.4793V19.39H270.131Z" fill="black"/>
<path d="M281.395 19.6568C280.426 19.6568 279.636 19.5481 279.023 19.3307C278.41 19.0935 277.966 18.6784 277.689 18.0855C277.412 17.4727 277.274 16.5833 277.274 15.4171V8.18282C277.274 6.73992 277.58 5.76151 278.193 5.2476C278.825 4.71393 279.863 4.44709 281.306 4.44709C282.709 4.44709 283.717 4.70405 284.33 5.21796C284.963 5.73187 285.279 6.68062 285.279 8.06422V9.99138H283.441V8.00493C283.441 7.155 283.302 6.54226 283.026 6.16671C282.749 5.7714 282.176 5.57374 281.306 5.57374C280.436 5.57374 279.853 5.7714 279.557 6.16671C279.26 6.54226 279.112 7.155 279.112 8.00493V15.8915C279.112 16.8402 279.26 17.5122 279.557 17.9076C279.853 18.2831 280.456 18.4709 281.365 18.4709C282.195 18.4709 282.749 18.2831 283.026 17.9076C283.302 17.532 283.441 16.86 283.441 15.8915V13.905H285.279V15.4171C285.279 16.5437 285.141 17.4134 284.864 18.0262C284.587 18.6389 284.162 19.0639 283.589 19.301C283.016 19.5382 282.284 19.6568 281.395 19.6568Z" fill="black"/>
<path d="M287.908 19.39V0.711366H289.657V5.95917C289.855 5.50456 290.201 5.14878 290.695 4.89182C291.189 4.6151 291.802 4.47674 292.533 4.47674C293.581 4.47674 294.342 4.66451 294.816 5.04006C295.31 5.39585 295.627 5.87023 295.765 6.4632C295.903 7.0364 295.973 7.66891 295.973 8.36071V19.39H294.134V8.74614C294.134 8.44965 294.124 8.14329 294.105 7.82703C294.085 7.49102 294.006 7.18465 293.867 6.90793C293.749 6.63121 293.531 6.4039 293.215 6.22601C292.919 6.04812 292.494 5.95917 291.94 5.95917C291.426 5.95917 291.011 6.03823 290.695 6.19636C290.379 6.35449 290.142 6.55214 289.984 6.78933C289.845 7.00676 289.766 7.19453 289.746 7.35266V19.39H287.908Z" fill="black"/>
<path d="M308.801 19.7458C307.931 19.7458 307.161 19.6469 306.489 19.4493C305.836 19.2516 305.312 18.8464 304.917 18.2337C304.542 17.6012 304.354 16.6524 304.354 15.3874V5.51444C304.354 4.40756 304.542 3.5774 304.917 3.02396C305.312 2.47052 305.846 2.10485 306.518 1.92696C307.21 1.7293 307.981 1.63047 308.831 1.63047C309.7 1.63047 310.461 1.7293 311.114 1.92696C311.766 2.12462 312.28 2.50017 312.655 3.05361C313.031 3.60705 313.219 4.42733 313.219 5.51444V8.5979H311.351V5.48479C311.351 4.71393 311.242 4.14072 311.025 3.76517C310.807 3.36986 310.501 3.1129 310.106 2.99431C309.73 2.87572 309.295 2.81642 308.801 2.81642C308.307 2.81642 307.862 2.87572 307.467 2.99431C307.091 3.1129 306.795 3.36986 306.577 3.76517C306.38 4.14072 306.281 4.71393 306.281 5.48479V15.8915C306.281 16.6821 306.38 17.2751 306.577 17.6704C306.795 18.0459 307.091 18.293 307.467 18.4116C307.862 18.5302 308.307 18.5895 308.801 18.5895C309.315 18.5895 309.76 18.5302 310.135 18.4116C310.511 18.293 310.807 18.0459 311.025 17.6704C311.242 17.2751 311.351 16.6821 311.351 15.8915V13.2527H313.219V15.3578C313.219 16.6426 313.031 17.6012 312.655 18.2337C312.28 18.8464 311.766 19.2516 311.114 19.4493C310.461 19.6469 309.691 19.7458 308.801 19.7458Z" fill="black"/>
<path d="M319.991 19.6568C319.003 19.6568 318.202 19.5481 317.589 19.3307C316.977 19.0935 316.532 18.6685 316.255 18.0558C315.978 17.4431 315.84 16.5536 315.84 15.3874V8.06422C315.84 6.70039 316.146 5.76151 316.759 5.2476C317.392 4.7337 318.429 4.47674 319.872 4.47674C321.276 4.47674 322.284 4.7337 322.896 5.2476C323.529 5.76151 323.845 6.70039 323.845 8.06422V11.8592H317.678V16.0101C317.678 16.9588 317.827 17.621 318.123 17.9965C318.42 18.3523 319.022 18.5302 319.932 18.5302C320.762 18.5302 321.315 18.3523 321.592 17.9965C321.869 17.6407 322.007 16.9786 322.007 16.0101V14.1125H323.845V15.3578C323.845 16.5042 323.707 17.3937 323.43 18.0262C323.153 18.6389 322.728 19.0639 322.155 19.301C321.602 19.5382 320.88 19.6568 319.991 19.6568ZM317.678 10.9105H322.007V7.91598C322.007 7.08582 321.869 6.48296 321.592 6.10741C321.315 5.73187 320.742 5.54409 319.872 5.54409C319.003 5.54409 318.42 5.73187 318.123 6.10741C317.827 6.48296 317.678 7.08582 317.678 7.91598V10.9105Z" fill="black"/>
<path d="M326.474 19.39V4.71393H327.987L328.224 6.31495C328.421 5.66268 328.797 5.19819 329.35 4.92147C329.904 4.62498 330.487 4.47674 331.1 4.47674C332.147 4.47674 332.908 4.66451 333.383 5.04006C333.877 5.39585 334.193 5.87023 334.331 6.4632C334.47 7.0364 334.539 7.66891 334.539 8.36071V19.39H332.701V8.5979C332.701 8.26188 332.691 7.92586 332.671 7.58984C332.651 7.25383 332.572 6.95734 332.434 6.70039C332.315 6.42367 332.108 6.20624 331.811 6.04812C331.515 5.88999 331.08 5.81093 330.507 5.81093C330.013 5.81093 329.607 5.90976 329.291 6.10741C328.995 6.28531 328.767 6.50273 328.609 6.75968C328.471 6.99687 328.372 7.22418 328.313 7.4416V19.39H326.474Z" fill="black"/>
<path d="M340.62 19.4196C340.185 19.4196 339.79 19.3702 339.434 19.2714C339.079 19.1726 338.772 19.0144 338.515 18.797C338.258 18.5598 338.061 18.2633 337.922 17.9076C337.784 17.532 337.715 17.0675 337.715 16.5141V5.87022H336.41V4.92147L337.833 4.71393L338.159 1.95661H339.553V4.71393H342.725V5.87022H339.553V16.1879C339.553 16.7414 339.652 17.2059 339.849 17.5814C340.047 17.957 340.482 18.1448 341.154 18.1448C341.431 18.1448 341.727 18.1349 342.043 18.1151C342.36 18.0756 342.587 18.0558 342.725 18.0558V19.2417C342.567 19.2417 342.291 19.2714 341.895 19.3307C341.5 19.39 341.075 19.4196 340.62 19.4196Z" fill="black"/>
<path d="M348.395 19.6568C347.406 19.6568 346.606 19.5481 345.993 19.3307C345.38 19.0935 344.936 18.6685 344.659 18.0558C344.382 17.4431 344.244 16.5536 344.244 15.3874V8.06422C344.244 6.70039 344.55 5.76151 345.163 5.2476C345.795 4.7337 346.833 4.47674 348.276 4.47674C349.679 4.47674 350.687 4.7337 351.3 5.2476C351.933 5.76151 352.249 6.70039 352.249 8.06422V11.8592H346.082V16.0101C346.082 16.9588 346.23 17.621 346.527 17.9965C346.823 18.3523 347.426 18.5302 348.335 18.5302C349.165 18.5302 349.719 18.3523 349.996 17.9965C350.272 17.6407 350.411 16.9786 350.411 16.0101V14.1125H352.249V15.3578C352.249 16.5042 352.11 17.3937 351.834 18.0262C351.557 18.6389 351.132 19.0639 350.559 19.301C350.005 19.5382 349.284 19.6568 348.395 19.6568ZM346.082 10.9105H350.411V7.91598C350.411 7.08582 350.272 6.48296 349.996 6.10741C349.719 5.73187 349.146 5.54409 348.276 5.54409C347.406 5.54409 346.823 5.73187 346.527 6.10741C346.23 6.48296 346.082 7.08582 346.082 7.91598V10.9105Z" fill="black"/>
<path d="M354.878 19.39V4.71393H356.42L356.627 6.28531C356.845 5.73187 357.201 5.33655 357.695 5.09936C358.189 4.86217 358.683 4.71393 359.177 4.65463C359.731 4.53604 360.264 4.52616 360.778 4.62498V6.04812C360.699 6.00859 360.561 5.97894 360.363 5.95917C360.165 5.93941 359.948 5.93941 359.711 5.95917C359.493 5.95917 359.286 5.9987 359.088 6.07777C358.416 6.13706 357.853 6.38414 357.398 6.81898C356.944 7.23406 356.716 7.7875 356.716 8.4793V19.39H354.878Z" fill="black"/>
</svg>
