<svg width="348" height="90" viewBox="0 0 348 90" fill="none" xmlns="http://www.w3.org/2000/svg">
<path d="M0.479492 31.9997V2.6965H13.6684V6.0681H5.43774V14.9434H12.2305V18.662H5.43774V28.7273H13.6684V31.9997H0.479492Z" fill="black"/>
<path d="M22.7873 32.3964C21.5643 32.3964 20.5561 32.2476 19.7628 31.9501C18.9695 31.6196 18.3414 31.1733 17.8787 30.6114C17.4489 30.0164 17.1515 29.2892 16.9862 28.4298C16.8209 27.5373 16.7383 26.5291 16.7383 25.4052V13.1584C16.7383 12.2659 16.8209 11.4561 16.9862 10.7288C17.1845 9.96859 17.4985 9.32401 17.9282 8.79513C18.358 8.2332 18.9364 7.80349 19.6636 7.50599C20.3908 7.17544 21.3164 7.01017 22.4402 7.01017C23.7624 7.01017 24.7871 7.2085 25.5144 7.60516C26.2746 8.00182 26.82 8.48111 27.1506 9.04305V0.76278H30.2247V31.9997H28.0926L27.7951 29.6693C27.5968 30.099 27.2993 30.5288 26.9027 30.9585C26.5391 31.3551 26.0267 31.7022 25.3656 31.9997C24.7376 32.2642 23.8781 32.3964 22.7873 32.3964ZM23.3327 30.5122C24.2913 30.5122 25.0351 30.347 25.5639 30.0164C26.0928 29.6528 26.4564 29.19 26.6548 28.6281C26.8861 28.0662 27.0184 27.4547 27.0514 26.7936C27.1175 26.0994 27.1506 25.4218 27.1506 24.7607V11.3238C27.0514 11.0263 26.8696 10.6958 26.6052 10.3322C26.3738 9.96859 26.0102 9.65456 25.5144 9.39012C25.0185 9.12568 24.3409 8.99346 23.4815 8.99346C22.5229 8.99346 21.7957 9.12568 21.2999 9.39012C20.804 9.65456 20.4404 10.0182 20.209 10.4809C20.0107 10.9107 19.895 11.4065 19.862 11.9684C19.8289 12.5303 19.8124 13.1088 19.8124 13.7038V25.8019C19.8124 26.5952 19.862 27.3555 19.9611 28.0827C20.0603 28.8099 20.3578 29.4049 20.8536 29.8677C21.3494 30.2974 22.1758 30.5122 23.3327 30.5122Z" fill="black"/>
<path d="M40.8469 32.3964C39.1281 32.3964 37.8555 32.0989 37.0291 31.5039C36.2027 30.8758 35.6738 30.066 35.4425 29.0743C35.2111 28.0827 35.0954 27.0249 35.0954 25.9011V7.45641H38.1695V25.5044C38.1695 26.2316 38.2025 26.9588 38.2687 27.686C38.3678 28.3802 38.6818 28.9587 39.2107 29.4214C39.7396 29.8511 40.6156 30.066 41.8386 30.066C42.698 30.066 43.3756 29.9172 43.8715 29.6198C44.3673 29.3223 44.7474 28.9752 45.0119 28.5785C45.2763 28.1488 45.4416 27.7687 45.5077 27.4381V7.45641H48.5818V31.9997H45.9539L45.706 29.3223C45.4416 30.1156 44.8962 30.8263 44.0698 31.4543C43.2765 32.0823 42.2022 32.3964 40.8469 32.3964Z" fill="black"/>
<path d="M53.3959 20.0008V17.8191H63.4612V20.0008H53.3959Z" fill="black"/>
<path d="M68.1227 31.9997V2.6965H77.9896C79.7746 2.6965 81.1629 3.10968 82.1545 3.93606C83.1462 4.76243 83.642 5.98546 83.642 7.60516V11.0263C83.642 11.9188 83.5098 12.7287 83.2453 13.4559C83.014 14.15 82.6504 14.7285 82.1545 15.1913C81.7248 15.621 81.2125 15.9185 80.6175 16.0838C80.0555 16.249 79.5267 16.3482 79.0308 16.3812C79.6258 16.3812 80.2043 16.4474 80.7662 16.5796C81.3282 16.7118 81.8405 16.9762 82.3033 17.3729C82.8322 17.8357 83.2453 18.4307 83.5428 19.1579C83.8734 19.8851 84.0387 20.7776 84.0387 21.8353V25.9011C84.0387 27.5538 83.7577 28.8264 83.1958 29.7189C82.6669 30.5783 81.9066 31.1733 80.915 31.5039C79.9564 31.8344 78.7995 31.9997 77.4442 31.9997H68.1227ZM72.8826 29.471H76.403C76.9979 29.471 77.4938 29.3718 77.8904 29.1735C78.3202 28.9752 78.6507 28.595 78.8821 28.0331C79.1135 27.4712 79.2292 26.6613 79.2292 25.6036V21.8849C79.2292 20.4966 78.9317 19.5876 78.3367 19.1579C77.7747 18.6951 77.031 18.4637 76.1055 18.4637H72.8826V29.471ZM72.8826 15.3896H76.0063C76.9979 15.3896 77.7582 15.0921 78.2871 14.4971C78.816 13.9021 79.0804 12.927 79.0804 11.5718V8.44806C79.0804 7.35724 78.8325 6.56393 78.3367 6.0681C77.8739 5.57228 77.2789 5.32436 76.5517 5.32436H72.8826V15.3896Z" fill="black"/>
<path d="M88.5111 31.9997V7.45641H91.5357V31.9997H88.5111ZM90.0482 4.43188C89.5193 4.43188 89.0731 4.26661 88.7095 3.93606C88.3459 3.57245 88.1641 3.12621 88.1641 2.59733C88.1641 2.10151 88.3459 1.68832 88.7095 1.35777C89.0731 0.994166 89.5193 0.812365 90.0482 0.812365C90.544 0.812365 90.9737 0.994166 91.3373 1.35777C91.734 1.68832 91.9323 2.10151 91.9323 2.59733C91.9323 3.12621 91.734 3.57245 91.3373 3.93606C90.9737 4.26661 90.544 4.43188 90.0482 4.43188Z" fill="black"/>
<path d="M102.443 37.8009C102.08 37.8009 101.65 37.7843 101.154 37.7513C100.658 37.7182 100.163 37.6852 99.6668 37.6521C99.204 37.6191 98.7909 37.5695 98.4273 37.5034C98.0967 37.4703 97.8818 37.4372 97.7827 37.4042V35.6192C98.1793 35.6523 98.7413 35.7184 99.4685 35.8176C100.229 35.9167 100.906 35.9663 101.501 35.9663C101.898 35.9663 102.377 35.9332 102.939 35.8671C103.501 35.8341 104.047 35.6523 104.575 35.3217C105.137 35.0242 105.6 34.5284 105.964 33.8343C106.36 33.1732 106.559 32.2146 106.559 30.9585V27.5869C106.36 28.2149 106.046 28.7769 105.617 29.2727C105.22 29.7685 104.691 30.1652 104.03 30.4627C103.369 30.7271 102.559 30.8593 101.601 30.8593C101.039 30.8593 100.427 30.8097 99.766 30.7106C99.1379 30.5783 98.5429 30.3139 97.981 29.9172C97.4521 29.5206 97.0224 28.8925 96.6919 28.0331C96.3613 27.1406 96.196 25.9176 96.196 24.364V12.9601C96.196 11.704 96.3448 10.6958 96.6423 9.93553C96.9398 9.14221 97.3364 8.54722 97.8323 8.15056C98.3281 7.7539 98.89 7.48946 99.5181 7.35724C100.179 7.22502 100.89 7.15891 101.65 7.15891C102.675 7.15891 103.666 7.30766 104.625 7.60516C105.584 7.90265 106.228 8.5307 106.559 9.48929L106.906 7.55557H109.583V29.9172C109.583 31.2064 109.418 32.3303 109.087 33.2889C108.79 34.2805 108.344 35.1069 107.749 35.768C107.154 36.4621 106.41 36.9745 105.518 37.305C104.625 37.6356 103.6 37.8009 102.443 37.8009ZM102.691 28.876C103.782 28.876 104.592 28.6116 105.121 28.0827C105.683 27.5208 106.046 26.8266 106.212 26.0002C106.41 25.1408 106.509 24.2814 106.509 23.422V11.3734C106.41 11.0759 106.212 10.7454 105.914 10.3818C105.65 10.0182 105.253 9.70415 104.724 9.43971C104.228 9.17527 103.551 9.04305 102.691 9.04305C101.468 9.04305 100.592 9.34054 100.063 9.93553C99.5346 10.5305 99.2701 11.6213 99.2701 13.208V25.1078C99.2701 25.9672 99.3858 26.6613 99.6172 27.1902C99.8486 27.7191 100.146 28.0992 100.51 28.3306C100.906 28.562 101.303 28.7107 101.7 28.7769C102.096 28.843 102.427 28.876 102.691 28.876Z" fill="black"/>
<path d="M119.967 32.3964C118.744 32.3964 117.736 32.2476 116.942 31.9501C116.149 31.6196 115.521 31.1733 115.058 30.6114C114.629 30.0164 114.331 29.2892 114.166 28.4298C114.001 27.5373 113.918 26.5291 113.918 25.4052V13.1584C113.918 12.2659 114.001 11.4561 114.166 10.7288C114.364 9.96859 114.678 9.32401 115.108 8.79513C115.538 8.2332 116.116 7.80349 116.843 7.50599C117.57 7.17544 118.496 7.01017 119.62 7.01017C120.942 7.01017 121.967 7.2085 122.694 7.60516C123.454 8.00182 124 8.48111 124.33 9.04305V0.76278H127.404V31.9997H125.272L124.975 29.6693C124.776 30.099 124.479 30.5288 124.082 30.9585C123.719 31.3551 123.206 31.7022 122.545 31.9997C121.917 32.2642 121.058 32.3964 119.967 32.3964ZM120.512 30.5122C121.471 30.5122 122.215 30.347 122.744 30.0164C123.272 29.6528 123.636 29.19 123.834 28.6281C124.066 28.0662 124.198 27.4547 124.231 26.7936C124.297 26.0994 124.33 25.4218 124.33 24.7607V11.3238C124.231 11.0263 124.049 10.6958 123.785 10.3322C123.553 9.96859 123.19 9.65456 122.694 9.39012C122.198 9.12568 121.521 8.99346 120.661 8.99346C119.702 8.99346 118.975 9.12568 118.479 9.39012C117.984 9.65456 117.62 10.0182 117.389 10.4809C117.19 10.9107 117.075 11.4065 117.042 11.9684C117.009 12.5303 116.992 13.1088 116.992 13.7038V25.8019C116.992 26.5952 117.042 27.3555 117.141 28.0827C117.24 28.8099 117.537 29.4049 118.033 29.8677C118.529 30.2974 119.355 30.5122 120.512 30.5122Z" fill="black"/>
<path d="M137.084 32.3468C136.324 32.3468 135.547 32.2311 134.754 31.9997C133.994 31.8014 133.333 31.3221 132.771 30.5618C132.242 29.7685 131.977 28.5455 131.977 26.8927V24.5128C131.977 22.86 132.473 21.5378 133.465 20.5462C134.49 19.5215 135.878 18.6125 137.63 17.8191C138.754 17.2572 139.663 16.7614 140.357 16.3317C141.084 15.9019 141.63 15.4227 141.993 14.8938C142.357 14.3649 142.539 13.6542 142.539 12.7617V11.7205C142.539 10.9272 142.373 10.3157 142.043 9.88595C141.712 9.45623 141.266 9.15874 140.704 8.99346C140.175 8.82819 139.613 8.74555 139.018 8.74555C137.531 8.74555 136.556 9.15874 136.093 9.98511C135.63 10.7784 135.399 11.9684 135.399 13.555V15.6375H132.572V13.2576C132.572 12.0345 132.738 10.9602 133.068 10.0347C133.399 9.0761 134.027 8.33237 134.952 7.80349C135.878 7.24155 137.233 6.96059 139.018 6.96059C140.902 6.96059 142.307 7.17544 143.233 7.60516C144.191 8.03487 144.819 8.64639 145.117 9.43971C145.447 10.233 145.613 11.1751 145.613 12.2659V31.9997H142.588L142.539 28.9256C142.142 30.0495 141.431 30.9089 140.407 31.5039C139.382 32.0658 138.274 32.3468 137.084 32.3468ZM138.225 30.2643C139.712 30.2643 140.787 29.7354 141.448 28.6777C142.142 27.6199 142.489 26.2151 142.489 24.4632V16.6292C142.158 17.158 141.613 17.6373 140.853 18.067C140.092 18.4968 139.316 18.9265 138.522 19.3562C137.399 20.0173 136.523 20.7114 135.895 21.4387C135.3 22.1328 135.002 23.1079 135.002 24.364V26.2977C135.002 27.4877 135.167 28.3637 135.498 28.9256C135.828 29.4875 136.242 29.8511 136.737 30.0164C137.233 30.1817 137.729 30.2643 138.225 30.2643Z" fill="black"/>
<path d="M155.746 32.0493C155.019 32.0493 154.358 31.9667 153.763 31.8014C153.168 31.6361 152.655 31.3717 152.226 31.0081C151.796 30.6114 151.465 30.1156 151.234 29.5206C151.003 28.8925 150.887 28.1158 150.887 27.1902V9.39012H148.705V7.80349L151.085 7.45641L151.631 2.84524H153.961V7.45641H159.266V9.39012H153.961V26.6448C153.961 27.5703 154.126 28.3471 154.457 28.9752C154.787 29.6032 155.515 29.9172 156.639 29.9172C157.101 29.9172 157.597 29.9007 158.126 29.8677C158.655 29.8016 159.035 29.7685 159.266 29.7685V31.7518C159.002 31.7518 158.539 31.8014 157.878 31.9005C157.217 31.9997 156.506 32.0493 155.746 32.0493Z" fill="black"/>
<path d="M166.911 32.3468C166.151 32.3468 165.374 32.2311 164.581 31.9997C163.821 31.8014 163.16 31.3221 162.598 30.5618C162.069 29.7685 161.804 28.5455 161.804 26.8927V24.5128C161.804 22.86 162.3 21.5378 163.292 20.5462C164.317 19.5215 165.705 18.6125 167.457 17.8191C168.581 17.2572 169.49 16.7614 170.184 16.3317C170.911 15.9019 171.456 15.4227 171.82 14.8938C172.184 14.3649 172.365 13.6542 172.365 12.7617V11.7205C172.365 10.9272 172.2 10.3157 171.87 9.88595C171.539 9.45623 171.093 9.15874 170.531 8.99346C170.002 8.82819 169.44 8.74555 168.845 8.74555C167.358 8.74555 166.383 9.15874 165.92 9.98511C165.457 10.7784 165.226 11.9684 165.226 13.555V15.6375H162.399V13.2576C162.399 12.0345 162.565 10.9602 162.895 10.0347C163.226 9.0761 163.854 8.33237 164.779 7.80349C165.705 7.24155 167.06 6.96059 168.845 6.96059C170.729 6.96059 172.134 7.17544 173.06 7.60516C174.018 8.03487 174.646 8.64639 174.944 9.43971C175.274 10.233 175.44 11.1751 175.44 12.2659V31.9997H172.415L172.365 28.9256C171.969 30.0495 171.258 30.9089 170.233 31.5039C169.209 32.0658 168.101 32.3468 166.911 32.3468ZM168.052 30.2643C169.539 30.2643 170.614 29.7354 171.275 28.6777C171.969 27.6199 172.316 26.2151 172.316 24.4632V16.6292C171.985 17.158 171.44 17.6373 170.68 18.067C169.919 18.4968 169.143 18.9265 168.349 19.3562C167.225 20.0173 166.349 20.7114 165.721 21.4387C165.126 22.1328 164.829 23.1079 164.829 24.364V26.2977C164.829 27.4877 164.994 28.3637 165.325 28.9256C165.655 29.4875 166.069 29.8511 166.564 30.0164C167.06 30.1817 167.556 30.2643 168.052 30.2643Z" fill="black"/>
<path d="M187.337 31.9997L193.039 2.6965H199.683L205.286 31.9997H200.03L198.84 26.0498H193.485L192.394 31.9997H187.337ZM193.584 23.6203H198.79L196.212 7.30766L193.584 23.6203Z" fill="black"/>
<path d="M208.448 37.7513V7.45641H211.324L211.423 9.63803C211.721 8.94388 212.2 8.34889 212.861 7.85307C213.522 7.35724 214.613 7.10933 216.134 7.10933C217.687 7.10933 218.877 7.37377 219.704 7.90265C220.53 8.43153 221.108 9.15874 221.439 10.0843C221.769 11.0098 221.935 12.0841 221.935 13.3071V25.4052C221.935 26.7605 221.786 27.967 221.488 29.0248C221.191 30.0825 220.629 30.9089 219.803 31.5039C218.976 32.0658 217.753 32.3468 216.134 32.3468C214.878 32.3468 213.869 32.1485 213.109 31.7518C212.382 31.3551 211.836 30.8593 211.473 30.2643V37.7513H208.448ZM215.192 30.4627C216.117 30.4627 216.828 30.3304 217.324 30.066C217.819 29.8016 218.183 29.4545 218.414 29.0248C218.646 28.562 218.778 28.0662 218.811 27.5373C218.844 26.9754 218.861 26.3804 218.861 25.7523V13.803C218.861 13.1749 218.844 12.5965 218.811 12.0676C218.778 11.5056 218.646 10.9933 218.414 10.5305C218.183 10.0677 217.819 9.70415 217.324 9.43971C216.828 9.17527 216.117 9.04305 215.192 9.04305C214.266 9.04305 213.555 9.20832 213.059 9.53887C212.564 9.86942 212.2 10.3157 211.969 10.8776C211.737 11.4065 211.605 11.9849 211.572 12.613C211.539 13.241 211.522 13.836 211.522 14.3979V26.0994C211.522 26.8927 211.589 27.6365 211.721 28.3306C211.886 28.9917 212.217 29.5206 212.712 29.9172C213.241 30.2809 214.068 30.4627 215.192 30.4627Z" fill="black"/>
<path d="M226.558 37.7513V7.45641H229.433L229.532 9.63803C229.83 8.94388 230.309 8.34889 230.97 7.85307C231.631 7.35724 232.722 7.10933 234.243 7.10933C235.796 7.10933 236.986 7.37377 237.813 7.90265C238.639 8.43153 239.218 9.15874 239.548 10.0843C239.879 11.0098 240.044 12.0841 240.044 13.3071V25.4052C240.044 26.7605 239.895 27.967 239.598 29.0248C239.3 30.0825 238.738 30.9089 237.912 31.5039C237.086 32.0658 235.862 32.3468 234.243 32.3468C232.987 32.3468 231.979 32.1485 231.218 31.7518C230.491 31.3551 229.946 30.8593 229.582 30.2643V37.7513H226.558ZM233.301 30.4627C234.226 30.4627 234.937 30.3304 235.433 30.066C235.929 29.8016 236.292 29.4545 236.524 29.0248C236.755 28.562 236.887 28.0662 236.92 27.5373C236.953 26.9754 236.97 26.3804 236.97 25.7523V13.803C236.97 13.1749 236.953 12.5965 236.92 12.0676C236.887 11.5056 236.755 10.9933 236.524 10.5305C236.292 10.0677 235.929 9.70415 235.433 9.43971C234.937 9.17527 234.226 9.04305 233.301 9.04305C232.375 9.04305 231.665 9.20832 231.169 9.53887C230.673 9.86942 230.309 10.3157 230.078 10.8776C229.846 11.4065 229.714 11.9849 229.681 12.613C229.648 13.241 229.632 13.836 229.632 14.3979V26.0994C229.632 26.8927 229.698 27.6365 229.83 28.3306C229.995 28.9917 230.326 29.5206 230.822 29.9172C231.35 30.2809 232.177 30.4627 233.301 30.4627Z" fill="black"/>
<path d="M244.667 31.9997V0.564453H247.691V31.9997H244.667Z" fill="black"/>
<path d="M252.947 31.9997V7.45641H255.971V31.9997H252.947ZM254.484 4.43188C253.955 4.43188 253.509 4.26661 253.145 3.93606C252.781 3.57245 252.6 3.12621 252.6 2.59733C252.6 2.10151 252.781 1.68832 253.145 1.35777C253.509 0.994166 253.955 0.812365 254.484 0.812365C254.979 0.812365 255.409 0.994166 255.773 1.35777C256.169 1.68832 256.368 2.10151 256.368 2.59733C256.368 3.12621 256.169 3.57245 255.773 3.93606C255.409 4.26661 254.979 4.43188 254.484 4.43188Z" fill="black"/>
<path d="M267.523 32.446C265.904 32.446 264.582 32.2642 263.557 31.9005C262.532 31.5039 261.788 30.8097 261.326 29.8181C260.863 28.7934 260.631 27.3059 260.631 25.3557V13.2576C260.631 10.8445 261.144 9.20832 262.169 8.34889C263.226 7.45641 264.962 7.01017 267.375 7.01017C269.722 7.01017 271.407 7.43988 272.432 8.29931C273.49 9.15874 274.019 10.7454 274.019 13.0592V16.2821H270.945V12.9601C270.945 11.5387 270.713 10.514 270.25 9.88595C269.788 9.22485 268.829 8.8943 267.375 8.8943C265.92 8.8943 264.945 9.22485 264.449 9.88595C263.954 10.514 263.706 11.5387 263.706 12.9601V26.149C263.706 27.7356 263.954 28.8595 264.449 29.5206C264.945 30.1486 265.953 30.4627 267.474 30.4627C268.862 30.4627 269.788 30.1486 270.25 29.5206C270.713 28.8925 270.945 27.7687 270.945 26.149V22.827H274.019V25.3557C274.019 27.2398 273.787 28.6942 273.325 29.7189C272.862 30.7436 272.151 31.4543 271.193 31.851C270.234 32.2476 269.011 32.446 267.523 32.446Z" fill="black"/>
<path d="M282.878 32.3468C282.118 32.3468 281.341 32.2311 280.548 31.9997C279.788 31.8014 279.126 31.3221 278.564 30.5618C278.036 29.7685 277.771 28.5455 277.771 26.8927V24.5128C277.771 22.86 278.267 21.5378 279.259 20.5462C280.283 19.5215 281.672 18.6125 283.424 17.8191C284.547 17.2572 285.456 16.7614 286.151 16.3317C286.878 15.9019 287.423 15.4227 287.787 14.8938C288.15 14.3649 288.332 13.6542 288.332 12.7617V11.7205C288.332 10.9272 288.167 10.3157 287.836 9.88595C287.506 9.45623 287.06 9.15874 286.498 8.99346C285.969 8.82819 285.407 8.74555 284.812 8.74555C283.324 8.74555 282.349 9.15874 281.886 9.98511C281.424 10.7784 281.192 11.9684 281.192 13.555V15.6375H278.366V13.2576C278.366 12.0345 278.531 10.9602 278.862 10.0347C279.192 9.0761 279.821 8.33237 280.746 7.80349C281.672 7.24155 283.027 6.96059 284.812 6.96059C286.696 6.96059 288.101 7.17544 289.026 7.60516C289.985 8.03487 290.613 8.64639 290.91 9.43971C291.241 10.233 291.406 11.1751 291.406 12.2659V31.9997H288.382L288.332 28.9256C287.936 30.0495 287.225 30.9089 286.2 31.5039C285.175 32.0658 284.068 32.3468 282.878 32.3468ZM284.019 30.2643C285.506 30.2643 286.58 29.7354 287.241 28.6777C287.936 27.6199 288.283 26.2151 288.283 24.4632V16.6292C287.952 17.158 287.407 17.6373 286.646 18.067C285.886 18.4968 285.109 18.9265 284.316 19.3562C283.192 20.0173 282.316 20.7114 281.688 21.4387C281.093 22.1328 280.796 23.1079 280.796 24.364V26.2977C280.796 27.4877 280.961 28.3637 281.292 28.9256C281.622 29.4875 282.035 29.8511 282.531 30.0164C283.027 30.1817 283.523 30.2643 284.019 30.2643Z" fill="black"/>
<path d="M301.54 32.0493C300.812 32.0493 300.151 31.9667 299.556 31.8014C298.961 31.6361 298.449 31.3717 298.019 31.0081C297.59 30.6114 297.259 30.1156 297.028 29.5206C296.796 28.8925 296.681 28.1158 296.681 27.1902V9.39012H294.499V7.80349L296.879 7.45641L297.424 2.84524H299.755V7.45641H305.06V9.39012H299.755V26.6448C299.755 27.5703 299.92 28.3471 300.251 28.9752C300.581 29.6032 301.308 29.9172 302.432 29.9172C302.895 29.9172 303.391 29.9007 303.92 29.8677C304.449 29.8016 304.829 29.7685 305.06 29.7685V31.7518C304.796 31.7518 304.333 31.8014 303.672 31.9005C303.011 31.9997 302.3 32.0493 301.54 32.0493Z" fill="black"/>
<path d="M308.243 31.9997V7.45641H311.267V31.9997H308.243ZM309.78 4.43188C309.251 4.43188 308.805 4.26661 308.441 3.93606C308.077 3.57245 307.896 3.12621 307.896 2.59733C307.896 2.10151 308.077 1.68832 308.441 1.35777C308.805 0.994166 309.251 0.812365 309.78 0.812365C310.275 0.812365 310.705 0.994166 311.069 1.35777C311.465 1.68832 311.664 2.10151 311.664 2.59733C311.664 3.12621 311.465 3.57245 311.069 3.93606C310.705 4.26661 310.275 4.43188 309.78 4.43188Z" fill="black"/>
<path d="M322.671 32.3468C320.82 32.3468 319.398 32.0658 318.407 31.5039C317.448 30.942 316.787 30.1321 316.423 29.0743C316.093 27.9835 315.927 26.6779 315.927 25.1573V13.7038C315.927 12.4147 316.093 11.2743 316.423 10.2826C316.754 9.29096 317.415 8.51417 318.407 7.95223C319.398 7.35724 320.82 7.05975 322.671 7.05975C324.555 7.05975 325.976 7.35724 326.935 7.95223C327.893 8.51417 328.538 9.29096 328.869 10.2826C329.232 11.2743 329.414 12.4147 329.414 13.7038V25.1573C329.414 26.6779 329.232 27.9835 328.869 29.0743C328.505 30.1321 327.827 30.942 326.836 31.5039C325.877 32.0658 324.489 32.3468 322.671 32.3468ZM322.671 30.4627C323.828 30.4627 324.654 30.2313 325.15 29.7685C325.646 29.3057 325.96 28.7273 326.092 28.0331C326.257 27.3059 326.34 26.5622 326.34 25.8019V13.555C326.34 12.7948 326.257 12.0676 326.092 11.3734C325.96 10.6793 325.646 10.1173 325.15 9.68762C324.654 9.22485 323.828 8.99346 322.671 8.99346C321.547 8.99346 320.72 9.22485 320.192 9.68762C319.663 10.1173 319.332 10.6793 319.2 11.3734C319.068 12.0676 319.002 12.7948 319.002 13.555V25.8019C319.002 26.5622 319.068 27.3059 319.2 28.0331C319.332 28.7273 319.663 29.3057 320.192 29.7685C320.72 30.2313 321.547 30.4627 322.671 30.4627Z" fill="black"/>
<path d="M334.002 31.9997V7.45641H336.531L336.928 10.1339C337.258 9.04305 337.886 8.26625 338.812 7.80349C339.737 7.30766 340.712 7.05975 341.737 7.05975C343.489 7.05975 344.762 7.37377 345.555 8.00182C346.381 8.59681 346.91 9.39012 347.142 10.3818C347.373 11.3404 347.489 12.3981 347.489 13.555V31.9997H344.415V13.9517C344.415 13.3898 344.398 12.8278 344.365 12.2659C344.332 11.704 344.2 11.2081 343.968 10.7784C343.77 10.3157 343.423 9.95206 342.927 9.68762C342.431 9.42318 341.704 9.29096 340.745 9.29096C339.919 9.29096 339.241 9.45623 338.713 9.78678C338.217 10.0843 337.837 10.4479 337.572 10.8776C337.341 11.2743 337.176 11.6544 337.076 12.018V31.9997H334.002Z" fill="black"/>
<path d="M1.12402 88.9996V59.6964H10.3464C11.9991 59.6964 13.3378 60.0931 14.3625 60.8864C15.3872 61.6467 15.8996 62.8697 15.8996 64.5555V69.3154C15.8996 71.0012 15.3872 72.3069 14.3625 73.2324C13.3709 74.158 12.0156 74.6538 10.2968 74.7199V74.6703C11.3545 74.7364 12.1478 75.1165 12.6767 75.8107C13.2056 76.4718 13.6684 77.513 14.065 78.9344L17.0896 88.9996H13.718L11.0405 79.1327C10.8752 78.5047 10.6604 77.9262 10.3959 77.3973C10.1315 76.8354 9.80095 76.3726 9.40429 76.009C9.04068 75.6454 8.54486 75.4636 7.91682 75.4636H4.34688V88.9996H1.12402ZM4.34688 73.3316H8.71013C10.0654 73.3316 11.0901 73.0176 11.7842 72.3895C12.4784 71.7284 12.8255 70.6211 12.8255 69.0675V65.1009C12.8255 63.8448 12.4949 62.9358 11.8338 62.3739C11.1727 61.8119 10.3959 61.531 9.50345 61.531H4.34688V73.3316Z" fill="black"/>
<path d="M27.505 89.4459C25.8522 89.4459 24.5135 89.2641 23.4888 88.9005C22.4641 88.5038 21.7204 87.7931 21.2576 86.7684C20.7948 85.7437 20.5634 84.2562 20.5634 82.306V70.0591C20.5634 67.7783 21.0758 66.2082 22.1005 65.3488C23.1582 64.4894 24.8936 64.0597 27.3066 64.0597C29.6535 64.0597 31.3393 64.4894 32.364 65.3488C33.4218 66.2082 33.9507 67.7783 33.9507 70.0591V76.4057H23.6375V83.3472C23.6375 84.9339 23.8855 86.0412 24.3813 86.6693C24.8771 87.2642 25.8853 87.5617 27.4058 87.5617C28.7941 87.5617 29.7197 87.2642 30.1824 86.6693C30.6452 86.0743 30.8766 84.9669 30.8766 83.3472V80.174H33.9507V82.2564C33.9507 84.1736 33.7193 85.6611 33.2565 86.7188C32.7938 87.7435 32.0831 88.4542 31.1245 88.8509C30.1989 89.2475 28.9924 89.4459 27.505 89.4459ZM23.6375 74.819H30.8766V69.8112C30.8766 68.4229 30.6452 67.4147 30.1824 66.7867C29.7197 66.1587 28.7611 65.8446 27.3066 65.8446C25.8522 65.8446 24.8771 66.1587 24.3813 66.7867C23.8855 67.4147 23.6375 68.4229 23.6375 69.8112V74.819Z" fill="black"/>
<path d="M44.2975 89.3963C42.7109 89.3963 41.4548 89.2145 40.5293 88.8509C39.6037 88.4542 38.9261 87.9419 38.4964 87.3138C38.0667 86.6527 37.7857 85.909 37.6535 85.0826C37.5213 84.2562 37.4552 83.3803 37.4552 82.4547V80.6202H40.5788V82.901C40.5788 83.7604 40.6119 84.5537 40.678 85.2809C40.7772 85.9751 41.0912 86.537 41.6201 86.9667C42.149 87.3634 43.0249 87.5617 44.2479 87.5617C45.3718 87.5617 46.1817 87.3634 46.6775 86.9667C47.2064 86.537 47.5204 86.0082 47.6196 85.3801C47.7518 84.7521 47.8179 84.1736 47.8179 83.6447V82.2564C47.8179 81.43 47.6691 80.7194 47.3716 80.1244C47.0742 79.5294 46.5949 79.017 45.9338 78.5873C45.3057 78.1245 44.4793 77.6948 43.4546 77.2982C42.3638 76.8685 41.4052 76.4057 40.5788 75.9099C39.7525 75.414 39.0914 74.786 38.5956 74.0257C38.1328 73.2324 37.9014 72.2242 37.9014 71.0012V69.5137C37.9014 67.7949 38.3972 66.4396 39.3889 65.448C40.4136 64.4563 42.1324 63.9605 44.5454 63.9605C46.1321 63.9605 47.3882 64.1754 48.3137 64.6051C49.2723 65.0348 49.9665 65.7289 50.3962 66.6875C50.8589 67.6461 51.0903 68.9022 51.0903 70.4558V72.5383H48.0658V70.1087C48.0658 68.456 47.7848 67.3321 47.2229 66.7371C46.661 66.1091 45.7685 65.795 44.5454 65.795C43.1571 65.795 42.2151 66.1256 41.7192 66.7867C41.2565 67.4478 41.0251 68.2742 41.0251 69.2658V70.6045C41.0251 71.5631 41.2234 72.3399 41.6201 72.9349C42.0498 73.5299 42.6448 74.0423 43.405 74.472C44.1653 74.8686 45.0743 75.2818 46.1321 75.7115C47.0907 76.1082 47.9336 76.5379 48.6608 77.0007C49.4211 77.4634 50.016 78.075 50.4458 78.8352C50.8755 79.5955 51.0903 80.6532 51.0903 82.0085V83.1489C51.0903 84.2397 50.925 85.2644 50.5945 86.223C50.264 87.1486 49.6194 87.9088 48.6608 88.5038C47.7022 89.0988 46.2478 89.3963 44.2975 89.3963Z" fill="black"/>
<path d="M61.8834 89.4459C60.2307 89.4459 58.8919 89.2641 57.8672 88.9005C56.8425 88.5038 56.0988 87.7931 55.636 86.7684C55.1733 85.7437 54.9419 84.2562 54.9419 82.306V70.0591C54.9419 67.7783 55.4542 66.2082 56.4789 65.3488C57.5367 64.4894 59.2721 64.0597 61.6851 64.0597C64.032 64.0597 65.7178 64.4894 66.7425 65.3488C67.8002 66.2082 68.3291 67.7783 68.3291 70.0591V76.4057H58.016V83.3472C58.016 84.9339 58.2639 86.0412 58.7597 86.6693C59.2555 87.2642 60.2637 87.5617 61.7842 87.5617C63.1726 87.5617 64.0981 87.2642 64.5609 86.6693C65.0236 86.0743 65.255 84.9669 65.255 83.3472V80.174H68.3291V82.2564C68.3291 84.1736 68.0977 85.6611 67.635 86.7188C67.1722 87.7435 66.4615 88.4542 65.5029 88.8509C64.5774 89.2475 63.3709 89.4459 61.8834 89.4459ZM58.016 74.819H65.255V69.8112C65.255 68.4229 65.0236 67.4147 64.5609 66.7867C64.0981 66.1587 63.1395 65.8446 61.6851 65.8446C60.2307 65.8446 59.2555 66.1587 58.7597 66.7867C58.2639 67.4147 58.016 68.4229 58.016 69.8112V74.819Z" fill="black"/>
<path d="M77.1885 89.3467C76.4282 89.3467 75.6514 89.231 74.8581 88.9996C74.0979 88.8013 73.4368 88.322 72.8748 87.5617C72.3459 86.7684 72.0815 85.5454 72.0815 83.8926V81.5127C72.0815 79.8599 72.5773 78.5377 73.569 77.5461C74.5937 76.5214 75.982 75.6124 77.7339 74.819C78.8578 74.2571 79.7668 73.7613 80.4609 73.3316C81.1881 72.9019 81.7336 72.4226 82.0972 71.8937C82.4608 71.3648 82.6426 70.6541 82.6426 69.7616V68.7204C82.6426 67.9271 82.4773 67.3156 82.1467 66.8859C81.8162 66.4561 81.3699 66.1587 80.808 65.9934C80.2791 65.8281 79.7172 65.7455 79.1222 65.7455C77.6347 65.7455 76.6596 66.1587 76.1968 66.985C75.7341 67.7783 75.5027 68.9683 75.5027 70.555V72.6374H72.6765V70.2575C72.6765 69.0344 72.8418 67.9601 73.1723 67.0346C73.5029 66.076 74.1309 65.3323 75.0564 64.8034C75.982 64.2415 77.3372 63.9605 79.1222 63.9605C81.0063 63.9605 82.4112 64.1754 83.3367 64.6051C84.2953 65.0348 84.9234 65.6463 85.2208 66.4396C85.5514 67.2329 85.7167 68.175 85.7167 69.2658V88.9996H82.6921L82.6426 85.9255C82.2459 87.0494 81.5352 87.9088 80.5105 88.5038C79.4858 89.0657 78.3785 89.3467 77.1885 89.3467ZM78.3289 87.2642C79.8164 87.2642 80.8906 86.7354 81.5517 85.6776C82.2459 84.6198 82.593 83.215 82.593 81.4631V73.6291C82.2624 74.158 81.717 74.6372 80.9568 75.067C80.1965 75.4967 79.4197 75.9264 78.6264 76.3561C77.5025 77.0172 76.6266 77.7114 75.9985 78.4386C75.4035 79.1327 75.106 80.1078 75.106 81.3639V83.2976C75.106 84.4876 75.2713 85.3636 75.6019 85.9255C75.9324 86.4874 76.3456 86.8511 76.8414 87.0163C77.3372 87.1816 77.8331 87.2642 78.3289 87.2642Z" fill="black"/>
<path d="M90.5448 88.9996V64.4563H93.123L93.4701 67.0842C93.8337 66.1587 94.4287 65.4976 95.2551 65.1009C96.0815 64.7042 96.9078 64.4563 97.7342 64.3572C98.6598 64.1588 99.5522 64.1423 100.412 64.3076V66.6875C100.279 66.6214 100.048 66.5718 99.7175 66.5388C99.387 66.5057 99.0234 66.5057 98.6267 66.5388C98.2631 66.5388 97.916 66.6049 97.5855 66.7371C96.4616 66.8363 95.5195 67.2495 94.7593 67.9767C93.999 68.6708 93.6189 69.5964 93.6189 70.7533V88.9996H90.5448Z" fill="black"/>
<path d="M109.383 89.4459C107.763 89.4459 106.441 89.2641 105.416 88.9005C104.391 88.5038 103.648 87.8096 103.185 86.818C102.722 85.7933 102.491 84.3058 102.491 82.3556V70.2575C102.491 67.8445 103.003 66.2082 104.028 65.3488C105.085 64.4563 106.821 64.0101 109.234 64.0101C111.581 64.0101 113.267 64.4398 114.291 65.2992C115.349 66.1587 115.878 67.7453 115.878 70.0591V73.282H112.804V69.96C112.804 68.5386 112.572 67.5139 112.11 66.8859C111.647 66.2248 110.688 65.8942 109.234 65.8942C107.779 65.8942 106.804 66.2248 106.308 66.8859C105.813 67.5139 105.565 68.5386 105.565 69.96V83.1489C105.565 84.7355 105.813 85.8594 106.308 86.5205C106.804 87.1485 107.812 87.4626 109.333 87.4626C110.721 87.4626 111.647 87.1485 112.11 86.5205C112.572 85.8925 112.804 84.7686 112.804 83.1489V79.8269H115.878V82.3556C115.878 84.2397 115.647 85.6941 115.184 86.7188C114.721 87.7435 114.01 88.4542 113.052 88.8509C112.093 89.2475 110.87 89.4459 109.383 89.4459Z" fill="black"/>
<path d="M120.275 88.9996V57.7627H123.2V66.5388C123.531 65.7785 124.109 65.1835 124.936 64.7538C125.762 64.2911 126.787 64.0597 128.01 64.0597C129.762 64.0597 131.034 64.3737 131.828 65.0017C132.654 65.5967 133.183 66.39 133.414 67.3817C133.646 68.3403 133.761 69.398 133.761 70.555V88.9996H130.687V71.1995C130.687 70.7037 130.671 70.1914 130.638 69.6625C130.605 69.1005 130.472 68.5882 130.241 68.1254C130.043 67.6627 129.679 67.2825 129.15 66.985C128.654 66.6875 127.944 66.5388 127.018 66.5388C126.159 66.5388 125.464 66.671 124.936 66.9354C124.407 67.1999 124.01 67.5304 123.746 67.9271C123.514 68.2907 123.382 68.6047 123.349 68.8692V88.9996H120.275Z" fill="black"/>
<path d="M155.215 89.5946C153.761 89.5946 152.471 89.4293 151.348 89.0988C150.257 88.7682 149.381 88.0906 148.72 87.0659C148.092 86.0082 147.778 84.4215 147.778 82.306V65.795C147.778 63.944 148.092 62.5557 148.72 61.6301C149.381 60.7046 150.273 60.0931 151.397 59.7956C152.554 59.465 153.843 59.2998 155.265 59.2998C156.719 59.2998 157.992 59.465 159.082 59.7956C160.173 60.1261 161.033 60.7542 161.661 61.6797C162.289 62.6052 162.603 63.977 162.603 65.795V70.9516H159.479V65.7455C159.479 64.4563 159.297 63.4977 158.934 62.8697C158.57 62.2086 158.058 61.7789 157.397 61.5805C156.769 61.3822 156.041 61.283 155.215 61.283C154.389 61.283 153.645 61.3822 152.984 61.5805C152.356 61.7789 151.86 62.2086 151.496 62.8697C151.166 63.4977 151 64.4563 151 65.7455V83.1489C151 84.4711 151.166 85.4627 151.496 86.1238C151.86 86.7519 152.356 87.1651 152.984 87.3634C153.645 87.5617 154.389 87.6609 155.215 87.6609C156.074 87.6609 156.818 87.5617 157.446 87.3634C158.074 87.1651 158.57 86.7519 158.934 86.1238C159.297 85.4627 159.479 84.4711 159.479 83.1489V78.7361H162.603V82.2564C162.603 84.405 162.289 86.0082 161.661 87.0659C161.033 88.0906 160.173 88.7682 159.082 89.0988C157.992 89.4293 156.702 89.5946 155.215 89.5946Z" fill="black"/>
<path d="M173.928 89.4459C172.275 89.4459 170.937 89.2641 169.912 88.9005C168.887 88.5038 168.143 87.7931 167.681 86.7684C167.218 85.7437 166.987 84.2562 166.987 82.306V70.0591C166.987 67.7783 167.499 66.2082 168.524 65.3488C169.581 64.4894 171.317 64.0597 173.73 64.0597C176.077 64.0597 177.762 64.4894 178.787 65.3488C179.845 66.2082 180.374 67.7783 180.374 70.0591V76.4057H170.061V83.3472C170.061 84.9339 170.309 86.0412 170.804 86.6693C171.3 87.2642 172.308 87.5617 173.829 87.5617C175.217 87.5617 176.143 87.2642 176.606 86.6693C177.068 86.0743 177.3 84.9669 177.3 83.3472V80.174H180.374V82.2564C180.374 84.1736 180.142 85.6611 179.68 86.7188C179.217 87.7435 178.506 88.4542 177.548 88.8509C176.622 89.2475 175.416 89.4459 173.928 89.4459ZM170.061 74.819H177.3V69.8112C177.3 68.4229 177.068 67.4147 176.606 66.7867C176.143 66.1587 175.184 65.8446 173.73 65.8446C172.275 65.8446 171.3 66.1587 170.804 66.7867C170.309 67.4147 170.061 68.4229 170.061 69.8112V74.819Z" fill="black"/>
<path d="M184.771 88.9996V64.4563H187.299L187.696 67.1338C188.027 66.043 188.655 65.2662 189.58 64.8034C190.506 64.3076 191.481 64.0597 192.506 64.0597C194.258 64.0597 195.53 64.3737 196.323 65.0017C197.15 65.5967 197.679 66.39 197.91 67.3817C198.141 68.3403 198.257 69.398 198.257 70.555V88.9996H195.183V70.9516C195.183 70.3897 195.167 69.8278 195.133 69.2658C195.1 68.7039 194.968 68.2081 194.737 67.7783C194.538 67.3156 194.191 66.952 193.696 66.6875C193.2 66.4231 192.473 66.2909 191.514 66.2909C190.688 66.2909 190.01 66.4561 189.481 66.7867C188.985 67.0842 188.605 67.4478 188.341 67.8775C188.109 68.2742 187.944 68.6543 187.845 69.0179V88.9996H184.771Z" fill="black"/>
<path d="M208.427 89.0492C207.7 89.0492 207.039 88.9666 206.444 88.8013C205.849 88.636 205.337 88.3716 204.907 88.008C204.477 87.6113 204.147 87.1155 203.915 86.5205C203.684 85.8925 203.568 85.1157 203.568 84.1901V66.39H201.387V64.8034L203.767 64.4563L204.312 59.8452H206.642V64.4563H211.948V66.39H206.642V83.6447C206.642 84.5703 206.808 85.3471 207.138 85.9751C207.469 86.6031 208.196 86.9172 209.32 86.9172C209.783 86.9172 210.278 86.9006 210.807 86.8676C211.336 86.8015 211.716 86.7684 211.948 86.7684V88.7517C211.683 88.7517 211.221 88.8013 210.559 88.9005C209.898 88.9996 209.188 89.0492 208.427 89.0492Z" fill="black"/>
<path d="M221.428 89.4459C219.776 89.4459 218.437 89.2641 217.412 88.9005C216.388 88.5038 215.644 87.7931 215.181 86.7684C214.718 85.7437 214.487 84.2562 214.487 82.306V70.0591C214.487 67.7783 214.999 66.2082 216.024 65.3488C217.082 64.4894 218.817 64.0597 221.23 64.0597C223.577 64.0597 225.263 64.4894 226.287 65.3488C227.345 66.2082 227.874 67.7783 227.874 70.0591V76.4057H217.561V83.3472C217.561 84.9339 217.809 86.0412 218.305 86.6693C218.801 87.2642 219.809 87.5617 221.329 87.5617C222.718 87.5617 223.643 87.2642 224.106 86.6693C224.569 86.0743 224.8 84.9669 224.8 83.3472V80.174H227.874V82.2564C227.874 84.1736 227.643 85.6611 227.18 86.7188C226.717 87.7435 226.007 88.4542 225.048 88.8509C224.122 89.2475 222.916 89.4459 221.428 89.4459ZM217.561 74.819H224.8V69.8112C224.8 68.4229 224.569 67.4147 224.106 66.7867C223.643 66.1587 222.685 65.8446 221.23 65.8446C219.776 65.8446 218.801 66.1587 218.305 66.7867C217.809 67.4147 217.561 68.4229 217.561 69.8112V74.819Z" fill="black"/>
<path d="M232.271 88.9996V64.4563H234.849L235.196 67.0842C235.56 66.1587 236.155 65.4976 236.981 65.1009C237.808 64.7042 238.634 64.4563 239.461 64.3572C240.386 64.1588 241.279 64.1423 242.138 64.3076V66.6875C242.006 66.6214 241.774 66.5718 241.444 66.5388C241.113 66.5057 240.75 66.5057 240.353 66.5388C239.989 66.5388 239.642 66.6049 239.312 66.7371C238.188 66.8363 237.246 67.2495 236.486 67.9767C235.725 68.6708 235.345 69.5964 235.345 70.7533V88.9996H232.271Z" fill="black"/>
</svg>
