<svg width="2043" height="151" viewBox="0 0 2043 151" fill="none" xmlns="http://www.w3.org/2000/svg">
<path fill-rule="evenodd" clip-rule="evenodd" d="M29.2929 33.2145L29.0438 34.1508L28.363 34.8308L27.4255 35.0795L26.4976 34.8294L25.8181 34.1508L25.5691 33.2145L25.8194 32.2878L26.4976 31.6106L27.4255 31.3605L28.363 31.6092L29.0425 32.2878L29.2929 33.2145ZM103.328 33.2155L103.12 34.2734L102.519 35.1681L101.623 35.7683L100.564 35.9755L99.5132 35.7678L98.618 35.1681L98.017 34.2734L97.8095 33.2155L98.0175 32.1658L98.618 31.2718L99.5132 30.6722L100.564 30.4645L101.623 30.6717L102.519 31.2718L103.12 32.1658L103.328 33.2155ZM87.7796 33.216L87.6055 34.5895L87.0925 35.8659L86.2851 36.9757L85.2237 37.8533L83.9806 38.435L82.6326 38.6955L81.2576 38.6086L79.9454 38.1833L78.7804 37.4453L77.8399 36.4452L77.18 35.2399L76.8324 33.912V32.528L77.18 31.2L77.8399 29.9948L78.7804 28.9946L79.9454 28.2567L81.2576 27.8314L82.6326 27.7445L83.9806 28.005L85.2237 28.5867L86.2851 29.4642L87.0925 30.5741L87.6054 31.8502L87.7796 33.216ZM107.889 51.4802L107.724 53.002L107.253 54.4543L106.49 55.7785L105.465 56.9105L104.232 57.8112L102.83 58.4322L101.333 58.7462H99.8043L98.3069 58.4322L96.9057 57.8112L95.6728 56.9105L94.6469 55.7785L93.8857 54.4564L93.4058 53.002L93.2484 51.4802L93.4058 49.9583L93.8857 48.504L94.6469 47.1818L95.6728 46.0499L96.9057 45.1491L98.3069 44.5281L99.8043 44.2142H101.333L102.83 44.5281L104.232 45.1491L105.465 46.0499L106.49 47.1818L107.253 48.506L107.724 49.9583L107.889 51.4802ZM51.2108 69.7364L51.0367 71.1098L50.5237 72.3863L49.7162 73.4961L48.6548 74.3737L47.4117 74.9553L46.0638 75.2159L44.6888 75.129L43.3765 74.7037L42.2116 73.9657L41.271 72.9655L40.6112 71.7603L40.2635 70.4323V69.0484L40.6112 67.7204L41.271 66.5152L42.2116 65.515L43.3765 64.777L44.6888 64.3518L46.0638 64.2649L47.4117 64.5254L48.6548 65.107L49.7162 65.9846L50.5237 67.0945L51.0366 68.3706L51.2108 69.7364ZM11.911 51.4802L11.6928 52.5372L11.102 53.4331L10.2049 54.023L9.14655 54.241L8.08821 54.023L7.19448 53.4353L6.59126 52.5372L6.38398 51.4802L6.59126 50.4232L7.19448 49.5251L8.0882 48.9373L9.14655 48.7194L10.2049 48.9373L11.102 49.5273L11.6928 50.4232L11.911 51.4802ZM105.15 69.7363L104.978 70.9769L104.479 72.117L103.692 73.0845L102.675 73.8006L101.5 74.216L100.258 74.3065L99.0308 74.0523L97.9259 73.4734L97.0124 72.6243L96.3673 71.5627L96.0323 70.3601V69.1206L96.3673 67.918L97.0124 66.8564L97.9259 66.0073L99.0308 65.4285L100.258 65.1742L101.5 65.2647L102.675 65.6801L103.692 66.3962L104.479 67.3637L104.978 68.5034L105.15 69.7363ZM125.259 69.7364L125.098 71.1626L124.624 72.5144L123.856 73.7291L122.843 74.7407L121.634 75.5008L120.281 75.9737L118.853 76.134L117.425 75.9737L116.074 75.5013L114.857 74.7418L113.841 73.7274L113.081 72.5122L112.608 71.1626L112.447 69.7364L112.608 68.3179L113.081 66.9685L113.841 65.7533L114.857 64.7389L116.074 63.9794L117.425 63.5071L118.853 63.3468L120.281 63.5071L121.634 63.9799L122.843 64.7399L123.856 65.7517L124.624 66.9663L125.098 68.3179L125.259 69.7364ZM18.2935 88.0005L18.1326 89.6799L17.6745 91.3012L16.9254 92.8053L15.9037 94.1551L14.6579 95.2869L13.2247 96.1794L11.6476 96.7821L9.99221 97.0951H8.30087L6.64544 96.7821L5.06836 96.1794L3.63519 95.2869L2.38936 94.1551L1.36766 92.8053L0.619559 91.303L0.152875 89.6799L0 88.0005L0.152875 86.3212L0.619288 84.699L1.36765 83.1881L2.39035 81.8451L3.6352 80.7142L5.06662 79.8228L6.64545 79.2114L8.30303 78.906H9.99005L11.6476 79.2114L13.2265 79.8228L14.6579 80.7142L15.9027 81.8451L16.9254 83.1881L17.6747 84.7009L18.1326 86.3212L18.2935 88.0005ZM16.4632 106.257L16.3061 107.777L15.8337 109.233L15.065 110.554L14.0465 111.695L12.8027 112.59L11.4069 113.208L9.90973 113.53H8.37558L6.88565 113.208L5.49041 112.59L4.24805 111.696L3.22034 110.554L2.45874 109.231L1.987 107.777L1.82986 106.257L1.98708 104.745L2.45874 103.29L3.22034 101.967L4.24805 100.825L5.48855 99.9332L6.88567 99.3058L8.37805 98.9911H9.90727L11.4069 99.3055L12.8045 99.9332L14.0465 100.826L15.065 101.967L15.8337 103.288L16.306 104.745L16.4632 106.257ZM15.5523 69.7364L15.3917 71.1626L14.9179 72.5144L14.1493 73.7291L13.1363 74.7407L11.9271 75.5008L10.5743 75.9737L9.14655 76.134L7.71884 75.9737L6.3674 75.5013L5.15059 74.7418L4.13489 73.7274L3.37438 72.5122L2.90138 71.1626L2.74083 69.7364L2.90148 68.3179L3.37438 66.9685L4.13489 65.7533L5.15059 64.7389L6.36741 63.9794L7.71884 63.5071L9.14655 63.3468L10.5743 63.5071L11.927 63.9799L13.1363 64.7399L14.1493 65.7517L14.9179 66.9663L15.3916 68.3179L15.5523 69.7364ZM128 88.0005L127.839 89.6799L127.381 91.3012L126.632 92.8053L125.61 94.1551L124.364 95.2869L122.931 96.1794L121.354 96.7821L119.699 97.0951H118.007L116.352 96.7821L114.775 96.1794L113.342 95.2869L112.096 94.1551L111.074 92.8053L110.326 91.303L109.859 89.6799L109.707 88.0005L109.859 86.3212L110.326 84.699L111.074 83.1881L112.097 81.8451L113.342 80.7142L114.773 79.8228L116.352 79.2114L118.01 78.906H119.697L121.354 79.2114L122.933 79.8228L124.364 80.7142L125.609 81.8451L126.632 83.1881L127.381 84.7009L127.839 86.3212L128 88.0005ZM126.17 106.257L126.013 107.777L125.54 109.233L124.772 110.554L123.753 111.695L122.509 112.59L121.114 113.208L119.616 113.53H118.082L116.592 113.208L115.197 112.59L113.955 111.696L112.927 110.554L112.165 109.231L111.694 107.777L111.536 106.257L111.694 104.745L112.165 103.29L112.927 101.967L113.955 100.825L115.195 99.9332L116.592 99.3058L118.085 98.9911H119.614L121.114 99.3055L122.511 99.9332L123.753 100.826L124.772 101.967L125.54 103.288L126.013 104.745L126.17 106.257ZM121.618 124.521L121.399 125.578L120.809 126.474L119.911 127.064L118.853 127.282L117.795 127.064L116.901 126.476L116.298 125.578L116.091 124.521L116.298 123.464L116.901 122.566L117.795 121.978L118.853 121.76L119.911 121.978L120.809 122.568L121.399 123.464L121.618 124.521ZM102.431 142.776L102.182 143.712L101.501 144.392L100.563 144.641L99.6353 144.39L98.9558 143.712L98.7068 142.776L98.9571 141.849L99.6353 141.172L100.563 140.922L101.501 141.17L102.18 141.849L102.431 142.776ZM32.0124 88.0005L31.84 89.2326L31.3418 90.3817L30.554 91.3402L29.5401 92.0635L28.3587 92.4809L27.1173 92.5624L25.896 92.3094L24.7904 91.7392L23.8734 90.887L23.2296 89.8184L22.8946 88.6248V87.3763L23.2296 86.1827L23.8734 85.1142L24.7904 84.2618L25.896 83.6916L27.1173 83.4387L28.3587 83.5201L29.5401 83.9376L30.554 84.6609L31.3418 85.6194L31.84 86.7685L32.0124 88.0005ZM31.0951 106.257L30.9212 107.395L30.3967 108.413L29.5853 109.224L28.5582 109.746L27.4273 109.92L26.2947 109.746L25.2754 109.223L24.4652 108.413L23.9425 107.398L23.7584 106.256L23.9428 105.122L24.4652 104.108L25.2754 103.299L26.2947 102.775L27.4273 102.601L28.5582 102.775L29.5853 103.298L30.3967 104.108L30.9209 105.126L31.0951 106.257ZM11.0053 124.521L10.7545 125.449L10.0763 126.127L9.14656 126.377L8.22185 126.128L7.52756 125.449L7.29142 124.521L7.52756 123.592L8.22184 122.914L9.14656 122.665L10.0763 122.915L10.7545 123.592L11.0053 124.521ZM87.7796 142.777L87.6055 144.151L87.0925 145.427L86.2851 146.537L85.2237 147.414L83.9806 147.996L82.6326 148.257L81.2576 148.17L79.9454 147.744L78.7804 147.006L77.8399 146.006L77.18 144.801L76.8324 143.473V142.089L77.18 140.761L77.8399 139.556L78.7804 138.556L79.9454 137.818L81.2576 137.393L82.6326 137.306L83.9806 137.566L85.2237 138.148L86.2851 139.025L87.0925 140.135L87.6054 141.411L87.7796 142.777ZM53.0321 142.777L52.8749 144.297L52.4025 145.754L51.6339 147.074L50.6154 148.216L49.3715 149.11L47.9758 149.729L46.4786 150.051H44.9444L43.4545 149.728L42.0593 149.11L40.8169 148.217L39.7892 147.074L39.0276 145.752L38.5558 144.297L38.3987 142.777L38.5559 141.265L39.0276 139.811L39.7892 138.488L40.8169 137.346L42.0574 136.454L43.4545 135.826L44.9469 135.512H46.4761L47.9758 135.826L49.3734 136.454L50.6154 137.347L51.6339 138.488L52.4025 139.808L52.8749 141.265L53.0321 142.777ZM30.1901 142.777L29.9826 143.834L29.3817 144.729L28.4857 145.329L27.4264 145.537L26.3754 145.329L25.4803 144.729L24.8793 143.834L24.6718 142.777L24.8798 141.727L25.4803 140.833L26.3754 140.233L27.4264 140.026L28.4857 140.233L29.3817 140.833L29.9821 141.727L30.1901 142.777ZM26.6385 33.6789L26.9714 34.0114L27.4273 34.1343L27.8905 34.0114L28.2234 33.6789L28.3465 33.2164L28.2234 32.761L27.8905 32.4286L27.4273 32.3057L26.9714 32.4286L26.6385 32.761L26.5155 33.2164L26.6385 33.6789ZM101.86 31.9299L101.267 31.5324L100.565 31.3951L99.8703 31.5324L99.2768 31.9299L98.8788 32.5225L98.7413 33.2164L98.8788 33.9174L99.2768 34.5101L99.8703 34.9076L100.565 35.0449L101.267 34.9076L101.86 34.5101L102.259 33.9174L102.396 33.2164L102.259 32.5225L101.86 31.9299ZM86.2863 31.0192L86.7133 32.0817L86.8581 33.2164L86.7133 34.3583L86.2863 35.4207L85.6133 36.3459L84.7304 37.0758L83.6955 37.5601L82.5737 37.7769L81.4303 37.7046L80.3375 37.3505L79.3677 36.7362L78.5861 35.905L78.0361 34.9004L77.7466 33.7946V32.6454L78.0361 31.5396L78.5861 30.535L79.3677 29.7038L80.3375 29.0895L81.4303 28.7353L82.5737 28.6631L83.6955 28.8799L84.7304 29.3641L85.6133 30.0941L86.2863 31.0192ZM106.413 48.8783L106.825 50.1503L106.97 51.4802L106.825 52.81L106.413 54.0821L105.747 55.2384L104.849 56.2286L103.771 57.0164L102.548 57.5585L101.238 57.8331H99.8992L98.5893 57.5585L97.3663 57.0164L96.2879 56.2286L95.3905 55.2384L94.7248 54.0821L94.305 52.81L94.1675 51.4802L94.305 50.1503L94.7248 48.8783L95.3905 47.7219L96.2879 46.7317L97.3663 45.9439L98.5893 45.4019L99.8992 45.1272H101.238L102.548 45.4019L103.771 45.9439L104.849 46.7317L105.747 47.7219L106.413 48.8783ZM49.7175 67.5396L50.1445 68.602L50.2892 69.7367L50.1445 70.8787L49.7175 71.9411L49.0444 72.8662L48.1615 73.5962L47.1266 74.0805L46.0049 74.2973L44.8614 74.225L43.7686 73.8708L42.7989 73.2565L42.0173 72.4254L41.4672 71.4207L41.1778 70.3149V69.1658L41.4672 68.06L42.0173 67.0554L42.7989 66.2242L43.7686 65.6099L44.8614 65.2557L46.0049 65.1834L47.1266 65.4003L48.1615 65.8845L49.0444 66.6145L49.7175 67.5396ZM10.442 50.1865L10.8328 50.7791L10.9775 51.4802L10.8328 52.1812L10.442 52.7739L9.84855 53.1642L9.14655 53.3087L8.44456 53.1642L7.85111 52.7739L7.45306 52.1812L7.31558 51.4802L7.45306 50.7791L7.85111 50.1865L8.44456 49.7962L9.14655 49.6516L9.84855 49.7962L10.442 50.1865ZM103.691 67.8431L104.09 68.7538L104.227 69.7367L104.09 70.7269L103.691 71.6376L103.062 72.4109L102.251 72.9819L101.31 73.3143L100.319 73.3866L99.342 73.1842L98.4591 72.7217L97.7281 72.0423L97.2143 71.1967L96.9465 70.2354V69.2453L97.2143 68.284L97.7281 67.4384L98.4591 66.759L99.342 66.2965L100.319 66.0941L101.31 66.1664L102.251 66.4988L103.062 67.0698L103.691 67.8431ZM123.796 67.3661L123.137 66.3254L122.269 65.4581L121.234 64.8076L120.076 64.4029L118.853 64.2656L117.63 64.4029L116.472 64.8076L115.43 65.4581L114.562 66.3254L113.91 67.3661L113.505 68.5225L113.367 69.7367L113.505 70.9582L113.91 72.1146L114.562 73.1553L115.43 74.0226L116.472 74.6731L117.63 75.0778L118.853 75.2152L120.076 75.0778L121.234 74.6731L122.269 74.0226L123.137 73.1553L123.796 72.1146L124.201 70.9582L124.339 69.7367L124.201 68.5225L123.796 67.3661ZM16.8178 85.0301L17.2303 86.49L17.3751 88.0005L17.2303 89.5111L16.8178 90.971L16.1448 92.3226L15.2257 93.5368L14.1039 94.5558L12.8157 95.3581L11.3973 95.9002L9.90643 96.182H8.38665L6.89582 95.9002L5.47736 95.3581L4.18916 94.5558L3.06741 93.5368L2.14831 92.3226L1.47527 90.971L1.05551 89.5111L0.917999 88.0005L1.05551 86.49L1.47527 85.0301L2.14831 83.6713L3.06741 82.4643L4.18916 81.4452L5.47736 80.643L6.89582 80.0937L8.38665 79.8191H9.90643L11.3973 80.0937L12.8157 80.643L14.1039 81.4452L15.2257 82.4643L16.1448 83.6713L16.8178 85.0301ZM14.9941 103.662L15.4066 104.934L15.5441 106.257L15.4066 107.587L14.9941 108.859L14.321 110.015L13.4309 111.013L12.3453 111.793L11.1223 112.335L9.81235 112.617H8.47349L7.17083 112.335L5.94776 111.793L4.8622 111.013L3.96482 110.015L3.299 108.859L2.88648 107.587L2.74897 106.257L2.88648 104.934L3.299 103.662L3.96482 102.506L4.8622 101.509L5.94776 100.728L7.17083 100.179L8.47349 99.9042H9.81235L11.1223 100.179L12.3453 100.728L13.4309 101.509L14.321 102.506L14.9941 103.662ZM14.0895 67.3661L13.4309 66.3254L12.5624 65.4581L11.5275 64.8076L10.3696 64.4029L9.14655 64.2656L7.92349 64.4029L6.76555 64.8076L5.72342 65.4581L4.85496 66.3254L4.20363 67.3661L3.79836 68.5225L3.66085 69.7367L3.79836 70.9582L4.20363 72.1146L4.85496 73.1553L5.72342 74.0226L6.76555 74.6731L7.92349 75.0778L9.14655 75.2152L10.3696 75.0778L11.5275 74.6731L12.5624 74.0226L13.4309 73.1553L14.0895 72.1146L14.4947 70.9582L14.6322 69.7367L14.4947 68.5225L14.0895 67.3661ZM126.524 85.0301L125.851 83.6713L124.932 82.4643L123.81 81.4452L122.522 80.643L121.104 80.0937L119.613 79.8191H118.093L116.602 80.0937L115.184 80.643L113.896 81.4452L112.774 82.4643L111.855 83.6713L111.182 85.0301L110.762 86.49L110.625 88.0005L110.762 89.5111L111.182 90.971L111.855 92.3226L112.774 93.5368L113.896 94.5558L115.184 95.3581L116.602 95.9002L118.093 96.182H119.613L121.104 95.9002L122.522 95.3581L123.81 94.5558L124.932 93.5368L125.851 92.3226L126.524 90.971L126.937 89.5111L127.082 88.0005L126.937 86.49L126.524 85.0301ZM124.701 103.662L125.113 104.934L125.251 106.257L125.113 107.587L124.701 108.859L124.028 110.015L123.137 111.013L122.052 111.793L120.829 112.335L119.519 112.617H118.18L116.877 112.335L115.654 111.793L114.569 111.013L113.671 110.015L113.006 108.859L112.593 107.587L112.456 106.257L112.593 104.934L113.006 103.662L113.671 102.506L114.569 101.509L115.654 100.728L116.877 100.179L118.18 99.9042H119.519L120.829 100.179L122.052 100.728L123.137 101.509L124.028 102.506L124.701 103.662ZM120.149 123.227L119.555 122.837L118.853 122.692L118.151 122.837L117.558 123.227L117.16 123.82L117.022 124.521L117.16 125.222L117.558 125.815L118.151 126.205L118.853 126.349L119.555 126.205L120.149 125.815L120.539 125.222L120.684 124.521L120.539 123.82L120.149 123.227ZM99.7762 143.24L99.6532 142.777L99.7762 142.322L100.109 141.99L100.565 141.867L101.028 141.99L101.361 142.322L101.484 142.777L101.361 143.24L101.028 143.572L100.565 143.695L100.109 143.572L99.7762 143.24ZM30.5538 86.0997L29.9241 85.3336L29.1136 84.7554L28.1728 84.4229L27.1813 84.3579L26.2043 84.5603L25.3214 85.0156L24.5904 85.695L24.0766 86.5478L23.8088 87.5019V88.4992L24.0766 89.4533L24.5904 90.3061L25.3214 90.9855L26.2043 91.4408L27.1813 91.6432L28.1728 91.5781L29.1136 91.2457L29.9241 90.6675L30.5538 89.9014L30.9518 88.9835L31.0893 88.0005L30.9518 87.0176L30.5538 86.0997ZM29.6491 104.653L29.0412 104.046L28.2741 103.655L27.4273 103.525L26.5806 103.655L25.8207 104.046L25.2128 104.653L24.822 105.411L24.6845 106.257L24.822 107.11L25.2128 107.869L25.8207 108.476L26.5806 108.866L27.4273 108.996L28.2741 108.866L29.0412 108.476L29.6491 107.869L30.0399 107.11L30.1702 106.257L30.0399 105.411L29.6491 104.653ZM10.0584 124.521L9.93539 124.976L9.60247 125.309L9.14655 125.432L8.69061 125.309L8.35047 124.976L8.23468 124.521L8.35047 124.066L8.69061 123.733L9.14655 123.61L9.60247 123.733L9.93539 124.066L10.0584 124.521ZM86.8581 142.777L86.7133 141.643L86.2863 140.58L85.6133 139.655L84.7304 138.925L83.6955 138.441L82.5737 138.224L81.4303 138.296L80.3375 138.651L79.3677 139.265L78.5861 140.096L78.0361 141.101L77.7466 142.207V143.356L78.0361 144.461L78.5861 145.466L79.3677 146.297L80.3375 146.912L81.4303 147.266L82.5737 147.338L83.6955 147.121L84.7304 146.637L85.6133 145.907L86.2863 144.982L86.7133 143.919L86.8581 142.777ZM52.113 142.777L51.9754 141.455L51.5629 140.183L50.8899 139.026L49.9997 138.029L48.9142 137.248L47.6911 136.699L46.3812 136.425H45.0423L43.7397 136.699L42.5166 137.248L41.4311 138.029L40.5337 139.026L39.8678 140.183L39.4553 141.455L39.3178 142.777L39.4553 144.107L39.8678 145.379L40.5337 146.536L41.4311 147.533L42.5166 148.314L43.7397 148.856L45.0423 149.138H46.3812L47.6911 148.856L48.9142 148.314L49.9997 147.533L50.8899 146.536L51.5629 145.379L51.9754 144.107L52.113 142.777ZM25.7411 142.084L25.6036 142.777L25.7411 143.479L26.1391 144.071L26.7326 144.469L27.4273 144.606L28.1293 144.469L28.7228 144.071L29.1208 143.479L29.2583 142.777L29.1208 142.084L28.7228 141.491L28.1293 141.093L27.4273 140.956L26.7326 141.093L26.1391 141.491L25.7411 142.084Z" fill="#0066B3"/>
<path d="M106.825 50.1503L106.413 48.8783L105.747 47.7219L104.849 46.7317L103.771 45.9439L102.548 45.4019L101.238 45.1272H99.8992L98.5893 45.4019L97.3663 45.9439L96.2879 46.7317L95.3905 47.7219L94.7248 48.8783L94.305 50.1503L94.1675 51.4802L94.305 52.81L94.7248 54.0821L95.3905 55.2384L96.2879 56.2286L97.3663 57.0164L98.5893 57.5585L99.8992 57.8331H101.238L102.548 57.5585L103.771 57.0164L104.849 56.2286L105.747 55.2384L106.413 54.0821L106.825 52.81L106.97 51.4802L106.825 50.1503Z" fill="#0066B3"/>
<path d="M104.09 68.7538L103.691 67.8431L103.062 67.0698L102.251 66.4988L101.31 66.1664L100.319 66.0941L99.342 66.2965L98.4591 66.759L97.7281 67.4384L97.2143 68.284L96.9465 69.2453V70.2354L97.2143 71.1967L97.7281 72.0423L98.4591 72.7217L99.342 73.1842L100.319 73.3866L101.31 73.3143L102.251 72.9819L103.062 72.4109L103.691 71.6376L104.09 70.7269L104.227 69.7367L104.09 68.7538Z" fill="#0066B3"/>
<path d="M123.137 66.3254L123.796 67.3661L124.201 68.5225L124.339 69.7367L124.201 70.9582L123.796 72.1146L123.137 73.1553L122.269 74.0226L121.234 74.6731L120.076 75.0778L118.853 75.2152L117.63 75.0778L116.472 74.6731L115.43 74.0226L114.562 73.1553L113.91 72.1146L113.505 70.9582L113.367 69.7367L113.505 68.5225L113.91 67.3661L114.562 66.3254L115.43 65.4581L116.472 64.8076L117.63 64.4029L118.853 64.2656L120.076 64.4029L121.234 64.8076L122.269 65.4581L123.137 66.3254Z" fill="#0066B3"/>
<path d="M125.851 83.6713L126.524 85.0301L126.937 86.49L127.082 88.0005L126.937 89.5111L126.524 90.971L125.851 92.3226L124.932 93.5368L123.81 94.5558L122.522 95.3581L121.104 95.9002L119.613 96.182H118.093L116.602 95.9002L115.184 95.3581L113.896 94.5558L112.774 93.5368L111.855 92.3226L111.182 90.971L110.762 89.5111L110.625 88.0005L110.762 86.49L111.182 85.0301L111.855 83.6713L112.774 82.4643L113.896 81.4452L115.184 80.643L116.602 80.0937L118.093 79.8191H119.613L121.104 80.0937L122.522 80.643L123.81 81.4452L124.932 82.4643L125.851 83.6713Z" fill="#0066B3"/>
<path d="M125.113 104.934L124.701 103.662L124.028 102.506L123.137 101.509L122.052 100.728L120.829 100.179L119.519 99.9042H118.18L116.877 100.179L115.654 100.728L114.569 101.509L113.671 102.506L113.006 103.662L112.593 104.934L112.456 106.257L112.593 107.587L113.006 108.859L113.671 110.015L114.569 111.013L115.654 111.793L116.877 112.335L118.18 112.617H119.519L120.829 112.335L122.052 111.793L123.137 111.013L124.028 110.015L124.701 108.859L125.113 107.587L125.251 106.257L125.113 104.934Z" fill="#0066B3"/>
<path d="M119.555 122.837L120.149 123.227L120.539 123.82L120.684 124.521L120.539 125.222L120.149 125.815L119.555 126.205L118.853 126.349L118.151 126.205L117.558 125.815L117.16 125.222L117.022 124.521L117.16 123.82L117.558 123.227L118.151 122.837L118.853 122.692L119.555 122.837Z" fill="#0066B3"/>
<path d="M99.6532 142.777L99.7762 143.24L100.109 143.572L100.565 143.695L101.028 143.572L101.361 143.24L101.484 142.777L101.361 142.322L101.028 141.99L100.565 141.867L100.109 141.99L99.7762 142.322L99.6532 142.777Z" fill="#0066B3"/>
<path d="M86.7133 141.643L86.8581 142.777L86.7133 143.919L86.2863 144.982L85.6133 145.907L84.7304 146.637L83.6955 147.121L82.5737 147.338L81.4303 147.266L80.3375 146.912L79.3677 146.297L78.5861 145.466L78.0361 144.461L77.7466 143.356V142.207L78.0361 141.101L78.5861 140.096L79.3677 139.265L80.3375 138.651L81.4303 138.296L82.5737 138.224L83.6955 138.441L84.7304 138.925L85.6133 139.655L86.2863 140.58L86.7133 141.643Z" fill="#0066B3"/>
<path d="M52.113 142.777L51.9754 141.455L51.5629 140.183L50.8899 139.026L49.9997 138.029L48.9142 137.248L47.6911 136.699L46.3812 136.425H45.0423L43.7397 136.699L42.5166 137.248L41.4311 138.029L40.5337 139.026L39.8678 140.183L39.4553 141.455L39.3178 142.777L39.4553 144.107L39.8678 145.379L40.5337 146.536L41.4311 147.533L42.5166 148.314L43.7397 148.856L45.0423 149.138H46.3812L47.6911 148.856L48.9142 148.314L49.9997 147.533L50.8899 146.536L51.5629 145.379L51.9754 144.107L52.113 142.777Z" fill="#0066B3"/>
<path d="M25.6036 142.777L25.7411 142.084L26.1391 141.491L26.7326 141.093L27.4273 140.956L28.1293 141.093L28.7228 141.491L29.1208 142.084L29.2583 142.777L29.1208 143.479L28.7228 144.071L28.1293 144.469L27.4273 144.606L26.7326 144.469L26.1391 144.071L25.7411 143.479L25.6036 142.777Z" fill="#0066B3"/>
<path d="M9.93539 124.976L10.0584 124.521L9.93539 124.066L9.60247 123.733L9.14655 123.61L8.69061 123.733L8.35047 124.066L8.23468 124.521L8.35047 124.976L8.69061 125.309L9.14655 125.432L9.60247 125.309L9.93539 124.976Z" fill="#0066B3"/>
<path d="M29.0412 104.046L29.6491 104.653L30.0399 105.411L30.1702 106.257L30.0399 107.11L29.6491 107.869L29.0412 108.476L28.2741 108.866L27.4273 108.996L26.5806 108.866L25.8207 108.476L25.2128 107.869L24.822 107.11L24.6845 106.257L24.822 105.411L25.2128 104.653L25.8207 104.046L26.5806 103.655L27.4273 103.525L28.2741 103.655L29.0412 104.046Z" fill="#0066B3"/>
<path d="M15.4066 104.934L14.9941 103.662L14.321 102.506L13.4309 101.509L12.3453 100.728L11.1223 100.179L9.81235 99.9042H8.47349L7.17083 100.179L5.94776 100.728L4.8622 101.509L3.96482 102.506L3.299 103.662L2.88648 104.934L2.74897 106.257L2.88648 107.587L3.299 108.859L3.96482 110.015L4.8622 111.013L5.94776 111.793L7.17083 112.335L8.47349 112.617H9.81235L11.1223 112.335L12.3453 111.793L13.4309 111.013L14.321 110.015L14.9941 108.859L15.4066 107.587L15.5441 106.257L15.4066 104.934Z" fill="#0066B3"/>
<path d="M29.9241 85.3336L30.5538 86.0997L30.9518 87.0176L31.0893 88.0005L30.9518 88.9835L30.5538 89.9014L29.9241 90.6675L29.1136 91.2457L28.1728 91.5781L27.1813 91.6432L26.2043 91.4408L25.3214 90.9855L24.5904 90.3061L24.0766 89.4533L23.8088 88.4992V87.5019L24.0766 86.5478L24.5904 85.695L25.3214 85.0156L26.2043 84.5603L27.1813 84.3579L28.1728 84.4229L29.1136 84.7554L29.9241 85.3336Z" fill="#0066B3"/>
<path d="M17.2303 86.49L16.8178 85.0301L16.1448 83.6713L15.2257 82.4643L14.1039 81.4452L12.8157 80.643L11.3973 80.0937L9.90643 79.8191H8.38665L6.89582 80.0937L5.47736 80.643L4.18916 81.4452L3.06741 82.4643L2.14831 83.6713L1.47527 85.0301L1.05551 86.49L0.917999 88.0005L1.05551 89.5111L1.47527 90.971L2.14831 92.3226L3.06741 93.5368L4.18916 94.5558L5.47736 95.3581L6.89582 95.9002L8.38665 96.182H9.90643L11.3973 95.9002L12.8157 95.3581L14.1039 94.5558L15.2257 93.5368L16.1448 92.3226L16.8178 90.971L17.2303 89.5111L17.3751 88.0005L17.2303 86.49Z" fill="#0066B3"/>
<path d="M13.4309 66.3254L14.0895 67.3661L14.4947 68.5225L14.6322 69.7367L14.4947 70.9582L14.0895 72.1146L13.4309 73.1553L12.5624 74.0226L11.5275 74.6731L10.3696 75.0778L9.14655 75.2152L7.92349 75.0778L6.76555 74.6731L5.72342 74.0226L4.85496 73.1553L4.20363 72.1146L3.79836 70.9582L3.66085 69.7367L3.79836 68.5225L4.20363 67.3661L4.85496 66.3254L5.72342 65.4581L6.76555 64.8076L7.92349 64.4029L9.14655 64.2656L10.3696 64.4029L11.5275 64.8076L12.5624 65.4581L13.4309 66.3254Z" fill="#0066B3"/>
<path d="M50.1445 68.602L49.7175 67.5396L49.0444 66.6145L48.1615 65.8845L47.1266 65.4003L46.0049 65.1834L44.8614 65.2557L43.7686 65.6099L42.7989 66.2242L42.0173 67.0554L41.4672 68.06L41.1778 69.1658V70.3149L41.4672 71.4207L42.0173 72.4254L42.7989 73.2565L43.7686 73.8708L44.8614 74.225L46.0049 74.2973L47.1266 74.0805L48.1615 73.5962L49.0444 72.8662L49.7175 71.9411L50.1445 70.8787L50.2892 69.7367L50.1445 68.602Z" fill="#0066B3"/>
<path d="M10.8328 50.7791L10.442 50.1865L9.84855 49.7962L9.14655 49.6516L8.44456 49.7962L7.85111 50.1865L7.45306 50.7791L7.31558 51.4802L7.45306 52.1812L7.85111 52.7739L8.44456 53.1642L9.14655 53.3087L9.84855 53.1642L10.442 52.7739L10.8328 52.1812L10.9775 51.4802L10.8328 50.7791Z" fill="#0066B3"/>
<path d="M26.9714 34.0114L26.6385 33.6789L26.5155 33.2164L26.6385 32.761L26.9714 32.4286L27.4273 32.3057L27.8905 32.4286L28.2234 32.761L28.3465 33.2164L28.2234 33.6789L27.8905 34.0114L27.4273 34.1343L26.9714 34.0114Z" fill="#0066B3"/>
<path d="M86.7133 32.0817L86.2863 31.0192L85.6133 30.0941L84.7304 29.3641L83.6955 28.8799L82.5737 28.6631L81.4303 28.7353L80.3375 29.0895L79.3677 29.7038L78.5861 30.535L78.0361 31.5396L77.7466 32.6454V33.7946L78.0361 34.9004L78.5861 35.905L79.3677 36.7362L80.3375 37.3505L81.4303 37.7046L82.5737 37.7769L83.6955 37.5601L84.7304 37.0758L85.6133 36.3459L86.2863 35.4207L86.7133 34.3583L86.8581 33.2164L86.7133 32.0817Z" fill="#0066B3"/>
<path d="M101.267 31.5324L101.86 31.9299L102.259 32.5225L102.396 33.2164L102.259 33.9174L101.86 34.5101L101.267 34.9076L100.565 35.0449L99.8703 34.9076L99.2768 34.5101L98.8788 33.9174L98.7413 33.2164L98.8788 32.5225L99.2768 31.9299L99.8703 31.5324L100.565 31.3951L101.267 31.5324Z" fill="#0066B3"/>
<path fill-rule="evenodd" clip-rule="evenodd" d="M72.9197 53.46C72.4862 55.4059 71.427 57.1566 69.9037 58.4449C68.3805 59.7332 66.4769 60.4882 64.4837 60.5947C62.4904 60.7012 60.517 60.1533 58.8649 59.0347C57.5877 58.1699 56.5566 57.0008 55.8593 55.6423C55.6546 55.2434 55.4786 54.8282 55.3336 54.3996C55.2016 54.833 55.0409 55.2551 54.8535 55.6632C54.1192 57.2623 52.9734 58.6484 51.5228 59.6739C49.7019 60.9612 47.504 61.6073 45.2751 61.5104C43.0463 61.4136 40.9129 60.5793 39.2108 59.1389C37.5088 57.6985 36.3346 55.7338 35.8732 53.554C35.8392 53.3947 35.7528 53.2513 35.6279 53.1466C35.503 53.0419 35.3467 52.9819 35.1837 52.9761C35.0207 52.9703 34.8605 53.019 34.7284 53.1145C34.5963 53.2101 34.5 53.3469 34.4547 53.5034C34.1033 54.7209 33.4408 55.8261 32.5324 56.7106C31.6239 57.5951 30.5006 58.2283 29.273 58.5481C28.9152 58.6389 28.5984 58.8472 28.3735 59.1395C28.1485 59.4317 28.0285 59.791 28.0327 60.1596C28.0369 60.5282 28.165 60.8847 28.3965 61.1718C28.628 61.4589 28.9494 61.66 29.3091 61.7427C31.2743 62.2028 33.0016 63.3683 34.1623 65.0174C35.3231 66.6665 35.8363 68.6842 35.6045 70.6867C35.3726 72.6891 34.4117 74.5366 32.9047 75.8776C31.3976 77.2186 29.4496 77.9596 27.4311 77.9596C25.4126 77.9596 23.4646 77.2186 21.9576 75.8776C20.4506 74.5366 19.4897 72.6891 19.2578 70.6867C19.0259 68.6842 19.5391 66.6665 20.6999 65.0174C21.8606 63.3683 23.5879 62.2028 25.5531 61.7427C25.9128 61.66 26.2343 61.4589 26.4658 61.1718C26.6973 60.8847 26.8254 60.5282 26.8296 60.1596C26.8337 59.791 26.7137 59.4317 26.4888 59.1395C26.2638 58.8472 25.947 58.6389 25.5893 58.5481C24.3499 58.2268 23.2167 57.5862 22.303 56.6904C21.3893 55.7945 20.7271 54.6748 20.3827 53.4432C20.0382 52.2116 20.0236 50.9112 20.3402 49.6722C20.6569 48.4331 21.2937 47.2988 22.187 46.3827C23.0803 45.4665 24.1988 44.8006 25.4306 44.4516C26.6624 44.1026 27.9644 44.0826 29.2064 44.3938C30.4484 44.7049 31.5868 45.3362 32.5078 46.2246C33.4288 47.113 34.1002 48.2272 34.4547 49.456C34.5 49.6124 34.5963 49.7493 34.7284 49.8448C34.8605 49.9404 35.0207 49.9891 35.1837 49.9833C35.3467 49.9775 35.503 49.9174 35.6279 49.8127C35.7528 49.708 35.8392 49.5647 35.8732 49.4054C36.283 47.4675 37.2574 45.6939 38.6738 44.3076C40.0903 42.9213 41.8856 41.9842 43.8339 41.6142C44.1939 41.5471 44.5212 41.3621 44.764 41.0884C45.0068 40.8146 45.1513 40.4679 45.1745 40.1029C45.1978 39.738 45.0985 39.3757 44.8924 39.0734C44.6863 38.7712 44.3851 38.5462 44.0365 38.4341C42.7917 38.0344 41.7307 37.2038 41.0449 36.0919C40.3591 34.9801 40.0935 33.6601 40.2961 32.37C40.4986 31.0799 41.156 29.9044 42.1497 29.0555C43.1433 28.2067 44.4079 27.7402 45.7155 27.7402C47.0232 27.7402 48.2878 28.2067 49.2814 29.0555C50.2751 29.9044 50.9325 31.0799 51.135 32.37C51.3376 33.6601 51.072 34.9801 50.3862 36.0919C49.7004 37.2038 48.6394 38.0344 47.3945 38.4341C47.0459 38.5455 46.7445 38.7699 46.5379 39.0716C46.3312 39.3733 46.2312 39.7352 46.2537 40.1001C46.2761 40.4649 46.4197 40.8119 46.6617 41.0861C46.9037 41.3603 47.2303 41.5462 47.59 41.6142C49.3923 41.9564 51.0666 42.7844 52.4315 44.0087C53.4592 44.9305 54.282 46.0504 54.8536 47.2958C55.0412 47.7045 55.2018 48.1267 55.3336 48.5598C55.4784 48.1316 55.6543 47.7163 55.8594 47.3168C56.3669 46.3279 57.0528 45.4363 57.8863 44.6887C59.0565 43.6391 60.478 42.9087 62.0134 42.5682C62.2737 42.5119 62.5075 42.3698 62.6772 42.1649C62.847 41.96 62.9429 41.704 62.9496 41.4382C62.9563 41.1723 62.8733 40.9119 62.7141 40.6987C62.5548 40.4855 62.3284 40.332 62.0713 40.2627C60.3628 39.7962 58.8819 38.7264 57.9034 37.252C56.925 35.7775 56.5156 33.9985 56.7512 32.2454C56.9868 30.4923 57.8515 28.8841 59.1846 27.7195C60.5178 26.5549 62.2288 25.913 64 25.913C65.7712 25.913 67.4822 26.5549 68.8153 27.7195C70.1485 28.8841 71.0131 30.4923 71.2487 32.2454C71.4844 33.9985 71.075 35.7775 70.0965 37.252C69.1181 38.7264 67.6372 39.7962 65.9287 40.2627C65.6715 40.332 65.4452 40.4855 65.2859 40.6987C65.1266 40.9119 65.0437 41.1723 65.0503 41.4382C65.057 41.704 65.1529 41.96 65.3227 42.1649C65.4925 42.3698 65.7263 42.5119 65.9865 42.5682C67.6813 42.9457 69.2333 43.7973 70.4611 45.0235C71.6889 46.2497 72.5417 47.7996 72.9197 49.4921C72.9761 49.7521 73.1183 49.9855 73.3235 50.1551C73.5287 50.3246 73.785 50.4204 74.0512 50.4271C74.3174 50.4337 74.5782 50.3509 74.7916 50.1918C75.0051 50.0328 75.1589 49.8067 75.2283 49.5499C75.6961 47.8443 76.7678 46.366 78.2443 45.3897C79.7208 44.4133 81.502 44.0051 83.257 44.2408C85.0121 44.4765 86.6219 45.3402 87.7876 46.6714C88.9534 48.0027 89.5959 49.7112 89.5959 51.4797C89.5959 53.2482 88.9534 54.9567 87.7876 56.2879C86.6219 57.6192 85.0121 58.4828 83.257 58.7186C81.502 58.9543 79.7208 58.5461 78.2443 57.5697C76.7678 56.5933 75.6961 55.1151 75.2283 53.4094C75.1596 53.1525 75.0066 52.926 74.7936 52.7664C74.5807 52.6067 74.3203 52.5231 74.0541 52.5289C73.7879 52.5348 73.5313 52.6297 73.3256 52.7986C73.1199 52.9674 72.977 53.2003 72.9197 53.46ZM55.3794 46.3016C55.892 45.4512 56.5301 44.678 57.2754 44.0094C58.5626 42.8549 60.1262 42.0515 61.8152 41.6769L61.8197 41.6759C61.8798 41.6629 61.9337 41.6301 61.9728 41.5829C62.012 41.5356 62.0341 41.4766 62.0356 41.4153C62.0372 41.3539 62.0181 41.2939 61.9813 41.2447C61.9446 41.1956 61.8924 41.1601 61.8331 41.1442L61.8302 41.1434C59.9082 40.6186 58.2421 39.4151 57.1414 37.7563C56.0406 36.0976 55.58 34.0962 55.8451 32.124C56.1102 30.1517 57.083 28.3425 58.5827 27.0323C60.0825 25.7221 62.0074 25 64 25C65.9926 25 67.9175 25.7221 69.4172 27.0323C70.917 28.3425 71.8898 30.1517 72.1548 32.124C72.4199 34.0962 71.9594 36.0976 70.8586 37.7563C69.7579 39.4151 68.0918 40.6186 66.1697 41.1434L66.1669 41.1442C66.1076 41.1601 66.0554 41.1956 66.0186 41.2447C65.9819 41.2939 65.9628 41.3539 65.9643 41.4153C65.9658 41.4766 65.988 41.5356 66.0271 41.5829C66.0662 41.6301 66.1202 41.6629 66.1802 41.6759L66.1856 41.677C68.0497 42.0923 69.757 43.0291 71.1076 44.3779C72.4581 45.7267 73.3962 47.4316 73.812 49.2934L73.8131 49.2987C73.8261 49.3587 73.859 49.4125 73.9062 49.4516C73.9536 49.4907 74.0127 49.5128 74.0741 49.5143C74.1355 49.5159 74.1957 49.4967 74.2449 49.4601C74.2942 49.4233 74.3296 49.3712 74.3456 49.312L74.3465 49.3087C74.8729 47.3898 76.0785 45.7268 77.7396 44.6284C79.4007 43.5299 81.4044 43.0707 83.3789 43.3359C85.3533 43.6011 87.1644 44.5727 88.4758 46.0704C89.7873 47.568 90.5102 49.4901 90.5102 51.4797C90.5102 53.4693 89.7873 55.3913 88.4758 56.889C87.1644 58.3867 85.3533 59.3583 83.3789 59.6235C81.4044 59.8887 79.4007 59.4294 77.7396 58.331C76.0785 57.2326 74.8729 55.5695 74.3465 53.6506L74.3449 53.6448C74.3291 53.5856 74.2938 53.5334 74.2447 53.4965C74.1956 53.4597 74.1355 53.4404 74.0741 53.4418C74.0127 53.4431 73.9535 53.465 73.9061 53.504C73.8587 53.5429 73.8257 53.5966 73.8125 53.6565L73.8121 53.6583C73.3353 55.7987 72.1701 57.7246 70.4945 59.1417C68.819 60.5588 66.725 61.3893 64.5325 61.5064C62.3399 61.6236 60.1692 61.0209 58.3518 59.7904C57.1382 58.9687 56.1267 57.8972 55.3792 56.6573C54.5809 58.1431 53.4449 59.4337 52.051 60.4191C50.0645 61.8235 47.6669 62.5283 45.2354 62.4226C42.8039 62.317 40.4766 61.4069 38.6198 59.8355C36.9272 58.4031 35.7131 56.4954 35.1303 54.3679C34.7064 55.4959 34.0382 56.5197 33.1705 57.3644C32.1485 58.3594 30.8848 59.0718 29.5037 59.4316L29.4981 59.4331C29.3391 59.4734 29.1983 59.566 29.0983 59.6959C28.9983 59.8258 28.945 59.9855 28.9469 60.1493C28.9487 60.3131 29.0057 60.4715 29.1086 60.5992C29.2115 60.7268 29.3543 60.8161 29.5142 60.8529L29.5178 60.8537C31.7013 61.365 33.6205 62.6599 34.9103 64.4923C36.2 66.3247 36.7703 68.5666 36.5126 70.7916C36.255 73.0165 35.1873 75.0693 33.5128 76.5593C31.8384 78.0493 29.6739 78.8726 27.4311 78.8726C25.1884 78.8726 23.0239 78.0493 21.3494 76.5593C19.6749 75.0693 18.6073 73.0165 18.3496 70.7916C18.0919 68.5666 18.6622 66.3247 19.952 64.4923C21.2417 62.6599 23.1609 61.365 25.3444 60.8537L25.348 60.8529C25.5079 60.8161 25.6508 60.7268 25.7537 60.5992C25.8566 60.4716 25.9135 60.3131 25.9154 60.1493C25.9172 59.9855 25.8639 59.8258 25.7639 59.6959C25.6639 59.566 25.5231 59.4734 25.3641 59.433L25.3596 59.4319C23.9653 59.0704 22.6904 58.3498 21.6625 57.3419C20.6346 56.3341 19.8896 55.0744 19.5021 53.6888C19.1146 52.3032 19.0982 50.8403 19.4544 49.4464C19.8106 48.0525 20.527 46.7764 21.532 45.7457C22.5369 44.715 23.7953 43.9659 25.1811 43.5732C26.5669 43.1806 28.0316 43.1581 29.4288 43.5082C30.826 43.8582 32.1068 44.5684 33.1429 45.5678C34.0239 46.4176 34.7018 47.4511 35.1303 48.5912C35.642 46.7218 36.6425 45.0173 38.0339 43.6555C39.5792 42.1432 41.5377 41.1209 43.6631 40.7172L43.6663 40.7166C43.8263 40.6868 43.9718 40.6046 44.0797 40.4829C44.1876 40.3613 44.2518 40.2071 44.2621 40.0449C44.2725 39.8827 44.2283 39.7217 44.1367 39.5874C44.0451 39.453 43.9113 39.353 43.7563 39.3032C42.3042 38.8369 41.0666 37.8679 40.2665 36.5708C39.4664 35.2736 39.1566 33.7337 39.3929 32.2285C39.6292 30.7234 40.3961 29.352 41.5554 28.3617C42.7146 27.3714 44.19 26.8271 45.7155 26.8271C47.2411 26.8271 48.7165 27.3714 49.8757 28.3617C51.035 29.3521 51.8019 30.7234 52.0382 32.2285C52.2745 33.7337 51.9647 35.2736 51.1646 36.5708C50.3644 37.868 49.1267 38.837 47.6743 39.3033L47.6732 39.3037C47.5183 39.3532 47.3843 39.4529 47.2925 39.587C47.2007 39.7211 47.1562 39.882 47.1662 40.0441C47.1761 40.2063 47.2399 40.3605 47.3475 40.4824C47.4551 40.6043 47.6003 40.6869 47.7601 40.7171C49.7263 41.0904 51.5534 41.9938 53.0424 43.3294C53.9919 44.1811 54.7812 45.1879 55.3794 46.3016Z" fill="#0066B3"/>
<path d="M69.9037 58.4449C71.427 57.1566 72.4862 55.4059 72.9197 53.46C72.977 53.2003 73.1199 52.9674 73.3256 52.7986C73.5313 52.6297 73.7879 52.5348 74.0541 52.5289C74.3203 52.5231 74.5807 52.6067 74.7936 52.7664C75.0066 52.926 75.1596 53.1525 75.2283 53.4094C75.6961 55.1151 76.7678 56.5933 78.2443 57.5697C79.7208 58.5461 81.502 58.9543 83.257 58.7186C85.0121 58.4828 86.6219 57.6192 87.7876 56.2879C88.9534 54.9567 89.5959 53.2482 89.5959 51.4797C89.5959 49.7112 88.9534 48.0027 87.7876 46.6714C86.6219 45.3402 85.0121 44.4765 83.257 44.2408C81.502 44.0051 79.7208 44.4133 78.2443 45.3897C76.7678 46.366 75.6961 47.8443 75.2283 49.5499C75.1589 49.8067 75.0051 50.0328 74.7916 50.1918C74.5782 50.3509 74.3174 50.4337 74.0512 50.4271C73.785 50.4204 73.5287 50.3246 73.3235 50.1551C73.1183 49.9855 72.9761 49.7521 72.9197 49.4921C72.5417 47.7996 71.6889 46.2497 70.4611 45.0235C69.2333 43.7973 67.6813 42.9457 65.9865 42.5682C65.7263 42.5119 65.4925 42.3698 65.3227 42.1649C65.1529 41.96 65.057 41.704 65.0503 41.4382C65.0437 41.1723 65.1266 40.9119 65.2859 40.6987C65.4452 40.4855 65.6715 40.332 65.9287 40.2627C67.6372 39.7962 69.1181 38.7264 70.0965 37.252C71.075 35.7775 71.4844 33.9985 71.2487 32.2454C71.0131 30.4923 70.1485 28.8841 68.8153 27.7195C67.4822 26.5549 65.7712 25.913 64 25.913C62.2288 25.913 60.5178 26.5549 59.1846 27.7195C57.8515 28.8841 56.9868 30.4923 56.7512 32.2454C56.5156 33.9985 56.925 35.7775 57.9034 37.252C58.8819 38.7264 60.3628 39.7962 62.0713 40.2627C62.3284 40.332 62.5548 40.4855 62.7141 40.6987C62.8733 40.9119 62.9563 41.1723 62.9496 41.4382C62.9429 41.704 62.847 41.96 62.6772 42.1649C62.5075 42.3698 62.2737 42.5119 62.0134 42.5682C60.478 42.9087 59.0565 43.6391 57.8863 44.6887C57.0528 45.4363 56.3669 46.3279 55.8594 47.3168C55.6543 47.7163 55.4784 48.1316 55.3336 48.5598C55.2018 48.1267 55.0412 47.7045 54.8536 47.2958C54.282 46.0504 53.4592 44.9305 52.4315 44.0087C51.0666 42.7844 49.3923 41.9564 47.59 41.6142C47.2303 41.5462 46.9037 41.3603 46.6617 41.0861C46.4197 40.8119 46.2761 40.4649 46.2537 40.1001C46.2312 39.7352 46.3312 39.3733 46.5379 39.0716C46.7445 38.7699 47.0459 38.5455 47.3945 38.4341C48.6394 38.0344 49.7004 37.2038 50.3862 36.0919C51.072 34.9801 51.3376 33.6601 51.135 32.37C50.9325 31.0799 50.2751 29.9044 49.2814 29.0555C48.2878 28.2067 47.0232 27.7402 45.7155 27.7402C44.4079 27.7402 43.1433 28.2067 42.1497 29.0555C41.156 29.9044 40.4986 31.0799 40.2961 32.37C40.0935 33.6601 40.3591 34.9801 41.0449 36.0919C41.7307 37.2038 42.7917 38.0344 44.0365 38.4341C44.3851 38.5462 44.6863 38.7712 44.8924 39.0734C45.0985 39.3757 45.1978 39.738 45.1745 40.1029C45.1513 40.4679 45.0068 40.8146 44.764 41.0884C44.5212 41.3621 44.1939 41.5471 43.8339 41.6142C41.8856 41.9842 40.0903 42.9213 38.6738 44.3076C37.2574 45.6939 36.283 47.4675 35.8732 49.4054C35.8392 49.5647 35.7528 49.708 35.6279 49.8127C35.503 49.9174 35.3467 49.9775 35.1837 49.9833C35.0207 49.9891 34.8605 49.9404 34.7284 49.8448C34.5963 49.7493 34.5 49.6124 34.4547 49.456C34.1002 48.2272 33.4288 47.113 32.5078 46.2246C31.5868 45.3362 30.4484 44.7049 29.2064 44.3938C27.9644 44.0826 26.6624 44.1026 25.4306 44.4516C24.1988 44.8006 23.0803 45.4665 22.187 46.3827C21.2937 47.2988 20.6569 48.4331 20.3402 49.6722C20.0236 50.9112 20.0382 52.2116 20.3827 53.4432C20.7271 54.6748 21.3893 55.7945 22.303 56.6904C23.2167 57.5862 24.3499 58.2268 25.5893 58.5481C25.947 58.6389 26.2638 58.8472 26.4888 59.1395C26.7137 59.4317 26.8337 59.791 26.8296 60.1596C26.8254 60.5282 26.6973 60.8847 26.4658 61.1718C26.2343 61.4589 25.9128 61.66 25.5531 61.7427C23.5879 62.2028 21.8606 63.3683 20.6999 65.0174C19.5391 66.6665 19.0259 68.6842 19.2578 70.6867C19.4897 72.6891 20.4506 74.5366 21.9576 75.8776C23.4646 77.2186 25.4126 77.9596 27.4311 77.9596C29.4496 77.9596 31.3976 77.2186 32.9047 75.8776C34.4117 74.5366 35.3726 72.6891 35.6045 70.6867C35.8363 68.6842 35.3231 66.6665 34.1623 65.0174C33.0016 63.3683 31.2743 62.2028 29.3091 61.7427C28.9494 61.66 28.628 61.4589 28.3965 61.1718C28.165 60.8847 28.0369 60.5282 28.0327 60.1596C28.0285 59.791 28.1485 59.4317 28.3735 59.1395C28.5984 58.8472 28.9152 58.6389 29.273 58.5481C30.5006 58.2283 31.6239 57.5951 32.5324 56.7106C33.4408 55.8261 34.1033 54.7209 34.4547 53.5034C34.5 53.3469 34.5963 53.2101 34.7284 53.1145C34.8605 53.019 35.0207 52.9703 35.1837 52.9761C35.3467 52.9819 35.503 53.0419 35.6279 53.1466C35.7528 53.2513 35.8392 53.3947 35.8732 53.554C36.3346 55.7338 37.5088 57.6985 39.2108 59.1389C40.9129 60.5793 43.0463 61.4136 45.2751 61.5104C47.504 61.6073 49.7019 60.9612 51.5228 59.6739C52.9734 58.6484 54.1192 57.2623 54.8535 55.6632C55.0409 55.2551 55.2016 54.833 55.3336 54.3996C55.4786 54.8282 55.6546 55.2434 55.8593 55.6423C56.5566 57.0008 57.5877 58.1699 58.8649 59.0347C60.517 60.1533 62.4904 60.7012 64.4837 60.5947C66.4769 60.4882 68.3805 59.7332 69.9037 58.4449Z" fill="#0066B3"/>
<path fill-rule="evenodd" clip-rule="evenodd" d="M61.8298 134.857L61.8326 134.856C61.8919 134.84 61.9442 134.804 61.9809 134.755C62.0176 134.706 62.0367 134.646 62.0352 134.585C62.0337 134.523 62.0115 134.464 61.9724 134.417C61.9333 134.37 61.8793 134.337 61.8193 134.324L61.8147 134.323C59.9667 133.913 58.2721 132.991 56.9258 131.661C55.7349 130.486 54.8592 129.034 54.374 127.441C53.7925 129.158 52.7104 130.668 51.2598 131.773C49.6362 133.011 47.6444 133.67 45.6021 133.645C43.5599 133.62 41.5848 132.912 39.992 131.636C38.3991 130.359 37.2802 128.587 36.8136 126.601L36.8127 126.597C36.776 126.437 36.6865 126.295 36.5587 126.192C36.4309 126.089 36.2723 126.032 36.1082 126.03C35.9441 126.029 35.7842 126.082 35.6541 126.182C35.524 126.282 35.4314 126.422 35.391 126.581L35.3898 126.586C34.8867 128.52 33.6946 130.206 32.0368 131.326C30.3789 132.446 28.3691 132.924 26.3835 132.671C24.398 132.418 22.573 131.451 21.2503 129.95C19.9276 128.45 19.1979 126.519 19.1979 124.52C19.1979 122.521 19.9276 120.591 21.2503 119.09C22.573 117.59 24.398 116.623 26.3835 116.369C28.3691 116.116 30.3789 116.594 32.0368 117.715C33.6946 118.835 34.8867 120.52 35.3898 122.455L35.391 122.46C35.4314 122.618 35.524 122.759 35.6541 122.859C35.7842 122.959 35.9441 123.012 36.1082 123.01C36.2722 123.008 36.4309 122.951 36.5587 122.849C36.6865 122.746 36.776 122.603 36.8128 122.444L36.8136 122.44C37.2802 120.454 38.3991 118.682 39.992 117.405C41.5848 116.128 43.5599 115.421 45.6021 115.396C47.6444 115.371 49.6362 116.03 51.2598 117.267C52.7103 118.373 53.7924 119.883 54.3739 121.6C54.9434 119.729 56.0492 118.059 57.5615 116.802C59.2418 115.405 61.3322 114.592 63.5161 114.488C65.7 114.384 67.8584 114.993 69.6644 116.224C70.8676 117.044 71.8708 118.11 72.6131 119.342C73.2113 118.228 74.0004 117.222 74.9499 116.37C76.4389 115.034 78.2654 114.131 80.2316 113.758L80.2347 113.757C80.3947 113.727 80.5402 113.645 80.6481 113.524C80.756 113.402 80.8202 113.248 80.8306 113.086C80.8409 112.923 80.7968 112.762 80.7051 112.628C80.6135 112.494 80.4797 112.394 80.3248 112.344C78.8726 111.878 77.635 110.909 76.8349 109.611C76.0348 108.314 75.725 106.774 75.9613 105.269C76.1976 103.764 76.9645 102.393 78.1238 101.402C79.283 100.412 80.7584 99.8678 82.284 99.8678C83.8095 99.8678 85.2849 100.412 86.4441 101.402C87.6034 102.393 88.3703 103.764 88.6067 105.269C88.843 106.774 88.5331 108.314 87.733 109.611C86.9329 110.909 85.6951 111.878 84.2428 112.344L84.2417 112.344C84.0867 112.394 83.9527 112.494 83.8609 112.628C83.7691 112.762 83.7246 112.923 83.7346 113.085C83.7445 113.247 83.8083 113.401 83.9159 113.523C84.0235 113.645 84.1686 113.728 84.3285 113.758C86.2947 114.131 88.1217 115.034 89.6108 116.37C90.5602 117.222 91.3494 118.228 91.9476 119.342C92.4503 118.508 93.0738 117.748 93.8011 117.088C94.9054 116.085 96.2171 115.343 97.6396 114.911C95.7507 114.274 94.1158 113.035 92.9921 111.376C91.7462 109.537 91.2145 107.307 91.4965 105.104C91.7785 102.901 92.8549 100.876 94.5241 99.4083C96.1933 97.9409 98.3409 97.1314 100.565 97.1314C102.789 97.1314 104.936 97.9409 106.605 99.4083C108.275 100.876 109.351 102.901 109.633 105.104C109.915 107.307 109.383 109.537 108.137 111.376C107.014 113.035 105.38 114.273 103.492 114.91C104.955 115.355 106.3 116.128 107.422 117.173C108.703 118.365 109.65 119.871 110.169 121.542C110.688 123.212 110.761 124.989 110.382 126.696C110.002 128.403 109.182 129.982 108.004 131.276C106.826 132.57 105.33 133.534 103.664 134.073C101.998 134.612 100.22 134.708 98.5054 134.35C96.7912 133.992 95.2003 133.193 93.8902 132.032C93.1249 131.354 92.4709 130.567 91.9477 129.698C91.187 131.114 90.1195 132.354 88.8128 133.321C86.9228 134.72 84.6327 135.475 82.2803 135.475C79.9279 135.475 77.6378 134.72 75.7479 133.321C74.4413 132.354 73.3738 131.114 72.6132 129.699C72.1014 130.548 71.4644 131.321 70.7203 131.989C69.4346 133.143 67.8726 133.947 66.1851 134.323L66.1798 134.324C66.1197 134.337 66.0658 134.37 66.0267 134.417C65.9875 134.464 65.9654 134.523 65.9638 134.585C65.9623 134.646 65.9814 134.706 66.0182 134.755C66.0549 134.804 66.1071 134.84 66.1664 134.856L66.1693 134.857C68.0913 135.381 69.7574 136.585 70.8582 138.244C71.9589 139.902 72.4195 141.904 72.1544 143.876C71.8893 145.848 70.9166 147.658 69.4168 148.968C67.917 150.278 65.9921 151 63.9995 151C62.0069 151 60.0821 150.278 58.5823 148.968C57.0825 147.658 56.1098 145.848 55.8447 143.876C55.5796 141.904 56.0402 139.902 57.1409 138.244C58.2416 136.585 59.9077 135.381 61.8298 134.857ZM72.1331 128.683C72.3381 128.284 72.5139 127.868 72.6587 127.44C72.7907 127.874 72.9513 128.296 73.1388 128.704C73.8424 130.237 74.9244 131.575 76.2923 132.587C78.0247 133.87 80.124 134.562 82.2803 134.562C84.4367 134.562 86.536 133.87 88.2684 132.587C89.6364 131.575 90.7184 130.237 91.422 128.704C91.6094 128.296 91.77 127.874 91.902 127.44C92.0468 127.868 92.2227 128.284 92.4277 128.683C92.9439 129.689 93.6444 130.594 94.4969 131.349C95.6879 132.404 97.1342 133.13 98.6925 133.456C100.251 133.781 101.867 133.695 103.382 133.205C104.896 132.715 106.257 131.838 107.328 130.662C108.399 129.485 109.144 128.05 109.489 126.498C109.834 124.946 109.768 123.331 109.296 121.812C108.824 120.294 107.963 118.925 106.798 117.84C105.634 116.756 104.206 115.994 102.656 115.631C102.498 115.593 102.356 115.504 102.254 115.377C102.152 115.25 102.096 115.093 102.093 114.931C102.091 114.768 102.143 114.609 102.241 114.48C102.339 114.35 102.477 114.256 102.635 114.214C104.572 113.711 106.259 112.52 107.38 110.865C108.501 109.209 108.98 107.202 108.726 105.219C108.472 103.237 107.504 101.414 106.001 100.094C104.499 98.773 102.566 98.0444 100.565 98.0444C98.5633 98.0444 96.6305 98.773 95.1282 100.094C93.6259 101.414 92.6572 103.237 92.4034 105.219C92.1496 107.202 92.6281 109.209 93.7494 110.865C94.8707 112.52 96.5579 113.711 98.4949 114.214C98.6523 114.255 98.7914 114.348 98.8901 114.478C98.9887 114.607 99.0414 114.765 99.0397 114.928C99.038 115.09 98.9822 115.248 98.8809 115.375C98.7796 115.502 98.6387 115.592 98.4805 115.631C96.966 115.985 95.567 116.719 94.4159 117.763C93.5997 118.504 92.9272 119.383 92.4276 120.357C92.2226 120.757 92.0467 121.172 91.902 121.6C91.7701 121.167 91.6096 120.745 91.4219 120.336C90.8503 119.091 90.0275 117.971 88.9999 117.049C87.6349 115.825 85.9607 114.997 84.1583 114.655C83.7987 114.587 83.4721 114.401 83.2301 114.127C82.9881 113.853 82.8445 113.506 82.8221 113.141C82.7996 112.776 82.8997 112.414 83.1063 112.112C83.3129 111.811 83.6144 111.586 83.963 111.475C85.2078 111.075 86.2688 110.244 86.9546 109.133C87.6404 108.021 87.906 106.701 87.7035 105.411C87.5009 104.12 86.8435 102.945 85.8498 102.096C84.8562 101.247 83.5916 100.781 82.284 100.781C80.9763 100.781 79.7117 101.247 78.718 102.096C77.7244 102.945 77.067 104.12 76.8645 105.411C76.6619 106.701 76.9275 108.021 77.6133 109.133C78.2991 110.244 79.3601 111.075 80.605 111.475C80.9535 111.587 81.2547 111.812 81.4608 112.114C81.6669 112.416 81.7662 112.779 81.7429 113.144C81.7197 113.509 81.5752 113.855 81.3324 114.129C81.0896 114.403 80.7623 114.588 80.4023 114.655C78.6 114.997 76.9257 115.825 75.5608 117.049C74.5331 117.971 73.7104 119.091 73.1388 120.336C72.9511 120.745 72.7905 121.167 72.6587 121.6C72.5137 121.172 72.3378 120.756 72.1331 120.357C71.4399 119.006 70.4166 117.842 69.1491 116.978C67.5073 115.859 65.5451 115.305 63.5597 115.4C61.5743 115.495 59.674 116.233 58.1464 117.503C56.6189 118.773 55.5474 120.506 55.0943 122.439C55.056 122.597 54.966 122.738 54.8385 122.839C54.7111 122.94 54.5535 122.996 54.3907 122.997C54.228 122.999 54.0693 122.946 53.9398 122.848C53.8103 122.749 53.7175 122.61 53.6759 122.453C53.2123 120.677 52.1665 119.107 50.7052 117.993C49.2439 116.879 47.4513 116.287 45.6133 116.309C43.7753 116.332 41.9977 116.968 40.5642 118.117C39.1306 119.266 38.1236 120.861 37.7037 122.648C37.6209 123.008 37.4196 123.329 37.1321 123.56C36.8446 123.791 36.4876 123.919 36.1185 123.923C35.7494 123.927 35.3897 123.807 35.097 123.583C34.8044 123.358 34.5958 123.042 34.5049 122.685C34.0577 120.965 32.9981 119.467 31.5244 118.471C30.0508 117.475 28.2643 117.05 26.4993 117.275C24.7344 117.5 23.1122 118.36 21.9365 119.694C20.7607 121.027 20.1121 122.743 20.1121 124.52C20.1121 126.297 20.7607 128.013 21.9365 129.347C23.1122 130.681 24.7344 131.54 26.4993 131.766C28.2643 131.991 30.0508 131.566 31.5244 130.57C32.9981 129.574 34.0577 128.076 34.5049 126.356C34.5958 125.999 34.8044 125.682 35.097 125.458C35.3897 125.233 35.7494 125.113 36.1185 125.117C36.4876 125.122 36.8446 125.25 37.1321 125.481C37.4196 125.712 37.6209 126.033 37.7037 126.392C38.1236 128.179 39.1306 129.775 40.5642 130.924C41.9977 132.073 43.7753 132.709 45.6133 132.732C47.4513 132.754 49.2439 132.161 50.7052 131.048C52.1665 129.934 53.2123 128.364 53.6759 126.587C53.7175 126.43 53.8103 126.291 53.9398 126.193C54.0693 126.094 54.228 126.042 54.3907 126.043C54.5535 126.045 54.7111 126.101 54.8385 126.202C54.966 126.303 55.056 126.444 55.0943 126.602C55.487 128.275 56.3446 129.804 57.5685 131.012C58.7924 132.22 60.333 133.059 62.013 133.432C62.2732 133.488 62.507 133.63 62.6768 133.835C62.8466 134.04 62.9425 134.296 62.9491 134.562C62.9558 134.828 62.8729 135.088 62.7136 135.301C62.5543 135.514 62.328 135.668 62.0708 135.737C60.3623 136.204 58.8814 137.274 57.903 138.748C56.9246 140.222 56.5151 142.001 56.7508 143.755C56.9864 145.508 57.8511 147.116 59.1842 148.28C60.5173 149.445 62.2283 150.087 63.9995 150.087C65.7707 150.087 67.4818 149.445 68.8149 148.28C70.148 147.116 71.0127 145.508 71.2483 143.755C71.4839 142.001 71.0745 140.222 70.0961 138.748C69.1177 137.274 67.6367 136.204 65.9282 135.737C65.6711 135.668 65.4447 135.514 65.2854 135.301C65.1262 135.088 65.0432 134.828 65.0499 134.562C65.0566 134.296 65.1525 134.04 65.3223 133.835C65.492 133.63 65.7258 133.488 65.9861 133.432C67.5202 133.09 68.9402 132.359 70.109 131.31C70.9413 130.562 71.6262 129.672 72.1331 128.683Z" fill="#0066B3"/>
<path d="M72.1331 128.683C72.3381 128.284 72.5139 127.868 72.6587 127.44C72.7907 127.874 72.9513 128.296 73.1388 128.704C73.8424 130.237 74.9244 131.575 76.2923 132.587C78.0247 133.87 80.124 134.562 82.2803 134.562C84.4367 134.562 86.536 133.87 88.2684 132.587C89.6364 131.575 90.7184 130.237 91.422 128.704C91.6094 128.296 91.77 127.874 91.902 127.44C92.0468 127.868 92.2227 128.284 92.4277 128.683C92.9439 129.689 93.6444 130.594 94.4969 131.349C95.6879 132.404 97.1342 133.13 98.6925 133.456C100.251 133.781 101.867 133.695 103.382 133.205C104.896 132.715 106.257 131.838 107.328 130.662C108.399 129.485 109.144 128.05 109.489 126.498C109.834 124.946 109.768 123.331 109.296 121.812C108.824 120.294 107.963 118.925 106.798 117.84C105.634 116.756 104.206 115.994 102.656 115.631C102.498 115.593 102.356 115.504 102.254 115.377C102.152 115.25 102.096 115.093 102.093 114.931C102.091 114.768 102.143 114.609 102.241 114.48C102.339 114.35 102.477 114.256 102.635 114.214C104.572 113.711 106.259 112.52 107.38 110.865C108.501 109.209 108.98 107.202 108.726 105.219C108.472 103.237 107.504 101.414 106.001 100.094C104.499 98.773 102.566 98.0444 100.565 98.0444C98.5633 98.0444 96.6305 98.773 95.1282 100.094C93.6259 101.414 92.6572 103.237 92.4034 105.219C92.1496 107.202 92.6281 109.209 93.7494 110.865C94.8707 112.52 96.5579 113.711 98.4949 114.214C98.6523 114.255 98.7914 114.348 98.8901 114.478C98.9887 114.607 99.0414 114.765 99.0397 114.928C99.038 115.09 98.9822 115.248 98.8809 115.375C98.7796 115.502 98.6387 115.592 98.4805 115.631C96.966 115.985 95.567 116.719 94.4159 117.763C93.5997 118.504 92.9272 119.383 92.4276 120.357C92.2226 120.757 92.0467 121.172 91.902 121.6C91.7701 121.167 91.6096 120.745 91.4219 120.336C90.8503 119.091 90.0275 117.971 88.9999 117.049C87.6349 115.825 85.9607 114.997 84.1583 114.655C83.7987 114.587 83.4721 114.401 83.2301 114.127C82.9881 113.853 82.8445 113.506 82.8221 113.141C82.7996 112.776 82.8997 112.414 83.1063 112.112C83.3129 111.811 83.6144 111.586 83.963 111.475C85.2078 111.075 86.2688 110.244 86.9546 109.133C87.6404 108.021 87.906 106.701 87.7035 105.411C87.5009 104.12 86.8435 102.945 85.8498 102.096C84.8562 101.247 83.5916 100.781 82.284 100.781C80.9763 100.781 79.7117 101.247 78.718 102.096C77.7244 102.945 77.067 104.12 76.8645 105.411C76.6619 106.701 76.9275 108.021 77.6133 109.133C78.2991 110.244 79.3601 111.075 80.605 111.475C80.9535 111.587 81.2547 111.812 81.4608 112.114C81.6669 112.416 81.7662 112.779 81.7429 113.144C81.7197 113.509 81.5752 113.855 81.3324 114.129C81.0896 114.403 80.7623 114.588 80.4023 114.655C78.6 114.997 76.9257 115.825 75.5608 117.049C74.5331 117.971 73.7104 119.091 73.1388 120.336C72.9511 120.745 72.7905 121.167 72.6587 121.6C72.5137 121.172 72.3378 120.756 72.1331 120.357C71.4399 119.006 70.4166 117.842 69.1491 116.978C67.5073 115.859 65.5451 115.305 63.5597 115.4C61.5743 115.495 59.674 116.233 58.1464 117.503C56.6189 118.773 55.5474 120.506 55.0943 122.439C55.056 122.597 54.966 122.738 54.8385 122.839C54.7111 122.94 54.5535 122.996 54.3907 122.997C54.228 122.999 54.0693 122.946 53.9398 122.848C53.8103 122.749 53.7175 122.61 53.6759 122.453C53.2123 120.677 52.1665 119.107 50.7052 117.993C49.2439 116.879 47.4513 116.287 45.6133 116.309C43.7753 116.332 41.9977 116.968 40.5642 118.117C39.1306 119.266 38.1236 120.861 37.7037 122.648C37.6209 123.008 37.4196 123.329 37.1321 123.56C36.8446 123.791 36.4876 123.919 36.1185 123.923C35.7494 123.927 35.3897 123.807 35.097 123.583C34.8044 123.358 34.5958 123.042 34.5049 122.685C34.0577 120.965 32.9981 119.467 31.5244 118.471C30.0508 117.475 28.2643 117.05 26.4993 117.275C24.7344 117.5 23.1122 118.36 21.9365 119.694C20.7607 121.027 20.1121 122.743 20.1121 124.52C20.1121 126.297 20.7607 128.013 21.9365 129.347C23.1122 130.681 24.7344 131.54 26.4993 131.766C28.2643 131.991 30.0508 131.566 31.5244 130.57C32.9981 129.574 34.0577 128.076 34.5049 126.356C34.5958 125.999 34.8044 125.682 35.097 125.458C35.3897 125.233 35.7494 125.113 36.1185 125.117C36.4876 125.122 36.8446 125.25 37.1321 125.481C37.4196 125.712 37.6209 126.033 37.7037 126.392C38.1236 128.179 39.1306 129.775 40.5642 130.924C41.9977 132.073 43.7753 132.709 45.6133 132.732C47.4513 132.754 49.2439 132.161 50.7052 131.048C52.1665 129.934 53.2123 128.364 53.6759 126.587C53.7175 126.43 53.8103 126.291 53.9398 126.193C54.0693 126.094 54.228 126.042 54.3907 126.043C54.5535 126.045 54.7111 126.101 54.8385 126.202C54.966 126.303 55.056 126.444 55.0943 126.602C55.487 128.275 56.3446 129.804 57.5685 131.012C58.7924 132.22 60.333 133.059 62.013 133.432C62.2732 133.488 62.507 133.63 62.6768 133.835C62.8466 134.04 62.9425 134.296 62.9491 134.562C62.9558 134.828 62.8729 135.088 62.7136 135.301C62.5543 135.514 62.328 135.668 62.0708 135.737C60.3623 136.204 58.8814 137.274 57.903 138.748C56.9246 140.222 56.5151 142.001 56.7508 143.755C56.9864 145.508 57.8511 147.116 59.1842 148.28C60.5173 149.445 62.2283 150.087 63.9995 150.087C65.7707 150.087 67.4818 149.445 68.8149 148.28C70.148 147.116 71.0127 145.508 71.2483 143.755C71.4839 142.001 71.0745 140.222 70.0961 138.748C69.1177 137.274 67.6367 136.204 65.9282 135.737C65.6711 135.668 65.4447 135.514 65.2854 135.301C65.1262 135.088 65.0432 134.828 65.0499 134.562C65.0566 134.296 65.1525 134.04 65.3223 133.835C65.492 133.63 65.7258 133.488 65.9861 133.432C67.5202 133.09 68.9402 132.359 70.109 131.31C70.9413 130.562 71.6262 129.672 72.1331 128.683Z" fill="#0066B3"/>
<path fill-rule="evenodd" clip-rule="evenodd" d="M106.06 87.9997L105.886 89.3632L105.382 90.6398L104.573 91.7518L103.513 92.6277L102.268 93.2192L100.91 93.4714L99.538 93.3847L98.2266 92.9597L97.0688 92.2294L96.1203 91.2214L95.459 90.0135L95.12 88.6852V87.3149L95.459 85.9779L96.1213 84.777L97.0671 83.7718L98.2266 83.0317L99.5408 82.6145L100.91 82.528L102.268 82.7802L103.513 83.3717L104.573 84.2476L105.382 85.3596L105.886 86.6362L106.06 87.9997ZM104.574 85.8026L104.994 86.865L105.138 87.9997L104.994 89.1344L104.574 90.1968L103.901 91.122L103.018 91.8519L101.983 92.3434L100.854 92.553L99.7107 92.4807L98.6179 92.1266L97.6553 91.5195L96.8665 90.6811L96.3165 89.6765L96.0342 88.5707V87.4287L96.3165 86.3157L96.8665 85.3183L97.6553 84.4799L98.6179 83.8656L99.7107 83.5187L100.854 83.4464L101.983 83.656L103.018 84.1475L103.901 84.8774L104.574 85.8026Z" fill="#0066B3"/>
<path d="M104.994 86.865L104.574 85.8026L103.901 84.8774L103.018 84.1475L101.983 83.656L100.854 83.4464L99.7107 83.5187L98.6179 83.8656L97.6553 84.4799L96.8665 85.3183L96.3165 86.3157L96.0342 87.4287V88.5707L96.3165 89.6765L96.8665 90.6811L97.6553 91.5195L98.6179 92.1266L99.7107 92.4807L100.854 92.553L101.983 92.3434L103.018 91.8519L103.901 91.122L104.574 90.1968L104.994 89.1344L105.138 87.9997L104.994 86.865Z" fill="#0066B3"/>
<path d="M299 12.5C299 19.4036 293.404 25 286.5 25C279.596 25 274 19.4036 274 12.5C274 5.59644 279.596 0 286.5 0C293.404 0 299 5.59644 299 12.5Z" fill="#0066B3"/>
<path fill-rule="evenodd" clip-rule="evenodd" d="M392 92C392 124.585 365.585 151 333 151C300.415 151 274 124.585 274 92V35C274 33.8954 274.895 33 276 33H297C298.105 33 299 33.8954 299 35V39.9145C299 41.5364 300.841 42.4999 302.224 41.6527C311.184 36.164 321.723 33 333 33C365.585 33 392 59.4152 392 92ZM333 126C351.778 126 367 110.778 367 92C367 73.2223 351.778 58 333 58C314.222 58 299 73.2223 299 92C299 110.778 314.222 126 333 126Z" fill="#0066B3"/>
<path fill-rule="evenodd" clip-rule="evenodd" d="M400 92C400 59.4152 426.415 33 459 33C491.585 33 518 59.4152 518 92V149C518 150.105 517.105 151 516 151H495C493.895 151 493 150.105 493 149V144.085C493 142.464 491.159 141.5 489.776 142.347C480.816 147.836 470.277 151 459 151C426.415 151 400 124.585 400 92ZM459 58C440.222 58 425 73.2223 425 92C425 110.778 440.222 126 459 126C477.778 126 493 110.778 493 92C493 73.2223 477.778 58 459 58Z" fill="#0066B3"/>
<path fill-rule="evenodd" clip-rule="evenodd" d="M207 126C193.472 126 181.789 118.099 176.314 106.659C175.71 105.398 176.672 104 178.07 104H263.15C264.098 104 264.92 103.334 265.086 102.4C265.687 99.0242 266 95.5487 266 92C266 87.8882 265.579 83.8746 264.779 80C259.235 53.1693 235.473 33 207 33C178.527 33 154.765 53.1693 149.221 80C148.421 83.8746 148 87.8882 148 92C148 96.1118 148.421 100.125 149.221 104C154.765 130.831 178.527 151 207 151C230.759 151 251.237 136.957 260.588 116.718C261.182 115.432 260.218 114 258.802 114H233.849C233.262 114 232.707 114.26 232.315 114.697C226.091 121.635 217.055 126 207 126ZM207 58C193.472 58 181.789 65.9011 176.314 77.3405C175.71 78.6017 176.672 80 178.07 80H235.93C237.328 80 238.29 78.6017 237.686 77.3405C232.211 65.9011 220.528 58 207 58Z" fill="#0066B3"/>
<path d="M641.203 51.042H559.681V35.922H644.983C646.831 35.922 648.553 36.3 650.149 37.056C651.745 37.728 653.131 38.694 654.307 39.954C655.483 41.13 656.407 42.516 657.079 44.112C657.751 45.624 658.087 47.22 658.087 48.9V122.988H663.883V138.108H555.523V122.988H573.541V77.502H590.425V122.988H608.821V77.502H625.705V122.988H641.203V51.042Z" fill="#5A5A5A"/>
<path d="M735.703 30C740.491 30 744.943 30.84 749.059 32.52C753.259 34.116 756.913 36.258 760.021 38.946C763.129 41.886 765.565 45.204 767.329 48.9C769.093 52.596 769.975 56.712 769.975 61.248C769.975 65.112 769.261 68.64 767.833 71.832C766.489 75.024 764.641 77.838 762.289 80.274H789.883V95.394H766.825V105.726H775.015C777.871 105.726 780.097 106.566 781.693 108.246C783.289 109.842 784.087 111.984 784.087 114.672V145.164H767.203V120.846H685.681V105.726H704.581V95.394H681.523V80.274H709.117C706.681 77.838 704.791 75.024 703.447 71.832C702.103 68.64 701.431 65.112 701.431 61.248C701.431 56.712 702.271 52.596 703.951 48.9C705.715 45.204 708.151 41.886 711.259 38.946C714.283 36.258 717.895 34.116 722.095 32.52C726.295 30.84 730.831 30 735.703 30ZM735.703 45.12C733.183 45.12 730.831 45.54 728.647 46.38C726.547 47.22 724.741 48.354 723.229 49.782C721.717 51.21 720.499 52.932 719.575 54.948C718.735 56.88 718.315 58.98 718.315 61.248C718.315 63.516 718.735 65.616 719.575 67.548C720.499 69.48 721.717 71.202 723.229 72.714C724.741 74.142 726.547 75.276 728.647 76.116C730.831 76.956 733.183 77.376 735.703 77.376C740.827 77.376 744.943 75.822 748.051 72.714C751.411 69.606 753.091 65.784 753.091 61.248C753.091 58.98 752.629 56.88 751.705 54.948C750.865 52.932 749.647 51.21 748.051 49.782C746.539 48.354 744.733 47.22 742.633 46.38C740.533 45.54 738.223 45.12 735.703 45.12ZM721.465 105.726H749.941V95.394H721.465V105.726Z" fill="#5A5A5A"/>
<path d="M891.691 97.284V35.922H908.575V97.284H891.691ZM854.899 78.384V64.524H824.407V78.384H854.899ZM807.523 79.266V35.922H824.407V49.404H854.899V35.922H871.657V93.504H819.619C817.939 93.504 816.343 93.168 814.831 92.496C813.403 91.74 812.143 90.732 811.051 89.472C809.959 88.128 809.077 86.616 808.405 84.936C807.817 83.172 807.523 81.282 807.523 79.266ZM899.503 103.206C902.275 103.206 904.459 104.046 906.055 105.726C907.735 107.322 908.575 109.464 908.575 112.152V145.164H891.691V118.326H813.949V103.206H899.503Z" fill="#5A5A5A"/>
<path d="M995.641 145.164V81.534H975.481V66.414H995.641V35.922H1012.53V145.164H995.641ZM1020.46 145.164V35.922H1037.35V145.164H1020.46ZM933.523 50.034C933.523 48.102 933.817 46.296 934.405 44.616C935.077 42.852 935.959 41.34 937.051 40.08C938.143 38.82 939.403 37.812 940.831 37.056C942.343 36.3 943.939 35.922 945.619 35.922H984.301V51.042H950.407V99.804H987.829V114.924H945.619C943.939 114.924 942.343 114.588 940.831 113.916C939.403 113.16 938.143 112.152 937.051 110.892C935.959 109.548 935.077 108.036 934.405 106.356C933.817 104.592 933.523 102.702 933.523 100.686V50.034Z" fill="#5A5A5A"/>
<path d="M1090.02 35.796C1094.89 35.796 1099.38 36.804 1103.5 38.82C1107.7 40.752 1111.35 43.482 1114.46 47.01C1117.4 50.538 1119.75 54.654 1121.52 59.358C1123.28 64.062 1124.16 69.186 1124.16 74.73C1124.16 80.274 1123.28 85.398 1121.52 90.102C1119.75 94.806 1117.4 98.964 1114.46 102.576C1111.35 106.104 1107.7 108.834 1103.5 110.766C1099.38 112.698 1094.89 113.664 1090.02 113.664C1084.98 113.664 1080.4 112.698 1076.28 110.766C1072.25 108.834 1068.68 106.104 1065.57 102.576C1062.55 98.964 1060.15 94.806 1058.39 90.102C1056.71 85.398 1055.87 80.274 1055.87 74.73C1055.87 69.186 1056.71 64.062 1058.39 59.358C1060.15 54.654 1062.55 50.538 1065.57 47.01C1068.68 43.482 1072.25 40.752 1076.28 38.82C1080.4 36.804 1084.98 35.796 1090.02 35.796ZM1090.02 50.916C1084.98 50.916 1080.82 53.184 1077.54 57.72C1074.43 62.088 1072.88 67.758 1072.88 74.73C1072.88 81.702 1074.43 87.372 1077.54 91.74C1080.82 96.276 1084.98 98.544 1090.02 98.544C1094.97 98.544 1099.09 96.276 1102.36 91.74C1105.64 87.372 1107.28 81.702 1107.28 74.73C1107.28 67.926 1105.64 62.256 1102.36 57.72C1099.09 53.184 1094.97 50.916 1090.02 50.916ZM1160.7 145.164H1143.82V35.922H1160.7V145.164Z" fill="#5A5A5A"/>
<path d="M1286.58 145.164H1269.69V85.944H1252.18V70.824H1269.69V35.922H1286.58V145.164ZM1185.52 50.034C1185.52 48.102 1185.82 46.296 1186.41 44.616C1187.08 42.852 1187.96 41.34 1189.05 40.08C1190.14 38.82 1191.4 37.812 1192.83 37.056C1194.34 36.3 1195.94 35.922 1197.62 35.922H1249.41V51.042H1202.41V70.824H1248.15V85.944H1202.41V107.994H1252.3V123.114H1197.62C1195.94 123.114 1194.34 122.736 1192.83 121.98C1191.4 121.224 1190.14 120.216 1189.05 118.956C1187.96 117.696 1187.08 116.226 1186.41 114.546C1185.82 112.782 1185.52 110.934 1185.52 109.002V50.034Z" fill="#5A5A5A"/>
<path d="M1365.7 30C1370.24 30 1374.31 30.714 1377.93 32.142C1381.54 33.486 1384.73 35.292 1387.5 37.56C1390.27 40.08 1392.42 43.02 1393.93 46.38C1395.44 49.656 1396.2 53.226 1396.2 57.09C1396.2 61.122 1395.44 64.776 1393.93 68.052C1392.42 71.244 1390.27 74.1 1387.5 76.62C1384.73 78.972 1381.54 80.82 1377.93 82.164C1374.31 83.508 1370.24 84.18 1365.7 84.18C1361.17 84.18 1357.05 83.508 1353.36 82.164C1349.74 80.82 1346.55 78.972 1343.78 76.62C1341.09 74.1 1338.99 71.244 1337.48 68.052C1335.97 64.776 1335.21 61.122 1335.21 57.09C1335.21 53.226 1335.97 49.656 1337.48 46.38C1338.99 43.02 1341.09 40.08 1343.78 37.56C1346.55 35.292 1349.74 33.486 1353.36 32.142C1357.05 30.714 1361.17 30 1365.7 30ZM1365.7 44.49C1361.67 44.49 1358.4 45.666 1355.88 48.018C1353.36 50.286 1352.1 53.31 1352.1 57.09C1352.1 60.954 1353.36 64.02 1355.88 66.288C1358.4 68.556 1361.67 69.69 1365.7 69.69C1369.74 69.69 1373.01 68.556 1375.53 66.288C1378.05 64.02 1379.31 60.954 1379.31 57.09C1379.31 53.31 1378.05 50.286 1375.53 48.018C1373.01 45.666 1369.74 44.49 1365.7 44.49ZM1396.07 99.804C1398.34 102.324 1400.1 105.18 1401.36 108.372C1402.62 111.48 1403.25 114.714 1403.25 118.074C1403.25 123.198 1402.33 127.776 1400.48 131.808C1398.72 135.924 1396.2 139.368 1392.92 142.14C1386.03 148.02 1376.96 150.96 1365.7 150.96C1360.16 150.96 1355.08 150.204 1350.46 148.692C1345.92 147.264 1342.02 145.08 1338.74 142.14C1331.68 136.512 1328.16 128.49 1328.16 118.074C1328.16 114.546 1328.74 111.27 1329.92 108.246C1331.18 105.138 1332.94 102.324 1335.21 99.804H1311.52V86.322H1419.88V99.804H1396.07ZM1365.7 100.308C1359.4 100.308 1354.45 101.946 1350.84 105.222C1347.22 108.414 1345.42 112.698 1345.42 118.074C1345.42 123.618 1347.22 127.944 1350.84 131.052C1354.45 134.244 1359.4 135.84 1365.7 135.84C1372.09 135.84 1377.04 134.244 1380.57 131.052C1384.18 127.944 1385.99 123.618 1385.99 118.074C1385.99 112.698 1384.18 108.414 1380.57 105.222C1377.04 101.946 1372.09 100.308 1365.7 100.308Z" fill="#5A5A5A"/>
<path d="M1491.7 30C1496.24 30 1500.31 30.714 1503.93 32.142C1507.54 33.486 1510.73 35.292 1513.5 37.56C1516.27 40.08 1518.42 43.02 1519.93 46.38C1521.44 49.656 1522.2 53.226 1522.2 57.09C1522.2 60.618 1521.61 63.81 1520.43 66.666C1519.34 69.522 1517.79 72.042 1515.77 74.226H1522.83V86.322H1545.88V99.804H1522.07C1524.34 102.408 1526.1 105.264 1527.36 108.372C1528.62 111.48 1529.25 114.714 1529.25 118.074C1529.25 123.198 1528.33 127.776 1526.48 131.808C1524.72 135.924 1522.2 139.368 1518.92 142.14C1512.03 148.02 1502.96 150.96 1491.7 150.96C1486.16 150.96 1481.08 150.204 1476.46 148.692C1471.92 147.264 1468.02 145.08 1464.74 142.14C1457.68 136.512 1454.16 128.49 1454.16 118.074C1454.16 114.546 1454.74 111.27 1455.92 108.246C1457.18 105.138 1458.94 102.324 1461.21 99.804H1437.52V86.322H1460.58V74.226H1467.64C1465.71 72.042 1464.15 69.522 1462.98 66.666C1461.8 63.81 1461.21 60.618 1461.21 57.09C1461.21 53.226 1461.97 49.656 1463.48 46.38C1464.99 43.02 1467.09 40.08 1469.78 37.56C1472.55 35.292 1475.74 33.486 1479.36 32.142C1483.05 30.714 1487.17 30 1491.7 30ZM1505.94 81.282C1503.76 82.374 1501.45 83.13 1499.01 83.55C1496.66 83.97 1494.22 84.18 1491.7 84.18C1489.1 84.18 1486.58 83.97 1484.14 83.55C1481.71 83.13 1479.48 82.374 1477.47 81.282V86.322H1505.94V81.282ZM1491.7 44.49C1487.67 44.49 1484.4 45.666 1481.88 48.018C1479.36 50.286 1478.1 53.31 1478.1 57.09C1478.1 60.954 1479.36 64.02 1481.88 66.288C1484.4 68.556 1487.67 69.69 1491.7 69.69C1495.74 69.69 1499.01 68.556 1501.53 66.288C1504.05 64.02 1505.31 60.954 1505.31 57.09C1505.31 53.31 1504.05 50.286 1501.53 48.018C1499.01 45.666 1495.74 44.49 1491.7 44.49ZM1491.7 100.308C1485.4 100.308 1480.45 101.946 1476.84 105.222C1473.22 108.414 1471.42 112.698 1471.42 118.074C1471.42 123.618 1473.22 127.944 1476.84 131.052C1480.45 134.244 1485.4 135.84 1491.7 135.84C1498.09 135.84 1503.04 134.244 1506.57 131.052C1510.18 127.944 1511.99 123.618 1511.99 118.074C1511.99 112.698 1510.18 108.414 1506.57 105.222C1503.04 101.946 1498.09 100.308 1491.7 100.308Z" fill="#5A5A5A"/>
<path d="M1647.69 109.632V86.952H1629.3V71.832H1647.69V57.468H1629.3V42.348H1647.69V35.922H1664.58V109.632H1647.69ZM1593.26 32.142C1598.05 32.142 1602.5 33.024 1606.62 34.788C1610.73 36.468 1614.3 38.694 1617.33 41.466C1620.43 44.49 1622.83 47.976 1624.51 51.924C1626.19 55.788 1627.03 60.03 1627.03 64.65C1627.03 69.186 1626.19 73.428 1624.51 77.376C1622.83 81.324 1620.43 84.768 1617.33 87.708C1614.3 90.648 1610.73 92.958 1606.62 94.638C1602.5 96.234 1598.05 97.032 1593.26 97.032C1588.22 97.032 1583.64 96.234 1579.53 94.638C1575.41 92.958 1571.84 90.648 1568.82 87.708C1565.71 84.768 1563.31 81.324 1561.63 77.376C1560.04 73.428 1559.24 69.186 1559.24 64.65C1559.24 60.03 1560.04 55.788 1561.63 51.924C1563.31 47.976 1565.71 44.49 1568.82 41.466C1571.84 38.694 1575.41 36.468 1579.53 34.788C1583.64 33.024 1588.22 32.142 1593.26 32.142ZM1593.26 47.262C1590.74 47.262 1588.43 47.724 1586.33 48.648C1584.23 49.488 1582.42 50.706 1580.91 52.302C1579.4 53.898 1578.22 55.746 1577.38 57.846C1576.54 59.946 1576.12 62.214 1576.12 64.65C1576.12 67.17 1576.54 69.48 1577.38 71.58C1578.22 73.68 1579.4 75.486 1580.91 76.998C1582.42 78.51 1584.23 79.728 1586.33 80.652C1588.43 81.492 1590.74 81.912 1593.26 81.912C1595.7 81.912 1597.92 81.492 1599.94 80.652C1602.04 79.728 1603.84 78.51 1605.36 76.998C1606.87 75.486 1608.04 73.68 1608.88 71.58C1609.72 69.48 1610.14 67.17 1610.14 64.65C1610.14 59.862 1608.55 55.746 1605.36 52.302C1602.25 48.942 1598.22 47.262 1593.26 47.262ZM1588.22 104.97V130.044H1665.21V145.164H1584.44C1580.16 145.164 1576.88 143.862 1574.61 141.258C1572.34 138.738 1571.21 135.588 1571.21 131.808V104.97H1588.22Z" fill="#5A5A5A"/>
<path d="M1735.26 145.164V105.6H1689.52V90.48H1775.2V51.042H1693.68V35.922H1778.98C1780.83 35.922 1782.55 36.3 1784.15 37.056C1785.75 37.728 1787.13 38.694 1788.31 39.954C1789.48 41.13 1790.41 42.516 1791.08 44.112C1791.75 45.624 1792.09 47.22 1792.09 48.9V90.48H1797.88V105.6H1752.15V145.164H1735.26Z" fill="#5A5A5A"/>
<path d="M1842.74 75.108C1842.15 77.04 1840.98 79.224 1839.21 81.66C1837.53 84.096 1835.35 86.406 1832.66 88.59C1830.14 90.774 1827.16 92.706 1823.71 94.386C1820.27 95.982 1816.53 96.99 1812.5 97.41V81.66C1818.46 80.148 1823.59 76.746 1827.87 71.454C1832.16 66.078 1834.3 58.56 1834.3 48.9V35.922H1851.18V48.9C1851.18 58.476 1853.28 65.994 1857.48 71.454C1861.77 76.746 1866.93 80.148 1872.98 81.66V97.41C1868.95 96.99 1865.21 95.982 1861.77 94.386C1858.32 92.706 1855.34 90.774 1852.82 88.59C1850.05 86.406 1847.78 84.096 1846.02 81.66C1844.34 79.224 1843.24 77.04 1842.74 75.108ZM1878.65 109.884V68.556H1863.78V53.436H1878.65V35.922H1895.66V109.884H1878.65ZM1902.46 109.884V35.922H1919.35V109.884H1902.46ZM1840.35 104.97V130.044H1919.98V145.164H1836.69C1832.41 145.164 1829.13 143.862 1826.86 141.258C1824.6 138.738 1823.46 135.588 1823.46 131.808V104.97H1840.35Z" fill="#5A5A5A"/>
<path d="M2042.58 145.164H2025.69V85.944H2008.18V70.824H2025.69V35.922H2042.58V145.164ZM1941.52 50.034C1941.52 48.102 1941.82 46.296 1942.41 44.616C1943.08 42.852 1943.96 41.34 1945.05 40.08C1946.14 38.82 1947.4 37.812 1948.83 37.056C1950.34 36.3 1951.94 35.922 1953.62 35.922H2005.41V51.042H1958.41V70.824H2004.15V85.944H1958.41V107.994H2008.3V123.114H1953.62C1951.94 123.114 1950.34 122.736 1948.83 121.98C1947.4 121.224 1946.14 120.216 1945.05 118.956C1943.96 117.696 1943.08 116.226 1942.41 114.546C1941.82 112.782 1941.52 110.934 1941.52 109.002V50.034Z" fill="#5A5A5A"/>
</svg>
