<svg width="1329" height="151" viewBox="0 0 1329 151" fill="none" xmlns="http://www.w3.org/2000/svg">
<path fill-rule="evenodd" clip-rule="evenodd" d="M29.2929 33.2145L29.0438 34.1508L28.363 34.8308L27.4255 35.0795L26.4976 34.8294L25.8181 34.1508L25.5691 33.2145L25.8194 32.2878L26.4976 31.6106L27.4255 31.3605L28.363 31.6092L29.0425 32.2878L29.2929 33.2145ZM103.328 33.2155L103.12 34.2734L102.519 35.1681L101.623 35.7683L100.564 35.9755L99.5132 35.7678L98.618 35.1681L98.017 34.2734L97.8095 33.2155L98.0175 32.1658L98.618 31.2718L99.5132 30.6722L100.564 30.4645L101.623 30.6717L102.519 31.2718L103.12 32.1658L103.328 33.2155ZM87.7797 33.216L87.6055 34.5895L87.0925 35.8659L86.2851 36.9757L85.2237 37.8533L83.9806 38.435L82.6326 38.6955L81.2576 38.6086L79.9454 38.1833L78.7804 37.4453L77.8399 36.4452L77.18 35.2399L76.8324 33.912V32.528L77.18 31.2L77.8399 29.9948L78.7804 28.9946L79.9454 28.2567L81.2576 27.8314L82.6326 27.7445L83.9806 28.005L85.2237 28.5867L86.2851 29.4642L87.0925 30.5741L87.6054 31.8502L87.7797 33.216ZM107.889 51.4802L107.724 53.002L107.253 54.4543L106.49 55.7785L105.465 56.9105L104.232 57.8112L102.83 58.4322L101.333 58.7462H99.8043L98.3069 58.4322L96.9057 57.8112L95.6728 56.9105L94.6469 55.7785L93.8857 54.4564L93.4058 53.002L93.2484 51.4802L93.4058 49.9583L93.8857 48.504L94.6469 47.1818L95.6728 46.0499L96.9057 45.1491L98.3069 44.5281L99.8043 44.2142H101.333L102.83 44.5281L104.232 45.1491L105.465 46.0499L106.49 47.1818L107.253 48.506L107.724 49.9583L107.889 51.4802ZM51.2108 69.7364L51.0367 71.1098L50.5237 72.3863L49.7162 73.4961L48.6548 74.3737L47.4117 74.9553L46.0638 75.2159L44.6888 75.129L43.3765 74.7037L42.2116 73.9657L41.271 72.9655L40.6112 71.7603L40.2635 70.4323V69.0484L40.6112 67.7204L41.271 66.5152L42.2116 65.515L43.3765 64.777L44.6888 64.3518L46.0638 64.2649L47.4117 64.5254L48.6548 65.107L49.7162 65.9846L50.5237 67.0945L51.0366 68.3706L51.2108 69.7364ZM11.911 51.4802L11.6928 52.5372L11.102 53.4331L10.2049 54.023L9.14655 54.241L8.08821 54.023L7.19448 53.4353L6.59126 52.5372L6.38398 51.4802L6.59126 50.4232L7.19448 49.5251L8.0882 48.9373L9.14655 48.7194L10.2049 48.9373L11.102 49.5273L11.6928 50.4232L11.911 51.4802ZM105.15 69.7363L104.978 70.9769L104.479 72.117L103.692 73.0845L102.675 73.8006L101.5 74.216L100.258 74.3065L99.0308 74.0523L97.9259 73.4734L97.0124 72.6243L96.3673 71.5627L96.0323 70.3601V69.1206L96.3673 67.918L97.0124 66.8564L97.9259 66.0073L99.0308 65.4285L100.258 65.1742L101.5 65.2647L102.675 65.6801L103.692 66.3962L104.479 67.3637L104.978 68.5034L105.15 69.7363ZM125.259 69.7364L125.098 71.1626L124.624 72.5144L123.856 73.7291L122.843 74.7408L121.634 75.5008L120.281 75.9737L118.853 76.134L117.425 75.9737L116.074 75.5013L114.857 74.7418L113.841 73.7274L113.081 72.5122L112.608 71.1626L112.447 69.7364L112.608 68.3179L113.081 66.9685L113.841 65.7533L114.857 64.7389L116.074 63.9794L117.425 63.5071L118.853 63.3468L120.281 63.5071L121.634 63.9799L122.843 64.7399L123.856 65.7517L124.624 66.9663L125.098 68.3179L125.259 69.7364ZM18.2935 88.0006L18.1326 89.6799L17.6745 91.3012L16.9254 92.8053L15.9037 94.1551L14.6579 95.2869L13.2247 96.1794L11.6476 96.7821L9.99221 97.0951H8.30087L6.64545 96.7821L5.06836 96.1794L3.63519 95.2869L2.38936 94.1551L1.36766 92.8053L0.619559 91.303L0.152875 89.6799L0 88.0006L0.152875 86.3212L0.619288 84.699L1.36765 83.1881L2.39035 81.8451L3.6352 80.7142L5.06662 79.8228L6.64545 79.2114L8.30303 78.906H9.99005L11.6476 79.2114L13.2265 79.8228L14.6579 80.7142L15.9027 81.8451L16.9254 83.1881L17.6747 84.7009L18.1326 86.3212L18.2935 88.0006ZM16.4632 106.257L16.3061 107.777L15.8337 109.233L15.065 110.554L14.0465 111.695L12.8027 112.59L11.407 113.208L9.90973 113.53H8.37558L6.88565 113.208L5.49041 112.59L4.24805 111.696L3.22034 110.554L2.45874 109.231L1.987 107.777L1.82986 106.257L1.98708 104.745L2.45874 103.29L3.22034 101.967L4.24805 100.825L5.48855 99.9332L6.88567 99.3058L8.37805 98.9911H9.90727L11.4069 99.3055L12.8045 99.9332L14.0465 100.826L15.065 101.967L15.8337 103.288L16.306 104.745L16.4632 106.257ZM15.5523 69.7364L15.3917 71.1626L14.9179 72.5144L14.1493 73.7291L13.1363 74.7408L11.9271 75.5008L10.5743 75.9737L9.14655 76.134L7.71884 75.9737L6.3674 75.5013L5.15059 74.7418L4.13489 73.7274L3.37438 72.5122L2.90138 71.1626L2.74083 69.7364L2.90148 68.3179L3.37438 66.9685L4.13489 65.7533L5.15059 64.7389L6.36741 63.9794L7.71884 63.5071L9.14655 63.3468L10.5743 63.5071L11.927 63.9799L13.1363 64.7399L14.1493 65.7517L14.9179 66.9663L15.3916 68.3179L15.5523 69.7364ZM128 88.0006L127.839 89.6799L127.381 91.3012L126.632 92.8053L125.61 94.1551L124.364 95.2869L122.931 96.1794L121.354 96.7821L119.699 97.0951H118.007L116.352 96.7821L114.775 96.1794L113.342 95.2869L112.096 94.1551L111.074 92.8053L110.326 91.303L109.859 89.6799L109.707 88.0006L109.859 86.3212L110.326 84.699L111.074 83.1881L112.097 81.8451L113.342 80.7142L114.773 79.8228L116.352 79.2114L118.01 78.906H119.697L121.354 79.2114L122.933 79.8228L124.364 80.7142L125.609 81.8451L126.632 83.1881L127.381 84.7009L127.839 86.3212L128 88.0006ZM126.17 106.257L126.013 107.777L125.54 109.233L124.772 110.554L123.753 111.695L122.509 112.59L121.114 113.208L119.616 113.53H118.082L116.592 113.208L115.197 112.59L113.955 111.696L112.927 110.554L112.165 109.231L111.694 107.777L111.536 106.257L111.694 104.745L112.165 103.29L112.927 101.967L113.955 100.825L115.195 99.9332L116.592 99.3058L118.085 98.9911H119.614L121.114 99.3055L122.511 99.9332L123.753 100.826L124.772 101.967L125.54 103.288L126.013 104.745L126.17 106.257ZM121.618 124.521L121.399 125.578L120.809 126.474L119.911 127.064L118.853 127.282L117.795 127.064L116.901 126.476L116.298 125.578L116.091 124.521L116.298 123.464L116.901 122.566L117.795 121.978L118.853 121.76L119.911 121.978L120.809 122.568L121.399 123.464L121.618 124.521ZM102.431 142.776L102.182 143.712L101.501 144.392L100.563 144.641L99.6353 144.39L98.9558 143.712L98.7068 142.776L98.9571 141.849L99.6353 141.172L100.563 140.922L101.501 141.17L102.18 141.849L102.431 142.776ZM32.0124 88.0006L31.84 89.2326L31.3418 90.3817L30.554 91.3402L29.5401 92.0635L28.3587 92.4809L27.1173 92.5624L25.896 92.3094L24.7904 91.7392L23.8734 90.887L23.2296 89.8184L22.8946 88.6248V87.3763L23.2296 86.1827L23.8734 85.1142L24.7904 84.2619L25.896 83.6916L27.1173 83.4387L28.3587 83.5201L29.5401 83.9376L30.554 84.6609L31.3418 85.6194L31.84 86.7685L32.0124 88.0006ZM31.0951 106.257L30.9212 107.395L30.3967 108.413L29.5853 109.224L28.5582 109.746L27.4273 109.92L26.2947 109.746L25.2754 109.223L24.4652 108.413L23.9425 107.398L23.7584 106.256L23.9428 105.122L24.4652 104.108L25.2754 103.299L26.2947 102.775L27.4273 102.601L28.5582 102.775L29.5853 103.298L30.3967 104.108L30.9209 105.126L31.0951 106.257ZM11.0053 124.521L10.7545 125.449L10.0763 126.127L9.14656 126.377L8.22185 126.128L7.52756 125.449L7.29142 124.521L7.52756 123.592L8.22184 122.914L9.14656 122.665L10.0763 122.915L10.7545 123.592L11.0053 124.521ZM87.7797 142.777L87.6055 144.151L87.0925 145.427L86.2851 146.537L85.2237 147.414L83.9806 147.996L82.6326 148.257L81.2576 148.17L79.9454 147.744L78.7804 147.006L77.8399 146.006L77.18 144.801L76.8324 143.473V142.089L77.18 140.761L77.8399 139.556L78.7804 138.556L79.9454 137.818L81.2576 137.393L82.6326 137.306L83.9806 137.566L85.2237 138.148L86.2851 139.025L87.0925 140.135L87.6054 141.411L87.7797 142.777ZM53.0321 142.777L52.8749 144.297L52.4025 145.754L51.6339 147.074L50.6154 148.216L49.3715 149.11L47.9758 149.729L46.4786 150.051H44.9444L43.4545 149.728L42.0593 149.11L40.8169 148.217L39.7892 147.074L39.0276 145.752L38.5558 144.297L38.3987 142.777L38.5559 141.265L39.0276 139.811L39.7892 138.488L40.8169 137.346L42.0574 136.454L43.4545 135.826L44.9469 135.512H46.4761L47.9758 135.826L49.3734 136.454L50.6154 137.347L51.6338 138.488L52.4025 139.808L52.8749 141.265L53.0321 142.777ZM30.1901 142.777L29.9826 143.834L29.3817 144.729L28.4857 145.329L27.4264 145.537L26.3754 145.329L25.4803 144.729L24.8793 143.834L24.6718 142.777L24.8798 141.727L25.4803 140.833L26.3754 140.233L27.4264 140.026L28.4857 140.233L29.3817 140.833L29.9821 141.727L30.1901 142.777ZM26.6385 33.6789L26.9714 34.0114L27.4273 34.1343L27.8905 34.0114L28.2234 33.6789L28.3465 33.2164L28.2234 32.761L27.8905 32.4286L27.4273 32.3057L26.9714 32.4286L26.6385 32.761L26.5155 33.2164L26.6385 33.6789ZM101.86 31.9299L101.267 31.5324L100.565 31.3951L99.8703 31.5324L99.2768 31.9299L98.8788 32.5225L98.7413 33.2164L98.8788 33.9174L99.2768 34.5101L99.8703 34.9076L100.565 35.0449L101.267 34.9076L101.86 34.5101L102.259 33.9174L102.396 33.2164L102.259 32.5225L101.86 31.9299ZM86.2863 31.0192L86.7133 32.0817L86.8581 33.2164L86.7133 34.3583L86.2863 35.4207L85.6133 36.3459L84.7304 37.0758L83.6955 37.5601L82.5737 37.7769L81.4303 37.7046L80.3375 37.3505L79.3677 36.7362L78.5861 35.905L78.0361 34.9004L77.7466 33.7946V32.6454L78.0361 31.5396L78.5861 30.535L79.3677 29.7038L80.3375 29.0895L81.4303 28.7353L82.5737 28.6631L83.6955 28.8799L84.7304 29.3641L85.6133 30.0941L86.2863 31.0192ZM106.413 48.8783L106.825 50.1503L106.97 51.4802L106.825 52.81L106.413 54.0821L105.747 55.2384L104.849 56.2286L103.771 57.0164L102.548 57.5585L101.238 57.8331H99.8992L98.5893 57.5585L97.3663 57.0164L96.2879 56.2286L95.3905 55.2384L94.7248 54.0821L94.305 52.81L94.1675 51.4802L94.305 50.1503L94.7248 48.8783L95.3905 47.7219L96.2879 46.7317L97.3663 45.9439L98.5893 45.4019L99.8992 45.1272H101.238L102.548 45.4019L103.771 45.9439L104.849 46.7317L105.747 47.7219L106.413 48.8783ZM49.7175 67.5396L50.1445 68.602L50.2892 69.7367L50.1445 70.8787L49.7175 71.9411L49.0444 72.8662L48.1615 73.5962L47.1266 74.0805L46.0049 74.2973L44.8614 74.225L43.7686 73.8709L42.7989 73.2565L42.0173 72.4254L41.4672 71.4207L41.1778 70.3149V69.1658L41.4672 68.06L42.0173 67.0554L42.7989 66.2242L43.7686 65.6099L44.8614 65.2557L46.0049 65.1834L47.1266 65.4003L48.1615 65.8845L49.0444 66.6145L49.7175 67.5396ZM10.442 50.1865L10.8328 50.7791L10.9775 51.4802L10.8328 52.1812L10.442 52.7739L9.84855 53.1642L9.14655 53.3087L8.44456 53.1642L7.85111 52.7739L7.45306 52.1812L7.31558 51.4802L7.45306 50.7791L7.85111 50.1865L8.44456 49.7962L9.14655 49.6516L9.84855 49.7962L10.442 50.1865ZM103.691 67.8431L104.09 68.7538L104.227 69.7367L104.09 70.7269L103.691 71.6376L103.062 72.4109L102.251 72.9819L101.31 73.3143L100.319 73.3866L99.342 73.1842L98.4591 72.7217L97.7281 72.0423L97.2143 71.1967L96.9465 70.2354V69.2453L97.2143 68.284L97.7281 67.4384L98.4591 66.759L99.342 66.2965L100.319 66.0941L101.31 66.1664L102.251 66.4988L103.062 67.0698L103.691 67.8431ZM123.796 67.3661L123.137 66.3254L122.269 65.4581L121.234 64.8076L120.076 64.4029L118.853 64.2656L117.63 64.4029L116.472 64.8076L115.43 65.4581L114.562 66.3254L113.91 67.3661L113.505 68.5225L113.367 69.7367L113.505 70.9582L113.91 72.1146L114.562 73.1553L115.43 74.0226L116.472 74.6731L117.63 75.0778L118.853 75.2152L120.076 75.0778L121.234 74.6731L122.269 74.0226L123.137 73.1553L123.796 72.1146L124.201 70.9582L124.339 69.7367L124.201 68.5225L123.796 67.3661ZM16.8178 85.0301L17.2303 86.49L17.3751 88.0006L17.2303 89.5111L16.8178 90.971L16.1448 92.3226L15.2257 93.5368L14.1039 94.5558L12.8157 95.3581L11.3973 95.9002L9.90643 96.182H8.38665L6.89582 95.9002L5.47736 95.3581L4.18916 94.5558L3.06741 93.5368L2.14831 92.3226L1.47527 90.971L1.05551 89.5111L0.917999 88.0006L1.05551 86.49L1.47527 85.0301L2.14831 83.6713L3.06741 82.4643L4.18916 81.4452L5.47736 80.643L6.89582 80.0937L8.38665 79.8191H9.90643L11.3973 80.0937L12.8157 80.643L14.1039 81.4452L15.2257 82.4643L16.1448 83.6713L16.8178 85.0301ZM14.9941 103.662L15.4066 104.934L15.5441 106.257L15.4066 107.587L14.9941 108.859L14.321 110.015L13.4309 111.013L12.3453 111.793L11.1223 112.335L9.81235 112.617H8.47349L7.17083 112.335L5.94776 111.793L4.8622 111.013L3.96482 110.015L3.299 108.859L2.88648 107.587L2.74897 106.257L2.88648 104.934L3.299 103.662L3.96482 102.506L4.8622 101.509L5.94776 100.728L7.17083 100.179L8.47349 99.9042H9.81235L11.1223 100.179L12.3453 100.728L13.4309 101.509L14.321 102.506L14.9941 103.662ZM14.0895 67.3661L13.4309 66.3254L12.5624 65.4581L11.5275 64.8076L10.3696 64.4029L9.14655 64.2656L7.92349 64.4029L6.76555 64.8076L5.72342 65.4581L4.85496 66.3254L4.20363 67.3661L3.79836 68.5225L3.66085 69.7367L3.79836 70.9582L4.20363 72.1146L4.85496 73.1553L5.72342 74.0226L6.76555 74.6731L7.92349 75.0778L9.14655 75.2152L10.3696 75.0778L11.5275 74.6731L12.5624 74.0226L13.4309 73.1553L14.0895 72.1146L14.4947 70.9582L14.6322 69.7367L14.4947 68.5225L14.0895 67.3661ZM126.524 85.0301L125.851 83.6713L124.932 82.4643L123.81 81.4452L122.522 80.643L121.104 80.0937L119.613 79.8191H118.093L116.602 80.0937L115.184 80.643L113.896 81.4452L112.774 82.4643L111.855 83.6713L111.182 85.0301L110.762 86.49L110.625 88.0006L110.762 89.5111L111.182 90.971L111.855 92.3226L112.774 93.5368L113.896 94.5558L115.184 95.3581L116.602 95.9002L118.093 96.182H119.613L121.104 95.9002L122.522 95.3581L123.81 94.5558L124.932 93.5368L125.851 92.3226L126.524 90.971L126.937 89.5111L127.082 88.0006L126.937 86.49L126.524 85.0301ZM124.701 103.662L125.113 104.934L125.251 106.257L125.113 107.587L124.701 108.859L124.028 110.015L123.137 111.013L122.052 111.793L120.829 112.335L119.519 112.617H118.18L116.877 112.335L115.654 111.793L114.569 111.013L113.671 110.015L113.006 108.859L112.593 107.587L112.456 106.257L112.593 104.934L113.006 103.662L113.671 102.506L114.569 101.509L115.654 100.728L116.877 100.179L118.18 99.9042H119.519L120.829 100.179L122.052 100.728L123.137 101.509L124.028 102.506L124.701 103.662ZM120.149 123.227L119.555 122.837L118.853 122.692L118.151 122.837L117.558 123.227L117.16 123.82L117.022 124.521L117.16 125.222L117.558 125.815L118.151 126.205L118.853 126.349L119.555 126.205L120.149 125.815L120.539 125.222L120.684 124.521L120.539 123.82L120.149 123.227ZM99.7762 143.24L99.6532 142.777L99.7762 142.322L100.109 141.99L100.565 141.867L101.028 141.99L101.361 142.322L101.484 142.777L101.361 143.24L101.028 143.572L100.565 143.695L100.109 143.572L99.7762 143.24ZM30.5538 86.0997L29.9241 85.3336L29.1136 84.7554L28.1728 84.4229L27.1813 84.3579L26.2043 84.5603L25.3214 85.0156L24.5904 85.695L24.0766 86.5478L23.8088 87.5019V88.4992L24.0766 89.4533L24.5904 90.3061L25.3214 90.9855L26.2043 91.4408L27.1813 91.6432L28.1728 91.5781L29.1136 91.2457L29.9241 90.6675L30.5538 89.9013L30.9518 88.9835L31.0893 88.0006L30.9518 87.0176L30.5538 86.0997ZM29.6491 104.653L29.0412 104.046L28.2741 103.655L27.4273 103.525L26.5806 103.655L25.8207 104.046L25.2128 104.653L24.822 105.412L24.6845 106.257L24.822 107.11L25.2128 107.869L25.8207 108.476L26.5806 108.866L27.4273 108.996L28.2741 108.866L29.0412 108.476L29.6491 107.869L30.0399 107.11L30.1702 106.257L30.0399 105.412L29.6491 104.653ZM10.0584 124.521L9.93539 124.976L9.60247 125.309L9.14655 125.432L8.69061 125.309L8.35047 124.976L8.23468 124.521L8.35047 124.066L8.69061 123.733L9.14655 123.61L9.60247 123.733L9.93539 124.066L10.0584 124.521ZM86.8581 142.777L86.7133 141.643L86.2863 140.58L85.6133 139.655L84.7304 138.925L83.6955 138.441L82.5737 138.224L81.4303 138.296L80.3375 138.651L79.3677 139.265L78.5861 140.096L78.0361 141.101L77.7466 142.207V143.356L78.0361 144.461L78.5861 145.466L79.3677 146.297L80.3375 146.912L81.4303 147.266L82.5737 147.338L83.6955 147.121L84.7304 146.637L85.6133 145.907L86.2863 144.982L86.7133 143.919L86.8581 142.777ZM52.113 142.777L51.9755 141.455L51.5629 140.183L50.8899 139.026L49.9997 138.029L48.9142 137.248L47.6911 136.699L46.3812 136.425H45.0423L43.7397 136.699L42.5166 137.248L41.4311 138.029L40.5337 139.026L39.8678 140.183L39.4553 141.455L39.3178 142.777L39.4553 144.107L39.8678 145.379L40.5337 146.536L41.4311 147.533L42.5166 148.314L43.7397 148.856L45.0423 149.138H46.3812L47.6911 148.856L48.9142 148.314L49.9997 147.533L50.8899 146.536L51.5629 145.379L51.9755 144.107L52.113 142.777ZM25.7411 142.084L25.6036 142.777L25.7411 143.479L26.1391 144.071L26.7326 144.469L27.4273 144.606L28.1293 144.469L28.7228 144.071L29.1208 143.479L29.2583 142.777L29.1208 142.084L28.7228 141.491L28.1293 141.093L27.4273 140.956L26.7326 141.093L26.1391 141.491L25.7411 142.084Z" fill="#0066B3"/>
<path d="M106.825 50.1503L106.413 48.8783L105.747 47.7219L104.849 46.7317L103.771 45.9439L102.548 45.4019L101.238 45.1272H99.8992L98.5893 45.4019L97.3663 45.9439L96.2879 46.7317L95.3905 47.7219L94.7248 48.8783L94.305 50.1503L94.1675 51.4802L94.305 52.81L94.7248 54.0821L95.3905 55.2384L96.2879 56.2286L97.3663 57.0164L98.5893 57.5585L99.8992 57.8331H101.238L102.548 57.5585L103.771 57.0164L104.849 56.2286L105.747 55.2384L106.413 54.0821L106.825 52.81L106.97 51.4802L106.825 50.1503Z" fill="#0066B3"/>
<path d="M104.09 68.7538L103.691 67.8431L103.062 67.0698L102.251 66.4988L101.31 66.1664L100.319 66.0941L99.342 66.2965L98.4591 66.759L97.7281 67.4384L97.2143 68.284L96.9465 69.2453V70.2354L97.2143 71.1967L97.7281 72.0423L98.4591 72.7217L99.342 73.1842L100.319 73.3866L101.31 73.3143L102.251 72.9819L103.062 72.4109L103.691 71.6376L104.09 70.7269L104.227 69.7367L104.09 68.7538Z" fill="#0066B3"/>
<path d="M123.137 66.3254L123.796 67.3661L124.201 68.5225L124.339 69.7367L124.201 70.9582L123.796 72.1146L123.137 73.1553L122.269 74.0226L121.234 74.6731L120.076 75.0778L118.853 75.2152L117.63 75.0778L116.472 74.6731L115.43 74.0226L114.562 73.1553L113.91 72.1146L113.505 70.9582L113.367 69.7367L113.505 68.5225L113.91 67.3661L114.562 66.3254L115.43 65.4581L116.472 64.8076L117.63 64.4029L118.853 64.2656L120.076 64.4029L121.234 64.8076L122.269 65.4581L123.137 66.3254Z" fill="#0066B3"/>
<path d="M125.851 83.6713L126.524 85.0301L126.937 86.49L127.082 88.0006L126.937 89.5111L126.524 90.971L125.851 92.3226L124.932 93.5368L123.81 94.5558L122.522 95.3581L121.104 95.9002L119.613 96.182H118.093L116.602 95.9002L115.184 95.3581L113.896 94.5558L112.774 93.5368L111.855 92.3226L111.182 90.971L110.762 89.5111L110.625 88.0006L110.762 86.49L111.182 85.0301L111.855 83.6713L112.774 82.4643L113.896 81.4452L115.184 80.643L116.602 80.0937L118.093 79.8191H119.613L121.104 80.0937L122.522 80.643L123.81 81.4452L124.932 82.4643L125.851 83.6713Z" fill="#0066B3"/>
<path d="M125.113 104.934L124.701 103.662L124.028 102.506L123.137 101.509L122.052 100.728L120.829 100.179L119.519 99.9042H118.18L116.877 100.179L115.654 100.728L114.569 101.509L113.671 102.506L113.006 103.662L112.593 104.934L112.456 106.257L112.593 107.587L113.006 108.859L113.671 110.015L114.569 111.013L115.654 111.793L116.877 112.335L118.18 112.617H119.519L120.829 112.335L122.052 111.793L123.137 111.013L124.028 110.015L124.701 108.859L125.113 107.587L125.251 106.257L125.113 104.934Z" fill="#0066B3"/>
<path d="M119.555 122.837L120.149 123.227L120.539 123.82L120.684 124.521L120.539 125.222L120.149 125.815L119.555 126.205L118.853 126.349L118.151 126.205L117.558 125.815L117.16 125.222L117.022 124.521L117.16 123.82L117.558 123.227L118.151 122.837L118.853 122.692L119.555 122.837Z" fill="#0066B3"/>
<path d="M99.6532 142.777L99.7762 143.24L100.109 143.572L100.565 143.695L101.028 143.572L101.361 143.24L101.484 142.777L101.361 142.322L101.028 141.99L100.565 141.867L100.109 141.99L99.7762 142.322L99.6532 142.777Z" fill="#0066B3"/>
<path d="M86.7133 141.643L86.8581 142.777L86.7133 143.919L86.2863 144.982L85.6133 145.907L84.7304 146.637L83.6955 147.121L82.5737 147.338L81.4303 147.266L80.3375 146.912L79.3677 146.297L78.5861 145.466L78.0361 144.461L77.7466 143.356V142.207L78.0361 141.101L78.5861 140.096L79.3677 139.265L80.3375 138.651L81.4303 138.296L82.5737 138.224L83.6955 138.441L84.7304 138.925L85.6133 139.655L86.2863 140.58L86.7133 141.643Z" fill="#0066B3"/>
<path d="M52.113 142.777L51.9755 141.455L51.5629 140.183L50.8899 139.026L49.9997 138.029L48.9142 137.248L47.6911 136.699L46.3812 136.425H45.0423L43.7397 136.699L42.5166 137.248L41.4311 138.029L40.5337 139.026L39.8678 140.183L39.4553 141.455L39.3178 142.777L39.4553 144.107L39.8678 145.379L40.5337 146.536L41.4311 147.533L42.5166 148.314L43.7397 148.856L45.0423 149.138H46.3812L47.6911 148.856L48.9142 148.314L49.9997 147.533L50.8899 146.536L51.5629 145.379L51.9755 144.107L52.113 142.777Z" fill="#0066B3"/>
<path d="M25.6036 142.777L25.7411 142.084L26.1391 141.491L26.7326 141.093L27.4273 140.956L28.1293 141.093L28.7228 141.491L29.1208 142.084L29.2583 142.777L29.1208 143.479L28.7228 144.071L28.1293 144.469L27.4273 144.606L26.7326 144.469L26.1391 144.071L25.7411 143.479L25.6036 142.777Z" fill="#0066B3"/>
<path d="M9.93539 124.976L10.0584 124.521L9.93539 124.066L9.60247 123.733L9.14655 123.61L8.69061 123.733L8.35047 124.066L8.23468 124.521L8.35047 124.976L8.69061 125.309L9.14655 125.432L9.60247 125.309L9.93539 124.976Z" fill="#0066B3"/>
<path d="M29.0412 104.046L29.6491 104.653L30.0399 105.412L30.1702 106.257L30.0399 107.11L29.6491 107.869L29.0412 108.476L28.2741 108.866L27.4273 108.996L26.5806 108.866L25.8207 108.476L25.2128 107.869L24.822 107.11L24.6845 106.257L24.822 105.412L25.2128 104.653L25.8207 104.046L26.5806 103.655L27.4273 103.525L28.2741 103.655L29.0412 104.046Z" fill="#0066B3"/>
<path d="M15.4066 104.934L14.9941 103.662L14.321 102.506L13.4309 101.509L12.3453 100.728L11.1223 100.179L9.81235 99.9042H8.47349L7.17083 100.179L5.94776 100.728L4.8622 101.509L3.96482 102.506L3.299 103.662L2.88648 104.934L2.74897 106.257L2.88648 107.587L3.299 108.859L3.96482 110.015L4.8622 111.013L5.94776 111.793L7.17083 112.335L8.47349 112.617H9.81235L11.1223 112.335L12.3453 111.793L13.4309 111.013L14.321 110.015L14.9941 108.859L15.4066 107.587L15.5441 106.257L15.4066 104.934Z" fill="#0066B3"/>
<path d="M29.9241 85.3336L30.5538 86.0997L30.9518 87.0176L31.0893 88.0006L30.9518 88.9835L30.5538 89.9013L29.9241 90.6675L29.1136 91.2457L28.1728 91.5781L27.1813 91.6432L26.2043 91.4408L25.3214 90.9855L24.5904 90.3061L24.0766 89.4533L23.8088 88.4992V87.5019L24.0766 86.5478L24.5904 85.695L25.3214 85.0156L26.2043 84.5603L27.1813 84.3579L28.1728 84.4229L29.1136 84.7554L29.9241 85.3336Z" fill="#0066B3"/>
<path d="M17.2303 86.49L16.8178 85.0301L16.1448 83.6713L15.2257 82.4643L14.1039 81.4452L12.8157 80.643L11.3973 80.0937L9.90643 79.8191H8.38665L6.89582 80.0937L5.47736 80.643L4.18916 81.4452L3.06741 82.4643L2.14831 83.6713L1.47527 85.0301L1.05551 86.49L0.917999 88.0006L1.05551 89.5111L1.47527 90.971L2.14831 92.3226L3.06741 93.5368L4.18916 94.5558L5.47736 95.3581L6.89582 95.9002L8.38665 96.182H9.90643L11.3973 95.9002L12.8157 95.3581L14.1039 94.5558L15.2257 93.5368L16.1448 92.3226L16.8178 90.971L17.2303 89.5111L17.3751 88.0006L17.2303 86.49Z" fill="#0066B3"/>
<path d="M13.4309 66.3254L14.0895 67.3661L14.4947 68.5225L14.6322 69.7367L14.4947 70.9582L14.0895 72.1146L13.4309 73.1553L12.5624 74.0226L11.5275 74.6731L10.3696 75.0778L9.14655 75.2152L7.92349 75.0778L6.76555 74.6731L5.72342 74.0226L4.85496 73.1553L4.20363 72.1146L3.79836 70.9582L3.66085 69.7367L3.79836 68.5225L4.20363 67.3661L4.85496 66.3254L5.72342 65.4581L6.76555 64.8076L7.92349 64.4029L9.14655 64.2656L10.3696 64.4029L11.5275 64.8076L12.5624 65.4581L13.4309 66.3254Z" fill="#0066B3"/>
<path d="M50.1445 68.602L49.7175 67.5396L49.0444 66.6145L48.1615 65.8845L47.1266 65.4003L46.0049 65.1834L44.8614 65.2557L43.7686 65.6099L42.7989 66.2242L42.0173 67.0554L41.4672 68.06L41.1778 69.1658V70.3149L41.4672 71.4207L42.0173 72.4254L42.7989 73.2565L43.7686 73.8709L44.8614 74.225L46.0049 74.2973L47.1266 74.0805L48.1615 73.5962L49.0444 72.8662L49.7175 71.9411L50.1445 70.8787L50.2892 69.7367L50.1445 68.602Z" fill="#0066B3"/>
<path d="M10.8328 50.7791L10.442 50.1865L9.84855 49.7962L9.14655 49.6516L8.44456 49.7962L7.85111 50.1865L7.45306 50.7791L7.31558 51.4802L7.45306 52.1812L7.85111 52.7739L8.44456 53.1642L9.14655 53.3087L9.84855 53.1642L10.442 52.7739L10.8328 52.1812L10.9775 51.4802L10.8328 50.7791Z" fill="#0066B3"/>
<path d="M26.9714 34.0114L26.6385 33.6789L26.5155 33.2164L26.6385 32.761L26.9714 32.4286L27.4273 32.3057L27.8905 32.4286L28.2234 32.761L28.3465 33.2164L28.2234 33.6789L27.8905 34.0114L27.4273 34.1343L26.9714 34.0114Z" fill="#0066B3"/>
<path d="M86.7133 32.0817L86.2863 31.0192L85.6133 30.0941L84.7304 29.3641L83.6955 28.8799L82.5737 28.6631L81.4303 28.7353L80.3375 29.0895L79.3677 29.7038L78.5861 30.535L78.0361 31.5396L77.7466 32.6454V33.7946L78.0361 34.9004L78.5861 35.905L79.3677 36.7362L80.3375 37.3505L81.4303 37.7046L82.5737 37.7769L83.6955 37.5601L84.7304 37.0758L85.6133 36.3459L86.2863 35.4207L86.7133 34.3583L86.8581 33.2164L86.7133 32.0817Z" fill="#0066B3"/>
<path d="M101.267 31.5324L101.86 31.9299L102.259 32.5225L102.396 33.2164L102.259 33.9174L101.86 34.5101L101.267 34.9076L100.565 35.0449L99.8703 34.9076L99.2768 34.5101L98.8788 33.9174L98.7413 33.2164L98.8788 32.5225L99.2768 31.9299L99.8703 31.5324L100.565 31.3951L101.267 31.5324Z" fill="#0066B3"/>
<path fill-rule="evenodd" clip-rule="evenodd" d="M72.9197 53.46C72.4862 55.4059 71.427 57.1566 69.9037 58.4449C68.3805 59.7332 66.4769 60.4882 64.4837 60.5947C62.4904 60.7012 60.517 60.1533 58.8649 59.0347C57.5877 58.1699 56.5566 57.0008 55.8593 55.6423C55.6546 55.2434 55.4786 54.8282 55.3336 54.3996C55.2016 54.833 55.0409 55.2551 54.8535 55.6632C54.1192 57.2623 52.9734 58.6484 51.5228 59.6739C49.7019 60.9612 47.504 61.6073 45.2751 61.5104C43.0463 61.4136 40.9129 60.5793 39.2108 59.1389C37.5088 57.6985 36.3346 55.7338 35.8732 53.554C35.8392 53.3947 35.7528 53.2513 35.6279 53.1466C35.503 53.0419 35.3467 52.9819 35.1837 52.9761C35.0207 52.9703 34.8605 53.019 34.7284 53.1145C34.5963 53.2101 34.5 53.3469 34.4547 53.5034C34.1033 54.7209 33.4408 55.8261 32.5324 56.7106C31.6239 57.5951 30.5006 58.2283 29.273 58.5481C28.9152 58.6389 28.5984 58.8472 28.3735 59.1395C28.1485 59.4317 28.0285 59.791 28.0327 60.1596C28.0369 60.5282 28.165 60.8847 28.3965 61.1718C28.628 61.4589 28.9494 61.66 29.3091 61.7427C31.2743 62.2028 33.0016 63.3683 34.1623 65.0174C35.3231 66.6665 35.8363 68.6842 35.6045 70.6867C35.3726 72.6891 34.4117 74.5366 32.9047 75.8776C31.3976 77.2186 29.4496 77.9596 27.4311 77.9596C25.4126 77.9596 23.4646 77.2186 21.9576 75.8776C20.4506 74.5366 19.4897 72.6891 19.2578 70.6867C19.0259 68.6842 19.5391 66.6665 20.6999 65.0174C21.8606 63.3683 23.5879 62.2028 25.5531 61.7427C25.9128 61.66 26.2343 61.4589 26.4658 61.1718C26.6973 60.8847 26.8254 60.5282 26.8296 60.1596C26.8337 59.791 26.7137 59.4317 26.4888 59.1395C26.2638 58.8472 25.947 58.6389 25.5893 58.5481C24.3499 58.2268 23.2167 57.5862 22.303 56.6904C21.3893 55.7945 20.7271 54.6748 20.3827 53.4432C20.0382 52.2116 20.0236 50.9112 20.3402 49.6722C20.6569 48.4331 21.2937 47.2988 22.187 46.3827C23.0803 45.4665 24.1988 44.8006 25.4306 44.4516C26.6624 44.1026 27.9644 44.0826 29.2064 44.3938C30.4484 44.7049 31.5868 45.3362 32.5078 46.2246C33.4288 47.113 34.1002 48.2272 34.4547 49.456C34.5 49.6124 34.5963 49.7493 34.7284 49.8448C34.8605 49.9404 35.0207 49.9891 35.1837 49.9833C35.3467 49.9775 35.503 49.9174 35.6279 49.8127C35.7528 49.708 35.8392 49.5647 35.8732 49.4054C36.283 47.4675 37.2574 45.6939 38.6738 44.3076C40.0903 42.9213 41.8856 41.9842 43.8339 41.6142C44.1939 41.5471 44.5212 41.3621 44.764 41.0884C45.0068 40.8146 45.1513 40.4679 45.1745 40.1029C45.1978 39.738 45.0985 39.3757 44.8924 39.0734C44.6863 38.7712 44.3851 38.5462 44.0365 38.4341C42.7917 38.0344 41.7307 37.2038 41.0449 36.0919C40.3591 34.9801 40.0935 33.6601 40.2961 32.37C40.4986 31.0799 41.156 29.9044 42.1497 29.0555C43.1433 28.2067 44.4079 27.7402 45.7155 27.7402C47.0232 27.7402 48.2878 28.2067 49.2814 29.0555C50.2751 29.9044 50.9325 31.0799 51.135 32.37C51.3376 33.6601 51.072 34.9801 50.3862 36.0919C49.7004 37.2038 48.6394 38.0344 47.3945 38.4341C47.0459 38.5455 46.7445 38.7699 46.5379 39.0716C46.3312 39.3733 46.2312 39.7352 46.2537 40.1001C46.2761 40.4649 46.4197 40.8119 46.6617 41.0861C46.9037 41.3603 47.2303 41.5462 47.59 41.6142C49.3923 41.9564 51.0666 42.7844 52.4315 44.0087C53.4592 44.9305 54.282 46.0504 54.8536 47.2958C55.0412 47.7045 55.2018 48.1267 55.3336 48.5598C55.4784 48.1316 55.6543 47.7163 55.8594 47.3168C56.3669 46.3279 57.0528 45.4363 57.8863 44.6887C59.0565 43.6391 60.478 42.9087 62.0134 42.5682C62.2737 42.5119 62.5075 42.3698 62.6772 42.1649C62.847 41.96 62.9429 41.704 62.9496 41.4382C62.9563 41.1723 62.8733 40.9119 62.7141 40.6987C62.5548 40.4855 62.3284 40.332 62.0713 40.2627C60.3628 39.7962 58.8819 38.7264 57.9034 37.252C56.925 35.7775 56.5156 33.9985 56.7512 32.2454C56.9868 30.4923 57.8515 28.8841 59.1846 27.7195C60.5178 26.5549 62.2288 25.913 64 25.913C65.7712 25.913 67.4822 26.5549 68.8153 27.7195C70.1485 28.8841 71.0131 30.4923 71.2487 32.2454C71.4844 33.9985 71.075 35.7775 70.0965 37.252C69.1181 38.7264 67.6372 39.7962 65.9287 40.2627C65.6715 40.332 65.4452 40.4855 65.2859 40.6987C65.1266 40.9119 65.0437 41.1723 65.0503 41.4382C65.057 41.704 65.1529 41.96 65.3227 42.1649C65.4925 42.3698 65.7263 42.5119 65.9865 42.5682C67.6813 42.9457 69.2333 43.7973 70.4611 45.0235C71.6889 46.2497 72.5417 47.7996 72.9197 49.4921C72.9761 49.7521 73.1183 49.9855 73.3235 50.1551C73.5287 50.3246 73.785 50.4204 74.0512 50.4271C74.3174 50.4337 74.5782 50.3509 74.7916 50.1918C75.0051 50.0328 75.1589 49.8067 75.2283 49.5499C75.6961 47.8443 76.7678 46.366 78.2443 45.3897C79.7208 44.4133 81.502 44.0051 83.257 44.2408C85.0121 44.4765 86.6219 45.3402 87.7876 46.6714C88.9534 48.0027 89.5959 49.7112 89.5959 51.4797C89.5959 53.2482 88.9534 54.9567 87.7876 56.2879C86.6219 57.6192 85.0121 58.4829 83.257 58.7186C81.502 58.9543 79.7208 58.5461 78.2443 57.5697C76.7678 56.5933 75.6961 55.1151 75.2283 53.4094C75.1596 53.1525 75.0066 52.926 74.7936 52.7664C74.5807 52.6067 74.3203 52.5231 74.0541 52.5289C73.7879 52.5348 73.5313 52.6297 73.3256 52.7986C73.1199 52.9674 72.977 53.2003 72.9197 53.46ZM55.3794 46.3016C55.892 45.4512 56.5301 44.678 57.2754 44.0094C58.5626 42.8549 60.1262 42.0515 61.8152 41.6769L61.8197 41.6759C61.8798 41.6629 61.9337 41.6301 61.9728 41.5829C62.012 41.5356 62.0341 41.4766 62.0356 41.4153C62.0372 41.3539 62.0181 41.2939 61.9813 41.2447C61.9446 41.1956 61.8924 41.1601 61.8331 41.1442L61.8302 41.1434C59.9082 40.6186 58.2421 39.4151 57.1414 37.7563C56.0406 36.0976 55.58 34.0962 55.8451 32.124C56.1102 30.1517 57.083 28.3425 58.5827 27.0323C60.0825 25.7221 62.0074 25 64 25C65.9926 25 67.9175 25.7221 69.4172 27.0323C70.917 28.3425 71.8898 30.1517 72.1548 32.124C72.4199 34.0962 71.9594 36.0976 70.8586 37.7563C69.7579 39.4151 68.0918 40.6186 66.1697 41.1434L66.1669 41.1442C66.1076 41.1601 66.0553 41.1956 66.0186 41.2447C65.9819 41.2939 65.9628 41.3539 65.9643 41.4153C65.9658 41.4766 65.988 41.5356 66.0271 41.5829C66.0662 41.6301 66.1202 41.6629 66.1802 41.6759L66.1856 41.677C68.0497 42.0923 69.757 43.0291 71.1076 44.3779C72.4581 45.7267 73.3962 47.4316 73.812 49.2934L73.8131 49.2987C73.8261 49.3587 73.859 49.4125 73.9062 49.4516C73.9536 49.4907 74.0127 49.5128 74.0741 49.5143C74.1355 49.5159 74.1957 49.4967 74.2449 49.4601C74.2942 49.4233 74.3296 49.3712 74.3456 49.312L74.3465 49.3087C74.8729 47.3898 76.0785 45.7268 77.7396 44.6284C79.4007 43.5299 81.4044 43.0707 83.3789 43.3359C85.3533 43.6011 87.1644 44.5727 88.4758 46.0704C89.7873 47.568 90.5102 49.4901 90.5102 51.4797C90.5102 53.4693 89.7873 55.3913 88.4758 56.889C87.1644 58.3867 85.3533 59.3583 83.3789 59.6235C81.4044 59.8887 79.4007 59.4294 77.7396 58.331C76.0785 57.2326 74.8729 55.5695 74.3465 53.6506L74.3449 53.6448C74.3291 53.5856 74.2938 53.5334 74.2447 53.4965C74.1956 53.4597 74.1355 53.4404 74.0741 53.4418C74.0127 53.4431 73.9535 53.465 73.9061 53.504C73.8586 53.5429 73.8257 53.5966 73.8125 53.6565L73.8121 53.6583C73.3353 55.7987 72.1701 57.7246 70.4945 59.1417C68.819 60.5588 66.725 61.3893 64.5325 61.5064C62.3399 61.6236 60.1692 61.0209 58.3518 59.7904C57.1382 58.9687 56.1267 57.8972 55.3792 56.6573C54.5809 58.1431 53.4449 59.4337 52.051 60.4191C50.0645 61.8235 47.6669 62.5283 45.2354 62.4226C42.8039 62.317 40.4766 61.4069 38.6198 59.8355C36.9272 58.4031 35.7131 56.4954 35.1303 54.3679C34.7064 55.4959 34.0382 56.5197 33.1705 57.3644C32.1485 58.3594 30.8848 59.0718 29.5037 59.4316L29.4981 59.4331C29.3391 59.4734 29.1983 59.566 29.0983 59.6959C28.9983 59.8258 28.945 59.9855 28.9469 60.1493C28.9487 60.3131 29.0057 60.4715 29.1086 60.5992C29.2115 60.7268 29.3543 60.8161 29.5142 60.8529L29.5178 60.8537C31.7013 61.365 33.6205 62.6599 34.9103 64.4923C36.2 66.3247 36.7703 68.5666 36.5126 70.7916C36.255 73.0165 35.1873 75.0693 33.5128 76.5593C31.8384 78.0493 29.6739 78.8726 27.4311 78.8726C25.1884 78.8726 23.0239 78.0493 21.3494 76.5593C19.6749 75.0693 18.6073 73.0165 18.3496 70.7916C18.0919 68.5666 18.6622 66.3247 19.952 64.4923C21.2417 62.6599 23.1609 61.365 25.3444 60.8537L25.348 60.8529C25.5079 60.8161 25.6508 60.7268 25.7537 60.5992C25.8566 60.4716 25.9135 60.3131 25.9154 60.1493C25.9172 59.9855 25.8639 59.8258 25.7639 59.6959C25.6639 59.566 25.5231 59.4734 25.3641 59.433L25.3596 59.4319C23.9653 59.0704 22.6904 58.3498 21.6625 57.3419C20.6346 56.3341 19.8896 55.0744 19.5021 53.6888C19.1146 52.3032 19.0982 50.8403 19.4544 49.4464C19.8106 48.0525 20.527 46.7764 21.532 45.7457C22.5369 44.715 23.7953 43.9659 25.1811 43.5732C26.5669 43.1806 28.0316 43.1581 29.4288 43.5082C30.826 43.8582 32.1068 44.5684 33.1429 45.5678C34.0239 46.4176 34.7018 47.4511 35.1303 48.5912C35.642 46.7218 36.6425 45.0173 38.0339 43.6555C39.5792 42.1432 41.5377 41.1209 43.6631 40.7172L43.6663 40.7166C43.8263 40.6868 43.9718 40.6046 44.0797 40.4829C44.1876 40.3613 44.2518 40.2071 44.2621 40.0449C44.2725 39.8827 44.2283 39.7217 44.1367 39.5874C44.0451 39.453 43.9113 39.353 43.7563 39.3032C42.3042 38.8369 41.0666 37.8679 40.2665 36.5708C39.4664 35.2736 39.1566 33.7337 39.3929 32.2285C39.6292 30.7234 40.3961 29.352 41.5554 28.3617C42.7146 27.3714 44.19 26.8271 45.7155 26.8271C47.2411 26.8271 48.7165 27.3714 49.8757 28.3617C51.035 29.3521 51.8019 30.7234 52.0382 32.2285C52.2745 33.7337 51.9647 35.2736 51.1646 36.5708C50.3644 37.868 49.1267 38.837 47.6743 39.3033L47.6732 39.3037C47.5183 39.3532 47.3843 39.4529 47.2925 39.587C47.2007 39.7211 47.1562 39.882 47.1662 40.0441C47.1761 40.2063 47.2399 40.3605 47.3475 40.4824C47.4551 40.6043 47.6003 40.6869 47.7601 40.7171C49.7263 41.0904 51.5534 41.9938 53.0424 43.3294C53.9919 44.1811 54.7812 45.1879 55.3794 46.3016Z" fill="#0066B3"/>
<path d="M69.9037 58.4449C71.427 57.1566 72.4862 55.4059 72.9197 53.46C72.977 53.2003 73.1199 52.9674 73.3256 52.7986C73.5313 52.6297 73.7879 52.5348 74.0541 52.5289C74.3203 52.5231 74.5807 52.6067 74.7936 52.7664C75.0066 52.926 75.1596 53.1525 75.2283 53.4094C75.6961 55.1151 76.7678 56.5933 78.2443 57.5697C79.7208 58.5461 81.502 58.9543 83.257 58.7186C85.0121 58.4829 86.6219 57.6192 87.7876 56.2879C88.9534 54.9567 89.5959 53.2482 89.5959 51.4797C89.5959 49.7112 88.9534 48.0027 87.7876 46.6714C86.6219 45.3402 85.0121 44.4765 83.257 44.2408C81.502 44.0051 79.7208 44.4133 78.2443 45.3897C76.7678 46.366 75.6961 47.8443 75.2283 49.5499C75.1589 49.8067 75.0051 50.0328 74.7916 50.1918C74.5782 50.3509 74.3174 50.4337 74.0512 50.4271C73.785 50.4204 73.5287 50.3246 73.3235 50.1551C73.1183 49.9855 72.9761 49.7521 72.9197 49.4921C72.5417 47.7996 71.6889 46.2497 70.4611 45.0235C69.2333 43.7973 67.6813 42.9457 65.9865 42.5682C65.7263 42.5119 65.4925 42.3698 65.3227 42.1649C65.1529 41.96 65.057 41.704 65.0503 41.4382C65.0437 41.1723 65.1266 40.9119 65.2859 40.6987C65.4452 40.4855 65.6715 40.332 65.9287 40.2627C67.6372 39.7962 69.1181 38.7264 70.0965 37.252C71.075 35.7775 71.4844 33.9985 71.2487 32.2454C71.0131 30.4923 70.1485 28.8841 68.8153 27.7195C67.4822 26.5549 65.7712 25.913 64 25.913C62.2288 25.913 60.5178 26.5549 59.1846 27.7195C57.8515 28.8841 56.9868 30.4923 56.7512 32.2454C56.5156 33.9985 56.925 35.7775 57.9034 37.252C58.8819 38.7264 60.3628 39.7962 62.0713 40.2627C62.3284 40.332 62.5548 40.4855 62.7141 40.6987C62.8733 40.9119 62.9563 41.1723 62.9496 41.4382C62.9429 41.704 62.847 41.96 62.6772 42.1649C62.5075 42.3698 62.2737 42.5119 62.0134 42.5682C60.478 42.9087 59.0565 43.6391 57.8863 44.6887C57.0528 45.4363 56.3669 46.3279 55.8594 47.3168C55.6543 47.7163 55.4784 48.1316 55.3336 48.5598C55.2018 48.1267 55.0412 47.7045 54.8536 47.2958C54.282 46.0504 53.4592 44.9305 52.4315 44.0087C51.0666 42.7844 49.3923 41.9564 47.59 41.6142C47.2303 41.5462 46.9037 41.3603 46.6617 41.0861C46.4197 40.8119 46.2761 40.4649 46.2537 40.1001C46.2312 39.7352 46.3312 39.3733 46.5379 39.0716C46.7445 38.7699 47.0459 38.5455 47.3945 38.4341C48.6394 38.0344 49.7004 37.2038 50.3862 36.0919C51.072 34.9801 51.3376 33.6601 51.135 32.37C50.9325 31.0799 50.2751 29.9044 49.2814 29.0555C48.2878 28.2067 47.0232 27.7402 45.7155 27.7402C44.4079 27.7402 43.1433 28.2067 42.1497 29.0555C41.156 29.9044 40.4986 31.0799 40.2961 32.37C40.0935 33.6601 40.3591 34.9801 41.0449 36.0919C41.7307 37.2038 42.7917 38.0344 44.0365 38.4341C44.3851 38.5462 44.6863 38.7712 44.8924 39.0734C45.0985 39.3757 45.1978 39.738 45.1745 40.1029C45.1513 40.4679 45.0068 40.8146 44.764 41.0884C44.5212 41.3621 44.1939 41.5471 43.8339 41.6142C41.8856 41.9842 40.0903 42.9213 38.6738 44.3076C37.2574 45.6939 36.283 47.4675 35.8732 49.4054C35.8392 49.5647 35.7528 49.708 35.6279 49.8127C35.503 49.9174 35.3467 49.9775 35.1837 49.9833C35.0207 49.9891 34.8605 49.9404 34.7284 49.8448C34.5963 49.7493 34.5 49.6124 34.4547 49.456C34.1002 48.2272 33.4288 47.113 32.5078 46.2246C31.5868 45.3362 30.4484 44.7049 29.2064 44.3938C27.9644 44.0826 26.6624 44.1026 25.4306 44.4516C24.1988 44.8006 23.0803 45.4665 22.187 46.3827C21.2937 47.2988 20.6569 48.4331 20.3402 49.6722C20.0236 50.9112 20.0382 52.2116 20.3827 53.4432C20.7271 54.6748 21.3893 55.7945 22.303 56.6904C23.2167 57.5862 24.3499 58.2268 25.5893 58.5481C25.947 58.6389 26.2638 58.8472 26.4888 59.1395C26.7137 59.4317 26.8337 59.791 26.8296 60.1596C26.8254 60.5282 26.6973 60.8847 26.4658 61.1718C26.2343 61.4589 25.9128 61.66 25.5531 61.7427C23.5879 62.2028 21.8606 63.3683 20.6999 65.0174C19.5391 66.6665 19.0259 68.6842 19.2578 70.6867C19.4897 72.6891 20.4506 74.5366 21.9576 75.8776C23.4646 77.2186 25.4126 77.9596 27.4311 77.9596C29.4496 77.9596 31.3976 77.2186 32.9047 75.8776C34.4117 74.5366 35.3726 72.6891 35.6045 70.6867C35.8363 68.6842 35.3231 66.6665 34.1623 65.0174C33.0016 63.3683 31.2743 62.2028 29.3091 61.7427C28.9494 61.66 28.628 61.4589 28.3965 61.1718C28.165 60.8847 28.0369 60.5282 28.0327 60.1596C28.0285 59.791 28.1485 59.4317 28.3735 59.1395C28.5984 58.8472 28.9152 58.6389 29.273 58.5481C30.5006 58.2283 31.6239 57.5951 32.5324 56.7106C33.4408 55.8261 34.1033 54.7209 34.4547 53.5034C34.5 53.3469 34.5963 53.2101 34.7284 53.1145C34.8605 53.019 35.0207 52.9703 35.1837 52.9761C35.3467 52.9819 35.503 53.0419 35.6279 53.1466C35.7528 53.2513 35.8392 53.3947 35.8732 53.554C36.3346 55.7338 37.5088 57.6985 39.2108 59.1389C40.9129 60.5793 43.0463 61.4136 45.2751 61.5104C47.504 61.6073 49.7019 60.9612 51.5228 59.6739C52.9734 58.6484 54.1192 57.2623 54.8535 55.6632C55.0409 55.2551 55.2016 54.833 55.3336 54.3996C55.4786 54.8282 55.6546 55.2434 55.8593 55.6423C56.5566 57.0008 57.5877 58.1699 58.8649 59.0347C60.517 60.1533 62.4904 60.7012 64.4837 60.5947C66.4769 60.4882 68.3805 59.7332 69.9037 58.4449Z" fill="#0066B3"/>
<path fill-rule="evenodd" clip-rule="evenodd" d="M61.8298 134.857L61.8326 134.856C61.8919 134.84 61.9442 134.804 61.9809 134.755C62.0176 134.706 62.0367 134.646 62.0352 134.585C62.0337 134.523 62.0115 134.464 61.9724 134.417C61.9333 134.37 61.8793 134.337 61.8193 134.324L61.8147 134.323C59.9667 133.913 58.2721 132.991 56.9258 131.661C55.7349 130.486 54.8592 129.034 54.374 127.441C53.7925 129.158 52.7104 130.668 51.2598 131.773C49.6362 133.011 47.6444 133.67 45.6021 133.645C43.5599 133.62 41.5848 132.912 39.992 131.636C38.3991 130.359 37.2802 128.587 36.8136 126.601L36.8127 126.597C36.7759 126.437 36.6865 126.295 36.5587 126.192C36.4309 126.089 36.2723 126.032 36.1082 126.03C35.9441 126.029 35.7842 126.082 35.6541 126.182C35.524 126.282 35.4314 126.422 35.391 126.581L35.3898 126.586C34.8867 128.52 33.6946 130.206 32.0368 131.326C30.3789 132.446 28.3691 132.924 26.3835 132.671C24.398 132.418 22.573 131.451 21.2503 129.95C19.9276 128.45 19.1979 126.519 19.1979 124.52C19.1979 122.521 19.9276 120.591 21.2503 119.09C22.573 117.59 24.398 116.623 26.3835 116.369C28.3691 116.116 30.3789 116.594 32.0368 117.715C33.6946 118.835 34.8867 120.52 35.3898 122.455L35.391 122.46C35.4314 122.618 35.524 122.759 35.6541 122.859C35.7842 122.959 35.9441 123.012 36.1082 123.01C36.2722 123.008 36.4309 122.951 36.5587 122.849C36.6865 122.746 36.776 122.603 36.8128 122.444L36.8136 122.44C37.2802 120.454 38.3991 118.682 39.992 117.405C41.5848 116.128 43.5599 115.421 45.6021 115.396C47.6444 115.371 49.6362 116.03 51.2598 117.267C52.7103 118.373 53.7924 119.883 54.3739 121.6C54.9434 119.729 56.0492 118.059 57.5615 116.802C59.2418 115.405 61.3322 114.592 63.5161 114.488C65.7 114.384 67.8584 114.993 69.6644 116.224C70.8676 117.044 71.8708 118.11 72.6131 119.342C73.2113 118.228 74.0004 117.222 74.9499 116.37C76.4389 115.034 78.2654 114.131 80.2316 113.758L80.2347 113.757C80.3947 113.727 80.5402 113.645 80.6481 113.524C80.756 113.402 80.8202 113.248 80.8306 113.086C80.8409 112.923 80.7968 112.762 80.7051 112.628C80.6135 112.494 80.4797 112.394 80.3248 112.344C78.8726 111.878 77.635 110.909 76.8349 109.611C76.0348 108.314 75.725 106.774 75.9613 105.269C76.1976 103.764 76.9645 102.393 78.1238 101.402C79.283 100.412 80.7584 99.8678 82.284 99.8678C83.8095 99.8678 85.2849 100.412 86.4441 101.402C87.6034 102.393 88.3703 103.764 88.6067 105.269C88.843 106.774 88.5331 108.314 87.733 109.611C86.9329 110.909 85.6951 111.878 84.2428 112.344L84.2417 112.344C84.0867 112.394 83.9527 112.494 83.8609 112.628C83.7691 112.762 83.7246 112.923 83.7346 113.085C83.7445 113.247 83.8083 113.401 83.9159 113.523C84.0235 113.645 84.1686 113.728 84.3285 113.758C86.2947 114.131 88.1217 115.034 89.6108 116.37C90.5602 117.222 91.3494 118.228 91.9476 119.342C92.4503 118.508 93.0738 117.748 93.8011 117.088C94.9054 116.085 96.2171 115.343 97.6396 114.911C95.7507 114.274 94.1158 113.035 92.9921 111.376C91.7462 109.537 91.2145 107.307 91.4965 105.104C91.7785 102.901 92.8549 100.876 94.5241 99.4083C96.1933 97.9409 98.3409 97.1314 100.565 97.1314C102.789 97.1314 104.936 97.9409 106.605 99.4083C108.275 100.876 109.351 102.901 109.633 105.104C109.915 107.307 109.383 109.537 108.137 111.376C107.014 113.035 105.38 114.273 103.492 114.91C104.955 115.355 106.3 116.128 107.422 117.173C108.703 118.365 109.65 119.871 110.169 121.542C110.688 123.212 110.761 124.989 110.382 126.696C110.002 128.403 109.182 129.982 108.004 131.276C106.826 132.57 105.33 133.534 103.664 134.073C101.998 134.612 100.22 134.708 98.5054 134.35C96.7912 133.992 95.2003 133.193 93.8902 132.032C93.1249 131.354 92.4709 130.567 91.9477 129.698C91.187 131.114 90.1195 132.354 88.8128 133.321C86.9228 134.72 84.6327 135.475 82.2803 135.475C79.9279 135.475 77.6378 134.72 75.7479 133.321C74.4413 132.354 73.3738 131.114 72.6132 129.699C72.1014 130.548 71.4644 131.321 70.7203 131.989C69.4346 133.143 67.8726 133.947 66.1851 134.323L66.1798 134.324C66.1197 134.337 66.0658 134.37 66.0267 134.417C65.9875 134.464 65.9654 134.523 65.9638 134.585C65.9623 134.646 65.9814 134.706 66.0182 134.755C66.0549 134.804 66.1071 134.84 66.1664 134.856L66.1693 134.857C68.0913 135.381 69.7574 136.585 70.8582 138.244C71.9589 139.902 72.4195 141.904 72.1544 143.876C71.8893 145.848 70.9166 147.658 69.4168 148.968C67.917 150.278 65.9921 151 63.9995 151C62.0069 151 60.0821 150.278 58.5823 148.968C57.0825 147.658 56.1098 145.848 55.8447 143.876C55.5796 141.904 56.0402 139.902 57.1409 138.244C58.2416 136.585 59.9077 135.381 61.8298 134.857ZM72.1331 128.683C72.3381 128.284 72.5139 127.868 72.6587 127.44C72.7907 127.874 72.9513 128.296 73.1388 128.704C73.8424 130.237 74.9244 131.575 76.2923 132.587C78.0247 133.87 80.124 134.562 82.2803 134.562C84.4367 134.562 86.536 133.87 88.2684 132.587C89.6364 131.575 90.7184 130.237 91.422 128.704C91.6094 128.296 91.77 127.874 91.902 127.44C92.0468 127.868 92.2227 128.284 92.4277 128.683C92.9439 129.689 93.6444 130.594 94.4969 131.349C95.6879 132.404 97.1342 133.13 98.6925 133.456C100.251 133.781 101.867 133.695 103.382 133.205C104.896 132.715 106.257 131.838 107.328 130.662C108.399 129.485 109.144 128.05 109.489 126.498C109.834 124.946 109.768 123.331 109.296 121.812C108.824 120.294 107.963 118.925 106.798 117.84C105.634 116.756 104.206 115.994 102.656 115.631C102.498 115.593 102.356 115.504 102.254 115.377C102.152 115.25 102.096 115.093 102.093 114.931C102.091 114.768 102.143 114.609 102.241 114.48C102.339 114.35 102.477 114.256 102.635 114.214C104.572 113.711 106.259 112.52 107.38 110.865C108.501 109.209 108.98 107.202 108.726 105.219C108.472 103.237 107.504 101.414 106.001 100.094C104.499 98.773 102.566 98.0444 100.565 98.0444C98.5633 98.0444 96.6305 98.773 95.1282 100.094C93.6259 101.414 92.6572 103.237 92.4034 105.219C92.1496 107.202 92.6281 109.209 93.7494 110.865C94.8707 112.52 96.5579 113.711 98.4949 114.214C98.6523 114.255 98.7914 114.348 98.8901 114.478C98.9887 114.607 99.0414 114.765 99.0397 114.928C99.038 115.09 98.9822 115.248 98.8809 115.375C98.7796 115.502 98.6387 115.592 98.4805 115.631C96.966 115.985 95.567 116.719 94.4159 117.763C93.5997 118.504 92.9272 119.383 92.4276 120.357C92.2226 120.757 92.0467 121.172 91.902 121.6C91.7701 121.167 91.6096 120.745 91.4219 120.336C90.8503 119.091 90.0275 117.971 88.9999 117.049C87.6349 115.825 85.9607 114.997 84.1583 114.655C83.7987 114.587 83.4721 114.401 83.2301 114.127C82.9881 113.853 82.8445 113.506 82.8221 113.141C82.7996 112.776 82.8997 112.414 83.1063 112.112C83.3129 111.811 83.6144 111.586 83.963 111.475C85.2078 111.075 86.2688 110.244 86.9546 109.133C87.6404 108.021 87.906 106.701 87.7035 105.411C87.5009 104.12 86.8435 102.945 85.8498 102.096C84.8562 101.247 83.5916 100.781 82.284 100.781C80.9763 100.781 79.7117 101.247 78.718 102.096C77.7244 102.945 77.067 104.12 76.8645 105.411C76.6619 106.701 76.9275 108.021 77.6133 109.133C78.2991 110.244 79.3601 111.075 80.605 111.475C80.9535 111.587 81.2547 111.812 81.4608 112.114C81.6669 112.416 81.7662 112.779 81.7429 113.144C81.7197 113.509 81.5752 113.855 81.3324 114.129C81.0896 114.403 80.7623 114.588 80.4023 114.655C78.6 114.997 76.9257 115.825 75.5608 117.049C74.5331 117.971 73.7104 119.091 73.1388 120.336C72.9511 120.745 72.7905 121.167 72.6587 121.6C72.5137 121.172 72.3378 120.756 72.1331 120.357C71.4399 119.006 70.4166 117.842 69.1491 116.978C67.5073 115.859 65.5451 115.305 63.5597 115.4C61.5743 115.495 59.674 116.233 58.1464 117.503C56.6189 118.773 55.5474 120.506 55.0943 122.439C55.056 122.597 54.966 122.738 54.8385 122.839C54.7111 122.94 54.5535 122.996 54.3907 122.997C54.228 122.999 54.0693 122.946 53.9398 122.848C53.8103 122.749 53.7175 122.61 53.6759 122.453C53.2123 120.677 52.1665 119.107 50.7052 117.993C49.2439 116.879 47.4513 116.287 45.6133 116.309C43.7753 116.332 41.9977 116.968 40.5642 118.117C39.1306 119.266 38.1236 120.861 37.7037 122.648C37.6209 123.008 37.4196 123.329 37.1321 123.56C36.8446 123.791 36.4876 123.919 36.1185 123.923C35.7494 123.927 35.3897 123.807 35.097 123.583C34.8044 123.358 34.5958 123.042 34.5049 122.685C34.0577 120.965 32.9981 119.467 31.5244 118.471C30.0508 117.475 28.2643 117.05 26.4993 117.275C24.7344 117.5 23.1122 118.36 21.9365 119.694C20.7607 121.027 20.1121 122.743 20.1121 124.52C20.1121 126.297 20.7607 128.013 21.9365 129.347C23.1122 130.681 24.7344 131.54 26.4993 131.766C28.2643 131.991 30.0508 131.566 31.5244 130.57C32.9981 129.574 34.0577 128.076 34.5049 126.356C34.5958 125.999 34.8044 125.682 35.097 125.458C35.3897 125.233 35.7494 125.113 36.1185 125.117C36.4876 125.122 36.8446 125.25 37.1321 125.481C37.4196 125.712 37.6209 126.033 37.7037 126.392C38.1236 128.179 39.1306 129.775 40.5642 130.924C41.9977 132.073 43.7753 132.709 45.6133 132.732C47.4513 132.754 49.2439 132.161 50.7052 131.048C52.1665 129.934 53.2123 128.364 53.6759 126.587C53.7175 126.43 53.8103 126.291 53.9398 126.193C54.0693 126.094 54.228 126.042 54.3907 126.043C54.5535 126.045 54.7111 126.101 54.8385 126.202C54.966 126.303 55.056 126.444 55.0943 126.602C55.487 128.275 56.3446 129.804 57.5685 131.012C58.7924 132.22 60.333 133.059 62.013 133.432C62.2732 133.488 62.507 133.63 62.6768 133.835C62.8466 134.04 62.9425 134.296 62.9491 134.562C62.9558 134.828 62.8729 135.088 62.7136 135.301C62.5543 135.514 62.328 135.668 62.0708 135.737C60.3623 136.204 58.8814 137.274 57.903 138.748C56.9246 140.222 56.5151 142.001 56.7508 143.755C56.9864 145.508 57.8511 147.116 59.1842 148.28C60.5173 149.445 62.2283 150.087 63.9995 150.087C65.7707 150.087 67.4818 149.445 68.8149 148.28C70.148 147.116 71.0127 145.508 71.2483 143.755C71.4839 142.001 71.0745 140.222 70.0961 138.748C69.1177 137.274 67.6367 136.204 65.9282 135.737C65.6711 135.668 65.4447 135.514 65.2854 135.301C65.1262 135.088 65.0432 134.828 65.0499 134.562C65.0566 134.296 65.1525 134.04 65.3223 133.835C65.492 133.63 65.7258 133.488 65.9861 133.432C67.5202 133.09 68.9402 132.359 70.109 131.31C70.9413 130.562 71.6262 129.672 72.1331 128.683Z" fill="#0066B3"/>
<path d="M72.1331 128.683C72.3381 128.284 72.5139 127.868 72.6587 127.44C72.7907 127.874 72.9513 128.296 73.1388 128.704C73.8424 130.237 74.9244 131.575 76.2923 132.587C78.0247 133.87 80.124 134.562 82.2803 134.562C84.4367 134.562 86.536 133.87 88.2684 132.587C89.6364 131.575 90.7184 130.237 91.422 128.704C91.6094 128.296 91.77 127.874 91.902 127.44C92.0468 127.868 92.2227 128.284 92.4277 128.683C92.9439 129.689 93.6444 130.594 94.4969 131.349C95.6879 132.404 97.1342 133.13 98.6925 133.456C100.251 133.781 101.867 133.695 103.382 133.205C104.896 132.715 106.257 131.838 107.328 130.662C108.399 129.485 109.144 128.05 109.489 126.498C109.834 124.946 109.768 123.331 109.296 121.812C108.824 120.294 107.963 118.925 106.798 117.84C105.634 116.756 104.206 115.994 102.656 115.631C102.498 115.593 102.356 115.504 102.254 115.377C102.152 115.25 102.096 115.093 102.093 114.931C102.091 114.768 102.143 114.609 102.241 114.48C102.339 114.35 102.477 114.256 102.635 114.214C104.572 113.711 106.259 112.52 107.38 110.865C108.501 109.209 108.98 107.202 108.726 105.219C108.472 103.237 107.504 101.414 106.001 100.094C104.499 98.773 102.566 98.0444 100.565 98.0444C98.5633 98.0444 96.6305 98.773 95.1282 100.094C93.6259 101.414 92.6572 103.237 92.4034 105.219C92.1496 107.202 92.6281 109.209 93.7494 110.865C94.8707 112.52 96.5579 113.711 98.4949 114.214C98.6523 114.255 98.7914 114.348 98.8901 114.478C98.9887 114.607 99.0414 114.765 99.0397 114.928C99.038 115.09 98.9822 115.248 98.8809 115.375C98.7796 115.502 98.6387 115.592 98.4805 115.631C96.966 115.985 95.567 116.719 94.4159 117.763C93.5997 118.504 92.9272 119.383 92.4276 120.357C92.2226 120.757 92.0467 121.172 91.902 121.6C91.7701 121.167 91.6096 120.745 91.4219 120.336C90.8503 119.091 90.0275 117.971 88.9999 117.049C87.6349 115.825 85.9607 114.997 84.1583 114.655C83.7987 114.587 83.4721 114.401 83.2301 114.127C82.9881 113.853 82.8445 113.506 82.8221 113.141C82.7996 112.776 82.8997 112.414 83.1063 112.112C83.3129 111.811 83.6144 111.586 83.963 111.475C85.2078 111.075 86.2688 110.244 86.9546 109.133C87.6404 108.021 87.906 106.701 87.7035 105.411C87.5009 104.12 86.8435 102.945 85.8498 102.096C84.8562 101.247 83.5916 100.781 82.284 100.781C80.9763 100.781 79.7117 101.247 78.718 102.096C77.7244 102.945 77.067 104.12 76.8645 105.411C76.6619 106.701 76.9275 108.021 77.6133 109.133C78.2991 110.244 79.3601 111.075 80.605 111.475C80.9535 111.587 81.2547 111.812 81.4608 112.114C81.6669 112.416 81.7662 112.779 81.7429 113.144C81.7197 113.509 81.5752 113.855 81.3324 114.129C81.0896 114.403 80.7623 114.588 80.4023 114.655C78.6 114.997 76.9257 115.825 75.5608 117.049C74.5331 117.971 73.7104 119.091 73.1388 120.336C72.9511 120.745 72.7905 121.167 72.6587 121.6C72.5137 121.172 72.3378 120.756 72.1331 120.357C71.4399 119.006 70.4166 117.842 69.1491 116.978C67.5073 115.859 65.5451 115.305 63.5597 115.4C61.5743 115.495 59.674 116.233 58.1464 117.503C56.6189 118.773 55.5474 120.506 55.0943 122.439C55.056 122.597 54.966 122.738 54.8385 122.839C54.7111 122.94 54.5535 122.996 54.3907 122.997C54.228 122.999 54.0693 122.946 53.9398 122.848C53.8103 122.749 53.7175 122.61 53.6759 122.453C53.2123 120.677 52.1665 119.107 50.7052 117.993C49.2439 116.879 47.4513 116.287 45.6133 116.309C43.7753 116.332 41.9977 116.968 40.5642 118.117C39.1306 119.266 38.1236 120.861 37.7037 122.648C37.6209 123.008 37.4196 123.329 37.1321 123.56C36.8446 123.791 36.4876 123.919 36.1185 123.923C35.7494 123.927 35.3897 123.807 35.097 123.583C34.8044 123.358 34.5958 123.042 34.5049 122.685C34.0577 120.965 32.9981 119.467 31.5244 118.471C30.0508 117.475 28.2643 117.05 26.4993 117.275C24.7344 117.5 23.1122 118.36 21.9365 119.694C20.7607 121.027 20.1121 122.743 20.1121 124.52C20.1121 126.297 20.7607 128.013 21.9365 129.347C23.1122 130.681 24.7344 131.54 26.4993 131.766C28.2643 131.991 30.0508 131.566 31.5244 130.57C32.9981 129.574 34.0577 128.076 34.5049 126.356C34.5958 125.999 34.8044 125.682 35.097 125.458C35.3897 125.233 35.7494 125.113 36.1185 125.117C36.4876 125.122 36.8446 125.25 37.1321 125.481C37.4196 125.712 37.6209 126.033 37.7037 126.392C38.1236 128.179 39.1306 129.775 40.5642 130.924C41.9977 132.073 43.7753 132.709 45.6133 132.732C47.4513 132.754 49.2439 132.161 50.7052 131.048C52.1665 129.934 53.2123 128.364 53.6759 126.587C53.7175 126.43 53.8103 126.291 53.9398 126.193C54.0693 126.094 54.228 126.042 54.3907 126.043C54.5535 126.045 54.7111 126.101 54.8385 126.202C54.966 126.303 55.056 126.444 55.0943 126.602C55.487 128.275 56.3446 129.804 57.5685 131.012C58.7924 132.22 60.333 133.059 62.013 133.432C62.2732 133.488 62.507 133.63 62.6768 133.835C62.8466 134.04 62.9425 134.296 62.9491 134.562C62.9558 134.828 62.8729 135.088 62.7136 135.301C62.5543 135.514 62.328 135.668 62.0708 135.737C60.3623 136.204 58.8814 137.274 57.903 138.748C56.9246 140.222 56.5151 142.001 56.7508 143.755C56.9864 145.508 57.8511 147.116 59.1842 148.28C60.5173 149.445 62.2283 150.087 63.9995 150.087C65.7707 150.087 67.4818 149.445 68.8149 148.28C70.148 147.116 71.0127 145.508 71.2483 143.755C71.4839 142.001 71.0745 140.222 70.0961 138.748C69.1177 137.274 67.6367 136.204 65.9282 135.737C65.6711 135.668 65.4447 135.514 65.2854 135.301C65.1262 135.088 65.0432 134.828 65.0499 134.562C65.0566 134.296 65.1525 134.04 65.3223 133.835C65.492 133.63 65.7258 133.488 65.9861 133.432C67.5202 133.09 68.9402 132.359 70.109 131.31C70.9413 130.562 71.6262 129.672 72.1331 128.683Z" fill="#0066B3"/>
<path fill-rule="evenodd" clip-rule="evenodd" d="M106.06 87.9997L105.886 89.3632L105.382 90.6398L104.573 91.7518L103.513 92.6277L102.268 93.2192L100.91 93.4714L99.538 93.3847L98.2266 92.9597L97.0688 92.2294L96.1203 91.2214L95.459 90.0135L95.12 88.6852V87.3149L95.459 85.9779L96.1213 84.777L97.0671 83.7718L98.2266 83.0317L99.5408 82.6145L100.91 82.528L102.268 82.7802L103.513 83.3717L104.573 84.2476L105.382 85.3596L105.886 86.6362L106.06 87.9997ZM104.574 85.8026L104.994 86.865L105.138 87.9997L104.994 89.1344L104.574 90.1968L103.901 91.122L103.018 91.8519L101.983 92.3434L100.854 92.553L99.7107 92.4807L98.6179 92.1266L97.6553 91.5195L96.8665 90.6811L96.3165 89.6765L96.0342 88.5707V87.4287L96.3165 86.3157L96.8665 85.3183L97.6553 84.4799L98.6179 83.8656L99.7107 83.5187L100.854 83.4464L101.983 83.656L103.018 84.1475L103.901 84.8774L104.574 85.8026Z" fill="#0066B3"/>
<path d="M104.994 86.865L104.574 85.8026L103.901 84.8774L103.018 84.1475L101.983 83.656L100.854 83.4464L99.7107 83.5187L98.6179 83.8656L97.6553 84.4799L96.8665 85.3183L96.3165 86.3157L96.0342 87.4287V88.5707L96.3165 89.6765L96.8665 90.6811L97.6553 91.5195L98.6179 92.1266L99.7107 92.4807L100.854 92.553L101.983 92.3434L103.018 91.8519L103.901 91.122L104.574 90.1968L104.994 89.1344L105.138 87.9997L104.994 86.865Z" fill="#0066B3"/>
<path d="M299 12.5C299 19.4036 293.404 25 286.5 25C279.596 25 274 19.4036 274 12.5C274 5.59644 279.596 0 286.5 0C293.404 0 299 5.59644 299 12.5Z" fill="#0066B3"/>
<path fill-rule="evenodd" clip-rule="evenodd" d="M392 92C392 124.585 365.585 151 333 151C300.415 151 274 124.585 274 92V35C274 33.8954 274.895 33 276 33H297C298.105 33 299 33.8954 299 35V39.9145C299 41.5364 300.841 42.4999 302.224 41.6527C311.184 36.164 321.723 33 333 33C365.585 33 392 59.4152 392 92ZM333 126C351.778 126 367 110.778 367 92C367 73.2223 351.778 58 333 58C314.222 58 299 73.2223 299 92C299 110.778 314.222 126 333 126Z" fill="#0066B3"/>
<path fill-rule="evenodd" clip-rule="evenodd" d="M400 92C400 59.4152 426.415 33 459 33C491.585 33 518 59.4152 518 92V149C518 150.105 517.105 151 516 151H495C493.895 151 493 150.105 493 149V144.085C493 142.464 491.159 141.5 489.776 142.347C480.816 147.836 470.277 151 459 151C426.415 151 400 124.585 400 92ZM459 58C440.222 58 425 73.2223 425 92C425 110.778 440.222 126 459 126C477.778 126 493 110.778 493 92C493 73.2223 477.778 58 459 58Z" fill="#0066B3"/>
<path fill-rule="evenodd" clip-rule="evenodd" d="M207 126C193.472 126 181.789 118.099 176.314 106.659C175.71 105.398 176.672 104 178.07 104H263.15C264.098 104 264.92 103.334 265.086 102.4C265.687 99.0242 266 95.5487 266 92C266 87.8882 265.579 83.8746 264.779 80C259.235 53.1693 235.473 33 207 33C178.527 33 154.765 53.1693 149.221 80C148.421 83.8746 148 87.8882 148 92C148 96.1118 148.421 100.125 149.221 104C154.765 130.831 178.527 151 207 151C230.759 151 251.237 136.957 260.588 116.718C261.182 115.432 260.218 114 258.802 114H233.849C233.262 114 232.707 114.26 232.315 114.697C226.091 121.635 217.055 126 207 126ZM207 58C193.472 58 181.789 65.9011 176.314 77.3405C175.71 78.6017 176.672 80 178.07 80H235.93C237.328 80 238.29 78.6017 237.686 77.3405C232.211 65.9011 220.528 58 207 58Z" fill="#0066B3"/>
<path d="M600.538 98.9594H558.161V91.0844H602.503C603.464 91.0844 604.359 91.2812 605.189 91.675C606.018 92.025 606.739 92.5281 607.35 93.1844C607.961 93.7969 608.442 94.5187 608.791 95.35C609.14 96.1375 609.315 96.9688 609.315 97.8438V136.431H612.328V144.306H556V136.431H565.366V112.741H574.143V136.431H583.705V112.741H592.482V136.431H600.538V98.9594Z" fill="#5A5A5A"/>
<path d="M649.661 88C652.15 88 654.464 88.4375 656.604 89.3125C658.787 90.1438 660.687 91.2594 662.302 92.6594C663.918 94.1906 665.184 95.9188 666.101 97.8438C667.018 99.7688 667.477 101.913 667.477 104.275C667.477 106.288 667.105 108.125 666.363 109.787C665.664 111.45 664.704 112.916 663.481 114.184H677.825V122.059H665.839V127.441H670.096C671.581 127.441 672.738 127.878 673.568 128.753C674.397 129.584 674.812 130.7 674.812 132.1V147.981H666.036V135.316H623.659V127.441H633.483V122.059H621.497V114.184H635.841C634.575 112.916 633.593 111.45 632.894 109.787C632.195 108.125 631.846 106.288 631.846 104.275C631.846 101.913 632.283 99.7688 633.156 97.8438C634.073 95.9188 635.339 94.1906 636.955 92.6594C638.527 91.2594 640.404 90.1438 642.588 89.3125C644.771 88.4375 647.129 88 649.661 88ZM649.661 95.875C648.351 95.875 647.129 96.0937 645.993 96.5312C644.902 96.9688 643.963 97.5594 643.177 98.3031C642.391 99.0469 641.758 99.9438 641.278 100.994C640.841 102 640.623 103.094 640.623 104.275C640.623 105.456 640.841 106.55 641.278 107.556C641.758 108.563 642.391 109.459 643.177 110.247C643.963 110.991 644.902 111.581 645.993 112.019C647.129 112.456 648.351 112.675 649.661 112.675C652.325 112.675 654.464 111.866 656.08 110.247C657.827 108.628 658.7 106.638 658.7 104.275C658.7 103.094 658.46 102 657.979 100.994C657.543 99.9438 656.91 99.0469 656.08 98.3031C655.294 97.5594 654.355 96.9688 653.264 96.5312C652.172 96.0937 650.971 95.875 649.661 95.875ZM642.26 127.441H657.062V122.059H642.26V127.441Z" fill="#5A5A5A"/>
<path d="M730.747 123.044V91.0844H739.524V123.044H730.747ZM711.622 113.2V105.981H695.771V113.2H711.622ZM686.995 113.659V91.0844H695.771V98.1063H711.622V91.0844H720.333V121.075H693.283C692.409 121.075 691.58 120.9 690.794 120.55C690.051 120.156 689.396 119.631 688.829 118.975C688.261 118.275 687.803 117.487 687.453 116.612C687.148 115.694 686.995 114.709 686.995 113.659ZM734.808 126.128C736.249 126.128 737.384 126.566 738.214 127.441C739.087 128.272 739.524 129.388 739.524 130.788V147.981H730.747V134.003H690.335V126.128H734.808Z" fill="#5A5A5A"/>
<path d="M784.782 147.981V114.841H774.303V106.966H784.782V91.0844H793.559V147.981H784.782ZM797.685 147.981V91.0844H806.462V147.981H797.685ZM752.492 98.4344C752.492 97.4281 752.645 96.4875 752.951 95.6125C753.3 94.6938 753.758 93.9063 754.326 93.25C754.894 92.5938 755.549 92.0687 756.291 91.675C757.077 91.2812 757.907 91.0844 758.78 91.0844H778.888V98.9594H761.269V124.356H780.722V132.231H758.78C757.907 132.231 757.077 132.056 756.291 131.706C755.549 131.313 754.894 130.788 754.326 130.131C753.758 129.431 753.3 128.644 752.951 127.769C752.645 126.85 752.492 125.866 752.492 124.816V98.4344Z" fill="#5A5A5A"/>
<path d="M833.84 91.0188C836.372 91.0188 838.709 91.5437 840.848 92.5937C843.031 93.6 844.931 95.0219 846.546 96.8594C848.075 98.6969 849.297 100.841 850.214 103.291C851.131 105.741 851.59 108.409 851.59 111.297C851.59 114.184 851.131 116.853 850.214 119.303C849.297 121.753 848.075 123.919 846.546 125.8C844.931 127.638 843.031 129.059 840.848 130.066C838.709 131.072 836.372 131.575 833.84 131.575C831.22 131.575 828.84 131.072 826.701 130.066C824.605 129.059 822.749 127.638 821.133 125.8C819.561 123.919 818.317 121.753 817.4 119.303C816.527 116.853 816.09 114.184 816.09 111.297C816.09 108.409 816.527 105.741 817.4 103.291C818.317 100.841 819.561 98.6969 821.133 96.8594C822.749 95.0219 824.605 93.6 826.701 92.5937C828.84 91.5437 831.22 91.0188 833.84 91.0188ZM833.84 98.8937C831.22 98.8937 829.059 100.075 827.356 102.438C825.74 104.713 824.932 107.666 824.932 111.297C824.932 114.928 825.74 117.881 827.356 120.156C829.059 122.519 831.22 123.7 833.84 123.7C836.416 123.7 838.556 122.519 840.259 120.156C841.962 117.881 842.813 114.928 842.813 111.297C842.813 107.753 841.962 104.8 840.259 102.438C838.556 100.075 836.416 98.8937 833.84 98.8937ZM870.584 147.981H861.807V91.0844H870.584V147.981Z" fill="#5A5A5A"/>
<path d="M936.016 147.981H927.239V117.138H918.135V109.263H927.239V91.0844H936.016V147.981ZM883.487 98.4344C883.487 97.4281 883.64 96.4875 883.945 95.6125C884.295 94.6938 884.753 93.9063 885.321 93.25C885.888 92.5938 886.543 92.0687 887.286 91.675C888.072 91.2812 888.901 91.0844 889.775 91.0844H916.694V98.9594H892.264V109.263H916.039V117.138H892.264V128.622H918.201V136.497H889.775C888.901 136.497 888.072 136.3 887.286 135.906C886.543 135.512 885.888 134.988 885.321 134.331C884.753 133.675 884.295 132.909 883.945 132.034C883.64 131.116 883.487 130.153 883.487 129.147V98.4344Z" fill="#5A5A5A"/>
<path d="M977.148 88C979.506 88 981.624 88.3719 983.501 89.1156C985.379 89.8156 987.038 90.7562 988.479 91.9375C989.92 93.25 991.034 94.7813 991.82 96.5312C992.606 98.2375 992.998 100.097 992.998 102.109C992.998 104.209 992.606 106.113 991.82 107.819C991.034 109.481 989.92 110.969 988.479 112.281C987.038 113.506 985.379 114.469 983.501 115.169C981.624 115.869 979.506 116.219 977.148 116.219C974.79 116.219 972.651 115.869 970.729 115.169C968.852 114.469 967.193 113.506 965.752 112.281C964.354 110.969 963.263 109.481 962.477 107.819C961.691 106.113 961.298 104.209 961.298 102.109C961.298 100.097 961.691 98.2375 962.477 96.5312C963.263 94.7813 964.354 93.25 965.752 91.9375C967.193 90.7562 968.852 89.8156 970.729 89.1156C972.651 88.3719 974.79 88 977.148 88ZM977.148 95.5469C975.052 95.5469 973.349 96.1594 972.039 97.3844C970.729 98.5656 970.074 100.141 970.074 102.109C970.074 104.122 970.729 105.719 972.039 106.9C973.349 108.081 975.052 108.672 977.148 108.672C979.244 108.672 980.947 108.081 982.257 106.9C983.567 105.719 984.222 104.122 984.222 102.109C984.222 100.141 983.567 98.5656 982.257 97.3844C980.947 96.1594 979.244 95.5469 977.148 95.5469ZM992.933 124.356C994.112 125.669 995.029 127.156 995.684 128.819C996.339 130.437 996.666 132.122 996.666 133.872C996.666 136.541 996.186 138.925 995.225 141.025C994.308 143.169 992.998 144.963 991.296 146.406C987.715 149.469 982.999 151 977.148 151C974.266 151 971.625 150.606 969.223 149.819C966.865 149.075 964.835 147.938 963.132 146.406C959.464 143.475 957.63 139.297 957.63 133.872C957.63 132.034 957.936 130.328 958.547 128.753C959.202 127.134 960.119 125.669 961.298 124.356H948.984V117.334H1005.31V124.356H992.933ZM977.148 124.619C973.873 124.619 971.297 125.472 969.419 127.178C967.542 128.841 966.603 131.072 966.603 133.872C966.603 136.759 967.542 139.013 969.419 140.631C971.297 142.294 973.873 143.125 977.148 143.125C980.467 143.125 983.043 142.294 984.877 140.631C986.754 139.013 987.693 136.759 987.693 133.872C987.693 131.072 986.754 128.841 984.877 127.178C983.043 125.472 980.467 124.619 977.148 124.619Z" fill="#5A5A5A"/>
<path d="M1042.65 88C1045 88 1047.12 88.3719 1049 89.1156C1050.88 89.8156 1052.54 90.7562 1053.98 91.9375C1055.42 93.25 1056.53 94.7813 1057.32 96.5312C1058.1 98.2375 1058.5 100.097 1058.5 102.109C1058.5 103.947 1058.19 105.609 1057.58 107.097C1057.01 108.584 1056.2 109.897 1055.16 111.034H1058.82V117.334H1070.81V124.356H1058.43C1059.61 125.712 1060.53 127.2 1061.18 128.819C1061.84 130.437 1062.16 132.122 1062.16 133.872C1062.16 136.541 1061.68 138.925 1060.72 141.025C1059.81 143.169 1058.5 144.963 1056.79 146.406C1053.21 149.469 1048.5 151 1042.65 151C1039.76 151 1037.12 150.606 1034.72 149.819C1032.36 149.075 1030.33 147.938 1028.63 146.406C1024.96 143.475 1023.13 139.297 1023.13 133.872C1023.13 132.034 1023.43 130.328 1024.04 128.753C1024.7 127.134 1025.62 125.669 1026.8 124.356H1014.48V117.334H1026.47V111.034H1030.14C1029.13 109.897 1028.32 108.584 1027.71 107.097C1027.1 105.609 1026.8 103.947 1026.8 102.109C1026.8 100.097 1027.19 98.2375 1027.97 96.5312C1028.76 94.7813 1029.85 93.25 1031.25 91.9375C1032.69 90.7562 1034.35 89.8156 1036.23 89.1156C1038.15 88.3719 1040.29 88 1042.65 88ZM1050.05 114.709C1048.91 115.278 1047.71 115.672 1046.44 115.891C1045.22 116.109 1043.96 116.219 1042.65 116.219C1041.29 116.219 1039.98 116.109 1038.72 115.891C1037.45 115.672 1036.29 115.278 1035.24 114.709V117.334H1050.05V114.709ZM1042.65 95.5469C1040.55 95.5469 1038.85 96.1594 1037.54 97.3844C1036.23 98.5656 1035.57 100.141 1035.57 102.109C1035.57 104.122 1036.23 105.719 1037.54 106.9C1038.85 108.081 1040.55 108.672 1042.65 108.672C1044.74 108.672 1046.44 108.081 1047.75 106.9C1049.06 105.719 1049.72 104.122 1049.72 102.109C1049.72 100.141 1049.06 98.5656 1047.75 97.3844C1046.44 96.1594 1044.74 95.5469 1042.65 95.5469ZM1042.65 124.619C1039.37 124.619 1036.79 125.472 1034.92 127.178C1033.04 128.841 1032.1 131.072 1032.1 133.872C1032.1 136.759 1033.04 139.013 1034.92 140.631C1036.79 142.294 1039.37 143.125 1042.65 143.125C1045.96 143.125 1048.54 142.294 1050.37 140.631C1052.25 139.013 1053.19 136.759 1053.19 133.872C1053.19 131.072 1052.25 128.841 1050.37 127.178C1048.54 125.472 1045.96 124.619 1042.65 124.619Z" fill="#5A5A5A"/>
<path d="M1123.73 129.475V117.663H1114.17V109.787H1123.73V102.306H1114.17V94.4312H1123.73V91.0844H1132.51V129.475H1123.73ZM1095.44 89.1156C1097.93 89.1156 1100.24 89.575 1102.38 90.4937C1104.52 91.3688 1106.37 92.5281 1107.95 93.9719C1109.56 95.5469 1110.81 97.3625 1111.68 99.4188C1112.55 101.431 1112.99 103.641 1112.99 106.047C1112.99 108.409 1112.55 110.619 1111.68 112.675C1110.81 114.731 1109.56 116.525 1107.95 118.056C1106.37 119.588 1104.52 120.791 1102.38 121.666C1100.24 122.497 1097.93 122.913 1095.44 122.913C1092.82 122.913 1090.44 122.497 1088.3 121.666C1086.16 120.791 1084.3 119.588 1082.73 118.056C1081.11 116.525 1079.87 114.731 1079 112.675C1078.17 110.619 1077.75 108.409 1077.75 106.047C1077.75 103.641 1078.17 101.431 1079 99.4188C1079.87 97.3625 1081.11 95.5469 1082.73 93.9719C1084.3 92.5281 1086.16 91.3688 1088.3 90.4937C1090.44 89.575 1092.82 89.1156 1095.44 89.1156ZM1095.44 96.9906C1094.13 96.9906 1092.93 97.2313 1091.83 97.7125C1090.74 98.15 1089.8 98.7844 1089.02 99.6156C1088.23 100.447 1087.62 101.409 1087.18 102.503C1086.75 103.597 1086.53 104.778 1086.53 106.047C1086.53 107.359 1086.75 108.563 1087.18 109.656C1087.62 110.75 1088.23 111.691 1089.02 112.478C1089.8 113.266 1090.74 113.9 1091.83 114.381C1092.93 114.819 1094.13 115.038 1095.44 115.038C1096.7 115.038 1097.86 114.819 1098.91 114.381C1100 113.9 1100.94 113.266 1101.72 112.478C1102.51 111.691 1103.12 110.75 1103.56 109.656C1103.99 108.563 1104.21 107.359 1104.21 106.047C1104.21 103.553 1103.38 101.409 1101.72 99.6156C1100.11 97.8656 1098.01 96.9906 1095.44 96.9906ZM1092.82 127.047V140.106H1132.84V147.981H1090.85C1088.62 147.981 1086.92 147.303 1085.74 145.947C1084.56 144.634 1083.97 142.994 1083.97 141.025V127.047H1092.82Z" fill="#5A5A5A"/>
<path d="M1169.25 147.981V127.375H1145.48V119.5H1190.01V98.9594H1147.64V91.0844H1191.98C1192.94 91.0844 1193.84 91.2812 1194.66 91.675C1195.49 92.025 1196.22 92.5281 1196.83 93.1844C1197.44 93.7969 1197.92 94.5187 1198.27 95.35C1198.62 96.1375 1198.79 96.9688 1198.79 97.8438V119.5H1201.8V127.375H1178.03V147.981H1169.25Z" fill="#5A5A5A"/>
<path d="M1225.12 111.494C1224.82 112.5 1224.2 113.638 1223.29 114.906C1222.41 116.175 1221.28 117.378 1219.88 118.516C1218.57 119.653 1217.02 120.659 1215.23 121.534C1213.44 122.366 1211.5 122.891 1209.4 123.109V114.906C1212.5 114.119 1215.17 112.347 1217.39 109.591C1219.62 106.791 1220.73 102.875 1220.73 97.8438V91.0844H1229.51V97.8438C1229.51 102.831 1230.6 106.747 1232.78 109.591C1235.01 112.347 1237.7 114.119 1240.84 114.906V123.109C1238.74 122.891 1236.8 122.366 1235.01 121.534C1233.22 120.659 1231.67 119.653 1230.36 118.516C1228.92 117.378 1227.74 116.175 1226.82 114.906C1225.95 113.638 1225.38 112.5 1225.12 111.494ZM1243.79 129.606V108.081H1236.06V100.206H1243.79V91.0844H1252.63V129.606H1243.79ZM1256.17 129.606V91.0844H1264.94V129.606H1256.17ZM1223.88 127.047V140.106H1265.27V147.981H1221.98C1219.75 147.981 1218.05 147.303 1216.87 145.947C1215.69 144.634 1215.1 142.994 1215.1 141.025V127.047H1223.88Z" fill="#5A5A5A"/>
<path d="M1329 147.981H1320.22V117.138H1311.12V109.263H1320.22V91.0844H1329V147.981ZM1276.47 98.4344C1276.47 97.4281 1276.62 96.4875 1276.93 95.6125C1277.28 94.6938 1277.74 93.9063 1278.31 93.25C1278.87 92.5938 1279.53 92.0687 1280.27 91.675C1281.06 91.2812 1281.89 91.0844 1282.76 91.0844H1309.68V98.9594H1285.25V109.263H1309.02V117.138H1285.25V128.622H1311.18V136.497H1282.76C1281.89 136.497 1281.06 136.3 1280.27 135.906C1279.53 135.512 1278.87 134.988 1278.31 134.331C1277.74 133.675 1277.28 132.909 1276.93 132.034C1276.62 131.116 1276.47 130.153 1276.47 129.147V98.4344Z" fill="#5A5A5A"/>
</svg>
