<svg width="370" height="190" viewBox="0 0 370 190" fill="none" xmlns="http://www.w3.org/2000/svg">
<path d="M9.48242 186.39V168.868H17.369V170.884H12.4473V176.191H16.5091V178.415H12.4473V184.433H17.369V186.39H9.48242Z" fill="black"/>
<path d="M22.8217 186.627C22.0904 186.627 21.4876 186.538 21.0132 186.36C20.5388 186.163 20.1633 185.896 19.8865 185.56C19.6296 185.204 19.4517 184.769 19.3529 184.255C19.254 183.722 19.2046 183.119 19.2046 182.447V175.124C19.2046 174.59 19.254 174.106 19.3529 173.671C19.4715 173.216 19.6592 172.831 19.9162 172.514C20.1731 172.178 20.519 171.921 20.9539 171.744C21.3887 171.546 21.9422 171.447 22.6142 171.447C23.4048 171.447 24.0176 171.566 24.4524 171.803C24.907 172.04 25.2332 172.327 25.4308 172.663V167.711H27.269V186.39H25.9942L25.8163 184.997C25.6977 185.253 25.5198 185.51 25.2826 185.767C25.0652 186.005 24.7588 186.212 24.3635 186.39C23.9879 186.548 23.474 186.627 22.8217 186.627ZM23.1479 185.501C23.7211 185.501 24.1658 185.402 24.4821 185.204C24.7983 184.987 25.0157 184.71 25.1343 184.374C25.2727 184.038 25.3518 183.672 25.3715 183.277C25.4111 182.862 25.4308 182.457 25.4308 182.061V174.027C25.3715 173.849 25.2628 173.651 25.1047 173.434C24.9663 173.216 24.7489 173.028 24.4524 172.87C24.1559 172.712 23.7507 172.633 23.2368 172.633C22.6636 172.633 22.2288 172.712 21.9323 172.87C21.6358 173.028 21.4184 173.246 21.28 173.522C21.1614 173.779 21.0922 174.076 21.0725 174.412C21.0527 174.748 21.0428 175.094 21.0428 175.45V182.684C21.0428 183.158 21.0725 183.613 21.1318 184.048C21.1911 184.483 21.369 184.838 21.6655 185.115C21.9619 185.372 22.4561 185.501 23.1479 185.501Z" fill="black"/>
<path d="M33.6208 186.627C32.593 186.627 31.832 186.449 31.3378 186.094C30.8437 185.718 30.5275 185.234 30.3891 184.641C30.2507 184.048 30.1816 183.415 30.1816 182.743V171.714H32.0198V182.506C32.0198 182.941 32.0395 183.376 32.0791 183.811C32.1384 184.226 32.3261 184.572 32.6424 184.848C32.9586 185.105 33.4824 185.234 34.2138 185.234C34.7277 185.234 35.1329 185.145 35.4294 184.967C35.7258 184.789 35.9531 184.581 36.1113 184.344C36.2694 184.087 36.3682 183.86 36.4078 183.662V171.714H38.246V186.39H36.6746L36.5264 184.789C36.3682 185.263 36.0421 185.688 35.548 186.064C35.0736 186.439 34.4312 186.627 33.6208 186.627Z" fill="black"/>
<path d="M41.1247 179.215V177.91H47.1433V179.215H41.1247Z" fill="black"/>
<path d="M49.9308 186.39V168.868H55.8308C56.8982 168.868 57.7284 169.115 58.3213 169.609C58.9143 170.103 59.2108 170.834 59.2108 171.803V173.849C59.2108 174.382 59.1317 174.867 58.9736 175.301C58.8352 175.716 58.6178 176.062 58.3213 176.339C58.0644 176.596 57.758 176.774 57.4022 176.873C57.0662 176.972 56.75 177.031 56.4535 177.051C56.8093 177.051 57.1552 177.09 57.4912 177.169C57.8272 177.248 58.1336 177.406 58.4103 177.644C58.7265 177.92 58.9736 178.276 59.1515 178.711C59.3491 179.146 59.448 179.68 59.448 180.312V182.743C59.448 183.731 59.28 184.492 58.944 185.026C58.6277 185.54 58.1731 185.896 57.5801 186.094C57.0069 186.291 56.3151 186.39 55.5047 186.39H49.9308ZM52.777 184.878H54.8821C55.2379 184.878 55.5344 184.819 55.7715 184.7C56.0285 184.581 56.2262 184.354 56.3645 184.018C56.5029 183.682 56.5721 183.198 56.5721 182.565V180.342C56.5721 179.512 56.3942 178.968 56.0384 178.711C55.7024 178.434 55.2576 178.296 54.7042 178.296H52.777V184.878ZM52.777 176.458H54.6449C55.2379 176.458 55.6925 176.28 56.0087 175.924C56.325 175.568 56.4831 174.985 56.4831 174.175V172.307C56.4831 171.655 56.3349 171.18 56.0384 170.884C55.7617 170.587 55.4059 170.439 54.971 170.439H52.777V176.458Z" fill="black"/>
<path d="M62.1224 186.39V171.714H63.9309V186.39H62.1224ZM63.0415 169.905C62.7252 169.905 62.4584 169.807 62.241 169.609C62.0235 169.391 61.9148 169.125 61.9148 168.808C61.9148 168.512 62.0235 168.265 62.241 168.067C62.4584 167.85 62.7252 167.741 63.0415 167.741C63.338 167.741 63.5949 167.85 63.8123 168.067C64.0495 168.265 64.1681 168.512 64.1681 168.808C64.1681 169.125 64.0495 169.391 63.8123 169.609C63.5949 169.807 63.338 169.905 63.0415 169.905Z" fill="black"/>
<path d="M70.4534 189.859C70.236 189.859 69.979 189.849 69.6825 189.829C69.3861 189.809 69.0896 189.79 68.7931 189.77C68.5164 189.75 68.2693 189.721 68.0519 189.681C67.8542 189.661 67.7257 189.641 67.6664 189.622V188.554C67.9036 188.574 68.2396 188.614 68.6745 188.673C69.1291 188.732 69.5343 188.762 69.8901 188.762C70.1273 188.762 70.4139 188.742 70.7499 188.703C71.0859 188.683 71.412 188.574 71.7283 188.376C72.0643 188.199 72.341 187.902 72.5584 187.487C72.7956 187.092 72.9142 186.518 72.9142 185.767V183.751C72.7956 184.127 72.6079 184.463 72.3509 184.759C72.1137 185.056 71.7975 185.293 71.4022 185.471C71.0068 185.629 70.5226 185.708 69.9494 185.708C69.6134 185.708 69.2477 185.678 68.8524 185.619C68.4768 185.54 68.121 185.382 67.785 185.145C67.4688 184.908 67.2118 184.532 67.0142 184.018C66.8165 183.484 66.7177 182.753 66.7177 181.824V175.005C66.7177 174.254 66.8066 173.651 66.9845 173.196C67.1624 172.722 67.3996 172.366 67.6961 172.129C67.9926 171.892 68.3286 171.734 68.7041 171.655C69.0994 171.576 69.5244 171.536 69.979 171.536C70.5918 171.536 71.1847 171.625 71.7579 171.803C72.3311 171.981 72.7166 172.356 72.9142 172.93L73.1218 171.773H74.7228V185.145C74.7228 185.916 74.624 186.588 74.4263 187.161C74.2484 187.754 73.9816 188.248 73.6258 188.643C73.27 189.058 72.8253 189.365 72.2916 189.562C71.7579 189.76 71.1452 189.859 70.4534 189.859ZM70.6016 184.522C71.2539 184.522 71.7382 184.364 72.0544 184.048C72.3904 183.712 72.6079 183.297 72.7067 182.803C72.8253 182.289 72.8846 181.775 72.8846 181.261V174.056C72.8253 173.878 72.7067 173.681 72.5288 173.463C72.3707 173.246 72.1335 173.058 71.8172 172.9C71.5208 172.742 71.1156 172.663 70.6016 172.663C69.8703 172.663 69.3465 172.841 69.0303 173.196C68.714 173.552 68.5559 174.204 68.5559 175.153V182.269C68.5559 182.783 68.6251 183.198 68.7634 183.514C68.9018 183.83 69.0797 184.058 69.2971 184.196C69.5343 184.334 69.7715 184.423 70.0087 184.463C70.2459 184.502 70.4435 184.522 70.6016 184.522Z" fill="black"/>
<path d="M80.9319 186.627C80.2005 186.627 79.5977 186.538 79.1233 186.36C78.6489 186.163 78.2734 185.896 77.9967 185.56C77.7397 185.204 77.5618 184.769 77.463 184.255C77.3642 183.722 77.3147 183.119 77.3147 182.447V175.124C77.3147 174.59 77.3642 174.106 77.463 173.671C77.5816 173.216 77.7694 172.831 78.0263 172.514C78.2833 172.178 78.6292 171.921 79.064 171.744C79.4988 171.546 80.0523 171.447 80.7243 171.447C81.515 171.447 82.1277 171.566 82.5625 171.803C83.0172 172.04 83.3433 172.327 83.5409 172.663V167.711H85.3792V186.39H84.1043L83.9264 184.997C83.8078 185.253 83.6299 185.51 83.3927 185.767C83.1753 186.005 82.8689 186.212 82.4736 186.39C82.098 186.548 81.5841 186.627 80.9319 186.627ZM81.258 185.501C81.8312 185.501 82.2759 185.402 82.5922 185.204C82.9084 184.987 83.1259 184.71 83.2445 184.374C83.3828 184.038 83.4619 183.672 83.4817 183.277C83.5212 182.862 83.5409 182.457 83.5409 182.061V174.027C83.4816 173.849 83.3729 173.651 83.2148 173.434C83.0765 173.216 82.859 173.028 82.5625 172.87C82.2661 172.712 81.8609 172.633 81.3469 172.633C80.7737 172.633 80.3389 172.712 80.0424 172.87C79.7459 173.028 79.5285 173.246 79.3901 173.522C79.2715 173.779 79.2024 174.076 79.1826 174.412C79.1628 174.748 79.153 175.094 79.153 175.45V182.684C79.153 183.158 79.1826 183.613 79.2419 184.048C79.3012 184.483 79.4791 184.838 79.7756 185.115C80.0721 185.372 80.5662 185.501 81.258 185.501Z" fill="black"/>
<path d="M91.1676 186.598C90.713 186.598 90.2485 186.528 89.7741 186.39C89.3195 186.271 88.9242 185.985 88.5882 185.53C88.2719 185.056 88.1138 184.324 88.1138 183.336V181.913C88.1138 180.925 88.4103 180.134 89.0032 179.541C89.616 178.928 90.4461 178.385 91.4937 177.91C92.1658 177.574 92.7093 177.278 93.1244 177.021C93.5592 176.764 93.8854 176.477 94.1028 176.161C94.3202 175.845 94.4289 175.42 94.4289 174.886V174.264C94.4289 173.789 94.3301 173.424 94.1324 173.167C93.9348 172.91 93.6679 172.732 93.3319 172.633C93.0157 172.534 92.6797 172.485 92.3239 172.485C91.4344 172.485 90.8513 172.732 90.5746 173.226C90.2979 173.7 90.1595 174.412 90.1595 175.361V176.606H88.4696V175.183C88.4696 174.451 88.5684 173.809 88.766 173.256C88.9637 172.682 89.3393 172.238 89.8927 171.921C90.4461 171.585 91.2565 171.417 92.3239 171.417C93.4505 171.417 94.2906 171.546 94.844 171.803C95.4172 172.06 95.7928 172.425 95.9707 172.9C96.1683 173.374 96.2671 173.938 96.2671 174.59V186.39H94.4586L94.4289 184.552C94.1917 185.224 93.7668 185.738 93.154 186.094C92.5413 186.43 91.8792 186.598 91.1676 186.598ZM91.8495 185.352C92.739 185.352 93.3814 185.036 93.7767 184.404C94.1917 183.771 94.3993 182.931 94.3993 181.883V177.199C94.2016 177.515 93.8755 177.802 93.4209 178.059C92.9663 178.316 92.5018 178.573 92.0274 178.83C91.3554 179.225 90.8316 179.64 90.456 180.075C90.1002 180.49 89.9223 181.073 89.9223 181.824V182.98C89.9223 183.692 90.0212 184.216 90.2188 184.552C90.4165 184.888 90.6636 185.105 90.96 185.204C91.2565 185.303 91.553 185.352 91.8495 185.352Z" fill="black"/>
<path d="M102.327 186.42C101.892 186.42 101.496 186.37 101.141 186.271C100.785 186.173 100.478 186.014 100.222 185.797C99.9646 185.56 99.7669 185.263 99.6286 184.908C99.4902 184.532 99.421 184.068 99.421 183.514V172.87H98.1165V171.921L99.5396 171.714L99.8658 168.957H101.259V171.714H104.432V172.87H101.259V183.188C101.259 183.741 101.358 184.206 101.556 184.581C101.753 184.957 102.188 185.145 102.86 185.145C103.137 185.145 103.433 185.135 103.75 185.115C104.066 185.076 104.293 185.056 104.432 185.056V186.242C104.274 186.242 103.997 186.271 103.601 186.331C103.206 186.39 102.781 186.42 102.327 186.42Z" fill="black"/>
<path d="M109.003 186.598C108.548 186.598 108.084 186.528 107.61 186.39C107.155 186.271 106.76 185.985 106.424 185.53C106.107 185.056 105.949 184.324 105.949 183.336V181.913C105.949 180.925 106.246 180.134 106.839 179.541C107.451 178.928 108.282 178.385 109.329 177.91C110.001 177.574 110.545 177.278 110.96 177.021C111.395 176.764 111.721 176.477 111.938 176.161C112.156 175.845 112.264 175.42 112.264 174.886V174.264C112.264 173.789 112.166 173.424 111.968 173.167C111.77 172.91 111.503 172.732 111.167 172.633C110.851 172.534 110.515 172.485 110.159 172.485C109.27 172.485 108.687 172.732 108.41 173.226C108.133 173.7 107.995 174.412 107.995 175.361V176.606H106.305V175.183C106.305 174.451 106.404 173.809 106.602 173.256C106.799 172.682 107.175 172.238 107.728 171.921C108.282 171.585 109.092 171.417 110.159 171.417C111.286 171.417 112.126 171.546 112.68 171.803C113.253 172.06 113.628 172.425 113.806 172.9C114.004 173.374 114.103 173.938 114.103 174.59V186.39H112.294L112.264 184.552C112.027 185.224 111.602 185.738 110.99 186.094C110.377 186.43 109.715 186.598 109.003 186.598ZM109.685 185.352C110.574 185.352 111.217 185.036 111.612 184.404C112.027 183.771 112.235 182.931 112.235 181.883V177.199C112.037 177.515 111.711 177.802 111.256 178.059C110.802 178.316 110.337 178.573 109.863 178.83C109.191 179.225 108.667 179.64 108.292 180.075C107.936 180.49 107.758 181.073 107.758 181.824V182.98C107.758 183.692 107.857 184.216 108.054 184.552C108.252 184.888 108.499 185.105 108.796 185.204C109.092 185.303 109.389 185.352 109.685 185.352Z" fill="black"/>
<path d="M121.217 186.39L124.626 168.868H128.599L131.949 186.39H128.807L128.095 182.832H124.893L124.241 186.39H121.217ZM124.952 181.379H128.066L126.524 171.625L124.952 181.379Z" fill="black"/>
<path d="M133.841 189.829V171.714H135.56L135.62 173.018C135.798 172.603 136.084 172.248 136.479 171.951C136.875 171.655 137.527 171.506 138.436 171.506C139.365 171.506 140.077 171.665 140.571 171.981C141.065 172.297 141.411 172.732 141.609 173.285C141.806 173.839 141.905 174.481 141.905 175.212V182.447C141.905 183.257 141.816 183.979 141.638 184.611C141.46 185.244 141.124 185.738 140.63 186.094C140.136 186.43 139.405 186.598 138.436 186.598C137.685 186.598 137.082 186.479 136.628 186.242C136.193 186.005 135.867 185.708 135.649 185.352V189.829H133.841ZM137.873 185.471C138.426 185.471 138.851 185.392 139.148 185.234C139.444 185.076 139.662 184.868 139.8 184.611C139.938 184.334 140.018 184.038 140.037 183.722C140.057 183.386 140.067 183.03 140.067 182.654V175.509C140.067 175.133 140.057 174.788 140.037 174.471C140.018 174.135 139.938 173.829 139.8 173.552C139.662 173.275 139.444 173.058 139.148 172.9C138.851 172.742 138.426 172.663 137.873 172.663C137.319 172.663 136.895 172.762 136.598 172.959C136.302 173.157 136.084 173.424 135.946 173.76C135.807 174.076 135.728 174.422 135.709 174.797C135.689 175.173 135.679 175.529 135.679 175.865V182.862C135.679 183.336 135.718 183.781 135.798 184.196C135.896 184.591 136.094 184.908 136.391 185.145C136.707 185.362 137.201 185.471 137.873 185.471Z" fill="black"/>
<path d="M144.669 189.829V171.714H146.389L146.448 173.018C146.626 172.603 146.913 172.248 147.308 171.951C147.703 171.655 148.356 171.506 149.265 171.506C150.194 171.506 150.906 171.665 151.4 171.981C151.894 172.297 152.24 172.732 152.437 173.285C152.635 173.839 152.734 174.481 152.734 175.212V182.447C152.734 183.257 152.645 183.979 152.467 184.611C152.289 185.244 151.953 185.738 151.459 186.094C150.965 186.43 150.233 186.598 149.265 186.598C148.514 186.598 147.911 186.479 147.456 186.242C147.022 186.005 146.695 185.708 146.478 185.352V189.829H144.669ZM148.702 185.471C149.255 185.471 149.68 185.392 149.977 185.234C150.273 185.076 150.49 184.868 150.629 184.611C150.767 184.334 150.846 184.038 150.866 183.722C150.886 183.386 150.896 183.03 150.896 182.654V175.509C150.896 175.133 150.886 174.788 150.866 174.471C150.846 174.135 150.767 173.829 150.629 173.552C150.49 173.275 150.273 173.058 149.977 172.9C149.68 172.742 149.255 172.663 148.702 172.663C148.148 172.663 147.723 172.762 147.427 172.959C147.13 173.157 146.913 173.424 146.774 173.76C146.636 174.076 146.557 174.422 146.537 174.797C146.518 175.173 146.508 175.529 146.508 175.865V182.862C146.508 183.336 146.547 183.781 146.626 184.196C146.725 184.591 146.923 184.908 147.219 185.145C147.535 185.362 148.03 185.471 148.702 185.471Z" fill="black"/>
<path d="M155.498 186.39V167.593H157.307V186.39H155.498Z" fill="black"/>
<path d="M160.449 186.39V171.714H162.258V186.39H160.449ZM161.368 169.905C161.052 169.905 160.785 169.807 160.568 169.609C160.35 169.391 160.242 169.125 160.242 168.808C160.242 168.512 160.35 168.265 160.568 168.067C160.785 167.85 161.052 167.741 161.368 167.741C161.665 167.741 161.922 167.85 162.139 168.067C162.376 168.265 162.495 168.512 162.495 168.808C162.495 169.125 162.376 169.391 162.139 169.609C161.922 169.807 161.665 169.905 161.368 169.905Z" fill="black"/>
<path d="M169.166 186.657C168.197 186.657 167.407 186.548 166.794 186.331C166.181 186.094 165.736 185.678 165.46 185.085C165.183 184.473 165.045 183.583 165.045 182.417V175.183C165.045 173.74 165.351 172.762 165.964 172.248C166.596 171.714 167.634 171.447 169.077 171.447C170.48 171.447 171.488 171.704 172.101 172.218C172.733 172.732 173.05 173.681 173.05 175.064V176.991H171.211V175.005C171.211 174.155 171.073 173.542 170.796 173.167C170.52 172.771 169.946 172.574 169.077 172.574C168.207 172.574 167.624 172.771 167.327 173.167C167.031 173.542 166.883 174.155 166.883 175.005V182.891C166.883 183.84 167.031 184.512 167.327 184.908C167.624 185.283 168.227 185.471 169.136 185.471C169.966 185.471 170.52 185.283 170.796 184.908C171.073 184.532 171.211 183.86 171.211 182.891V180.905H173.05V182.417C173.05 183.544 172.911 184.413 172.635 185.026C172.358 185.639 171.933 186.064 171.36 186.301C170.786 186.538 170.055 186.657 169.166 186.657Z" fill="black"/>
<path d="M178.347 186.598C177.893 186.598 177.428 186.528 176.954 186.39C176.499 186.271 176.104 185.985 175.768 185.53C175.452 185.056 175.293 184.324 175.293 183.336V181.913C175.293 180.925 175.59 180.134 176.183 179.541C176.796 178.928 177.626 178.385 178.673 177.91C179.345 177.574 179.889 177.278 180.304 177.021C180.739 176.764 181.065 176.477 181.282 176.161C181.5 175.845 181.609 175.42 181.609 174.886V174.264C181.609 173.789 181.51 173.424 181.312 173.167C181.114 172.91 180.848 172.732 180.512 172.633C180.195 172.534 179.859 172.485 179.504 172.485C178.614 172.485 178.031 172.732 177.754 173.226C177.478 173.7 177.339 174.412 177.339 175.361V176.606H175.649V175.183C175.649 174.451 175.748 173.809 175.946 173.256C176.143 172.682 176.519 172.238 177.072 171.921C177.626 171.585 178.436 171.417 179.504 171.417C180.63 171.417 181.47 171.546 182.024 171.803C182.597 172.06 182.972 172.425 183.15 172.9C183.348 173.374 183.447 173.938 183.447 174.59V186.39H181.638L181.609 184.552C181.371 185.224 180.946 185.738 180.334 186.094C179.721 186.43 179.059 186.598 178.347 186.598ZM179.029 185.352C179.919 185.352 180.561 185.036 180.956 184.404C181.371 183.771 181.579 182.931 181.579 181.883V177.199C181.381 177.515 181.055 177.802 180.601 178.059C180.146 178.316 179.681 178.573 179.207 178.83C178.535 179.225 178.011 179.64 177.636 180.075C177.28 180.49 177.102 181.073 177.102 181.824V182.98C177.102 183.692 177.201 184.216 177.398 184.552C177.596 184.888 177.843 185.105 178.14 185.204C178.436 185.303 178.733 185.352 179.029 185.352Z" fill="black"/>
<path d="M189.506 186.42C189.071 186.42 188.676 186.37 188.32 186.271C187.964 186.173 187.658 186.014 187.401 185.797C187.144 185.56 186.947 185.263 186.808 184.908C186.67 184.532 186.601 184.068 186.601 183.514V172.87H185.296V171.921L186.719 171.714L187.045 168.957H188.439V171.714H191.611V172.87H188.439V183.188C188.439 183.741 188.538 184.206 188.735 184.581C188.933 184.957 189.368 185.145 190.04 185.145C190.317 185.145 190.613 185.135 190.929 185.115C191.246 185.076 191.473 185.056 191.611 185.056V186.242C191.453 186.242 191.176 186.271 190.781 186.331C190.386 186.39 189.961 186.42 189.506 186.42Z" fill="black"/>
<path d="M193.514 186.39V171.714H195.323V186.39H193.514ZM194.433 169.905C194.117 169.905 193.85 169.807 193.633 169.609C193.416 169.391 193.307 169.125 193.307 168.808C193.307 168.512 193.416 168.265 193.633 168.067C193.85 167.85 194.117 167.741 194.433 167.741C194.73 167.741 194.987 167.85 195.204 168.067C195.442 168.265 195.56 168.512 195.56 168.808C195.56 169.125 195.442 169.391 195.204 169.609C194.987 169.807 194.73 169.905 194.433 169.905Z" fill="black"/>
<path d="M202.142 186.598C201.035 186.598 200.185 186.43 199.592 186.094C199.019 185.757 198.624 185.273 198.406 184.641C198.208 183.988 198.11 183.208 198.11 182.298V175.45C198.11 174.679 198.208 173.997 198.406 173.404C198.604 172.811 198.999 172.346 199.592 172.01C200.185 171.655 201.035 171.477 202.142 171.477C203.269 171.477 204.118 171.655 204.692 172.01C205.265 172.346 205.65 172.811 205.848 173.404C206.065 173.997 206.174 174.679 206.174 175.45V182.298C206.174 183.208 206.065 183.988 205.848 184.641C205.631 185.273 205.225 185.757 204.632 186.094C204.059 186.43 203.229 186.598 202.142 186.598ZM202.142 185.471C202.834 185.471 203.328 185.333 203.624 185.056C203.921 184.779 204.109 184.433 204.188 184.018C204.286 183.583 204.336 183.139 204.336 182.684V175.361C204.336 174.906 204.286 174.471 204.188 174.056C204.109 173.641 203.921 173.305 203.624 173.048C203.328 172.771 202.834 172.633 202.142 172.633C201.47 172.633 200.976 172.771 200.659 173.048C200.343 173.305 200.146 173.641 200.066 174.056C199.987 174.471 199.948 174.906 199.948 175.361V182.684C199.948 183.139 199.987 183.583 200.066 184.018C200.146 184.433 200.343 184.779 200.659 185.056C200.976 185.333 201.47 185.471 202.142 185.471Z" fill="black"/>
<path d="M208.918 186.39V171.714H210.43L210.667 173.315C210.865 172.663 211.24 172.198 211.794 171.921C212.347 171.625 212.93 171.477 213.543 171.477C214.591 171.477 215.351 171.665 215.826 172.04C216.32 172.396 216.636 172.87 216.775 173.463C216.913 174.036 216.982 174.669 216.982 175.361V186.39H215.144V175.598C215.144 175.262 215.134 174.926 215.114 174.59C215.095 174.254 215.015 173.957 214.877 173.7C214.759 173.424 214.551 173.206 214.254 173.048C213.958 172.89 213.523 172.811 212.95 172.811C212.456 172.811 212.051 172.91 211.734 173.107C211.438 173.285 211.211 173.503 211.052 173.76C210.914 173.997 210.815 174.224 210.756 174.442V186.39H208.918Z" fill="black"/>
<path d="M225.66 186.39V168.868H231.175C232.163 168.868 232.963 169.105 233.576 169.579C234.189 170.034 234.495 170.765 234.495 171.773V174.619C234.495 175.628 234.189 176.408 233.576 176.962C232.983 177.515 232.173 177.812 231.145 177.851V177.822C231.777 177.861 232.252 178.088 232.568 178.503C232.884 178.899 233.161 179.521 233.398 180.371L235.207 186.39H233.191L231.59 180.49C231.491 180.114 231.362 179.768 231.204 179.452C231.046 179.116 230.848 178.839 230.611 178.622C230.394 178.405 230.097 178.296 229.722 178.296H227.587V186.39H225.66ZM227.587 177.021H230.196C231.007 177.021 231.619 176.833 232.034 176.458C232.449 176.062 232.657 175.4 232.657 174.471V172.099C232.657 171.348 232.459 170.805 232.064 170.469C231.669 170.133 231.204 169.965 230.671 169.965H227.587V177.021Z" fill="black"/>
<path d="M241.435 186.657C240.447 186.657 239.646 186.548 239.033 186.331C238.421 186.094 237.976 185.669 237.699 185.056C237.422 184.443 237.284 183.554 237.284 182.387V175.064C237.284 173.7 237.59 172.762 238.203 172.248C238.836 171.734 239.873 171.477 241.316 171.477C242.72 171.477 243.728 171.734 244.34 172.248C244.973 172.762 245.289 173.7 245.289 175.064V178.859H239.122V183.01C239.122 183.959 239.27 184.621 239.567 184.997C239.863 185.352 240.466 185.53 241.376 185.53C242.206 185.53 242.759 185.352 243.036 184.997C243.313 184.641 243.451 183.979 243.451 183.01V181.113H245.289V182.358C245.289 183.504 245.151 184.394 244.874 185.026C244.597 185.639 244.172 186.064 243.599 186.301C243.046 186.538 242.324 186.657 241.435 186.657ZM239.122 177.91H243.451V174.916C243.451 174.086 243.313 173.483 243.036 173.107C242.759 172.732 242.186 172.544 241.316 172.544C240.447 172.544 239.863 172.732 239.567 173.107C239.27 173.483 239.122 174.086 239.122 174.916V177.91Z" fill="black"/>
<path d="M251.476 186.627C250.527 186.627 249.776 186.518 249.223 186.301C248.669 186.064 248.264 185.757 248.007 185.382C247.75 184.987 247.582 184.542 247.503 184.048C247.424 183.554 247.385 183.03 247.385 182.476V181.379H249.253V182.743C249.253 183.257 249.272 183.732 249.312 184.166C249.371 184.581 249.559 184.917 249.875 185.174C250.191 185.412 250.715 185.53 251.447 185.53C252.119 185.53 252.603 185.412 252.899 185.174C253.216 184.917 253.403 184.601 253.463 184.226C253.542 183.85 253.581 183.504 253.581 183.188V182.358C253.581 181.864 253.492 181.439 253.314 181.083C253.137 180.727 252.85 180.421 252.455 180.164C252.079 179.887 251.585 179.63 250.972 179.393C250.32 179.136 249.747 178.859 249.253 178.563C248.758 178.266 248.363 177.891 248.067 177.436C247.79 176.962 247.652 176.359 247.652 175.628V174.738C247.652 173.71 247.948 172.9 248.541 172.307C249.154 171.714 250.182 171.417 251.624 171.417C252.573 171.417 253.324 171.546 253.878 171.803C254.451 172.06 254.866 172.475 255.123 173.048C255.4 173.621 255.538 174.372 255.538 175.301V176.547H253.73V175.094C253.73 174.106 253.562 173.434 253.225 173.078C252.889 172.702 252.356 172.514 251.624 172.514C250.794 172.514 250.231 172.712 249.934 173.107C249.658 173.503 249.519 173.997 249.519 174.59V175.39C249.519 175.964 249.638 176.428 249.875 176.784C250.132 177.14 250.488 177.446 250.943 177.703C251.397 177.94 251.941 178.187 252.573 178.444C253.146 178.681 253.65 178.938 254.085 179.215C254.54 179.492 254.896 179.857 255.153 180.312C255.41 180.767 255.538 181.399 255.538 182.21V182.891C255.538 183.544 255.439 184.156 255.242 184.73C255.044 185.283 254.659 185.738 254.085 186.094C253.512 186.449 252.642 186.627 251.476 186.627Z" fill="black"/>
<path d="M261.992 186.657C261.004 186.657 260.203 186.548 259.59 186.331C258.978 186.094 258.533 185.669 258.256 185.056C257.98 184.443 257.841 183.554 257.841 182.387V175.064C257.841 173.7 258.148 172.762 258.76 172.248C259.393 171.734 260.43 171.477 261.873 171.477C263.277 171.477 264.285 171.734 264.898 172.248C265.53 172.762 265.846 173.7 265.846 175.064V178.859H259.679V183.01C259.679 183.959 259.828 184.621 260.124 184.997C260.421 185.352 261.023 185.53 261.933 185.53C262.763 185.53 263.316 185.352 263.593 184.997C263.87 184.641 264.008 183.979 264.008 183.01V181.113H265.846V182.358C265.846 183.504 265.708 184.394 265.431 185.026C265.155 185.639 264.73 186.064 264.156 186.301C263.603 186.538 262.881 186.657 261.992 186.657ZM259.679 177.91H264.008V174.916C264.008 174.086 263.87 173.483 263.593 173.107C263.316 172.732 262.743 172.544 261.873 172.544C261.004 172.544 260.421 172.732 260.124 173.107C259.828 173.483 259.679 174.086 259.679 174.916V177.91Z" fill="black"/>
<path d="M271.144 186.598C270.689 186.598 270.225 186.528 269.75 186.39C269.296 186.271 268.901 185.985 268.564 185.53C268.248 185.056 268.09 184.324 268.09 183.336V181.913C268.09 180.925 268.387 180.134 268.98 179.541C269.592 178.928 270.422 178.385 271.47 177.91C272.142 177.574 272.686 177.278 273.101 177.021C273.536 176.764 273.862 176.477 274.079 176.161C274.297 175.845 274.405 175.42 274.405 174.886V174.264C274.405 173.789 274.306 173.424 274.109 173.167C273.911 172.91 273.644 172.732 273.308 172.633C272.992 172.534 272.656 172.485 272.3 172.485C271.411 172.485 270.828 172.732 270.551 173.226C270.274 173.7 270.136 174.412 270.136 175.361V176.606H268.446V175.183C268.446 174.451 268.545 173.809 268.742 173.256C268.94 172.682 269.316 172.238 269.869 171.921C270.422 171.585 271.233 171.417 272.3 171.417C273.427 171.417 274.267 171.546 274.82 171.803C275.394 172.06 275.769 172.425 275.947 172.9C276.145 173.374 276.243 173.938 276.243 174.59V186.39H274.435L274.405 184.552C274.168 185.224 273.743 185.738 273.13 186.094C272.518 186.43 271.855 186.598 271.144 186.598ZM271.826 185.352C272.715 185.352 273.358 185.036 273.753 184.404C274.168 183.771 274.376 182.931 274.376 181.883V177.199C274.178 177.515 273.852 177.802 273.397 178.059C272.943 178.316 272.478 178.573 272.004 178.83C271.332 179.225 270.808 179.64 270.432 180.075C270.077 180.49 269.899 181.073 269.899 181.824V182.98C269.899 183.692 269.998 184.216 270.195 184.552C270.393 184.888 270.64 185.105 270.936 185.204C271.233 185.303 271.529 185.352 271.826 185.352Z" fill="black"/>
<path d="M279.131 186.39V171.714H280.672L280.88 173.285C281.097 172.732 281.453 172.337 281.947 172.099C282.441 171.862 282.935 171.714 283.43 171.655C283.983 171.536 284.517 171.526 285.031 171.625V173.048C284.952 173.009 284.813 172.979 284.616 172.959C284.418 172.939 284.2 172.939 283.963 172.959C283.746 172.959 283.538 172.999 283.341 173.078C282.669 173.137 282.105 173.384 281.651 173.819C281.196 174.234 280.969 174.788 280.969 175.479V186.39H279.131Z" fill="black"/>
<path d="M290.395 186.657C289.426 186.657 288.636 186.548 288.023 186.331C287.41 186.094 286.966 185.678 286.689 185.085C286.412 184.473 286.274 183.583 286.274 182.417V175.183C286.274 173.74 286.58 172.762 287.193 172.248C287.825 171.714 288.863 171.447 290.306 171.447C291.709 171.447 292.717 171.704 293.33 172.218C293.963 172.732 294.279 173.681 294.279 175.064V176.991H292.441V175.005C292.441 174.155 292.302 173.542 292.026 173.167C291.749 172.771 291.176 172.574 290.306 172.574C289.436 172.574 288.853 172.771 288.557 173.167C288.26 173.542 288.112 174.155 288.112 175.005V182.891C288.112 183.84 288.26 184.512 288.557 184.908C288.853 185.283 289.456 185.471 290.365 185.471C291.195 185.471 291.749 185.283 292.026 184.908C292.302 184.532 292.441 183.86 292.441 182.891V180.905H294.279V182.417C294.279 183.544 294.141 184.413 293.864 185.026C293.587 185.639 293.162 186.064 292.589 186.301C292.016 186.538 291.284 186.657 290.395 186.657Z" fill="black"/>
<path d="M296.908 186.39V167.711H298.657V172.959C298.855 172.505 299.201 172.149 299.695 171.892C300.189 171.615 300.802 171.477 301.533 171.477C302.581 171.477 303.342 171.665 303.816 172.04C304.31 172.396 304.627 172.87 304.765 173.463C304.903 174.036 304.973 174.669 304.973 175.361V186.39H303.134V175.746C303.134 175.45 303.124 175.143 303.105 174.827C303.085 174.491 303.006 174.185 302.867 173.908C302.749 173.631 302.531 173.404 302.215 173.226C301.919 173.048 301.494 172.959 300.94 172.959C300.426 172.959 300.011 173.038 299.695 173.196C299.379 173.354 299.142 173.552 298.984 173.789C298.845 174.007 298.766 174.195 298.746 174.353V186.39H296.908Z" fill="black"/>
<path d="M317.801 186.746C316.931 186.746 316.161 186.647 315.489 186.449C314.836 186.252 314.312 185.846 313.917 185.234C313.542 184.601 313.354 183.652 313.354 182.387V172.514C313.354 171.408 313.542 170.577 313.917 170.024C314.312 169.471 314.846 169.105 315.518 168.927C316.21 168.729 316.981 168.63 317.831 168.63C318.7 168.63 319.461 168.729 320.114 168.927C320.766 169.125 321.28 169.5 321.655 170.054C322.031 170.607 322.219 171.427 322.219 172.514V175.598H320.351V172.485C320.351 171.714 320.242 171.141 320.025 170.765C319.807 170.37 319.501 170.113 319.106 169.994C318.73 169.876 318.295 169.816 317.801 169.816C317.307 169.816 316.862 169.876 316.467 169.994C316.091 170.113 315.795 170.37 315.577 170.765C315.38 171.141 315.281 171.714 315.281 172.485V182.891C315.281 183.682 315.38 184.275 315.577 184.67C315.795 185.046 316.091 185.293 316.467 185.412C316.862 185.53 317.307 185.589 317.801 185.589C318.315 185.589 318.76 185.53 319.135 185.412C319.511 185.293 319.807 185.046 320.025 184.67C320.242 184.275 320.351 183.682 320.351 182.891V180.253H322.219V182.358C322.219 183.643 322.031 184.601 321.655 185.234C321.28 185.846 320.766 186.252 320.114 186.449C319.461 186.647 318.691 186.746 317.801 186.746Z" fill="black"/>
<path d="M328.991 186.657C328.003 186.657 327.202 186.548 326.589 186.331C325.977 186.094 325.532 185.669 325.255 185.056C324.978 184.443 324.84 183.554 324.84 182.387V175.064C324.84 173.7 325.146 172.762 325.759 172.248C326.392 171.734 327.429 171.477 328.872 171.477C330.276 171.477 331.284 171.734 331.896 172.248C332.529 172.762 332.845 173.7 332.845 175.064V178.859H326.678V183.01C326.678 183.959 326.827 184.621 327.123 184.997C327.42 185.352 328.022 185.53 328.932 185.53C329.762 185.53 330.315 185.352 330.592 184.997C330.869 184.641 331.007 183.979 331.007 183.01V181.113H332.845V182.358C332.845 183.504 332.707 184.394 332.43 185.026C332.153 185.639 331.728 186.064 331.155 186.301C330.602 186.538 329.88 186.657 328.991 186.657ZM326.678 177.91H331.007V174.916C331.007 174.086 330.869 173.483 330.592 173.107C330.315 172.732 329.742 172.544 328.872 172.544C328.003 172.544 327.42 172.732 327.123 173.107C326.827 173.483 326.678 174.086 326.678 174.916V177.91Z" fill="black"/>
<path d="M335.474 186.39V171.714H336.987L337.224 173.315C337.421 172.663 337.797 172.198 338.35 171.921C338.904 171.625 339.487 171.477 340.1 171.477C341.147 171.477 341.908 171.665 342.383 172.04C342.877 172.396 343.193 172.87 343.331 173.463C343.47 174.036 343.539 174.669 343.539 175.361V186.39H341.701V175.598C341.701 175.262 341.691 174.926 341.671 174.59C341.651 174.254 341.572 173.957 341.434 173.7C341.315 173.424 341.108 173.206 340.811 173.048C340.515 172.89 340.08 172.811 339.507 172.811C339.013 172.811 338.607 172.91 338.291 173.107C337.995 173.285 337.767 173.503 337.609 173.76C337.471 173.997 337.372 174.224 337.313 174.442V186.39H335.474Z" fill="black"/>
<path d="M349.62 186.42C349.185 186.42 348.79 186.37 348.434 186.271C348.079 186.173 347.772 186.014 347.515 185.797C347.258 185.56 347.061 185.263 346.922 184.908C346.784 184.532 346.715 184.068 346.715 183.514V172.87H345.41V171.921L346.833 171.714L347.159 168.957H348.553V171.714H351.725V172.87H348.553V183.188C348.553 183.741 348.652 184.206 348.849 184.581C349.047 184.957 349.482 185.145 350.154 185.145C350.431 185.145 350.727 185.135 351.043 185.115C351.36 185.076 351.587 185.056 351.725 185.056V186.242C351.567 186.242 351.291 186.271 350.895 186.331C350.5 186.39 350.075 186.42 349.62 186.42Z" fill="black"/>
<path d="M357.395 186.657C356.406 186.657 355.606 186.548 354.993 186.331C354.38 186.094 353.936 185.669 353.659 185.056C353.382 184.443 353.244 183.554 353.244 182.387V175.064C353.244 173.7 353.55 172.762 354.163 172.248C354.795 171.734 355.833 171.477 357.276 171.477C358.679 171.477 359.687 171.734 360.3 172.248C360.933 172.762 361.249 173.7 361.249 175.064V178.859H355.082V183.01C355.082 183.959 355.23 184.621 355.527 184.997C355.823 185.352 356.426 185.53 357.335 185.53C358.165 185.53 358.719 185.352 358.996 184.997C359.272 184.641 359.411 183.979 359.411 183.01V181.113H361.249V182.358C361.249 183.504 361.11 184.394 360.834 185.026C360.557 185.639 360.132 186.064 359.559 186.301C359.005 186.538 358.284 186.657 357.395 186.657ZM355.082 177.91H359.411V174.916C359.411 174.086 359.272 173.483 358.996 173.107C358.719 172.732 358.146 172.544 357.276 172.544C356.406 172.544 355.823 172.732 355.527 173.107C355.23 173.483 355.082 174.086 355.082 174.916V177.91Z" fill="black"/>
<path d="M363.878 186.39V171.714H365.42L365.627 173.285C365.845 172.732 366.201 172.337 366.695 172.099C367.189 171.862 367.683 171.714 368.177 171.655C368.731 171.536 369.264 171.526 369.778 171.625V173.048C369.699 173.009 369.561 172.979 369.363 172.959C369.165 172.939 368.948 172.939 368.711 172.959C368.493 172.959 368.286 172.999 368.088 173.078C367.416 173.137 366.853 173.384 366.398 173.819C365.944 174.234 365.716 174.788 365.716 175.479V186.39H363.878Z" fill="black"/>
<path d="M151 12.5C151 19.4036 145.404 25 138.5 25C131.596 25 126 19.4036 126 12.5C126 5.59644 131.596 0 138.5 0C145.404 0 151 5.59644 151 12.5Z" fill="#0066B3"/>
<path fill-rule="evenodd" clip-rule="evenodd" d="M244 92C244 124.585 217.585 151 185 151C152.415 151 126 124.585 126 92V35C126 33.8954 126.895 33 128 33H149C150.105 33 151 33.8954 151 35V39.9145C151 41.5364 152.841 42.4999 154.224 41.6527C163.184 36.164 173.723 33 185 33C217.585 33 244 59.4152 244 92ZM185 126C203.778 126 219 110.778 219 92C219 73.2223 203.778 58 185 58C166.222 58 151 73.2223 151 92C151 110.778 166.222 126 185 126Z" fill="#0066B3"/>
<path fill-rule="evenodd" clip-rule="evenodd" d="M252 92C252 59.4152 278.415 33 311 33C343.585 33 370 59.4152 370 92V149C370 150.105 369.105 151 368 151H347C345.895 151 345 150.105 345 149V144.085C345 142.464 343.159 141.5 341.776 142.347C332.816 147.836 322.277 151 311 151C278.415 151 252 124.585 252 92ZM311 58C292.222 58 277 73.2223 277 92C277 110.778 292.222 126 311 126C329.778 126 345 110.778 345 92C345 73.2223 329.778 58 311 58Z" fill="#0066B3"/>
<path fill-rule="evenodd" clip-rule="evenodd" d="M59 126C45.4716 126 33.7886 118.099 28.3139 106.659C27.7103 105.398 28.6723 104 30.0704 104H115.15C116.098 104 116.92 103.334 117.086 102.4C117.687 99.0242 118 95.5487 118 92C118 87.8882 117.579 83.8746 116.779 80C111.235 53.1693 87.473 33 59 33C30.527 33 6.76479 53.1693 1.22117 80C0.420618 83.8746 0 87.8882 0 92C0 96.1118 0.420618 100.125 1.22117 104C6.76479 130.831 30.527 151 59 151C82.7587 151 103.237 136.957 112.588 116.718C113.182 115.432 112.218 114 110.802 114H85.8491C85.2622 114 84.7073 114.26 84.3154 114.697C78.0906 121.635 69.055 126 59 126ZM59 58C45.4716 58 33.7886 65.9011 28.3139 77.3405C27.7103 78.6017 28.6723 80 30.0704 80H87.9296C89.3277 80 90.2897 78.6017 89.6861 77.3405C84.2114 65.9011 72.5284 58 59 58Z" fill="#0066B3"/>
</svg>
