<svg width="1895" height="151" viewBox="0 0 1895 151" fill="none" xmlns="http://www.w3.org/2000/svg">
<path d="M151 12.5C151 19.4036 145.404 25 138.5 25C131.596 25 126 19.4036 126 12.5C126 5.59644 131.596 0 138.5 0C145.404 0 151 5.59644 151 12.5Z" fill="#0066B3"/>
<path fill-rule="evenodd" clip-rule="evenodd" d="M244 92C244 124.585 217.585 151 185 151C152.415 151 126 124.585 126 92V35C126 33.8954 126.895 33 128 33H149C150.105 33 151 33.8954 151 35V39.9145C151 41.5364 152.841 42.4999 154.224 41.6527C163.184 36.164 173.723 33 185 33C217.585 33 244 59.4152 244 92ZM185 126C203.778 126 219 110.778 219 92C219 73.2223 203.778 58 185 58C166.222 58 151 73.2223 151 92C151 110.778 166.222 126 185 126Z" fill="#0066B3"/>
<path fill-rule="evenodd" clip-rule="evenodd" d="M252 92C252 59.4152 278.415 33 311 33C343.585 33 370 59.4152 370 92V149C370 150.105 369.105 151 368 151H347C345.895 151 345 150.105 345 149V144.085C345 142.464 343.159 141.5 341.776 142.347C332.816 147.836 322.277 151 311 151C278.415 151 252 124.585 252 92ZM311 58C292.222 58 277 73.2223 277 92C277 110.778 292.222 126 311 126C329.778 126 345 110.778 345 92C345 73.2223 329.778 58 311 58Z" fill="#0066B3"/>
<path fill-rule="evenodd" clip-rule="evenodd" d="M59 126C45.4716 126 33.7886 118.099 28.3139 106.659C27.7103 105.398 28.6723 104 30.0704 104H115.15C116.098 104 116.92 103.334 117.086 102.4C117.687 99.0242 118 95.5487 118 92C118 87.8882 117.579 83.8746 116.779 80C111.235 53.1693 87.473 33 59 33C30.527 33 6.76479 53.1693 1.22117 80C0.420618 83.8746 0 87.8882 0 92C0 96.1118 0.420618 100.125 1.22117 104C6.76479 130.831 30.527 151 59 151C82.7587 151 103.237 136.957 112.588 116.718C113.182 115.432 112.218 114 110.802 114H85.8491C85.2622 114 84.7073 114.26 84.3154 114.697C78.0906 121.635 69.055 126 59 126ZM59 58C45.4716 58 33.7886 65.9011 28.3139 77.3405C27.7103 78.6017 28.6723 80 30.0704 80H87.9296C89.3277 80 90.2897 78.6017 89.6861 77.3405C84.2114 65.9011 72.5284 58 59 58Z" fill="#0066B3"/>
<path d="M493.203 51.042H411.681V35.922H496.983C498.831 35.922 500.553 36.3 502.149 37.056C503.745 37.728 505.131 38.694 506.307 39.954C507.483 41.13 508.407 42.516 509.079 44.112C509.751 45.624 510.087 47.22 510.087 48.9V122.988H515.883V138.108H407.523V122.988H425.541V77.502H442.425V122.988H460.821V77.502H477.705V122.988H493.203V51.042Z" fill="#5A5A5A"/>
<path d="M587.703 30C592.491 30 596.943 30.84 601.059 32.52C605.259 34.116 608.913 36.258 612.021 38.946C615.129 41.886 617.565 45.204 619.329 48.9C621.093 52.596 621.975 56.712 621.975 61.248C621.975 65.112 621.261 68.64 619.833 71.832C618.489 75.024 616.641 77.838 614.289 80.274H641.883V95.394H618.825V105.726H627.015C629.871 105.726 632.097 106.566 633.693 108.246C635.289 109.842 636.087 111.984 636.087 114.672V145.164H619.203V120.846H537.681V105.726H556.581V95.394H533.523V80.274H561.117C558.681 77.838 556.791 75.024 555.447 71.832C554.103 68.64 553.431 65.112 553.431 61.248C553.431 56.712 554.271 52.596 555.951 48.9C557.715 45.204 560.151 41.886 563.259 38.946C566.283 36.258 569.895 34.116 574.095 32.52C578.295 30.84 582.831 30 587.703 30ZM587.703 45.12C585.183 45.12 582.831 45.54 580.647 46.38C578.547 47.22 576.741 48.354 575.229 49.782C573.717 51.21 572.499 52.932 571.575 54.948C570.735 56.88 570.315 58.98 570.315 61.248C570.315 63.516 570.735 65.616 571.575 67.548C572.499 69.48 573.717 71.202 575.229 72.714C576.741 74.142 578.547 75.276 580.647 76.116C582.831 76.956 585.183 77.376 587.703 77.376C592.827 77.376 596.943 75.822 600.051 72.714C603.411 69.606 605.091 65.784 605.091 61.248C605.091 58.98 604.629 56.88 603.705 54.948C602.865 52.932 601.647 51.21 600.051 49.782C598.539 48.354 596.733 47.22 594.633 46.38C592.533 45.54 590.223 45.12 587.703 45.12ZM573.465 105.726H601.941V95.394H573.465V105.726Z" fill="#5A5A5A"/>
<path d="M743.691 97.284V35.922H760.575V97.284H743.691ZM706.899 78.384V64.524H676.407V78.384H706.899ZM659.523 79.266V35.922H676.407V49.404H706.899V35.922H723.657V93.504H671.619C669.939 93.504 668.343 93.168 666.831 92.496C665.403 91.74 664.143 90.732 663.051 89.472C661.959 88.128 661.077 86.616 660.405 84.936C659.817 83.172 659.523 81.282 659.523 79.266ZM751.503 103.206C754.275 103.206 756.459 104.046 758.055 105.726C759.735 107.322 760.575 109.464 760.575 112.152V145.164H743.691V118.326H665.949V103.206H751.503Z" fill="#5A5A5A"/>
<path d="M847.641 145.164V81.534H827.481V66.414H847.641V35.922H864.525V145.164H847.641ZM872.463 145.164V35.922H889.347V145.164H872.463ZM785.523 50.034C785.523 48.102 785.817 46.296 786.405 44.616C787.077 42.852 787.959 41.34 789.051 40.08C790.143 38.82 791.403 37.812 792.831 37.056C794.343 36.3 795.939 35.922 797.619 35.922H836.301V51.042H802.407V99.804H839.829V114.924H797.619C795.939 114.924 794.343 114.588 792.831 113.916C791.403 113.16 790.143 112.152 789.051 110.892C787.959 109.548 787.077 108.036 786.405 106.356C785.817 104.592 785.523 102.702 785.523 100.686V50.034Z" fill="#5A5A5A"/>
<path d="M942.015 35.796C946.887 35.796 951.381 36.804 955.497 38.82C959.697 40.752 963.351 43.482 966.459 47.01C969.399 50.538 971.751 54.654 973.515 59.358C975.279 64.062 976.161 69.186 976.161 74.73C976.161 80.274 975.279 85.398 973.515 90.102C971.751 94.806 969.399 98.964 966.459 102.576C963.351 106.104 959.697 108.834 955.497 110.766C951.381 112.698 946.887 113.664 942.015 113.664C936.975 113.664 932.397 112.698 928.281 110.766C924.249 108.834 920.679 106.104 917.571 102.576C914.547 98.964 912.153 94.806 910.389 90.102C908.709 85.398 907.869 80.274 907.869 74.73C907.869 69.186 908.709 64.062 910.389 59.358C912.153 54.654 914.547 50.538 917.571 47.01C920.679 43.482 924.249 40.752 928.281 38.82C932.397 36.804 936.975 35.796 942.015 35.796ZM942.015 50.916C936.975 50.916 932.817 53.184 929.541 57.72C926.433 62.088 924.879 67.758 924.879 74.73C924.879 81.702 926.433 87.372 929.541 91.74C932.817 96.276 936.975 98.544 942.015 98.544C946.971 98.544 951.087 96.276 954.363 91.74C957.639 87.372 959.277 81.702 959.277 74.73C959.277 67.926 957.639 62.256 954.363 57.72C951.087 53.184 946.971 50.916 942.015 50.916ZM1012.7 145.164H995.817V35.922H1012.7V145.164Z" fill="#5A5A5A"/>
<path d="M1138.58 145.164H1121.69V85.944H1104.18V70.824H1121.69V35.922H1138.58V145.164ZM1037.52 50.034C1037.52 48.102 1037.82 46.296 1038.41 44.616C1039.08 42.852 1039.96 41.34 1041.05 40.08C1042.14 38.82 1043.4 37.812 1044.83 37.056C1046.34 36.3 1047.94 35.922 1049.62 35.922H1101.41V51.042H1054.41V70.824H1100.15V85.944H1054.41V107.994H1104.3V123.114H1049.62C1047.94 123.114 1046.34 122.736 1044.83 121.98C1043.4 121.224 1042.14 120.216 1041.05 118.956C1039.96 117.696 1039.08 116.226 1038.41 114.546C1037.82 112.782 1037.52 110.934 1037.52 109.002V50.034Z" fill="#5A5A5A"/>
<path d="M1217.7 30C1222.24 30 1226.31 30.714 1229.93 32.142C1233.54 33.486 1236.73 35.292 1239.5 37.56C1242.27 40.08 1244.42 43.02 1245.93 46.38C1247.44 49.656 1248.2 53.226 1248.2 57.09C1248.2 61.122 1247.44 64.776 1245.93 68.052C1244.42 71.244 1242.27 74.1 1239.5 76.62C1236.73 78.972 1233.54 80.82 1229.93 82.164C1226.31 83.508 1222.24 84.18 1217.7 84.18C1213.17 84.18 1209.05 83.508 1205.36 82.164C1201.74 80.82 1198.55 78.972 1195.78 76.62C1193.09 74.1 1190.99 71.244 1189.48 68.052C1187.97 64.776 1187.21 61.122 1187.21 57.09C1187.21 53.226 1187.97 49.656 1189.48 46.38C1190.99 43.02 1193.09 40.08 1195.78 37.56C1198.55 35.292 1201.74 33.486 1205.36 32.142C1209.05 30.714 1213.17 30 1217.7 30ZM1217.7 44.49C1213.67 44.49 1210.4 45.666 1207.88 48.018C1205.36 50.286 1204.1 53.31 1204.1 57.09C1204.1 60.954 1205.36 64.02 1207.88 66.288C1210.4 68.556 1213.67 69.69 1217.7 69.69C1221.74 69.69 1225.01 68.556 1227.53 66.288C1230.05 64.02 1231.31 60.954 1231.31 57.09C1231.31 53.31 1230.05 50.286 1227.53 48.018C1225.01 45.666 1221.74 44.49 1217.7 44.49ZM1248.07 99.804C1250.34 102.324 1252.1 105.18 1253.36 108.372C1254.62 111.48 1255.25 114.714 1255.25 118.074C1255.25 123.198 1254.33 127.776 1252.48 131.808C1250.72 135.924 1248.2 139.368 1244.92 142.14C1238.03 148.02 1228.96 150.96 1217.7 150.96C1212.16 150.96 1207.08 150.204 1202.46 148.692C1197.92 147.264 1194.02 145.08 1190.74 142.14C1183.68 136.512 1180.16 128.49 1180.16 118.074C1180.16 114.546 1180.74 111.27 1181.92 108.246C1183.18 105.138 1184.94 102.324 1187.21 99.804H1163.52V86.322H1271.88V99.804H1248.07ZM1217.7 100.308C1211.4 100.308 1206.45 101.946 1202.84 105.222C1199.22 108.414 1197.42 112.698 1197.42 118.074C1197.42 123.618 1199.22 127.944 1202.84 131.052C1206.45 134.244 1211.4 135.84 1217.7 135.84C1224.09 135.84 1229.04 134.244 1232.57 131.052C1236.18 127.944 1237.99 123.618 1237.99 118.074C1237.99 112.698 1236.18 108.414 1232.57 105.222C1229.04 101.946 1224.09 100.308 1217.7 100.308Z" fill="#5A5A5A"/>
<path d="M1343.7 30C1348.24 30 1352.31 30.714 1355.93 32.142C1359.54 33.486 1362.73 35.292 1365.5 37.56C1368.27 40.08 1370.42 43.02 1371.93 46.38C1373.44 49.656 1374.2 53.226 1374.2 57.09C1374.2 60.618 1373.61 63.81 1372.43 66.666C1371.34 69.522 1369.79 72.042 1367.77 74.226H1374.83V86.322H1397.88V99.804H1374.07C1376.34 102.408 1378.1 105.264 1379.36 108.372C1380.62 111.48 1381.25 114.714 1381.25 118.074C1381.25 123.198 1380.33 127.776 1378.48 131.808C1376.72 135.924 1374.2 139.368 1370.92 142.14C1364.03 148.02 1354.96 150.96 1343.7 150.96C1338.16 150.96 1333.08 150.204 1328.46 148.692C1323.92 147.264 1320.02 145.08 1316.74 142.14C1309.68 136.512 1306.16 128.49 1306.16 118.074C1306.16 114.546 1306.74 111.27 1307.92 108.246C1309.18 105.138 1310.94 102.324 1313.21 99.804H1289.52V86.322H1312.58V74.226H1319.64C1317.71 72.042 1316.15 69.522 1314.98 66.666C1313.8 63.81 1313.21 60.618 1313.21 57.09C1313.21 53.226 1313.97 49.656 1315.48 46.38C1316.99 43.02 1319.09 40.08 1321.78 37.56C1324.55 35.292 1327.74 33.486 1331.36 32.142C1335.05 30.714 1339.17 30 1343.7 30ZM1357.94 81.282C1355.76 82.374 1353.45 83.13 1351.01 83.55C1348.66 83.97 1346.22 84.18 1343.7 84.18C1341.1 84.18 1338.58 83.97 1336.14 83.55C1333.71 83.13 1331.48 82.374 1329.47 81.282V86.322H1357.94V81.282ZM1343.7 44.49C1339.67 44.49 1336.4 45.666 1333.88 48.018C1331.36 50.286 1330.1 53.31 1330.1 57.09C1330.1 60.954 1331.36 64.02 1333.88 66.288C1336.4 68.556 1339.67 69.69 1343.7 69.69C1347.74 69.69 1351.01 68.556 1353.53 66.288C1356.05 64.02 1357.31 60.954 1357.31 57.09C1357.31 53.31 1356.05 50.286 1353.53 48.018C1351.01 45.666 1347.74 44.49 1343.7 44.49ZM1343.7 100.308C1337.4 100.308 1332.45 101.946 1328.84 105.222C1325.22 108.414 1323.42 112.698 1323.42 118.074C1323.42 123.618 1325.22 127.944 1328.84 131.052C1332.45 134.244 1337.4 135.84 1343.7 135.84C1350.09 135.84 1355.04 134.244 1358.57 131.052C1362.18 127.944 1363.99 123.618 1363.99 118.074C1363.99 112.698 1362.18 108.414 1358.57 105.222C1355.04 101.946 1350.09 100.308 1343.7 100.308Z" fill="#5A5A5A"/>
<path d="M1499.69 109.632V86.952H1481.3V71.832H1499.69V57.468H1481.3V42.348H1499.69V35.922H1516.58V109.632H1499.69ZM1445.26 32.142C1450.05 32.142 1454.5 33.024 1458.62 34.788C1462.73 36.468 1466.3 38.694 1469.33 41.466C1472.43 44.49 1474.83 47.976 1476.51 51.924C1478.19 55.788 1479.03 60.03 1479.03 64.65C1479.03 69.186 1478.19 73.428 1476.51 77.376C1474.83 81.324 1472.43 84.768 1469.33 87.708C1466.3 90.648 1462.73 92.958 1458.62 94.638C1454.5 96.234 1450.05 97.032 1445.26 97.032C1440.22 97.032 1435.64 96.234 1431.53 94.638C1427.41 92.958 1423.84 90.648 1420.82 87.708C1417.71 84.768 1415.31 81.324 1413.63 77.376C1412.04 73.428 1411.24 69.186 1411.24 64.65C1411.24 60.03 1412.04 55.788 1413.63 51.924C1415.31 47.976 1417.71 44.49 1420.82 41.466C1423.84 38.694 1427.41 36.468 1431.53 34.788C1435.64 33.024 1440.22 32.142 1445.26 32.142ZM1445.26 47.262C1442.74 47.262 1440.43 47.724 1438.33 48.648C1436.23 49.488 1434.42 50.706 1432.91 52.302C1431.4 53.898 1430.22 55.746 1429.38 57.846C1428.54 59.946 1428.12 62.214 1428.12 64.65C1428.12 67.17 1428.54 69.48 1429.38 71.58C1430.22 73.68 1431.4 75.486 1432.91 76.998C1434.42 78.51 1436.23 79.728 1438.33 80.652C1440.43 81.492 1442.74 81.912 1445.26 81.912C1447.7 81.912 1449.92 81.492 1451.94 80.652C1454.04 79.728 1455.84 78.51 1457.36 76.998C1458.87 75.486 1460.04 73.68 1460.88 71.58C1461.72 69.48 1462.14 67.17 1462.14 64.65C1462.14 59.862 1460.55 55.746 1457.36 52.302C1454.25 48.942 1450.22 47.262 1445.26 47.262ZM1440.22 104.97V130.044H1517.21V145.164H1436.44C1432.16 145.164 1428.88 143.862 1426.61 141.258C1424.34 138.738 1423.21 135.588 1423.21 131.808V104.97H1440.22Z" fill="#5A5A5A"/>
<path d="M1587.26 145.164V105.6H1541.52V90.48H1627.2V51.042H1545.68V35.922H1630.98C1632.83 35.922 1634.55 36.3 1636.15 37.056C1637.75 37.728 1639.13 38.694 1640.31 39.954C1641.48 41.13 1642.41 42.516 1643.08 44.112C1643.75 45.624 1644.09 47.22 1644.09 48.9V90.48H1649.88V105.6H1604.15V145.164H1587.26Z" fill="#5A5A5A"/>
<path d="M1694.74 75.108C1694.15 77.04 1692.98 79.224 1691.21 81.66C1689.53 84.096 1687.35 86.406 1684.66 88.59C1682.14 90.774 1679.16 92.706 1675.71 94.386C1672.27 95.982 1668.53 96.99 1664.5 97.41V81.66C1670.46 80.148 1675.59 76.746 1679.87 71.454C1684.16 66.078 1686.3 58.56 1686.3 48.9V35.922H1703.18V48.9C1703.18 58.476 1705.28 65.994 1709.48 71.454C1713.77 76.746 1718.93 80.148 1724.98 81.66V97.41C1720.95 96.99 1717.21 95.982 1713.77 94.386C1710.32 92.706 1707.34 90.774 1704.82 88.59C1702.05 86.406 1699.78 84.096 1698.02 81.66C1696.34 79.224 1695.24 77.04 1694.74 75.108ZM1730.65 109.884V68.556H1715.78V53.436H1730.65V35.922H1747.66V109.884H1730.65ZM1754.46 109.884V35.922H1771.35V109.884H1754.46ZM1692.35 104.97V130.044H1771.98V145.164H1688.69C1684.41 145.164 1681.13 143.862 1678.86 141.258C1676.6 138.738 1675.46 135.588 1675.46 131.808V104.97H1692.35Z" fill="#5A5A5A"/>
<path d="M1894.58 145.164H1877.69V85.944H1860.18V70.824H1877.69V35.922H1894.58V145.164ZM1793.52 50.034C1793.52 48.102 1793.82 46.296 1794.41 44.616C1795.08 42.852 1795.96 41.34 1797.05 40.08C1798.14 38.82 1799.4 37.812 1800.83 37.056C1802.34 36.3 1803.94 35.922 1805.62 35.922H1857.41V51.042H1810.41V70.824H1856.15V85.944H1810.41V107.994H1860.3V123.114H1805.62C1803.94 123.114 1802.34 122.736 1800.83 121.98C1799.4 121.224 1798.14 120.216 1797.05 118.956C1795.96 117.696 1795.08 116.226 1794.41 114.546C1793.82 112.782 1793.52 110.934 1793.52 109.002V50.034Z" fill="#5A5A5A"/>
</svg>
