<svg width="1181" height="151" viewBox="0 0 1181 151" fill="none" xmlns="http://www.w3.org/2000/svg">
<path d="M151 12.5C151 19.4036 145.404 25 138.5 25C131.596 25 126 19.4036 126 12.5C126 5.59644 131.596 0 138.5 0C145.404 0 151 5.59644 151 12.5Z" fill="#0066B3"/>
<path fill-rule="evenodd" clip-rule="evenodd" d="M244 92C244 124.585 217.585 151 185 151C152.415 151 126 124.585 126 92V35C126 33.8954 126.895 33 128 33H149C150.105 33 151 33.8954 151 35V39.9145C151 41.5364 152.841 42.4999 154.224 41.6527C163.184 36.164 173.723 33 185 33C217.585 33 244 59.4152 244 92ZM185 126C203.778 126 219 110.778 219 92C219 73.2223 203.778 58 185 58C166.222 58 151 73.2223 151 92C151 110.778 166.222 126 185 126Z" fill="#0066B3"/>
<path fill-rule="evenodd" clip-rule="evenodd" d="M252 92C252 59.4152 278.415 33 311 33C343.585 33 370 59.4152 370 92V149C370 150.105 369.105 151 368 151H347C345.895 151 345 150.105 345 149V144.085C345 142.464 343.159 141.5 341.776 142.347C332.816 147.836 322.277 151 311 151C278.415 151 252 124.585 252 92ZM311 58C292.222 58 277 73.2223 277 92C277 110.778 292.222 126 311 126C329.778 126 345 110.778 345 92C345 73.2223 329.778 58 311 58Z" fill="#0066B3"/>
<path fill-rule="evenodd" clip-rule="evenodd" d="M59 126C45.4716 126 33.7886 118.099 28.3139 106.659C27.7103 105.398 28.6723 104 30.0704 104H115.15C116.098 104 116.92 103.334 117.086 102.4C117.687 99.0242 118 95.5487 118 92C118 87.8882 117.579 83.8746 116.779 80C111.235 53.1693 87.473 33 59 33C30.527 33 6.76479 53.1693 1.22117 80C0.420618 83.8746 0 87.8882 0 92C0 96.1118 0.420618 100.125 1.22117 104C6.76479 130.831 30.527 151 59 151C82.7587 151 103.237 136.957 112.588 116.718C113.182 115.432 112.218 114 110.802 114H85.8491C85.2622 114 84.7073 114.26 84.3154 114.697C78.0906 121.635 69.055 126 59 126ZM59 58C45.4716 58 33.7886 65.9011 28.3139 77.3405C27.7103 78.6017 28.6723 80 30.0704 80H87.9296C89.3277 80 90.2897 78.6017 89.6861 77.3405C84.2114 65.9011 72.5284 58 59 58Z" fill="#0066B3"/>
<path d="M452.538 98.9594H410.161V91.0844H454.503C455.464 91.0844 456.359 91.2812 457.189 91.675C458.018 92.025 458.739 92.5281 459.35 93.1844C459.961 93.7969 460.442 94.5187 460.791 95.35C461.14 96.1375 461.315 96.9688 461.315 97.8438V136.431H464.328V144.306H408V136.431H417.366V112.741H426.143V136.431H435.705V112.741H444.482V136.431H452.538V98.9594Z" fill="#5A5A5A"/>
<path d="M501.661 88C504.15 88 506.464 88.4375 508.604 89.3125C510.787 90.1438 512.687 91.2594 514.302 92.6594C515.918 94.1906 517.184 95.9188 518.101 97.8438C519.018 99.7688 519.477 101.913 519.477 104.275C519.477 106.288 519.105 108.125 518.363 109.787C517.664 111.45 516.704 112.916 515.481 114.184H529.825V122.059H517.839V127.441H522.096C523.581 127.441 524.738 127.878 525.568 128.753C526.397 129.584 526.812 130.7 526.812 132.1V147.981H518.036V135.316H475.659V127.441H485.483V122.059H473.497V114.184H487.841C486.575 112.916 485.593 111.45 484.894 109.787C484.195 108.125 483.846 106.288 483.846 104.275C483.846 101.913 484.283 99.7688 485.156 97.8438C486.073 95.9188 487.339 94.1906 488.955 92.6594C490.527 91.2594 492.404 90.1438 494.588 89.3125C496.771 88.4375 499.129 88 501.661 88ZM501.661 95.875C500.351 95.875 499.129 96.0937 497.993 96.5312C496.902 96.9688 495.963 97.5594 495.177 98.3031C494.391 99.0469 493.758 99.9438 493.278 100.994C492.841 102 492.623 103.094 492.623 104.275C492.623 105.456 492.841 106.55 493.278 107.556C493.758 108.563 494.391 109.459 495.177 110.247C495.963 110.991 496.902 111.581 497.993 112.019C499.129 112.456 500.351 112.675 501.661 112.675C504.325 112.675 506.464 111.866 508.08 110.247C509.827 108.628 510.7 106.638 510.7 104.275C510.7 103.094 510.46 102 509.979 100.994C509.543 99.9438 508.91 99.0469 508.08 98.3031C507.294 97.5594 506.355 96.9688 505.264 96.5312C504.172 96.0937 502.971 95.875 501.661 95.875ZM494.26 127.441H509.062V122.059H494.26V127.441Z" fill="#5A5A5A"/>
<path d="M582.747 123.044V91.0844H591.524V123.044H582.747ZM563.622 113.2V105.981H547.771V113.2H563.622ZM538.995 113.659V91.0844H547.771V98.1063H563.622V91.0844H572.333V121.075H545.283C544.409 121.075 543.58 120.9 542.794 120.55C542.051 120.156 541.396 119.631 540.829 118.975C540.261 118.275 539.803 117.487 539.453 116.612C539.148 115.694 538.995 114.709 538.995 113.659ZM586.808 126.128C588.249 126.128 589.384 126.566 590.214 127.441C591.087 128.272 591.524 129.388 591.524 130.788V147.981H582.747V134.003H542.335V126.128H586.808Z" fill="#5A5A5A"/>
<path d="M636.782 147.981V114.841H626.303V106.966H636.782V91.0844H645.559V147.981H636.782ZM649.685 147.981V91.0844H658.462V147.981H649.685ZM604.492 98.4344C604.492 97.4281 604.645 96.4875 604.951 95.6125C605.3 94.6938 605.758 93.9063 606.326 93.25C606.894 92.5938 607.549 92.0687 608.291 91.675C609.077 91.2812 609.907 91.0844 610.78 91.0844H630.888V98.9594H613.269V124.356H632.722V132.231H610.78C609.907 132.231 609.077 132.056 608.291 131.706C607.549 131.313 606.894 130.788 606.326 130.131C605.758 129.431 605.3 128.644 604.951 127.769C604.645 126.85 604.492 125.866 604.492 124.816V98.4344Z" fill="#5A5A5A"/>
<path d="M685.84 91.0188C688.372 91.0188 690.709 91.5437 692.848 92.5937C695.031 93.6 696.931 95.0219 698.546 96.8594C700.075 98.6969 701.297 100.841 702.214 103.291C703.131 105.741 703.59 108.409 703.59 111.297C703.59 114.184 703.131 116.853 702.214 119.303C701.297 121.753 700.075 123.919 698.546 125.8C696.931 127.638 695.031 129.059 692.848 130.066C690.709 131.072 688.372 131.575 685.84 131.575C683.22 131.575 680.84 131.072 678.701 130.066C676.605 129.059 674.749 127.638 673.133 125.8C671.561 123.919 670.317 121.753 669.4 119.303C668.527 116.853 668.09 114.184 668.09 111.297C668.09 108.409 668.527 105.741 669.4 103.291C670.317 100.841 671.561 98.6969 673.133 96.8594C674.749 95.0219 676.605 93.6 678.701 92.5937C680.84 91.5437 683.22 91.0188 685.84 91.0188ZM685.84 98.8937C683.22 98.8937 681.059 100.075 679.356 102.438C677.74 104.713 676.932 107.666 676.932 111.297C676.932 114.928 677.74 117.881 679.356 120.156C681.059 122.519 683.22 123.7 685.84 123.7C688.416 123.7 690.556 122.519 692.259 120.156C693.962 117.881 694.813 114.928 694.813 111.297C694.813 107.753 693.962 104.8 692.259 102.438C690.556 100.075 688.416 98.8937 685.84 98.8937ZM722.584 147.981H713.807V91.0844H722.584V147.981Z" fill="#5A5A5A"/>
<path d="M788.016 147.981H779.239V117.138H770.135V109.263H779.239V91.0844H788.016V147.981ZM735.487 98.4344C735.487 97.4281 735.64 96.4875 735.945 95.6125C736.295 94.6938 736.753 93.9063 737.321 93.25C737.888 92.5938 738.543 92.0687 739.286 91.675C740.072 91.2812 740.901 91.0844 741.775 91.0844H768.694V98.9594H744.264V109.263H768.039V117.138H744.264V128.622H770.201V136.497H741.775C740.901 136.497 740.072 136.3 739.286 135.906C738.543 135.512 737.888 134.988 737.321 134.331C736.753 133.675 736.295 132.909 735.945 132.034C735.64 131.116 735.487 130.153 735.487 129.147V98.4344Z" fill="#5A5A5A"/>
<path d="M829.148 88C831.506 88 833.624 88.3719 835.501 89.1156C837.379 89.8156 839.038 90.7562 840.479 91.9375C841.92 93.25 843.034 94.7813 843.82 96.5312C844.606 98.2375 844.998 100.097 844.998 102.109C844.998 104.209 844.606 106.113 843.82 107.819C843.034 109.481 841.92 110.969 840.479 112.281C839.038 113.506 837.379 114.469 835.501 115.169C833.624 115.869 831.506 116.219 829.148 116.219C826.79 116.219 824.651 115.869 822.729 115.169C820.852 114.469 819.193 113.506 817.752 112.281C816.354 110.969 815.263 109.481 814.477 107.819C813.691 106.113 813.298 104.209 813.298 102.109C813.298 100.097 813.691 98.2375 814.477 96.5312C815.263 94.7813 816.354 93.25 817.752 91.9375C819.193 90.7562 820.852 89.8156 822.729 89.1156C824.651 88.3719 826.79 88 829.148 88ZM829.148 95.5469C827.052 95.5469 825.349 96.1594 824.039 97.3844C822.729 98.5656 822.074 100.141 822.074 102.109C822.074 104.122 822.729 105.719 824.039 106.9C825.349 108.081 827.052 108.672 829.148 108.672C831.244 108.672 832.947 108.081 834.257 106.9C835.567 105.719 836.222 104.122 836.222 102.109C836.222 100.141 835.567 98.5656 834.257 97.3844C832.947 96.1594 831.244 95.5469 829.148 95.5469ZM844.933 124.356C846.112 125.669 847.029 127.156 847.684 128.819C848.339 130.437 848.666 132.122 848.666 133.872C848.666 136.541 848.186 138.925 847.225 141.025C846.308 143.169 844.998 144.963 843.296 146.406C839.715 149.469 834.999 151 829.148 151C826.266 151 823.625 150.606 821.223 149.819C818.865 149.075 816.835 147.938 815.132 146.406C811.464 143.475 809.63 139.297 809.63 133.872C809.63 132.034 809.936 130.328 810.547 128.753C811.202 127.134 812.119 125.669 813.298 124.356H800.984V117.334H857.312V124.356H844.933ZM829.148 124.619C825.873 124.619 823.297 125.472 821.419 127.178C819.542 128.841 818.603 131.072 818.603 133.872C818.603 136.759 819.542 139.013 821.419 140.631C823.297 142.294 825.873 143.125 829.148 143.125C832.467 143.125 835.043 142.294 836.877 140.631C838.754 139.013 839.693 136.759 839.693 133.872C839.693 131.072 838.754 128.841 836.877 127.178C835.043 125.472 832.467 124.619 829.148 124.619Z" fill="#5A5A5A"/>
<path d="M894.646 88C897.003 88 899.121 88.3719 900.999 89.1156C902.876 89.8156 904.536 90.7562 905.977 91.9375C907.418 93.25 908.531 94.7813 909.317 96.5312C910.103 98.2375 910.496 100.097 910.496 102.109C910.496 103.947 910.19 105.609 909.579 107.097C909.011 108.584 908.203 109.897 907.156 111.034H910.823V117.334H922.809V124.356H910.43C911.609 125.712 912.526 127.2 913.181 128.819C913.836 130.437 914.164 132.122 914.164 133.872C914.164 136.541 913.683 138.925 912.723 141.025C911.806 143.169 910.496 144.963 908.793 146.406C905.212 149.469 900.497 151 894.646 151C891.764 151 889.122 150.606 886.72 149.819C884.362 149.075 882.332 147.938 880.629 146.406C876.961 143.475 875.127 139.297 875.127 133.872C875.127 132.034 875.433 130.328 876.044 128.753C876.699 127.134 877.616 125.669 878.795 124.356H866.482V117.334H878.468V111.034H882.136C881.131 109.897 880.323 108.584 879.712 107.097C879.101 105.609 878.795 103.947 878.795 102.109C878.795 100.097 879.188 98.2375 879.974 96.5312C880.76 94.7813 881.852 93.25 883.249 91.9375C884.69 90.7562 886.349 89.8156 888.227 89.1156C890.148 88.3719 892.288 88 894.646 88ZM902.047 114.709C900.911 115.278 899.711 115.672 898.444 115.891C897.222 116.109 895.955 116.219 894.646 116.219C893.292 116.219 891.982 116.109 890.716 115.891C889.449 115.672 888.292 115.278 887.244 114.709V117.334H902.047V114.709ZM894.646 95.5469C892.55 95.5469 890.847 96.1594 889.537 97.3844C888.227 98.5656 887.572 100.141 887.572 102.109C887.572 104.122 888.227 105.719 889.537 106.9C890.847 108.081 892.55 108.672 894.646 108.672C896.741 108.672 898.444 108.081 899.754 106.9C901.064 105.719 901.719 104.122 901.719 102.109C901.719 100.141 901.064 98.5656 899.754 97.3844C898.444 96.1594 896.741 95.5469 894.646 95.5469ZM894.646 124.619C891.371 124.619 888.794 125.472 886.917 127.178C885.039 128.841 884.1 131.072 884.1 133.872C884.1 136.759 885.039 139.013 886.917 140.631C888.794 142.294 891.371 143.125 894.646 143.125C897.964 143.125 900.54 142.294 902.374 140.631C904.252 139.013 905.191 136.759 905.191 133.872C905.191 131.072 904.252 128.841 902.374 127.178C900.54 125.472 897.964 124.619 894.646 124.619Z" fill="#5A5A5A"/>
<path d="M975.731 129.475V117.663H966.169V109.787H975.731V102.306H966.169V94.4312H975.731V91.0844H984.508V129.475H975.731ZM947.436 89.1156C949.925 89.1156 952.24 89.575 954.379 90.4937C956.519 91.3688 958.374 92.5281 959.946 93.9719C961.562 95.5469 962.806 97.3625 963.68 99.4188C964.553 101.431 964.99 103.641 964.99 106.047C964.99 108.409 964.553 110.619 963.68 112.675C962.806 114.731 961.562 116.525 959.946 118.056C958.374 119.588 956.519 120.791 954.379 121.666C952.24 122.497 949.925 122.913 947.436 122.913C944.816 122.913 942.437 122.497 940.297 121.666C938.158 120.791 936.302 119.588 934.73 118.056C933.114 116.525 931.87 114.731 930.997 112.675C930.167 110.619 929.752 108.409 929.752 106.047C929.752 103.641 930.167 101.431 930.997 99.4188C931.87 97.3625 933.114 95.5469 934.73 93.9719C936.302 92.5281 938.158 91.3688 940.297 90.4937C942.437 89.575 944.816 89.1156 947.436 89.1156ZM947.436 96.9906C946.126 96.9906 944.926 97.2313 943.834 97.7125C942.742 98.15 941.804 98.7844 941.018 99.6156C940.232 100.447 939.62 101.409 939.184 102.503C938.747 103.597 938.529 104.778 938.529 106.047C938.529 107.359 938.747 108.563 939.184 109.656C939.62 110.75 940.232 111.691 941.018 112.478C941.804 113.266 942.742 113.9 943.834 114.381C944.926 114.819 946.126 115.038 947.436 115.038C948.703 115.038 949.86 114.819 950.908 114.381C951.999 113.9 952.938 113.266 953.724 112.478C954.51 111.691 955.121 110.75 955.558 109.656C955.995 108.563 956.213 107.359 956.213 106.047C956.213 103.553 955.383 101.409 953.724 99.6156C952.109 97.8656 950.013 96.9906 947.436 96.9906ZM944.817 127.047V140.106H984.835V147.981H942.852C940.625 147.981 938.922 147.303 937.743 145.947C936.564 144.634 935.974 142.994 935.974 141.025V127.047H944.817Z" fill="#5A5A5A"/>
<path d="M1021.25 147.981V127.375H997.476V119.5H1042.01V98.9594H999.638V91.0844H1043.98C1044.94 91.0844 1045.84 91.2812 1046.66 91.675C1047.49 92.025 1048.22 92.5281 1048.83 93.1844C1049.44 93.7969 1049.92 94.5187 1050.27 95.35C1050.62 96.1375 1050.79 96.9688 1050.79 97.8438V119.5H1053.8V127.375H1030.03V147.981H1021.25Z" fill="#5A5A5A"/>
<path d="M1077.12 111.494C1076.82 112.5 1076.2 113.638 1075.29 114.906C1074.41 116.175 1073.28 117.378 1071.88 118.516C1070.57 119.653 1069.02 120.659 1067.23 121.534C1065.44 122.366 1063.5 122.891 1061.4 123.109V114.906C1064.5 114.119 1067.17 112.347 1069.39 109.591C1071.62 106.791 1072.73 102.875 1072.73 97.8438V91.0844H1081.51V97.8438C1081.51 102.831 1082.6 106.747 1084.78 109.591C1087.01 112.347 1089.7 114.119 1092.84 114.906V123.109C1090.74 122.891 1088.8 122.366 1087.01 121.534C1085.22 120.659 1083.67 119.653 1082.36 118.516C1080.92 117.378 1079.74 116.175 1078.82 114.906C1077.95 113.638 1077.38 112.5 1077.12 111.494ZM1095.79 129.606V108.081H1088.06V100.206H1095.79V91.0844H1104.63V129.606H1095.79ZM1108.17 129.606V91.0844H1116.94V129.606H1108.17ZM1075.88 127.047V140.106H1117.27V147.981H1073.98C1071.75 147.981 1070.05 147.303 1068.87 145.947C1067.69 144.634 1067.1 142.994 1067.1 141.025V127.047H1075.88Z" fill="#5A5A5A"/>
<path d="M1181 147.981H1172.22V117.138H1163.12V109.263H1172.22V91.0844H1181V147.981ZM1128.47 98.4344C1128.47 97.4281 1128.62 96.4875 1128.93 95.6125C1129.28 94.6938 1129.74 93.9063 1130.31 93.25C1130.87 92.5938 1131.53 92.0687 1132.27 91.675C1133.06 91.2812 1133.89 91.0844 1134.76 91.0844H1161.68V98.9594H1137.25V109.263H1161.02V117.138H1137.25V128.622H1163.18V136.497H1134.76C1133.89 136.497 1133.06 136.3 1132.27 135.906C1131.53 135.512 1130.87 134.988 1130.31 134.331C1129.74 133.675 1129.28 132.909 1128.93 132.034C1128.62 131.116 1128.47 130.153 1128.47 129.147V98.4344Z" fill="#5A5A5A"/>
</svg>
