<svg width="370" height="519" viewBox="0 0 370 519" fill="none" xmlns="http://www.w3.org/2000/svg">
<path d="M31.8788 494.036H12.4539V490.434H32.7795C33.2199 490.434 33.6302 490.524 34.0105 490.704C34.3908 490.864 34.721 491.094 35.0012 491.394C35.2814 491.675 35.5016 492.005 35.6617 492.385C35.8219 492.745 35.9019 493.126 35.9019 493.526V511.18H37.283V514.782H11.4631V511.18H15.7564V500.341H19.7795V511.18H24.1629V500.341H28.186V511.18H31.8788V494.036ZM54.3961 489.022C55.537 489.022 56.5978 489.223 57.5786 489.623C58.5793 490.003 59.45 490.514 60.1906 491.154C60.9312 491.855 61.5116 492.645 61.9319 493.526C62.3522 494.407 62.5624 495.387 62.5624 496.468C62.5624 497.389 62.3923 498.23 62.052 498.99C61.7318 499.751 61.2914 500.421 60.731 501.002H67.3061V504.604H61.8118V507.066H63.7633C64.4439 507.066 64.9743 507.267 65.3546 507.667C65.7349 508.047 65.925 508.557 65.925 509.198V516.464H61.9019V510.669H42.477V507.066H46.9804V504.604H41.4862V501.002H48.0613C47.4808 500.421 47.0305 499.751 46.7102 498.99C46.39 498.23 46.2299 497.389 46.2299 496.468C46.2299 495.387 46.43 494.407 46.8303 493.526C47.2506 492.645 47.8311 491.855 48.5717 491.154C49.2922 490.514 50.1529 490.003 51.1536 489.623C52.1544 489.223 53.2352 489.022 54.3961 489.022ZM54.3961 492.625C53.7957 492.625 53.2352 492.725 52.7148 492.925C52.2145 493.126 51.7841 493.396 51.4238 493.736C51.0636 494.076 50.7733 494.487 50.5532 494.967C50.353 495.427 50.2529 495.928 50.2529 496.468C50.2529 497.009 50.353 497.509 50.5532 497.969C50.7733 498.43 51.0636 498.84 51.4238 499.2C51.7841 499.541 52.2145 499.811 52.7148 500.011C53.2352 500.211 53.7957 500.311 54.3961 500.311C55.6171 500.311 56.5978 499.941 57.3384 499.2C58.139 498.46 58.5393 497.549 58.5393 496.468C58.5393 495.928 58.4292 495.427 58.2091 494.967C58.0089 494.487 57.7187 494.076 57.3384 493.736C56.9781 493.396 56.5478 493.126 56.0474 492.925C55.547 492.725 54.9966 492.625 54.3961 492.625ZM51.0035 507.066H57.7887V504.604H51.0035V507.066ZM91.5647 505.055V490.434H95.5878V505.055H91.5647ZM82.798 500.551V497.249H75.5324V500.551H82.798ZM71.5093 500.762V490.434H75.5324V493.646H82.798V490.434H86.791V504.154H74.3915C73.9912 504.154 73.6109 504.074 73.2506 503.914C72.9104 503.734 72.6101 503.494 72.3499 503.193C72.0897 502.873 71.8796 502.513 71.7195 502.113C71.5793 501.692 71.5093 501.242 71.5093 500.762ZM93.4261 506.466C94.0866 506.466 94.607 506.666 94.9873 507.066C95.3876 507.447 95.5878 507.957 95.5878 508.598V516.464H91.5647V510.069H73.0405V506.466H93.4261ZM116.334 516.464V501.302H111.53V497.699H116.334V490.434H120.357V516.464H116.334ZM122.248 516.464V490.434H126.271V516.464H122.248ZM101.532 493.796C101.532 493.336 101.602 492.905 101.743 492.505C101.903 492.085 102.113 491.725 102.373 491.424C102.633 491.124 102.933 490.884 103.274 490.704C103.634 490.524 104.014 490.434 104.415 490.434H113.632V494.036H105.555V505.655H114.472V509.258H104.415C104.014 509.258 103.634 509.178 103.274 509.018C102.933 508.838 102.633 508.598 102.373 508.297C102.113 507.977 101.903 507.617 101.743 507.216C101.602 506.796 101.532 506.346 101.532 505.865V493.796ZM138.821 490.404C139.982 490.404 141.053 490.644 142.034 491.124C143.034 491.584 143.905 492.235 144.646 493.076C145.346 493.916 145.906 494.897 146.327 496.018C146.747 497.139 146.957 498.36 146.957 499.681C146.957 501.002 146.747 502.223 146.327 503.343C145.906 504.464 145.346 505.455 144.646 506.316C143.905 507.156 143.034 507.807 142.034 508.267C141.053 508.728 139.982 508.958 138.821 508.958C137.62 508.958 136.529 508.728 135.549 508.267C134.588 507.807 133.737 507.156 132.997 506.316C132.276 505.455 131.706 504.464 131.285 503.343C130.885 502.223 130.685 501.002 130.685 499.681C130.685 498.36 130.885 497.139 131.285 496.018C131.706 494.897 132.276 493.916 132.997 493.076C133.737 492.235 134.588 491.584 135.549 491.124C136.529 490.644 137.62 490.404 138.821 490.404ZM138.821 494.006C137.62 494.006 136.629 494.547 135.849 495.628C135.108 496.668 134.738 498.019 134.738 499.681C134.738 501.342 135.108 502.693 135.849 503.734C136.629 504.815 137.62 505.355 138.821 505.355C140.002 505.355 140.983 504.815 141.763 503.734C142.544 502.693 142.934 501.342 142.934 499.681C142.934 498.059 142.544 496.708 141.763 495.628C140.983 494.547 140.002 494.006 138.821 494.006ZM155.664 516.464H151.641V490.434H155.664V516.464ZM185.657 516.464H181.634V502.353H177.461V498.75H181.634V490.434H185.657V516.464ZM161.579 493.796C161.579 493.336 161.649 492.905 161.789 492.505C161.949 492.085 162.159 491.725 162.419 491.424C162.679 491.124 162.98 490.884 163.32 490.704C163.68 490.524 164.06 490.434 164.461 490.434H176.8V494.036H165.602V498.75H176.5V502.353H165.602V507.607H177.491V511.21H164.461C164.06 511.21 163.68 511.119 163.32 510.939C162.98 510.759 162.679 510.519 162.419 510.219C162.159 509.919 161.949 509.568 161.789 509.168C161.649 508.748 161.579 508.307 161.579 507.847V493.796ZM204.512 489.022C205.592 489.022 206.563 489.193 207.424 489.533C208.284 489.853 209.045 490.283 209.706 490.824C210.366 491.424 210.876 492.125 211.237 492.925C211.597 493.706 211.777 494.557 211.777 495.477C211.777 496.438 211.597 497.309 211.237 498.089C210.876 498.85 210.366 499.531 209.706 500.131C209.045 500.691 208.284 501.132 207.424 501.452C206.563 501.772 205.592 501.932 204.512 501.932C203.431 501.932 202.45 501.772 201.569 501.452C200.709 501.132 199.948 500.691 199.288 500.131C198.647 499.531 198.147 498.85 197.786 498.089C197.426 497.309 197.246 496.438 197.246 495.477C197.246 494.557 197.426 493.706 197.786 492.925C198.147 492.125 198.647 491.424 199.288 490.824C199.948 490.283 200.709 489.853 201.569 489.533C202.45 489.193 203.431 489.022 204.512 489.022ZM204.512 492.475C203.551 492.475 202.77 492.755 202.17 493.316C201.569 493.856 201.269 494.577 201.269 495.477C201.269 496.398 201.569 497.129 202.17 497.669C202.77 498.21 203.551 498.48 204.512 498.48C205.472 498.48 206.253 498.21 206.853 497.669C207.454 497.129 207.754 496.398 207.754 495.477C207.754 494.577 207.454 493.856 206.853 493.316C206.253 492.755 205.472 492.475 204.512 492.475ZM211.747 505.655C212.288 506.256 212.708 506.936 213.008 507.697C213.308 508.437 213.458 509.208 213.458 510.009C213.458 511.23 213.238 512.32 212.798 513.281C212.378 514.262 211.777 515.083 210.997 515.743C209.355 517.144 207.194 517.845 204.512 517.845C203.191 517.845 201.98 517.664 200.879 517.304C199.798 516.964 198.867 516.444 198.087 515.743C196.405 514.402 195.565 512.491 195.565 510.009C195.565 509.168 195.705 508.387 195.985 507.667C196.285 506.926 196.706 506.256 197.246 505.655H191.602V502.443H217.421V505.655H211.747ZM204.512 505.775C203.01 505.775 201.829 506.166 200.969 506.946C200.108 507.707 199.678 508.728 199.678 510.009C199.678 511.33 200.108 512.36 200.969 513.101C201.829 513.862 203.01 514.242 204.512 514.242C206.033 514.242 207.214 513.862 208.054 513.101C208.915 512.36 209.345 511.33 209.345 510.009C209.345 508.728 208.915 507.707 208.054 506.946C207.214 506.166 206.033 505.775 204.512 505.775ZM234.535 489.022C235.615 489.022 236.586 489.193 237.447 489.533C238.308 489.853 239.068 490.283 239.729 490.824C240.389 491.424 240.9 492.125 241.26 492.925C241.62 493.706 241.8 494.557 241.8 495.477C241.8 496.318 241.66 497.079 241.38 497.759C241.12 498.44 240.749 499.04 240.269 499.561H241.95V502.443H247.445V505.655H241.77C242.311 506.276 242.731 506.956 243.031 507.697C243.331 508.437 243.481 509.208 243.481 510.009C243.481 511.23 243.261 512.32 242.821 513.281C242.401 514.262 241.8 515.083 241.02 515.743C239.378 517.144 237.217 517.845 234.535 517.845C233.214 517.845 232.003 517.664 230.902 517.304C229.821 516.964 228.89 516.444 228.11 515.743C226.428 514.402 225.588 512.491 225.588 510.009C225.588 509.168 225.728 508.387 226.008 507.667C226.308 506.926 226.729 506.256 227.269 505.655H221.625V502.443H227.119V499.561H228.8C228.34 499.04 227.97 498.44 227.689 497.759C227.409 497.079 227.269 496.318 227.269 495.477C227.269 494.557 227.449 493.706 227.809 492.925C228.17 492.125 228.67 491.424 229.311 490.824C229.971 490.283 230.732 489.853 231.592 489.533C232.473 489.193 233.454 489.022 234.535 489.022ZM237.927 501.242C237.407 501.502 236.856 501.682 236.276 501.782C235.716 501.882 235.135 501.932 234.535 501.932C233.914 501.932 233.314 501.882 232.733 501.782C232.153 501.682 231.622 501.502 231.142 501.242V502.443H237.927V501.242ZM234.535 492.475C233.574 492.475 232.793 492.755 232.193 493.316C231.592 493.856 231.292 494.577 231.292 495.477C231.292 496.398 231.592 497.129 232.193 497.669C232.793 498.21 233.574 498.48 234.535 498.48C235.495 498.48 236.276 498.21 236.876 497.669C237.477 497.129 237.777 496.398 237.777 495.477C237.777 494.577 237.477 493.856 236.876 493.316C236.276 492.755 235.495 492.475 234.535 492.475ZM234.535 505.775C233.033 505.775 231.853 506.166 230.992 506.946C230.131 507.707 229.701 508.728 229.701 510.009C229.701 511.33 230.131 512.36 230.992 513.101C231.853 513.862 233.033 514.242 234.535 514.242C236.056 514.242 237.237 513.862 238.077 513.101C238.938 512.36 239.368 511.33 239.368 510.009C239.368 508.728 238.938 507.707 238.077 506.946C237.237 506.166 236.056 505.775 234.535 505.775ZM271.703 507.997V502.593H267.32V498.99H271.703V495.568H267.32V491.965H271.703V490.434H275.726V507.997H271.703ZM258.733 489.533C259.874 489.533 260.935 489.743 261.916 490.163C262.896 490.564 263.747 491.094 264.468 491.755C265.208 492.475 265.779 493.306 266.179 494.246C266.579 495.167 266.779 496.178 266.779 497.279C266.779 498.36 266.579 499.37 266.179 500.311C265.779 501.252 265.208 502.073 264.468 502.773C263.747 503.474 262.896 504.024 261.916 504.424C260.935 504.805 259.874 504.995 258.733 504.995C257.532 504.995 256.441 504.805 255.461 504.424C254.48 504.024 253.629 503.474 252.909 502.773C252.168 502.073 251.598 501.252 251.197 500.311C250.817 499.37 250.627 498.36 250.627 497.279C250.627 496.178 250.817 495.167 251.197 494.246C251.598 493.306 252.168 492.475 252.909 491.755C253.629 491.094 254.48 490.564 255.461 490.163C256.441 489.743 257.532 489.533 258.733 489.533ZM258.733 493.136C258.133 493.136 257.582 493.246 257.082 493.466C256.582 493.666 256.151 493.956 255.791 494.337C255.431 494.717 255.15 495.157 254.95 495.658C254.75 496.158 254.65 496.698 254.65 497.279C254.65 497.879 254.75 498.43 254.95 498.93C255.15 499.43 255.431 499.861 255.791 500.221C256.151 500.581 256.582 500.872 257.082 501.092C257.582 501.292 258.133 501.392 258.733 501.392C259.314 501.392 259.844 501.292 260.324 501.092C260.825 500.872 261.255 500.581 261.615 500.221C261.976 499.861 262.256 499.43 262.456 498.93C262.656 498.43 262.756 497.879 262.756 497.279C262.756 496.138 262.376 495.157 261.615 494.337C260.875 493.536 259.914 493.136 258.733 493.136ZM257.532 506.886V512.861H275.876V516.464H256.632C255.611 516.464 254.83 516.153 254.29 515.533C253.749 514.932 253.479 514.182 253.479 513.281V506.886H257.532ZM292.569 516.464V507.036H281.671V503.434H302.087V494.036H282.662V490.434H302.987C303.428 490.434 303.838 490.524 304.218 490.704C304.598 490.864 304.929 491.094 305.209 491.394C305.489 491.675 305.709 492.005 305.869 492.385C306.03 492.745 306.11 493.126 306.11 493.526V503.434H307.491V507.036H296.592V516.464H292.569ZM318.179 499.771C318.039 500.231 317.759 500.751 317.338 501.332C316.938 501.912 316.418 502.463 315.777 502.983C315.177 503.504 314.466 503.964 313.645 504.364C312.825 504.745 311.934 504.985 310.973 505.085V501.332C312.394 500.972 313.615 500.161 314.636 498.9C315.657 497.619 316.167 495.828 316.167 493.526V490.434H320.19V493.526C320.19 495.808 320.691 497.599 321.692 498.9C322.712 500.161 323.943 500.972 325.384 501.332V505.085C324.424 504.985 323.533 504.745 322.712 504.364C321.892 503.964 321.181 503.504 320.581 502.983C319.92 502.463 319.38 501.912 318.96 501.332C318.559 500.751 318.299 500.231 318.179 499.771ZM326.735 508.057V498.21H323.193V494.607H326.735V490.434H330.789V508.057H326.735ZM332.41 508.057V490.434H336.433V508.057H332.41ZM317.608 506.886V512.861H336.583V516.464H316.738C315.717 516.464 314.936 516.153 314.396 515.533C313.856 514.932 313.585 514.182 313.585 513.281V506.886H317.608ZM365.796 516.464H361.772V502.353H357.599V498.75H361.772V490.434H365.796V516.464ZM341.717 493.796C341.717 493.336 341.787 492.905 341.927 492.505C342.087 492.085 342.297 491.725 342.558 491.424C342.818 491.124 343.118 490.884 343.458 490.704C343.819 490.524 344.199 490.434 344.599 490.434H356.939V494.036H345.74V498.75H356.638V502.353H345.74V507.607H357.629V511.21H344.599C344.199 511.21 343.819 511.119 343.458 510.939C343.118 510.759 342.818 510.519 342.558 510.219C342.297 509.919 342.087 509.568 341.927 509.168C341.787 508.748 341.717 508.307 341.717 507.847V493.796Z" fill="#5A5A5A"/>
<path d="M151 328.5C151 335.404 145.404 341 138.5 341C131.596 341 126 335.404 126 328.5C126 321.596 131.596 316 138.5 316C145.404 316 151 321.596 151 328.5Z" fill="#0066B3"/>
<path fill-rule="evenodd" clip-rule="evenodd" d="M244 408C244 440.585 217.585 467 185 467C152.415 467 126 440.585 126 408V351C126 349.895 126.895 349 128 349H149C150.105 349 151 349.895 151 351V355.915C151 357.536 152.841 358.5 154.224 357.653C163.184 352.164 173.723 349 185 349C217.585 349 244 375.415 244 408ZM185 442C203.778 442 219 426.778 219 408C219 389.222 203.778 374 185 374C166.222 374 151 389.222 151 408C151 426.778 166.222 442 185 442Z" fill="#0066B3"/>
<path fill-rule="evenodd" clip-rule="evenodd" d="M252 408C252 375.415 278.415 349 311 349C343.585 349 370 375.415 370 408V465C370 466.105 369.105 467 368 467H347C345.895 467 345 466.105 345 465V460.085C345 458.464 343.159 457.5 341.776 458.347C332.816 463.836 322.277 467 311 467C278.415 467 252 440.585 252 408ZM311 374C292.222 374 277 389.222 277 408C277 426.778 292.222 442 311 442C329.778 442 345 426.778 345 408C345 389.222 329.778 374 311 374Z" fill="#0066B3"/>
<path fill-rule="evenodd" clip-rule="evenodd" d="M59 442C45.4716 442 33.7886 434.099 28.3139 422.659C27.7103 421.398 28.6723 420 30.0704 420H115.15C116.098 420 116.92 419.334 117.086 418.4C117.687 415.024 118 411.549 118 408C118 403.888 117.579 399.875 116.779 396C111.235 369.169 87.473 349 59 349C30.527 349 6.76479 369.169 1.22117 396C0.420618 399.875 0 403.888 0 408C0 412.112 0.420618 416.125 1.22117 420C6.76479 446.831 30.527 467 59 467C82.7587 467 103.237 452.957 112.588 432.718C113.182 431.432 112.218 430 110.802 430H85.8491C85.2622 430 84.7073 430.26 84.3154 430.697C78.0906 437.635 69.055 442 59 442ZM59 374C45.4716 374 33.7886 381.901 28.3139 393.341C27.7103 394.602 28.6723 396 30.0704 396H87.9296C89.3277 396 90.2897 394.602 89.6861 393.341C84.2114 381.901 72.5284 374 59 374Z" fill="#0066B3"/>
<path fill-rule="evenodd" clip-rule="evenodd" d="M109.078 17.9692L108.533 20.0174L107.044 21.5048L104.993 22.0488L102.963 21.5018L101.477 20.0174L100.932 17.9692L101.48 15.9421L102.963 14.4606L104.993 13.9136L107.044 14.4576L108.53 15.9421L109.078 17.9692ZM271.03 17.9713L270.576 20.2855L269.261 22.2428L267.301 23.5556L264.984 24.0089L262.685 23.5545L260.727 22.2428L259.412 20.2855L258.958 17.9713L259.413 15.6753L260.727 13.7196L262.685 12.408L264.984 11.9536L267.301 12.4068L269.261 13.7196L270.575 15.6753L271.03 17.9713ZM237.018 17.9725L236.637 20.9769L235.515 23.7691L233.749 26.1969L231.427 28.1166L228.708 29.389L225.759 29.9589L222.751 29.7688L219.881 28.8385L217.332 27.2242L215.275 25.0363L213.831 22.3998L213.071 19.4949V16.4675L213.831 13.5626L215.275 10.9261L217.332 8.73826L219.881 7.12393L222.751 6.19366L225.759 6.00355L228.708 6.57347L231.427 7.84587L233.749 9.76554L235.515 12.1933L236.637 14.9847L237.018 17.9725ZM281.008 57.9254L280.646 61.2544L279.616 64.4313L277.948 67.328L275.704 69.8042L273.007 71.7745L269.942 73.1329L266.666 73.8197H263.322L260.046 73.1329L256.981 71.7745L254.284 69.8042L252.04 67.328L250.375 64.4358L249.325 61.2544L248.981 57.9254L249.325 54.5963L250.375 51.4149L252.04 48.5227L254.284 46.0466L256.981 44.0762L260.046 42.7178L263.322 42.031H266.666L269.942 42.7178L273.007 44.0762L275.704 46.0466L277.948 48.5227L279.616 51.4194L280.646 54.5963L281.008 57.9254ZM157.024 97.8608L156.643 100.865L155.521 103.657L153.754 106.085L151.432 108.005L148.713 109.277L145.765 109.847L142.757 109.657L139.886 108.727L137.338 107.112L135.28 104.925L133.837 102.288L133.076 99.3832V96.3559L133.837 93.4509L135.28 90.8144L137.338 88.6266L139.886 87.0122L142.757 86.082L145.765 85.8919L148.713 86.4618L151.432 87.7342L153.754 89.6538L155.521 92.0816L156.642 94.8731L157.024 97.8608ZM71.0553 57.9254L70.5779 60.2375L69.2856 62.1973L67.3232 63.4879L65.0081 63.9646L62.693 63.4879L60.7379 62.2022L59.4184 60.2375L58.965 57.9254L59.4184 55.6132L60.7379 53.6486L62.6929 52.3628L65.0081 51.8861L67.3232 52.3628L69.2856 53.6535L70.5779 55.6132L71.0553 57.9254ZM275.016 97.8606L274.639 100.575L273.549 103.068L271.826 105.185L269.602 106.751L267.03 107.66L264.315 107.858L261.63 107.302L259.213 106.036L257.215 104.178L255.804 101.856L255.071 99.2252V96.5139L255.804 93.8831L257.215 91.5608L259.213 89.7035L261.63 88.4372L264.315 87.8811L267.03 88.079L269.602 88.9877L271.826 90.5542L273.549 92.6707L274.638 95.1637L275.016 97.8606ZM319.004 97.861L318.652 100.981L317.616 103.938L315.935 106.595L313.719 108.808L311.074 110.471L308.114 111.505L304.991 111.856L301.868 111.505L298.912 110.472L296.25 108.81L294.028 106.591L292.365 103.933L291.33 100.981L290.979 97.861L291.33 94.7578L292.365 91.8061L294.028 89.1478L296.25 86.9289L298.912 85.2675L301.868 84.2342L304.991 83.8835L308.114 84.2342L311.074 85.2686L313.719 86.9311L315.935 89.1443L317.616 91.8013L318.652 94.7578L319.004 97.861ZM85.017 137.814L84.665 141.487L83.6629 145.034L82.0244 148.324L79.7894 151.277L77.0641 153.753L73.9291 155.705L70.4792 157.023L66.858 157.708H63.1582L59.5369 157.023L56.087 155.705L52.952 153.753L50.2267 151.277L47.9917 148.324L46.3553 145.038L45.3344 141.487L45 137.814L45.3344 134.14L46.3547 130.591L47.9917 127.287L50.2289 124.349L52.952 121.875L56.0832 119.925L59.5369 118.587L63.1629 117.919H66.8532L70.4792 118.587L73.9329 119.925L77.0641 121.875L79.7872 124.349L82.0244 127.287L83.6635 130.596L84.665 134.14L85.017 137.814ZM81.0133 177.749L80.6696 181.074L79.6362 184.26L77.9547 187.149L75.7268 189.646L73.0058 191.602L69.9527 192.955L66.6775 193.66H63.3216L60.0624 192.955L57.0103 191.602L54.2926 189.648L52.0445 187.149L50.3785 184.256L49.3466 181.074L49.0028 177.749L49.3467 174.441L50.3785 171.26L52.0445 168.366L54.2926 165.868L57.0062 163.916L60.0624 162.544L63.327 161.856H66.6722L69.9527 162.543L73.0099 163.916L75.7268 165.87L77.9547 168.366L79.6362 171.255L80.6694 174.441L81.0133 177.749ZM79.0206 97.861L78.6694 100.981L77.633 103.938L75.9516 106.595L73.7356 108.808L71.0904 110.471L68.1312 111.505L65.0081 111.856L61.885 111.505L58.9287 110.472L56.2669 108.81L54.0451 106.591L52.3815 103.933L51.3468 100.981L50.9956 97.861L51.347 94.7578L52.3815 91.806L54.0451 89.1478L56.2669 86.9289L58.9287 85.2675L61.885 84.2342L65.0081 83.8835L68.1312 84.2342L71.0904 85.2686L73.7356 86.9311L75.9516 89.1443L77.633 91.8013L78.6691 94.7578L79.0206 97.861ZM325 137.814L324.648 141.487L323.646 145.034L322.007 148.324L319.772 151.277L317.047 153.753L313.912 155.705L310.462 157.023L306.841 157.708H303.141L299.52 157.023L296.07 155.705L292.935 153.752L290.21 151.277L287.975 148.324L286.338 145.038L285.318 141.487L284.983 137.814L285.318 134.14L286.338 130.591L287.975 127.287L290.212 124.349L292.935 121.875L296.066 119.925L299.52 118.587L303.146 117.919H306.836L310.462 118.587L313.916 119.925L317.047 121.875L319.77 124.349L322.007 127.287L323.647 130.596L324.648 134.14L325 137.814ZM320.996 177.749L320.653 181.074L319.619 184.26L317.938 187.149L315.71 189.646L312.989 191.602L309.936 192.955L306.661 193.66H303.305L300.045 192.955L296.993 191.602L294.276 189.648L292.028 187.149L290.362 184.256L289.33 181.074L288.986 177.749L289.33 174.441L290.362 171.26L292.028 168.366L294.276 165.868L296.989 163.916L300.045 162.544L303.31 161.856H306.655L309.936 162.543L312.993 163.916L315.71 165.87L317.938 168.366L319.619 171.255L320.652 174.441L320.996 177.749ZM311.038 217.702L310.561 220.014L309.269 221.974L307.306 223.264L304.991 223.741L302.676 223.264L300.721 221.979L299.402 220.014L298.948 217.702L299.402 215.39L300.721 213.425L302.676 212.139L304.991 211.663L307.306 212.139L309.269 213.43L310.561 215.39L311.038 217.702ZM269.067 257.634L268.522 259.682L267.033 261.17L264.982 261.714L262.952 261.167L261.466 259.682L260.921 257.634L261.469 255.607L262.952 254.126L264.982 253.579L267.033 254.123L268.519 255.607L269.067 257.634ZM115.027 137.814L114.65 140.509L113.56 143.022L111.837 145.119L109.619 146.701L107.035 147.615L104.319 147.793L101.648 147.239L99.229 145.992L97.2231 144.128L95.8147 141.79L95.0819 139.179V136.448L95.8147 133.837L97.2231 131.5L99.229 129.635L101.648 128.388L104.319 127.835L107.035 128.013L109.619 128.926L111.837 130.508L113.56 132.605L114.65 135.119L115.027 137.814ZM113.021 177.749L112.64 180.239L111.493 182.467L109.718 184.24L107.471 185.383L104.997 185.763L102.52 185.382L100.29 184.237L98.5177 182.467L97.3742 180.247L96.9715 177.749L97.3749 175.268L98.5177 173.049L100.29 171.279L102.52 170.134L104.997 169.753L107.471 170.133L109.718 171.276L111.493 173.049L112.64 175.275L113.021 177.749ZM69.0742 217.702L68.5254 219.733L67.0419 221.215L65.0081 221.763L62.9853 221.218L61.4665 219.733L60.95 217.702L61.4665 215.671L62.9853 214.186L65.0081 213.641L67.0419 214.189L68.5254 215.671L69.0742 217.702ZM237.018 257.637L236.637 260.642L235.515 263.434L233.749 265.862L231.427 267.781L228.708 269.054L225.759 269.624L222.751 269.434L219.881 268.503L217.332 266.889L215.275 264.701L213.831 262.065L213.071 259.16V256.132L213.831 253.228L215.275 250.591L217.332 248.403L219.881 246.789L222.751 245.859L225.759 245.668L228.708 246.238L231.427 247.511L233.749 249.43L235.515 251.858L236.637 254.65L237.018 257.637ZM161.008 257.638L160.664 260.962L159.631 264.149L157.949 267.038L155.721 269.534L153 271.49L149.947 272.844L146.672 273.548H143.316L140.057 272.843L137.005 271.49L134.287 269.536L132.039 267.038L130.373 264.144L129.341 260.962L128.997 257.638L129.341 254.33L130.373 251.148L132.039 248.255L134.287 245.756L137.001 243.805L140.057 242.432L143.321 241.744H146.667L149.947 242.432L153.004 243.805L155.721 245.758L157.949 248.255L159.631 251.144L160.664 254.33L161.008 257.638ZM111.041 257.636L110.587 259.95L109.272 261.908L107.312 263.221L104.995 263.674L102.696 263.219L100.738 261.908L99.4235 259.95L98.9696 257.636L99.4247 255.34L100.738 253.385L102.696 252.073L104.995 251.618L107.312 252.072L109.272 253.385L110.586 255.34L111.041 257.636ZM103.272 18.9852L104 19.7124L104.997 19.9812L106.011 19.7124L106.739 18.9852L107.008 17.9733L106.739 16.9773L106.011 16.25L104.997 15.9812L104 16.25L103.272 16.9773L103.003 17.9733L103.272 18.9852ZM267.82 15.1591L266.522 14.2896L264.986 13.9892L263.466 14.2896L262.168 15.1591L261.297 16.4556L260.997 17.9733L261.297 19.5069L262.168 20.8033L263.466 21.6729L264.986 21.9733L266.522 21.6729L267.82 20.8033L268.69 19.5069L268.991 17.9733L268.69 16.4556L267.82 15.1591ZM233.751 13.1671L234.685 15.4911L235.002 17.9733L234.685 20.4713L233.751 22.7954L232.279 24.8191L230.348 26.4159L228.084 27.4752L225.63 27.9495L223.129 27.7914L220.738 27.0167L218.617 25.6728L216.907 23.8547L215.704 21.6571L215.071 19.2381V16.7243L215.704 14.3054L216.907 12.1078L218.617 10.2896L220.738 8.94577L223.129 8.17107L225.63 8.01298L228.084 8.48726L230.348 9.54656L232.279 11.1434L233.751 13.1671ZM277.778 52.2338L278.68 55.0163L278.997 57.9254L278.68 60.8344L277.778 63.617L276.321 66.1466L274.358 68.3126L271.999 70.0359L269.324 71.2216L266.458 71.8224H263.53L260.664 71.2216L257.989 70.0359L255.63 68.3126L253.667 66.1466L252.21 63.617L251.292 60.8344L250.991 57.9254L251.292 55.0163L252.21 52.2338L253.667 49.7041L255.63 47.5382L257.989 45.8149L260.664 44.6291L263.53 44.0283H266.458L269.324 44.6291L271.999 45.8149L274.358 47.5382L276.321 49.7041L277.778 52.2338ZM153.757 93.0554L154.691 95.3794L155.008 97.8616L154.691 100.36L153.757 102.684L152.285 104.707L150.353 106.304L148.089 107.363L145.636 107.838L143.134 107.68L140.744 106.905L138.623 105.561L136.913 103.743L135.71 101.545L135.076 99.1264V96.6126L135.71 94.1937L136.913 91.9961L138.623 90.1779L140.744 88.8341L143.134 88.0594L145.636 87.9013L148.089 88.3756L150.353 89.4349L152.285 91.0317L153.757 93.0554ZM67.8418 55.0954L68.6967 56.3918L69.0133 57.9254L68.6967 59.459L67.8418 60.7554L66.5437 61.6091L65.0081 61.9253L63.4725 61.6091L62.1743 60.7554L61.3036 59.459L61.0028 57.9254L61.3036 56.3918L62.1743 55.0954L63.4725 54.2416L65.0081 53.9254L66.5437 54.2416L67.8418 55.0954ZM271.825 93.7194L272.696 95.7115L272.997 97.8616L272.696 100.028L271.825 102.02L270.448 103.711L268.675 104.96L266.617 105.688L264.448 105.846L262.311 105.403L260.379 104.391L258.78 102.905L257.656 101.055L257.071 98.9525V96.7865L257.656 94.6838L258.78 92.834L260.379 91.3479L262.311 90.336L264.448 89.8933L266.617 90.0515L268.675 90.7787L270.448 92.0277L271.825 93.7194ZM315.804 92.6759L314.363 90.3993L312.463 88.5021L310.2 87.0792L307.667 86.1938L304.991 85.8934L302.316 86.1938L299.783 87.0792L297.503 88.5021L295.603 90.3993L294.179 92.6759L293.292 95.2055L292.991 97.8616L293.292 100.534L294.179 103.063L295.603 105.34L297.503 107.237L299.783 108.66L302.316 109.545L304.991 109.846L307.667 109.545L310.2 108.66L312.463 107.237L314.363 105.34L315.804 103.063L316.69 100.534L316.991 97.8616L316.69 95.2055L315.804 92.6759ZM81.789 131.316L82.6913 134.509L83.008 137.814L82.6913 141.118L81.789 144.312L80.3167 147.268L78.3062 149.924L75.8523 152.153L73.0344 153.908L69.9315 155.094L66.6703 155.711H63.3458L60.0846 155.094L56.9817 153.908L54.1638 152.153L51.71 149.924L49.6994 147.268L48.2271 144.312L47.3089 141.118L47.0081 137.814L47.3089 134.509L48.2271 131.316L49.6994 128.343L51.71 125.703L54.1638 123.474L56.9817 121.719L60.0846 120.517L63.3458 119.917H66.6703L69.9315 120.517L73.0344 121.719L75.8523 123.474L78.3062 125.703L80.3167 128.343L81.789 131.316ZM77.7996 172.074L78.7019 174.857L79.0027 177.75L78.7019 180.659L77.7996 183.442L76.3273 185.971L74.38 188.153L72.0054 189.86L69.3299 191.046L66.4645 191.663H63.5358L60.6862 191.046L58.0107 189.86L55.6361 188.153L53.673 185.971L52.2166 183.442L51.3142 180.659L51.0134 177.75L51.3142 174.857L52.2166 172.074L53.673 169.544L55.6361 167.363L58.0107 165.655L60.6862 164.454L63.5358 163.853H66.4645L69.3299 164.454L72.0054 165.655L74.38 167.363L76.3273 169.544L77.7996 172.074ZM75.8207 92.6759L74.38 90.3993L72.4803 88.5021L70.2165 87.0792L67.6835 86.1938L65.0081 85.8934L62.3326 86.1938L59.7996 87.0792L57.52 88.5021L55.6202 90.3993L54.1954 92.6759L53.3089 95.2055L53.0081 97.8616L53.3089 100.534L54.1954 103.063L55.6202 105.34L57.52 107.237L59.7996 108.66L62.3326 109.545L65.0081 109.846L67.6835 109.545L70.2165 108.66L72.4803 107.237L74.38 105.34L75.8207 103.063L76.7072 100.534L77.008 97.8616L76.7072 95.2055L75.8207 92.6759ZM321.772 131.316L320.3 128.343L318.289 125.703L315.835 123.474L313.017 121.719L309.915 120.517L306.653 119.917H303.329L300.068 120.517L296.965 121.719L294.147 123.474L291.693 125.703L289.682 128.343L288.21 131.316L287.292 134.509L286.991 137.814L287.292 141.118L288.21 144.312L289.682 147.268L291.693 149.924L294.147 152.153L296.965 153.908L300.068 155.094L303.329 155.711H306.653L309.915 155.094L313.017 153.908L315.835 152.153L318.289 149.924L320.3 147.268L321.772 144.312L322.674 141.118L322.991 137.814L322.674 134.509L321.772 131.316ZM317.783 172.074L318.685 174.857L318.986 177.75L318.685 180.659L317.783 183.442L316.31 185.971L314.363 188.153L311.988 189.86L309.313 191.046L306.448 191.663H303.519L300.669 191.046L297.994 189.86L295.619 188.153L293.656 185.971L292.2 183.442L291.297 180.659L290.997 177.75L291.297 174.857L292.2 172.074L293.656 169.544L295.619 167.363L297.994 165.655L300.669 164.454L303.519 163.853H306.448L309.313 164.454L311.988 165.655L314.363 167.363L316.31 169.544L317.783 172.074ZM307.825 214.872L306.527 214.018L304.991 213.702L303.456 214.018L302.157 214.872L301.287 216.168L300.986 217.702L301.287 219.236L302.157 220.532L303.456 221.386L304.991 221.702L306.527 221.386L307.825 220.532L308.68 219.236L308.996 217.702L308.68 216.168L307.825 214.872ZM263.26 258.65L262.991 257.638L263.26 256.642L263.989 255.915L264.986 255.646L265.999 255.915L266.727 256.642L266.997 257.638L266.727 258.65L265.999 259.377L264.986 259.646L263.989 259.377L263.26 258.65ZM111.836 133.656L110.459 131.98L108.686 130.715L106.628 129.988L104.459 129.845L102.322 130.288L100.39 131.284L98.7916 132.77L97.6675 134.636L97.0818 136.723V138.905L97.6675 140.992L98.7916 142.857L100.39 144.343L102.322 145.339L104.459 145.782L106.628 145.64L108.686 144.912L110.459 143.648L111.836 141.972L112.707 139.964L113.008 137.814L112.707 135.664L111.836 133.656ZM109.857 174.24L108.528 172.912L106.85 172.058L104.997 171.774L103.145 172.058L101.483 172.912L100.153 174.24L99.2981 175.9L98.9974 177.75L99.2981 179.616L100.153 181.276L101.483 182.604L103.145 183.457L104.997 183.742L106.85 183.457L108.528 182.604L109.857 181.276L110.712 179.616L110.997 177.75L110.712 175.9L109.857 174.24ZM67.0028 217.702L66.7337 218.698L66.0054 219.425L65.0081 219.694L64.0107 219.425L63.2667 218.698L63.0134 217.702L63.2667 216.706L64.0107 215.979L65.0081 215.71L66.0054 215.979L66.7337 216.706L67.0028 217.702ZM235.002 257.638L234.685 255.156L233.751 252.832L232.279 250.808L230.348 249.211L228.084 248.152L225.63 247.678L223.129 247.836L220.738 248.611L218.617 249.955L216.907 251.773L215.704 253.97L215.071 256.389V258.903L215.704 261.322L216.907 263.52L218.617 265.338L220.738 266.682L223.129 267.456L225.63 267.614L228.084 267.14L230.348 266.081L232.279 264.484L233.751 262.46L234.685 260.136L235.002 257.638ZM158.997 257.638L158.696 254.745L157.794 251.962L156.322 249.433L154.374 247.251L152 245.544L149.324 244.342L146.459 243.741H143.53L140.681 244.342L138.005 245.544L135.63 247.251L133.667 249.433L132.211 251.962L131.309 254.745L131.008 257.638L131.309 260.547L132.211 263.33L133.667 265.859L135.63 268.041L138.005 269.749L140.681 270.934L143.53 271.551H146.459L149.324 270.934L152 269.749L154.374 268.041L156.322 265.859L157.794 263.33L158.696 260.547L158.997 257.638ZM101.309 256.12L101.008 257.638L101.309 259.172L102.179 260.468L103.478 261.338L104.997 261.638L106.533 261.338L107.831 260.468L108.702 259.172L109.003 257.638L108.702 256.12L107.831 254.824L106.533 253.954L104.997 253.654L103.478 253.954L102.179 254.824L101.309 256.12Z" fill="#0066B3"/>
<path d="M278.68 55.0163L277.778 52.2338L276.321 49.7041L274.358 47.5382L271.999 45.8149L269.324 44.6291L266.458 44.0283H263.53L260.664 44.6291L257.989 45.8149L255.63 47.5382L253.667 49.7041L252.21 52.2338L251.292 55.0163L250.991 57.9254L251.292 60.8344L252.21 63.617L253.667 66.1466L255.63 68.3126L257.989 70.0359L260.664 71.2216L263.53 71.8224H266.458L269.324 71.2216L271.999 70.0359L274.358 68.3126L276.321 66.1466L277.778 63.617L278.68 60.8344L278.997 57.9254L278.68 55.0163Z" fill="#0066B3"/>
<path d="M272.696 95.7115L271.825 93.7194L270.448 92.0277L268.675 90.7787L266.617 90.0515L264.448 89.8933L262.311 90.336L260.379 91.3479L258.78 92.834L257.656 94.6838L257.071 96.7865V98.9525L257.656 101.055L258.78 102.905L260.379 104.391L262.311 105.403L264.448 105.846L266.617 105.688L268.675 104.96L270.448 103.711L271.825 102.02L272.696 100.028L272.997 97.8616L272.696 95.7115Z" fill="#0066B3"/>
<path d="M314.363 90.3993L315.804 92.6759L316.69 95.2055L316.991 97.8616L316.69 100.534L315.804 103.063L314.363 105.34L312.463 107.237L310.2 108.66L307.667 109.545L304.991 109.846L302.316 109.545L299.783 108.66L297.503 107.237L295.603 105.34L294.179 103.063L293.292 100.534L292.991 97.8616L293.292 95.2055L294.179 92.6759L295.603 90.3993L297.503 88.5021L299.783 87.0792L302.316 86.1938L304.991 85.8934L307.667 86.1938L310.2 87.0792L312.463 88.5021L314.363 90.3993Z" fill="#0066B3"/>
<path d="M320.3 128.343L321.772 131.316L322.674 134.509L322.991 137.814L322.674 141.118L321.772 144.312L320.3 147.268L318.289 149.924L315.835 152.153L313.017 153.908L309.915 155.094L306.653 155.711H303.329L300.068 155.094L296.965 153.908L294.147 152.153L291.693 149.924L289.682 147.268L288.21 144.312L287.292 141.118L286.991 137.814L287.292 134.509L288.21 131.316L289.682 128.343L291.693 125.703L294.147 123.474L296.965 121.719L300.068 120.517L303.329 119.917H306.653L309.915 120.517L313.017 121.719L315.835 123.474L318.289 125.703L320.3 128.343Z" fill="#0066B3"/>
<path d="M318.685 174.857L317.783 172.074L316.31 169.544L314.363 167.363L311.988 165.655L309.313 164.454L306.448 163.853H303.519L300.669 164.454L297.994 165.655L295.619 167.363L293.656 169.544L292.2 172.074L291.297 174.857L290.997 177.75L291.297 180.659L292.2 183.442L293.656 185.971L295.619 188.153L297.994 189.86L300.669 191.046L303.519 191.663H306.448L309.313 191.046L311.988 189.86L314.363 188.153L316.31 185.971L317.783 183.442L318.685 180.659L318.986 177.75L318.685 174.857Z" fill="#0066B3"/>
<path d="M306.527 214.018L307.825 214.872L308.68 216.168L308.996 217.702L308.68 219.236L307.825 220.532L306.527 221.386L304.991 221.702L303.456 221.386L302.157 220.532L301.287 219.236L300.986 217.702L301.287 216.168L302.157 214.872L303.456 214.018L304.991 213.702L306.527 214.018Z" fill="#0066B3"/>
<path d="M262.991 257.638L263.26 258.65L263.989 259.377L264.986 259.646L265.999 259.377L266.727 258.65L266.997 257.638L266.727 256.642L265.999 255.915L264.986 255.646L263.989 255.915L263.26 256.642L262.991 257.638Z" fill="#0066B3"/>
<path d="M234.685 255.156L235.002 257.638L234.685 260.136L233.751 262.46L232.279 264.484L230.348 266.081L228.084 267.14L225.63 267.614L223.129 267.456L220.738 266.682L218.617 265.338L216.907 263.52L215.704 261.322L215.071 258.903V256.389L215.704 253.97L216.907 251.773L218.617 249.955L220.738 248.611L223.129 247.836L225.63 247.678L228.084 248.152L230.348 249.211L232.279 250.808L233.751 252.832L234.685 255.156Z" fill="#0066B3"/>
<path d="M158.997 257.638L158.696 254.745L157.794 251.962L156.322 249.433L154.374 247.251L152 245.544L149.324 244.342L146.459 243.741H143.53L140.681 244.342L138.005 245.544L135.63 247.251L133.667 249.433L132.211 251.962L131.309 254.745L131.008 257.638L131.309 260.547L132.211 263.33L133.667 265.859L135.63 268.041L138.005 269.749L140.681 270.934L143.53 271.551H146.459L149.324 270.934L152 269.749L154.374 268.041L156.322 265.859L157.794 263.33L158.696 260.547L158.997 257.638Z" fill="#0066B3"/>
<path d="M101.008 257.638L101.309 256.12L102.179 254.824L103.478 253.954L104.997 253.654L106.533 253.954L107.831 254.824L108.702 256.12L109.003 257.638L108.702 259.172L107.831 260.468L106.533 261.338L104.997 261.638L103.478 261.338L102.179 260.468L101.309 259.172L101.008 257.638Z" fill="#0066B3"/>
<path d="M66.7337 218.698L67.0028 217.702L66.7337 216.706L66.0054 215.979L65.0081 215.71L64.0107 215.979L63.2667 216.706L63.0134 217.702L63.2667 218.698L64.0107 219.425L65.0081 219.694L66.0054 219.425L66.7337 218.698Z" fill="#0066B3"/>
<path d="M108.528 172.912L109.857 174.24L110.712 175.9L110.997 177.75L110.712 179.616L109.857 181.276L108.528 182.604L106.85 183.457L104.997 183.742L103.145 183.457L101.483 182.604L100.153 181.276L99.2981 179.616L98.9974 177.75L99.2981 175.9L100.153 174.24L101.483 172.912L103.145 172.058L104.997 171.774L106.85 172.058L108.528 172.912Z" fill="#0066B3"/>
<path d="M78.7019 174.857L77.7996 172.074L76.3273 169.544L74.38 167.363L72.0054 165.655L69.3299 164.454L66.4645 163.853H63.5358L60.6862 164.454L58.0107 165.655L55.6361 167.363L53.673 169.544L52.2166 172.074L51.3142 174.857L51.0134 177.75L51.3142 180.659L52.2166 183.442L53.673 185.971L55.6361 188.153L58.0107 189.86L60.6862 191.046L63.5358 191.663H66.4645L69.3299 191.046L72.0054 189.86L74.38 188.153L76.3273 185.971L77.7996 183.442L78.7019 180.659L79.0027 177.75L78.7019 174.857Z" fill="#0066B3"/>
<path d="M110.459 131.98L111.836 133.656L112.707 135.664L113.008 137.814L112.707 139.964L111.836 141.972L110.459 143.648L108.686 144.912L106.628 145.64L104.459 145.782L102.322 145.339L100.39 144.343L98.7916 142.857L97.6675 140.992L97.0818 138.905V136.723L97.6675 134.636L98.7916 132.77L100.39 131.284L102.322 130.288L104.459 129.845L106.628 129.988L108.686 130.715L110.459 131.98Z" fill="#0066B3"/>
<path d="M82.6913 134.509L81.789 131.316L80.3167 128.343L78.3062 125.703L75.8523 123.474L73.0344 121.719L69.9315 120.517L66.6703 119.917H63.3458L60.0846 120.517L56.9817 121.719L54.1638 123.474L51.71 125.703L49.6994 128.343L48.2271 131.316L47.3089 134.509L47.0081 137.814L47.3089 141.118L48.2271 144.312L49.6994 147.268L51.71 149.924L54.1638 152.153L56.9817 153.908L60.0846 155.094L63.3458 155.711H66.6703L69.9315 155.094L73.0344 153.908L75.8523 152.153L78.3062 149.924L80.3167 147.268L81.789 144.312L82.6913 141.118L83.008 137.814L82.6913 134.509Z" fill="#0066B3"/>
<path d="M74.38 90.3993L75.8207 92.6759L76.7072 95.2055L77.008 97.8616L76.7072 100.534L75.8207 103.063L74.38 105.34L72.4803 107.237L70.2165 108.66L67.6835 109.545L65.0081 109.846L62.3326 109.545L59.7996 108.66L57.52 107.237L55.6202 105.34L54.1954 103.063L53.3089 100.534L53.0081 97.8616L53.3089 95.2055L54.1954 92.6759L55.6202 90.3993L57.52 88.5021L59.7996 87.0792L62.3326 86.1938L65.0081 85.8934L67.6835 86.1938L70.2165 87.0792L72.4803 88.5021L74.38 90.3993Z" fill="#0066B3"/>
<path d="M154.691 95.3794L153.757 93.0554L152.285 91.0317L150.353 89.4349L148.089 88.3756L145.636 87.9013L143.134 88.0594L140.744 88.8341L138.623 90.1779L136.913 91.9961L135.71 94.1937L135.076 96.6126V99.1264L135.71 101.545L136.913 103.743L138.623 105.561L140.744 106.905L143.134 107.68L145.636 107.838L148.089 107.363L150.353 106.304L152.285 104.707L153.757 102.684L154.691 100.36L155.008 97.8616L154.691 95.3794Z" fill="#0066B3"/>
<path d="M68.6967 56.3918L67.8418 55.0954L66.5437 54.2416L65.0081 53.9254L63.4725 54.2416L62.1743 55.0954L61.3036 56.3918L61.0028 57.9254L61.3036 59.459L62.1743 60.7554L63.4725 61.6091L65.0081 61.9253L66.5437 61.6091L67.8418 60.7554L68.6967 59.459L69.0133 57.9254L68.6967 56.3918Z" fill="#0066B3"/>
<path d="M104 19.7124L103.272 18.9852L103.003 17.9733L103.272 16.9773L104 16.25L104.997 15.9812L106.011 16.25L106.739 16.9773L107.008 17.9733L106.739 18.9852L106.011 19.7124L104.997 19.9812L104 19.7124Z" fill="#0066B3"/>
<path d="M234.685 15.4911L233.751 13.1671L232.279 11.1434L230.348 9.54656L228.084 8.48726L225.63 8.01298L223.129 8.17107L220.738 8.94577L218.617 10.2896L216.907 12.1078L215.704 14.3054L215.071 16.7243V19.2381L215.704 21.6571L216.907 23.8547L218.617 25.6728L220.738 27.0167L223.129 27.7914L225.63 27.9495L228.084 27.4752L230.348 26.4159L232.279 24.8191L233.751 22.7954L234.685 20.4713L235.002 17.9733L234.685 15.4911Z" fill="#0066B3"/>
<path d="M266.522 14.2896L267.82 15.1591L268.69 16.4556L268.991 17.9733L268.69 19.5069L267.82 20.8033L266.522 21.6729L264.986 21.9733L263.466 21.6729L262.168 20.8033L261.297 19.5069L260.997 17.9733L261.297 16.4556L262.168 15.1591L263.466 14.2896L264.986 13.9892L266.522 14.2896Z" fill="#0066B3"/>
<path fill-rule="evenodd" clip-rule="evenodd" d="M204.512 62.2563C203.564 66.5129 201.246 70.3426 197.914 73.1607C194.582 75.9788 190.418 77.6304 186.058 77.8634C181.698 78.0963 177.381 76.8978 173.767 74.4508C170.973 72.5592 168.718 70.0018 167.192 67.0299C166.744 66.1574 166.359 65.2492 166.042 64.3116C165.753 65.2597 165.402 66.1829 164.992 67.0758C163.386 70.5737 160.879 73.6058 157.706 75.8492C153.723 78.6652 148.915 80.0785 144.039 79.8666C139.164 79.6547 134.497 77.8298 130.774 74.6789C127.05 71.528 124.482 67.2302 123.473 62.4618C123.398 62.1133 123.209 61.7997 122.936 61.5707C122.663 61.3417 122.321 61.2104 121.964 61.1977C121.608 61.185 121.257 61.2916 120.968 61.5005C120.679 61.7095 120.469 62.0089 120.37 62.3511C119.601 65.0144 118.152 67.4322 116.165 69.367C114.177 71.3018 111.72 72.687 109.035 73.3865C108.252 73.5851 107.559 74.0407 107.067 74.6801C106.575 75.3194 106.312 76.1054 106.322 76.9117C106.331 77.718 106.611 78.4978 107.117 79.1259C107.624 79.7539 108.327 80.1937 109.114 80.3746C113.413 81.3811 117.191 83.9306 119.73 87.538C122.269 91.1455 123.392 95.5592 122.885 99.9396C122.377 104.32 120.276 108.361 116.979 111.295C113.682 114.228 109.421 115.849 105.006 115.849C100.59 115.849 96.3288 114.228 93.0322 111.295C89.7356 108.361 87.6337 104.32 87.1264 99.9396C86.6191 95.5592 87.7419 91.1455 90.281 87.538C92.8202 83.9306 96.5986 81.3811 100.897 80.3746C101.684 80.1937 102.387 79.7539 102.894 79.1259C103.4 78.4978 103.681 77.718 103.69 76.9117C103.699 76.1054 103.436 75.3194 102.944 74.6801C102.452 74.0407 101.759 73.5851 100.977 73.3865C98.2654 72.6837 95.7865 71.2824 93.7878 69.3227C91.7891 67.363 90.3406 64.9136 89.5871 62.2195C88.8336 59.5253 88.8016 56.6808 89.4942 53.9704C90.1869 51.26 91.5799 48.7787 93.534 46.7746C95.4881 44.7705 97.9348 43.3139 100.629 42.5504C103.324 41.7869 106.172 41.7433 108.889 42.4239C111.606 43.1045 114.096 44.4855 116.111 46.4288C118.126 48.3721 119.594 50.8095 120.37 53.4975C120.469 53.8397 120.679 54.1391 120.968 54.3481C121.257 54.557 121.608 54.6636 121.964 54.6509C122.321 54.6382 122.663 54.5069 122.936 54.2779C123.209 54.0488 123.398 53.7352 123.473 53.3868C124.369 49.1477 126.5 45.2679 129.599 42.2354C132.698 39.2029 136.625 37.153 140.887 36.3435C141.674 36.1969 142.39 35.7921 142.921 35.1933C143.452 34.5945 143.768 33.8359 143.819 33.0376C143.87 32.2393 143.653 31.4468 143.202 30.7856C142.751 30.1244 142.092 29.6323 141.33 29.3871C138.607 28.5128 136.286 26.6958 134.786 24.2636C133.285 21.8314 132.705 18.944 133.148 16.1218C133.591 13.2997 135.029 10.7284 137.202 8.87149C139.376 7.01458 142.142 5.99414 145.003 5.99414C147.863 5.99414 150.63 7.01458 152.803 8.87149C154.977 10.7284 156.415 13.2997 156.858 16.1218C157.301 18.944 156.72 21.8314 155.22 24.2636C153.72 26.6958 151.399 28.5128 148.676 29.3871C147.913 29.6309 147.254 30.1216 146.802 30.7816C146.35 31.4416 146.131 32.2333 146.18 33.0314C146.229 33.8295 146.543 34.5885 147.072 35.1883C147.602 35.7882 148.316 36.1947 149.103 36.3435C153.046 37.0921 156.708 38.9035 159.694 41.5815C161.942 43.5979 163.742 46.0478 164.992 48.772C165.403 49.666 165.754 50.5896 166.042 51.537C166.359 50.6004 166.744 49.6918 167.192 48.818C168.303 46.6547 169.803 44.7044 171.626 43.069C174.186 40.773 177.296 39.1754 180.654 38.4305C181.224 38.3072 181.735 37.9965 182.106 37.5482C182.478 37.1 182.688 36.5401 182.702 35.9585C182.717 35.3769 182.535 34.8072 182.187 34.3409C181.839 33.8746 181.343 33.5387 180.781 33.387C177.044 32.3667 173.804 30.0266 171.664 26.8012C169.523 23.5758 168.628 19.6843 169.143 15.8494C169.659 12.0144 171.55 8.49654 174.466 5.94898C177.383 3.40143 181.125 1.99728 185 1.99728C188.874 1.99728 192.617 3.40143 195.534 5.94898C198.45 8.49654 200.341 12.0144 200.857 15.8494C201.372 19.6843 200.477 23.5758 198.336 26.8012C196.196 30.0266 192.956 32.3667 189.219 33.387C188.656 33.5387 188.161 33.8746 187.813 34.3409C187.464 34.8072 187.283 35.3769 187.298 35.9585C187.312 36.5401 187.522 37.1 187.893 37.5482C188.265 37.9965 188.776 38.3072 189.346 38.4305C193.053 39.2562 196.448 41.1192 199.134 43.8014C201.819 46.4837 203.685 49.8742 204.512 53.5765C204.635 54.1451 204.946 54.6558 205.395 55.0267C205.844 55.3976 206.405 55.6071 206.987 55.6217C207.569 55.6363 208.14 55.4551 208.607 55.1072C209.074 54.7592 209.41 54.2647 209.562 53.703C210.585 49.9718 212.93 46.7382 216.159 44.6024C219.389 42.4665 223.286 41.5736 227.125 42.0892C230.964 42.6049 234.485 44.4941 237.035 47.4062C239.586 50.3184 240.991 54.0556 240.991 57.9243C240.991 61.7929 239.586 65.5302 237.035 68.4424C234.485 71.3545 230.964 73.2437 227.125 73.7594C223.286 74.275 219.389 73.3821 216.159 71.2462C212.93 69.1104 210.585 65.8768 209.562 62.1456C209.412 61.5836 209.077 61.0882 208.611 60.739C208.145 60.3897 207.576 60.2068 206.993 60.2196C206.411 60.2323 205.85 60.44 205.4 60.8093C204.95 61.1787 204.637 61.6882 204.512 62.2563ZM166.142 46.5972C167.264 44.737 168.66 43.0456 170.29 41.5831C173.106 39.0575 176.526 37.3001 180.221 36.4807L180.231 36.4785C180.362 36.4501 180.48 36.3784 180.566 36.275C180.651 36.1717 180.7 36.0426 180.703 35.9084C180.706 35.7742 180.665 35.6429 180.584 35.5353C180.504 35.4278 180.39 35.3503 180.26 35.3153L180.254 35.3136C176.049 34.1657 172.405 31.5331 169.997 27.9045C167.589 24.2759 166.581 19.898 167.161 15.5836C167.741 11.2693 169.869 7.31166 173.15 4.44566C176.43 1.57966 180.641 0 185 0C189.359 0 193.569 1.57965 196.85 4.44566C200.131 7.31167 202.259 11.2693 202.839 15.5836C203.419 19.898 202.411 24.2759 200.003 27.9045C197.595 31.5331 193.951 34.1657 189.746 35.3136L189.74 35.3153C189.61 35.3503 189.496 35.4278 189.416 35.5353C189.335 35.6429 189.294 35.7743 189.297 35.9084C189.3 36.0426 189.349 36.1717 189.434 36.275C189.52 36.3784 189.638 36.4501 189.769 36.4785L189.781 36.481C193.859 37.3894 197.593 39.4386 200.548 42.3891C203.502 45.3396 205.554 49.0692 206.464 53.1417L206.466 53.1534C206.495 53.2846 206.566 53.4024 206.67 53.4878C206.773 53.5734 206.903 53.6217 207.037 53.6251C207.171 53.6284 207.303 53.5866 207.411 53.5064C207.519 53.426 207.596 53.312 207.631 53.1825L207.633 53.1753C208.784 48.9777 211.422 45.3399 215.055 42.9371C218.689 40.5342 223.072 39.5296 227.391 40.1097C231.71 40.6898 235.672 42.8152 238.541 46.0914C241.41 49.3676 242.991 53.572 242.991 57.9243C242.991 62.2766 241.41 66.481 238.541 69.7572C235.672 73.0334 231.71 75.1587 227.391 75.7388C223.072 76.319 218.689 75.3144 215.055 72.9116C211.422 70.5087 208.784 66.8709 207.633 62.6733L207.63 62.6606C207.595 62.531 207.518 62.4167 207.41 62.3362C207.303 62.2556 207.171 62.2134 207.037 62.2164C206.903 62.2193 206.773 62.2672 206.67 62.3524C206.566 62.4376 206.494 62.5551 206.465 62.6861L206.464 62.69C205.421 67.3723 202.872 71.585 199.207 74.6849C195.541 77.7848 190.961 79.6016 186.165 79.8578C181.369 80.1141 176.62 78.7957 172.645 76.104C169.99 74.3065 167.777 71.9626 166.142 69.2503C164.396 72.5004 161.911 75.3237 158.862 77.4794C154.516 80.5514 149.271 82.0931 143.952 81.862C138.634 81.6309 133.543 79.64 129.481 76.2027C125.778 73.0693 123.122 68.8962 121.848 64.2422C120.92 66.7098 119.459 68.9493 117.561 70.7972C115.325 72.9738 112.561 74.5322 109.539 75.3192L109.527 75.3223C109.179 75.4106 108.871 75.6131 108.653 75.8972C108.434 76.1814 108.317 76.5307 108.321 76.8891C108.325 77.2474 108.45 77.594 108.675 77.8732C108.9 78.1523 109.213 78.3478 109.562 78.4282L109.57 78.43C114.347 79.5483 118.545 82.3811 121.366 86.3895C124.188 90.3978 125.435 95.302 124.871 100.169C124.308 105.036 121.972 109.527 118.309 112.786C114.646 116.045 109.912 117.846 105.006 117.846C100.1 117.846 95.3647 116.045 91.7018 112.786C88.0389 109.527 85.7034 105.036 85.1398 100.169C84.5761 95.302 85.8236 90.3978 88.6449 86.3895C91.4662 82.3811 95.6644 79.5483 100.441 78.43L100.449 78.4282C100.799 78.3478 101.111 78.1523 101.336 77.8732C101.561 77.5941 101.686 77.2475 101.69 76.8891C101.694 76.5307 101.577 76.1814 101.359 75.8972C101.14 75.6131 100.832 75.4106 100.484 75.3223L100.474 75.3198C97.4241 74.5291 94.6353 72.9526 92.3868 70.7479C90.1382 68.5433 88.5086 65.7877 87.6609 62.7567C86.8133 59.7258 86.7772 56.5257 87.5565 53.4765C88.3357 50.4273 89.9028 47.6358 92.1012 45.3812C94.2996 43.1266 97.0521 41.4879 100.084 40.629C103.115 39.77 106.319 39.7209 109.376 40.4866C112.432 41.2523 115.234 42.806 117.5 44.9922C119.427 46.851 120.91 49.1117 121.847 51.6059C122.967 47.5165 125.155 43.7879 128.199 40.8089C131.579 37.5007 135.864 35.2645 140.513 34.3814L140.52 34.3801C140.87 34.3149 141.188 34.135 141.424 33.8689C141.66 33.6028 141.801 33.2656 141.823 32.9108C141.846 32.5559 141.75 32.2037 141.549 31.9099C141.349 31.616 141.056 31.3972 140.717 31.2883C137.54 30.2681 134.833 28.1484 133.083 25.3111C131.333 22.4736 130.655 19.1049 131.172 15.8124C131.689 12.5199 133.366 9.52011 135.902 7.35373C138.438 5.18735 141.666 3.99686 145.003 3.99686C148.34 3.99686 151.567 5.18735 154.103 7.35373C156.639 9.52012 158.317 12.5199 158.834 15.8124C159.351 19.1049 158.673 22.4736 156.922 25.3111C155.172 28.1487 152.465 30.2685 149.288 31.2885L149.285 31.2893C148.946 31.3976 148.653 31.6157 148.452 31.9091C148.251 32.2025 148.154 32.5543 148.176 32.909C148.198 33.2637 148.337 33.601 148.573 33.8677C148.808 34.1343 149.126 34.315 149.475 34.3812C153.776 35.1978 157.773 37.174 161.03 40.0956C163.107 41.9587 164.834 44.161 166.142 46.5972Z" fill="#0066B3"/>
<path d="M197.914 73.1607C201.246 70.3426 203.564 66.5129 204.512 62.2563C204.637 61.6882 204.95 61.1787 205.4 60.8093C205.85 60.44 206.411 60.2323 206.993 60.2196C207.576 60.2068 208.145 60.3897 208.611 60.739C209.077 61.0882 209.412 61.5836 209.562 62.1456C210.585 65.8768 212.93 69.1104 216.159 71.2462C219.389 73.3821 223.286 74.275 227.125 73.7594C230.964 73.2437 234.485 71.3545 237.035 68.4424C239.586 65.5302 240.991 61.7929 240.991 57.9243C240.991 54.0556 239.586 50.3184 237.035 47.4062C234.485 44.4941 230.964 42.6049 227.125 42.0892C223.286 41.5736 219.389 42.4665 216.159 44.6024C212.93 46.7382 210.585 49.9718 209.562 53.703C209.41 54.2647 209.074 54.7592 208.607 55.1072C208.14 55.4551 207.569 55.6363 206.987 55.6217C206.405 55.6071 205.844 55.3976 205.395 55.0267C204.946 54.6558 204.635 54.1451 204.512 53.5765C203.685 49.8742 201.819 46.4837 199.134 43.8014C196.448 41.1192 193.053 39.2562 189.346 38.4305C188.776 38.3072 188.265 37.9965 187.893 37.5482C187.522 37.1 187.312 36.5401 187.298 35.9585C187.283 35.3769 187.464 34.8072 187.813 34.3409C188.161 33.8746 188.656 33.5387 189.219 33.387C192.956 32.3667 196.196 30.0266 198.336 26.8012C200.477 23.5758 201.372 19.6843 200.857 15.8494C200.341 12.0144 198.45 8.49654 195.534 5.94898C192.617 3.40143 188.874 1.99728 185 1.99728C181.125 1.99728 177.383 3.40143 174.466 5.94898C171.55 8.49654 169.659 12.0144 169.143 15.8494C168.628 19.6843 169.523 23.5758 171.664 26.8012C173.804 30.0266 177.044 32.3667 180.781 33.387C181.343 33.5387 181.839 33.8746 182.187 34.3409C182.535 34.8072 182.717 35.3769 182.702 35.9585C182.688 36.5401 182.478 37.1 182.106 37.5482C181.735 37.9965 181.224 38.3072 180.654 38.4305C177.296 39.1754 174.186 40.773 171.626 43.069C169.803 44.7044 168.303 46.6547 167.192 48.818C166.744 49.6918 166.359 50.6004 166.042 51.537C165.754 50.5896 165.403 49.666 164.992 48.772C163.742 46.0478 161.942 43.5979 159.694 41.5815C156.708 38.9035 153.046 37.0921 149.103 36.3435C148.316 36.1947 147.602 35.7882 147.072 35.1883C146.543 34.5885 146.229 33.8295 146.18 33.0314C146.131 32.2333 146.35 31.4416 146.802 30.7816C147.254 30.1216 147.913 29.6309 148.676 29.3871C151.399 28.5128 153.72 26.6958 155.22 24.2636C156.72 21.8314 157.301 18.944 156.858 16.1218C156.415 13.2997 154.977 10.7284 152.803 8.87149C150.63 7.01458 147.863 5.99414 145.003 5.99414C142.142 5.99414 139.376 7.01458 137.202 8.87149C135.029 10.7284 133.591 13.2997 133.148 16.1218C132.705 18.944 133.285 21.8314 134.786 24.2636C136.286 26.6958 138.607 28.5128 141.33 29.3871C142.092 29.6323 142.751 30.1244 143.202 30.7856C143.653 31.4468 143.87 32.2393 143.819 33.0376C143.768 33.8359 143.452 34.5945 142.921 35.1933C142.39 35.7921 141.674 36.1969 140.887 36.3435C136.625 37.153 132.698 39.2029 129.599 42.2354C126.5 45.2679 124.369 49.1477 123.473 53.3868C123.398 53.7352 123.209 54.0488 122.936 54.2779C122.663 54.5069 122.321 54.6382 121.964 54.6509C121.608 54.6636 121.257 54.557 120.968 54.3481C120.679 54.1391 120.469 53.8397 120.37 53.4975C119.594 50.8095 118.126 48.3721 116.111 46.4288C114.096 44.4855 111.606 43.1045 108.889 42.4239C106.172 41.7433 103.324 41.7869 100.629 42.5504C97.9348 43.3139 95.4881 44.7705 93.534 46.7746C91.5799 48.7787 90.1869 51.26 89.4942 53.9704C88.8016 56.6808 88.8336 59.5253 89.5871 62.2195C90.3406 64.9136 91.7891 67.363 93.7878 69.3227C95.7865 71.2824 98.2654 72.6837 100.977 73.3865C101.759 73.5851 102.452 74.0407 102.944 74.6801C103.436 75.3194 103.699 76.1054 103.69 76.9117C103.681 77.718 103.4 78.4978 102.894 79.1259C102.387 79.7539 101.684 80.1937 100.897 80.3746C96.5986 81.3811 92.8202 83.9306 90.281 87.538C87.7419 91.1455 86.6191 95.5592 87.1264 99.9396C87.6337 104.32 89.7356 108.361 93.0322 111.295C96.3288 114.228 100.59 115.849 105.006 115.849C109.421 115.849 113.682 114.228 116.979 111.295C120.276 108.361 122.377 104.32 122.885 99.9396C123.392 95.5592 122.269 91.1455 119.73 87.538C117.191 83.9306 113.413 81.3811 109.114 80.3746C108.327 80.1937 107.624 79.7539 107.117 79.1259C106.611 78.4978 106.331 77.718 106.322 76.9117C106.312 76.1054 106.575 75.3194 107.067 74.6801C107.559 74.0407 108.252 73.5851 109.035 73.3865C111.72 72.687 114.177 71.3018 116.165 69.367C118.152 67.4322 119.601 65.0144 120.37 62.3511C120.469 62.0089 120.679 61.7095 120.968 61.5005C121.257 61.2916 121.608 61.185 121.964 61.1977C122.321 61.2104 122.663 61.3417 122.936 61.5707C123.209 61.7997 123.398 62.1133 123.473 62.4618C124.482 67.2302 127.05 71.528 130.774 74.6789C134.497 77.8298 139.164 79.6547 144.039 79.8666C148.915 80.0785 153.723 78.6652 157.706 75.8492C160.879 73.6058 163.386 70.5737 164.992 67.0758C165.402 66.1829 165.753 65.2597 166.042 64.3116C166.359 65.2492 166.744 66.1574 167.192 67.0299C168.718 70.0018 170.973 72.5592 173.767 74.4508C177.381 76.8978 181.698 78.0963 186.058 77.8634C190.418 77.6304 194.582 75.9788 197.914 73.1607Z" fill="#0066B3"/>
<path fill-rule="evenodd" clip-rule="evenodd" d="M180.253 240.311L180.259 240.31C180.389 240.275 180.503 240.197 180.583 240.09C180.664 239.982 180.705 239.851 180.702 239.717C180.699 239.582 180.65 239.453 180.565 239.35C180.479 239.247 180.361 239.175 180.23 239.146L180.22 239.144C176.177 238.247 172.47 236.229 169.525 233.322C166.92 230.75 165.005 227.575 163.943 224.089C162.671 227.845 160.304 231.149 157.131 233.567C153.579 236.274 149.222 237.715 144.755 237.66C140.287 237.605 135.967 236.058 132.482 233.266C128.998 230.473 126.55 226.596 125.53 222.252L125.528 222.244C125.447 221.894 125.252 221.582 124.972 221.357C124.693 221.133 124.346 221.008 123.987 221.004C123.628 221 123.278 221.117 122.993 221.335C122.709 221.554 122.506 221.861 122.418 222.208L122.415 222.218C121.315 226.451 118.707 230.138 115.08 232.588C111.454 235.039 107.057 236.085 102.714 235.531C98.3706 234.977 94.3784 232.861 91.485 229.579C88.5916 226.296 86.9954 222.074 86.9954 217.701C86.9954 213.328 88.5916 209.105 91.485 205.823C94.3784 202.541 98.3706 200.425 102.714 199.871C107.057 199.317 111.454 200.363 115.08 202.813C118.707 205.264 121.315 208.95 122.415 213.183L122.418 213.193C122.506 213.54 122.709 213.848 122.993 214.066C123.278 214.285 123.628 214.401 123.987 214.397C124.346 214.393 124.693 214.269 124.972 214.044C125.252 213.819 125.447 213.507 125.528 213.158L125.53 213.15C126.55 208.806 128.998 204.928 132.482 202.136C135.967 199.343 140.287 197.796 144.755 197.741C149.222 197.687 153.579 199.128 157.131 201.835C160.304 204.253 162.671 207.556 163.943 211.312C165.189 207.219 167.608 203.567 170.916 200.816C174.591 197.76 179.164 195.983 183.941 195.755C188.719 195.527 193.44 196.86 197.391 199.552C200.023 201.346 202.217 203.678 203.841 206.373C205.15 203.937 206.876 201.735 208.953 199.872C212.21 196.95 216.205 194.974 220.507 194.158L220.513 194.157C220.863 194.091 221.182 193.911 221.418 193.645C221.654 193.379 221.794 193.042 221.817 192.687C221.839 192.332 221.743 191.98 221.542 191.686C221.342 191.392 221.049 191.174 220.71 191.065C217.534 190.045 214.827 187.925 213.076 185.088C211.326 182.25 210.648 178.881 211.165 175.589C211.682 172.296 213.36 169.297 215.896 167.13C218.432 164.964 221.659 163.773 224.996 163.773C228.333 163.773 231.561 164.964 234.097 167.13C236.632 169.297 238.31 172.296 238.827 175.589C239.344 178.881 238.666 182.25 236.916 185.088C235.166 187.925 232.458 190.045 229.281 191.065L229.279 191.066C228.94 191.174 228.647 191.392 228.446 191.686C228.245 191.979 228.148 192.331 228.169 192.685C228.191 193.04 228.331 193.378 228.566 193.644C228.801 193.911 229.119 194.091 229.469 194.158C233.77 194.974 237.766 196.95 241.024 199.872C243.1 201.735 244.827 203.937 246.135 206.373C247.235 204.548 248.599 202.885 250.19 201.442C252.606 199.249 255.475 197.626 258.587 196.681C254.455 195.287 250.878 192.577 248.42 188.948C245.695 184.924 244.532 180.046 245.149 175.227C245.766 170.408 248.12 165.978 251.772 162.768C255.423 159.558 260.121 157.787 264.985 157.787C269.85 157.787 274.548 159.558 278.199 162.768C281.851 165.978 284.205 170.408 284.822 175.227C285.439 180.046 284.276 184.924 281.55 188.948C279.094 192.576 275.519 195.285 271.39 196.679C274.589 197.652 277.53 199.342 279.985 201.627C282.787 204.236 284.859 207.531 285.994 211.185C287.13 214.839 287.29 218.725 286.46 222.46C285.629 226.195 283.836 229.648 281.259 232.479C278.681 235.309 275.409 237.418 271.764 238.598C268.12 239.777 264.23 239.985 260.481 239.202C256.731 238.419 253.251 236.672 250.385 234.133C248.711 232.65 247.28 230.927 246.136 229.028C244.472 232.125 242.136 234.836 239.278 236.952C235.144 240.012 230.134 241.664 224.988 241.664C219.842 241.664 214.833 240.012 210.699 236.952C207.84 234.836 205.505 232.125 203.841 229.028C202.722 230.886 201.328 232.576 199.701 234.038C196.888 236.563 193.471 238.322 189.78 239.144L189.768 239.147C189.637 239.175 189.519 239.247 189.433 239.35C189.348 239.453 189.299 239.582 189.296 239.717C189.293 239.851 189.334 239.982 189.415 240.09C189.495 240.197 189.609 240.275 189.739 240.31L189.745 240.311C193.95 241.459 197.594 244.092 200.002 247.72C202.41 251.349 203.418 255.727 202.838 260.041C202.258 264.356 200.13 268.313 196.849 271.179C193.568 274.045 189.358 275.625 184.999 275.625C180.64 275.625 176.43 274.045 173.149 271.179C169.868 268.313 167.74 264.356 167.16 260.041C166.58 255.727 167.588 251.349 169.996 247.72C172.404 244.092 176.048 241.459 180.253 240.311ZM202.791 226.808C203.24 225.934 203.624 225.025 203.941 224.088C204.23 225.036 204.581 225.96 204.991 226.853C206.53 230.206 208.897 233.132 211.889 235.347C215.679 238.152 220.271 239.666 224.988 239.666C229.705 239.666 234.297 238.152 238.087 235.347C241.08 233.132 243.447 230.205 244.986 226.853C245.396 225.96 245.747 225.036 246.036 224.088C246.352 225.025 246.737 225.933 247.186 226.807C248.315 229.007 249.847 230.987 251.712 232.639C254.317 234.947 257.481 236.535 260.89 237.247C264.299 237.959 267.835 237.77 271.148 236.698C274.461 235.626 277.436 233.708 279.779 231.135C282.123 228.562 283.752 225.422 284.507 222.027C285.262 218.632 285.116 215.098 284.084 211.777C283.052 208.455 281.169 205.46 278.621 203.088C276.074 200.717 272.951 199.05 269.561 198.254C269.214 198.172 268.905 197.977 268.682 197.7C268.459 197.423 268.335 197.079 268.329 196.723C268.324 196.368 268.437 196.02 268.652 195.736C268.866 195.452 269.169 195.248 269.513 195.156C273.75 194.056 277.441 191.451 279.894 187.829C282.347 184.207 283.394 179.817 282.838 175.48C282.283 171.143 280.164 167.156 276.878 164.267C273.592 161.378 269.364 159.785 264.985 159.785C260.607 159.785 256.379 161.378 253.093 164.267C249.807 167.156 247.688 171.143 247.132 175.48C246.577 179.817 247.624 184.207 250.077 187.829C252.53 191.451 256.22 194.056 260.458 195.156C260.802 195.246 261.106 195.449 261.322 195.732C261.538 196.015 261.653 196.362 261.649 196.717C261.646 197.073 261.523 197.417 261.302 197.695C261.08 197.974 260.772 198.171 260.426 198.254C257.113 199.029 254.053 200.635 251.535 202.92C249.749 204.54 248.278 206.464 247.185 208.594C246.737 209.468 246.352 210.377 246.036 211.313C245.747 210.366 245.396 209.442 244.986 208.548C243.735 205.824 241.935 203.374 239.687 201.358C236.701 198.68 233.039 196.868 229.096 196.12C228.31 195.971 227.595 195.565 227.066 194.965C226.536 194.365 226.222 193.606 226.173 192.808C226.124 192.01 226.343 191.218 226.795 190.558C227.247 189.898 227.906 189.407 228.669 189.164C231.392 188.289 233.713 186.472 235.213 184.04C236.713 181.608 237.294 178.72 236.851 175.898C236.408 173.076 234.97 170.505 232.797 168.648C230.623 166.791 227.857 165.771 224.996 165.771C222.136 165.771 219.369 166.791 217.196 168.648C215.022 170.505 213.584 173.076 213.141 175.898C212.698 178.72 213.279 181.608 214.779 184.04C216.279 186.472 218.6 188.289 221.323 189.164C222.086 189.409 222.745 189.901 223.195 190.562C223.646 191.223 223.864 192.016 223.813 192.814C223.762 193.612 223.446 194.371 222.915 194.97C222.383 195.569 221.667 195.973 220.88 196.12C216.937 196.868 213.275 198.68 210.289 201.358C208.041 203.374 206.241 205.824 204.991 208.548C204.581 209.442 204.229 210.366 203.941 211.313C203.624 210.375 203.239 209.467 202.791 208.594C201.275 205.638 199.036 203.092 196.264 201.202C192.672 198.755 188.38 197.543 184.037 197.75C179.694 197.958 175.537 199.573 172.195 202.351C168.854 205.129 166.51 208.92 165.519 213.147C165.435 213.493 165.238 213.801 164.959 214.022C164.68 214.243 164.336 214.365 163.98 214.369C163.624 214.373 163.277 214.258 162.993 214.042C162.71 213.827 162.507 213.523 162.416 213.179C161.402 209.293 159.114 205.858 155.918 203.422C152.721 200.986 148.8 199.689 144.779 199.739C140.758 199.788 136.87 201.18 133.734 203.693C130.598 206.207 128.395 209.696 127.477 213.606C127.296 214.392 126.855 215.094 126.226 215.6C125.598 216.105 124.817 216.385 124.009 216.394C123.202 216.404 122.415 216.141 121.775 215.65C121.135 215.159 120.678 214.466 120.479 213.685C119.501 209.923 117.183 206.646 113.96 204.468C110.736 202.289 106.828 201.359 102.967 201.852C99.1066 202.344 95.5579 204.225 92.986 207.143C90.4141 210.06 88.9953 213.814 88.9953 217.701C88.9953 221.588 90.4141 225.341 92.986 228.259C95.5579 231.176 99.1066 233.057 102.967 233.55C106.828 234.042 110.736 233.112 113.96 230.934C117.183 228.756 119.501 225.479 120.479 221.716C120.678 220.935 121.135 220.243 121.775 219.751C122.415 219.26 123.202 218.998 124.009 219.007C124.817 219.016 125.598 219.296 126.226 219.802C126.855 220.308 127.296 221.01 127.477 221.796C128.395 225.705 130.598 229.195 133.734 231.708C136.87 234.221 140.758 235.614 144.779 235.663C148.8 235.712 152.721 234.415 155.918 231.979C159.114 229.543 161.402 226.108 162.416 222.222C162.507 221.879 162.71 221.575 162.993 221.359C163.277 221.144 163.624 221.029 163.98 221.032C164.336 221.036 164.68 221.158 164.959 221.379C165.238 221.601 165.435 221.908 165.519 222.254C166.378 225.914 168.254 229.258 170.931 231.901C173.608 234.544 176.978 236.379 180.653 237.195C181.223 237.318 181.734 237.628 182.105 238.077C182.477 238.525 182.687 239.085 182.701 239.667C182.716 240.248 182.534 240.818 182.186 241.284C181.838 241.75 181.342 242.086 180.78 242.238C177.043 243.258 173.803 245.598 171.663 248.824C169.522 252.049 168.627 255.941 169.142 259.776C169.658 263.611 171.549 267.128 174.465 269.676C177.382 272.224 181.124 273.628 184.999 273.628C188.873 273.628 192.616 272.224 195.533 269.676C198.449 267.128 200.34 263.611 200.856 259.776C201.371 255.941 200.476 252.049 198.335 248.824C196.195 245.598 192.955 243.258 189.218 242.238C188.656 242.086 188.16 241.75 187.812 241.284C187.464 240.818 187.282 240.248 187.297 239.667C187.311 239.085 187.521 238.525 187.892 238.077C188.264 237.628 188.775 237.318 189.345 237.195C192.7 236.447 195.807 234.848 198.364 232.553C200.184 230.918 201.682 228.969 202.791 226.808Z" fill="#0066B3"/>
<path d="M202.791 226.808C203.24 225.934 203.624 225.025 203.941 224.088C204.23 225.036 204.581 225.96 204.991 226.853C206.53 230.206 208.897 233.132 211.889 235.347C215.679 238.152 220.271 239.666 224.988 239.666C229.705 239.666 234.297 238.152 238.087 235.347C241.08 233.132 243.447 230.205 244.986 226.853C245.396 225.96 245.747 225.036 246.036 224.088C246.352 225.025 246.737 225.933 247.186 226.807C248.315 229.007 249.847 230.987 251.712 232.639C254.317 234.947 257.481 236.535 260.89 237.247C264.299 237.959 267.835 237.77 271.148 236.698C274.461 235.626 277.436 233.708 279.779 231.135C282.123 228.562 283.752 225.422 284.507 222.027C285.262 218.632 285.116 215.098 284.084 211.777C283.052 208.455 281.169 205.46 278.621 203.088C276.074 200.717 272.951 199.05 269.561 198.254C269.214 198.172 268.905 197.977 268.682 197.7C268.459 197.423 268.335 197.079 268.329 196.723C268.324 196.368 268.437 196.02 268.652 195.736C268.866 195.452 269.169 195.248 269.513 195.156C273.75 194.056 277.441 191.451 279.894 187.829C282.347 184.207 283.394 179.817 282.838 175.48C282.283 171.143 280.164 167.156 276.878 164.267C273.592 161.378 269.364 159.785 264.985 159.785C260.607 159.785 256.379 161.378 253.093 164.267C249.807 167.156 247.688 171.143 247.132 175.48C246.577 179.817 247.624 184.207 250.077 187.829C252.53 191.451 256.22 194.056 260.458 195.156C260.802 195.246 261.106 195.449 261.322 195.732C261.538 196.015 261.653 196.362 261.649 196.717C261.646 197.073 261.523 197.417 261.302 197.695C261.08 197.974 260.772 198.171 260.426 198.254C257.113 199.029 254.053 200.635 251.535 202.92C249.749 204.54 248.278 206.464 247.185 208.594C246.737 209.468 246.352 210.377 246.036 211.313C245.747 210.366 245.396 209.442 244.986 208.548C243.735 205.824 241.935 203.374 239.687 201.358C236.701 198.68 233.039 196.868 229.096 196.12C228.31 195.971 227.595 195.565 227.066 194.965C226.536 194.365 226.222 193.606 226.173 192.808C226.124 192.01 226.343 191.218 226.795 190.558C227.247 189.898 227.906 189.407 228.669 189.164C231.392 188.289 233.713 186.472 235.213 184.04C236.713 181.608 237.294 178.72 236.851 175.898C236.408 173.076 234.97 170.505 232.797 168.648C230.623 166.791 227.857 165.771 224.996 165.771C222.136 165.771 219.369 166.791 217.196 168.648C215.022 170.505 213.584 173.076 213.141 175.898C212.698 178.72 213.279 181.608 214.779 184.04C216.279 186.472 218.6 188.289 221.323 189.164C222.086 189.409 222.745 189.901 223.195 190.562C223.646 191.223 223.864 192.016 223.813 192.814C223.762 193.612 223.446 194.371 222.915 194.97C222.383 195.569 221.667 195.973 220.88 196.12C216.937 196.868 213.275 198.68 210.289 201.358C208.041 203.374 206.241 205.824 204.991 208.548C204.581 209.442 204.229 210.366 203.941 211.313C203.624 210.375 203.239 209.467 202.791 208.594C201.275 205.638 199.036 203.092 196.264 201.202C192.672 198.755 188.38 197.543 184.037 197.75C179.694 197.958 175.537 199.573 172.195 202.351C168.854 205.129 166.51 208.92 165.519 213.147C165.435 213.493 165.238 213.801 164.959 214.022C164.68 214.243 164.336 214.365 163.98 214.369C163.624 214.373 163.277 214.258 162.993 214.042C162.71 213.827 162.507 213.523 162.416 213.179C161.402 209.293 159.114 205.858 155.918 203.422C152.721 200.986 148.8 199.689 144.779 199.739C140.758 199.788 136.87 201.18 133.734 203.693C130.598 206.207 128.395 209.696 127.477 213.606C127.296 214.392 126.855 215.094 126.226 215.6C125.598 216.105 124.817 216.385 124.009 216.394C123.202 216.404 122.415 216.141 121.775 215.65C121.135 215.159 120.678 214.466 120.479 213.685C119.501 209.923 117.183 206.646 113.96 204.468C110.736 202.289 106.828 201.359 102.967 201.852C99.1066 202.344 95.5579 204.225 92.986 207.143C90.4141 210.06 88.9953 213.814 88.9953 217.701C88.9953 221.588 90.4141 225.341 92.986 228.259C95.5579 231.176 99.1066 233.057 102.967 233.55C106.828 234.042 110.736 233.112 113.96 230.934C117.183 228.756 119.501 225.479 120.479 221.716C120.678 220.935 121.135 220.243 121.775 219.751C122.415 219.26 123.202 218.998 124.009 219.007C124.817 219.016 125.598 219.296 126.226 219.802C126.855 220.308 127.296 221.01 127.477 221.796C128.395 225.705 130.598 229.195 133.734 231.708C136.87 234.221 140.758 235.614 144.779 235.663C148.8 235.712 152.721 234.415 155.918 231.979C159.114 229.543 161.402 226.108 162.416 222.222C162.507 221.879 162.71 221.575 162.993 221.359C163.277 221.144 163.624 221.029 163.98 221.032C164.336 221.036 164.68 221.158 164.959 221.379C165.238 221.601 165.435 221.908 165.519 222.254C166.378 225.914 168.254 229.258 170.931 231.901C173.608 234.544 176.978 236.379 180.653 237.195C181.223 237.318 181.734 237.628 182.105 238.077C182.477 238.525 182.687 239.085 182.701 239.667C182.716 240.248 182.534 240.818 182.186 241.284C181.838 241.75 181.342 242.086 180.78 242.238C177.043 243.258 173.803 245.598 171.663 248.824C169.522 252.049 168.627 255.941 169.142 259.776C169.658 263.611 171.549 267.128 174.465 269.676C177.382 272.224 181.124 273.628 184.999 273.628C188.873 273.628 192.616 272.224 195.533 269.676C198.449 267.128 200.34 263.611 200.856 259.776C201.371 255.941 200.476 252.049 198.335 248.824C196.195 245.598 192.955 243.258 189.218 242.238C188.656 242.086 188.16 241.75 187.812 241.284C187.464 240.818 187.282 240.248 187.297 239.667C187.311 239.085 187.521 238.525 187.892 238.077C188.264 237.628 188.775 237.318 189.345 237.195C192.7 236.447 195.807 234.848 198.364 232.553C200.184 230.918 201.682 228.969 202.791 226.808Z" fill="#0066B3"/>
<path fill-rule="evenodd" clip-rule="evenodd" d="M277.006 137.812L276.626 140.794L275.523 143.587L273.753 146.02L271.435 147.936L268.711 149.23L265.74 149.781L262.739 149.591L259.871 148.662L257.338 147.064L255.263 144.859L253.817 142.217L253.075 139.311V136.314L253.817 133.389L255.265 130.762L257.334 128.563L259.871 126.944L262.745 126.032L265.74 125.843L268.711 126.394L271.435 127.688L273.753 129.604L275.523 132.037L276.626 134.829L277.006 137.812ZM273.755 133.006L274.674 135.33L274.99 137.812L274.674 140.294L273.755 142.618L272.283 144.642L270.352 146.239L268.088 147.314L265.618 147.772L263.117 147.614L260.727 146.839L258.621 145.511L256.895 143.677L255.692 141.48L255.075 139.061V136.563L255.692 134.128L256.895 131.946L258.621 130.112L260.727 128.769L263.117 128.01L265.618 127.851L268.088 128.31L270.352 129.385L272.283 130.982L273.755 133.006Z" fill="#0066B3"/>
<path d="M274.674 135.33L273.755 133.006L272.283 130.982L270.352 129.385L268.088 128.31L265.618 127.851L263.117 128.01L260.727 128.769L258.621 130.112L256.895 131.946L255.692 134.128L255.075 136.563V139.061L255.692 141.48L256.895 143.677L258.621 145.511L260.727 146.839L263.117 147.614L265.618 147.772L268.088 147.314L270.352 146.239L272.283 144.642L273.755 142.618L274.674 140.294L274.99 137.812L274.674 135.33Z" fill="#0066B3"/>
</svg>
