<svg width="370" height="203" viewBox="0 0 370 203" fill="none" xmlns="http://www.w3.org/2000/svg">
<path d="M31.8788 178.036H12.4539V174.434H32.7795C33.2199 174.434 33.6302 174.524 34.0105 174.704C34.3908 174.864 34.721 175.094 35.0012 175.394C35.2814 175.675 35.5016 176.005 35.6617 176.385C35.8219 176.745 35.9019 177.126 35.9019 177.526V195.18H37.283V198.782H11.4631V195.18H15.7564V184.341H19.7795V195.18H24.1629V184.341H28.186V195.18H31.8788V178.036ZM54.3961 173.022C55.537 173.022 56.5978 173.223 57.5786 173.623C58.5793 174.003 59.45 174.514 60.1906 175.154C60.9312 175.855 61.5116 176.645 61.9319 177.526C62.3522 178.407 62.5624 179.387 62.5624 180.468C62.5624 181.389 62.3923 182.23 62.052 182.99C61.7318 183.751 61.2914 184.421 60.731 185.002H67.3061V188.604H61.8118V191.066H63.7633C64.4439 191.066 64.9743 191.267 65.3546 191.667C65.7349 192.047 65.925 192.557 65.925 193.198V200.464H61.9019V194.669H42.477V191.066H46.9804V188.604H41.4862V185.002H48.0613C47.4808 184.421 47.0305 183.751 46.7102 182.99C46.39 182.23 46.2299 181.389 46.2299 180.468C46.2299 179.387 46.43 178.407 46.8303 177.526C47.2506 176.645 47.8311 175.855 48.5717 175.154C49.2922 174.514 50.1529 174.003 51.1536 173.623C52.1544 173.223 53.2352 173.022 54.3961 173.022ZM54.3961 176.625C53.7957 176.625 53.2352 176.725 52.7148 176.925C52.2145 177.126 51.7841 177.396 51.4238 177.736C51.0636 178.076 50.7733 178.487 50.5532 178.967C50.353 179.427 50.2529 179.928 50.2529 180.468C50.2529 181.009 50.353 181.509 50.5532 181.969C50.7733 182.43 51.0636 182.84 51.4238 183.2C51.7841 183.541 52.2145 183.811 52.7148 184.011C53.2352 184.211 53.7957 184.311 54.3961 184.311C55.6171 184.311 56.5978 183.941 57.3384 183.2C58.139 182.46 58.5393 181.549 58.5393 180.468C58.5393 179.928 58.4292 179.427 58.2091 178.967C58.0089 178.487 57.7187 178.076 57.3384 177.736C56.9781 177.396 56.5478 177.126 56.0474 176.925C55.547 176.725 54.9966 176.625 54.3961 176.625ZM51.0035 191.066H57.7887V188.604H51.0035V191.066ZM91.5647 189.055V174.434H95.5878V189.055H91.5647ZM82.798 184.551V181.249H75.5324V184.551H82.798ZM71.5093 184.762V174.434H75.5324V177.646H82.798V174.434H86.791V188.154H74.3915C73.9912 188.154 73.6109 188.074 73.2506 187.914C72.9104 187.734 72.6101 187.494 72.3499 187.193C72.0897 186.873 71.8796 186.513 71.7195 186.113C71.5793 185.692 71.5093 185.242 71.5093 184.762ZM93.4261 190.466C94.0866 190.466 94.607 190.666 94.9873 191.066C95.3876 191.447 95.5878 191.957 95.5878 192.598V200.464H91.5647V194.069H73.0405V190.466H93.4261ZM116.334 200.464V185.302H111.53V181.699H116.334V174.434H120.357V200.464H116.334ZM122.248 200.464V174.434H126.271V200.464H122.248ZM101.532 177.796C101.532 177.336 101.602 176.905 101.743 176.505C101.903 176.085 102.113 175.725 102.373 175.424C102.633 175.124 102.933 174.884 103.274 174.704C103.634 174.524 104.014 174.434 104.415 174.434H113.632V178.036H105.555V189.655H114.472V193.258H104.415C104.014 193.258 103.634 193.178 103.274 193.018C102.933 192.838 102.633 192.598 102.373 192.297C102.113 191.977 101.903 191.617 101.743 191.216C101.602 190.796 101.532 190.346 101.532 189.865V177.796ZM138.821 174.404C139.982 174.404 141.053 174.644 142.034 175.124C143.034 175.584 143.905 176.235 144.646 177.076C145.346 177.916 145.906 178.897 146.327 180.018C146.747 181.139 146.957 182.36 146.957 183.681C146.957 185.002 146.747 186.223 146.327 187.343C145.906 188.464 145.346 189.455 144.646 190.316C143.905 191.156 143.034 191.807 142.034 192.267C141.053 192.728 139.982 192.958 138.821 192.958C137.62 192.958 136.529 192.728 135.549 192.267C134.588 191.807 133.737 191.156 132.997 190.316C132.276 189.455 131.706 188.464 131.285 187.343C130.885 186.223 130.685 185.002 130.685 183.681C130.685 182.36 130.885 181.139 131.285 180.018C131.706 178.897 132.276 177.916 132.997 177.076C133.737 176.235 134.588 175.584 135.549 175.124C136.529 174.644 137.62 174.404 138.821 174.404ZM138.821 178.006C137.62 178.006 136.629 178.547 135.849 179.628C135.108 180.668 134.738 182.019 134.738 183.681C134.738 185.342 135.108 186.693 135.849 187.734C136.629 188.815 137.62 189.355 138.821 189.355C140.002 189.355 140.983 188.815 141.763 187.734C142.544 186.693 142.934 185.342 142.934 183.681C142.934 182.059 142.544 180.708 141.763 179.628C140.983 178.547 140.002 178.006 138.821 178.006ZM155.664 200.464H151.641V174.434H155.664V200.464ZM185.657 200.464H181.634V186.353H177.461V182.75H181.634V174.434H185.657V200.464ZM161.579 177.796C161.579 177.336 161.649 176.905 161.789 176.505C161.949 176.085 162.159 175.725 162.419 175.424C162.679 175.124 162.98 174.884 163.32 174.704C163.68 174.524 164.06 174.434 164.461 174.434H176.8V178.036H165.602V182.75H176.5V186.353H165.602V191.607H177.491V195.21H164.461C164.06 195.21 163.68 195.119 163.32 194.939C162.98 194.759 162.679 194.519 162.419 194.219C162.159 193.919 161.949 193.568 161.789 193.168C161.649 192.748 161.579 192.307 161.579 191.847V177.796ZM204.512 173.022C205.592 173.022 206.563 173.193 207.424 173.533C208.284 173.853 209.045 174.283 209.706 174.824C210.366 175.424 210.876 176.125 211.237 176.925C211.597 177.706 211.777 178.557 211.777 179.477C211.777 180.438 211.597 181.309 211.237 182.089C210.876 182.85 210.366 183.531 209.706 184.131C209.045 184.691 208.284 185.132 207.424 185.452C206.563 185.772 205.592 185.932 204.512 185.932C203.431 185.932 202.45 185.772 201.569 185.452C200.709 185.132 199.948 184.691 199.288 184.131C198.647 183.531 198.147 182.85 197.786 182.089C197.426 181.309 197.246 180.438 197.246 179.477C197.246 178.557 197.426 177.706 197.786 176.925C198.147 176.125 198.647 175.424 199.288 174.824C199.948 174.283 200.709 173.853 201.569 173.533C202.45 173.193 203.431 173.022 204.512 173.022ZM204.512 176.475C203.551 176.475 202.77 176.755 202.17 177.316C201.569 177.856 201.269 178.577 201.269 179.477C201.269 180.398 201.569 181.129 202.17 181.669C202.77 182.21 203.551 182.48 204.512 182.48C205.472 182.48 206.253 182.21 206.853 181.669C207.454 181.129 207.754 180.398 207.754 179.477C207.754 178.577 207.454 177.856 206.853 177.316C206.253 176.755 205.472 176.475 204.512 176.475ZM211.747 189.655C212.288 190.256 212.708 190.936 213.008 191.697C213.308 192.437 213.458 193.208 213.458 194.009C213.458 195.23 213.238 196.32 212.798 197.281C212.378 198.262 211.777 199.083 210.997 199.743C209.355 201.144 207.194 201.845 204.512 201.845C203.191 201.845 201.98 201.664 200.879 201.304C199.798 200.964 198.867 200.444 198.087 199.743C196.405 198.402 195.565 196.491 195.565 194.009C195.565 193.168 195.705 192.387 195.985 191.667C196.285 190.926 196.706 190.256 197.246 189.655H191.602V186.443H217.421V189.655H211.747ZM204.512 189.775C203.01 189.775 201.829 190.166 200.969 190.946C200.108 191.707 199.678 192.728 199.678 194.009C199.678 195.33 200.108 196.36 200.969 197.101C201.829 197.862 203.01 198.242 204.512 198.242C206.033 198.242 207.214 197.862 208.054 197.101C208.915 196.36 209.345 195.33 209.345 194.009C209.345 192.728 208.915 191.707 208.054 190.946C207.214 190.166 206.033 189.775 204.512 189.775ZM234.535 173.022C235.615 173.022 236.586 173.193 237.447 173.533C238.308 173.853 239.068 174.283 239.729 174.824C240.389 175.424 240.9 176.125 241.26 176.925C241.62 177.706 241.8 178.557 241.8 179.477C241.8 180.318 241.66 181.079 241.38 181.759C241.12 182.44 240.749 183.04 240.269 183.561H241.95V186.443H247.445V189.655H241.77C242.311 190.276 242.731 190.956 243.031 191.697C243.331 192.437 243.481 193.208 243.481 194.009C243.481 195.23 243.261 196.32 242.821 197.281C242.401 198.262 241.8 199.083 241.02 199.743C239.378 201.144 237.217 201.845 234.535 201.845C233.214 201.845 232.003 201.664 230.902 201.304C229.821 200.964 228.89 200.444 228.11 199.743C226.428 198.402 225.588 196.491 225.588 194.009C225.588 193.168 225.728 192.387 226.008 191.667C226.308 190.926 226.729 190.256 227.269 189.655H221.625V186.443H227.119V183.561H228.8C228.34 183.04 227.97 182.44 227.689 181.759C227.409 181.079 227.269 180.318 227.269 179.477C227.269 178.557 227.449 177.706 227.809 176.925C228.17 176.125 228.67 175.424 229.311 174.824C229.971 174.283 230.732 173.853 231.592 173.533C232.473 173.193 233.454 173.022 234.535 173.022ZM237.927 185.242C237.407 185.502 236.856 185.682 236.276 185.782C235.716 185.882 235.135 185.932 234.535 185.932C233.914 185.932 233.314 185.882 232.733 185.782C232.153 185.682 231.622 185.502 231.142 185.242V186.443H237.927V185.242ZM234.535 176.475C233.574 176.475 232.793 176.755 232.193 177.316C231.592 177.856 231.292 178.577 231.292 179.477C231.292 180.398 231.592 181.129 232.193 181.669C232.793 182.21 233.574 182.48 234.535 182.48C235.495 182.48 236.276 182.21 236.876 181.669C237.477 181.129 237.777 180.398 237.777 179.477C237.777 178.577 237.477 177.856 236.876 177.316C236.276 176.755 235.495 176.475 234.535 176.475ZM234.535 189.775C233.033 189.775 231.853 190.166 230.992 190.946C230.131 191.707 229.701 192.728 229.701 194.009C229.701 195.33 230.131 196.36 230.992 197.101C231.853 197.862 233.033 198.242 234.535 198.242C236.056 198.242 237.237 197.862 238.077 197.101C238.938 196.36 239.368 195.33 239.368 194.009C239.368 192.728 238.938 191.707 238.077 190.946C237.237 190.166 236.056 189.775 234.535 189.775ZM271.703 191.997V186.593H267.32V182.99H271.703V179.568H267.32V175.965H271.703V174.434H275.726V191.997H271.703ZM258.733 173.533C259.874 173.533 260.935 173.743 261.916 174.163C262.896 174.564 263.747 175.094 264.468 175.755C265.208 176.475 265.779 177.306 266.179 178.246C266.579 179.167 266.779 180.178 266.779 181.279C266.779 182.36 266.579 183.37 266.179 184.311C265.779 185.252 265.208 186.073 264.468 186.773C263.747 187.474 262.896 188.024 261.916 188.424C260.935 188.805 259.874 188.995 258.733 188.995C257.532 188.995 256.441 188.805 255.461 188.424C254.48 188.024 253.629 187.474 252.909 186.773C252.168 186.073 251.598 185.252 251.197 184.311C250.817 183.37 250.627 182.36 250.627 181.279C250.627 180.178 250.817 179.167 251.197 178.246C251.598 177.306 252.168 176.475 252.909 175.755C253.629 175.094 254.48 174.564 255.461 174.163C256.441 173.743 257.532 173.533 258.733 173.533ZM258.733 177.136C258.133 177.136 257.582 177.246 257.082 177.466C256.582 177.666 256.151 177.956 255.791 178.337C255.431 178.717 255.15 179.157 254.95 179.658C254.75 180.158 254.65 180.698 254.65 181.279C254.65 181.879 254.75 182.43 254.95 182.93C255.15 183.43 255.431 183.861 255.791 184.221C256.151 184.581 256.582 184.872 257.082 185.092C257.582 185.292 258.133 185.392 258.733 185.392C259.314 185.392 259.844 185.292 260.324 185.092C260.825 184.872 261.255 184.581 261.615 184.221C261.976 183.861 262.256 183.43 262.456 182.93C262.656 182.43 262.756 181.879 262.756 181.279C262.756 180.138 262.376 179.157 261.615 178.337C260.875 177.536 259.914 177.136 258.733 177.136ZM257.532 190.886V196.861H275.876V200.464H256.632C255.611 200.464 254.83 200.153 254.29 199.533C253.749 198.932 253.479 198.182 253.479 197.281V190.886H257.532ZM292.569 200.464V191.036H281.671V187.434H302.087V178.036H282.662V174.434H302.987C303.428 174.434 303.838 174.524 304.218 174.704C304.598 174.864 304.929 175.094 305.209 175.394C305.489 175.675 305.709 176.005 305.869 176.385C306.03 176.745 306.11 177.126 306.11 177.526V187.434H307.491V191.036H296.592V200.464H292.569ZM318.179 183.771C318.039 184.231 317.759 184.751 317.338 185.332C316.938 185.912 316.418 186.463 315.777 186.983C315.177 187.504 314.466 187.964 313.645 188.364C312.825 188.745 311.934 188.985 310.973 189.085V185.332C312.394 184.972 313.615 184.161 314.636 182.9C315.657 181.619 316.167 179.828 316.167 177.526V174.434H320.19V177.526C320.19 179.808 320.691 181.599 321.692 182.9C322.712 184.161 323.943 184.972 325.384 185.332V189.085C324.424 188.985 323.533 188.745 322.712 188.364C321.892 187.964 321.181 187.504 320.581 186.983C319.92 186.463 319.38 185.912 318.96 185.332C318.559 184.751 318.299 184.231 318.179 183.771ZM326.735 192.057V182.21H323.193V178.607H326.735V174.434H330.789V192.057H326.735ZM332.41 192.057V174.434H336.433V192.057H332.41ZM317.608 190.886V196.861H336.583V200.464H316.738C315.717 200.464 314.936 200.153 314.396 199.533C313.856 198.932 313.585 198.182 313.585 197.281V190.886H317.608ZM365.796 200.464H361.772V186.353H357.599V182.75H361.772V174.434H365.796V200.464ZM341.717 177.796C341.717 177.336 341.787 176.905 341.927 176.505C342.087 176.085 342.297 175.725 342.558 175.424C342.818 175.124 343.118 174.884 343.458 174.704C343.819 174.524 344.199 174.434 344.599 174.434H356.939V178.036H345.74V182.75H356.638V186.353H345.74V191.607H357.629V195.21H344.599C344.199 195.21 343.819 195.119 343.458 194.939C343.118 194.759 342.818 194.519 342.558 194.219C342.297 193.919 342.087 193.568 341.927 193.168C341.787 192.748 341.717 192.307 341.717 191.847V177.796Z" fill="#5A5A5A"/>
<path d="M151 12.5C151 19.4036 145.404 25 138.5 25C131.596 25 126 19.4036 126 12.5C126 5.59644 131.596 0 138.5 0C145.404 0 151 5.59644 151 12.5Z" fill="#0066B3"/>
<path fill-rule="evenodd" clip-rule="evenodd" d="M244 92C244 124.585 217.585 151 185 151C152.415 151 126 124.585 126 92V35C126 33.8954 126.895 33 128 33H149C150.105 33 151 33.8954 151 35V39.9145C151 41.5364 152.841 42.4999 154.224 41.6527C163.184 36.164 173.723 33 185 33C217.585 33 244 59.4152 244 92ZM185 126C203.778 126 219 110.778 219 92C219 73.2223 203.778 58 185 58C166.222 58 151 73.2223 151 92C151 110.778 166.222 126 185 126Z" fill="#0066B3"/>
<path fill-rule="evenodd" clip-rule="evenodd" d="M252 92C252 59.4152 278.415 33 311 33C343.585 33 370 59.4152 370 92V149C370 150.105 369.105 151 368 151H347C345.895 151 345 150.105 345 149V144.085C345 142.464 343.159 141.5 341.776 142.347C332.816 147.836 322.277 151 311 151C278.415 151 252 124.585 252 92ZM311 58C292.222 58 277 73.2223 277 92C277 110.778 292.222 126 311 126C329.778 126 345 110.778 345 92C345 73.2223 329.778 58 311 58Z" fill="#0066B3"/>
<path fill-rule="evenodd" clip-rule="evenodd" d="M59 126C45.4716 126 33.7886 118.099 28.3139 106.659C27.7103 105.398 28.6723 104 30.0704 104H115.15C116.098 104 116.92 103.334 117.086 102.4C117.687 99.0242 118 95.5487 118 92C118 87.8882 117.579 83.8746 116.779 80C111.235 53.1693 87.473 33 59 33C30.527 33 6.76479 53.1693 1.22117 80C0.420618 83.8746 0 87.8882 0 92C0 96.1118 0.420618 100.125 1.22117 104C6.76479 130.831 30.527 151 59 151C82.7587 151 103.237 136.957 112.588 116.718C113.182 115.432 112.218 114 110.802 114H85.8491C85.2622 114 84.7073 114.26 84.3154 114.697C78.0906 121.635 69.055 126 59 126ZM59 58C45.4716 58 33.7886 65.9011 28.3139 77.3405C27.7103 78.6017 28.6723 80 30.0704 80H87.9296C89.3277 80 90.2897 78.6017 89.6861 77.3405C84.2114 65.9011 72.5284 58 59 58Z" fill="#0066B3"/>
</svg>
