<svg width="740" height="151" viewBox="0 0 740 151" fill="none" xmlns="http://www.w3.org/2000/svg">
<path d="M392.479 78.9997V49.6965H405.668V53.0681H397.438V61.9434H404.231V65.662H397.438V75.7273H405.668V78.9997H392.479Z" fill="black"/>
<path d="M414.787 79.3964C413.564 79.3964 412.556 79.2476 411.763 78.9501C410.969 78.6196 410.341 78.1733 409.879 77.6114C409.449 77.0164 409.151 76.2892 408.986 75.4298C408.821 74.5373 408.738 73.5291 408.738 72.4052V60.1584C408.738 59.2659 408.821 58.4561 408.986 57.7288C409.185 56.9686 409.499 56.324 409.928 55.7951C410.358 55.2332 410.936 54.8035 411.664 54.506C412.391 54.1754 413.316 54.0102 414.44 54.0102C415.762 54.0102 416.787 54.2085 417.514 54.6052C418.275 55.0018 418.82 55.4811 419.151 56.043V47.7628H422.225V78.9997H420.093L419.795 76.6693C419.597 77.099 419.299 77.5288 418.903 77.9585C418.539 78.3551 418.027 78.7022 417.366 78.9997C416.738 79.2641 415.878 79.3964 414.787 79.3964ZM415.333 77.5122C416.291 77.5122 417.035 77.347 417.564 77.0164C418.093 76.6528 418.456 76.19 418.655 75.6281C418.886 75.0662 419.018 74.4547 419.051 73.7936C419.118 73.0994 419.151 72.4218 419.151 71.7607V58.3238C419.051 58.0263 418.87 57.6958 418.605 57.3322C418.374 56.9686 418.01 56.6546 417.514 56.3901C417.019 56.1257 416.341 55.9935 415.481 55.9935C414.523 55.9935 413.796 56.1257 413.3 56.3901C412.804 56.6546 412.44 57.0182 412.209 57.4809C412.011 57.9107 411.895 58.4065 411.862 58.9684C411.829 59.5303 411.812 60.1088 411.812 60.7038V72.8019C411.812 73.5952 411.862 74.3555 411.961 75.0827C412.06 75.8099 412.358 76.4049 412.854 76.8677C413.349 77.2974 414.176 77.5122 415.333 77.5122Z" fill="black"/>
<path d="M432.847 79.3964C431.128 79.3964 429.855 79.0989 429.029 78.5039C428.203 77.8758 427.674 77.066 427.442 76.0743C427.211 75.0827 427.095 74.0249 427.095 72.9011V54.4564H430.169V72.5044C430.169 73.2316 430.203 73.9588 430.269 74.686C430.368 75.3802 430.682 75.9587 431.211 76.4214C431.74 76.8511 432.616 77.066 433.839 77.066C434.698 77.066 435.376 76.9172 435.871 76.6198C436.367 76.3223 436.747 75.9752 437.012 75.5785C437.276 75.1488 437.442 74.7687 437.508 74.4381V54.4564H440.582V78.9997H437.954L437.706 76.3223C437.442 77.1156 436.896 77.8263 436.07 78.4543C435.276 79.0823 434.202 79.3964 432.847 79.3964Z" fill="black"/>
<path d="M445.396 67.0008V64.8191H455.461V67.0008H445.396Z" fill="black"/>
<path d="M460.123 78.9997V49.6965H469.99C471.775 49.6965 473.163 50.1097 474.155 50.9361C475.146 51.7624 475.642 52.9855 475.642 54.6052V58.0263C475.642 58.9188 475.51 59.7287 475.245 60.4559C475.014 61.15 474.65 61.7285 474.155 62.1913C473.725 62.621 473.212 62.9185 472.617 63.0838C472.056 63.249 471.527 63.3482 471.031 63.3812C471.626 63.3812 472.204 63.4474 472.766 63.5796C473.328 63.7118 473.841 63.9762 474.303 64.3729C474.832 64.8357 475.245 65.4307 475.543 66.1579C475.873 66.8851 476.039 67.7776 476.039 68.8353V72.9011C476.039 74.5538 475.758 75.8264 475.196 76.7189C474.667 77.5783 473.907 78.1733 472.915 78.5039C471.956 78.8344 470.799 78.9997 469.444 78.9997H460.123ZM464.883 76.471H468.403C468.998 76.471 469.494 76.3718 469.89 76.1735C470.32 75.9752 470.651 75.595 470.882 75.0331C471.113 74.4712 471.229 73.6613 471.229 72.6036V68.8849C471.229 67.4966 470.932 66.5876 470.337 66.1579C469.775 65.6951 469.031 65.4637 468.105 65.4637H464.883V76.471ZM464.883 62.3896H468.006C468.998 62.3896 469.758 62.0921 470.287 61.4971C470.816 60.9021 471.08 59.927 471.08 58.5718V55.4481C471.08 54.3572 470.833 53.5639 470.337 53.0681C469.874 52.5723 469.279 52.3244 468.552 52.3244H464.883V62.3896Z" fill="black"/>
<path d="M480.511 78.9997V54.4564H483.536V78.9997H480.511ZM482.048 51.4319C481.519 51.4319 481.073 51.2666 480.709 50.9361C480.346 50.5725 480.164 50.1262 480.164 49.5973C480.164 49.1015 480.346 48.6883 480.709 48.3578C481.073 47.9942 481.519 47.8124 482.048 47.8124C482.544 47.8124 482.974 47.9942 483.337 48.3578C483.734 48.6883 483.932 49.1015 483.932 49.5973C483.932 50.1262 483.734 50.5725 483.337 50.9361C482.974 51.2666 482.544 51.4319 482.048 51.4319Z" fill="black"/>
<path d="M494.443 84.8009C494.08 84.8009 493.65 84.7843 493.154 84.7513C492.658 84.7182 492.163 84.6852 491.667 84.6521C491.204 84.6191 490.791 84.5695 490.427 84.5034C490.097 84.4703 489.882 84.4372 489.783 84.4042V82.6192C490.179 82.6523 490.741 82.7184 491.468 82.8176C492.229 82.9167 492.906 82.9663 493.501 82.9663C493.898 82.9663 494.377 82.9332 494.939 82.8671C495.501 82.8341 496.047 82.6523 496.575 82.3217C497.137 82.0242 497.6 81.5284 497.964 80.8343C498.36 80.1732 498.559 79.2146 498.559 77.9585V74.5869C498.36 75.2149 498.046 75.7769 497.617 76.2727C497.22 76.7685 496.691 77.1652 496.03 77.4627C495.369 77.7271 494.559 77.8593 493.601 77.8593C493.039 77.8593 492.427 77.8097 491.766 77.7106C491.138 77.5783 490.543 77.3139 489.981 76.9172C489.452 76.5206 489.022 75.8925 488.692 75.0331C488.361 74.1406 488.196 72.9176 488.196 71.364V59.9601C488.196 58.704 488.345 57.6958 488.642 56.9355C488.94 56.1422 489.336 55.5472 489.832 55.1506C490.328 54.7539 490.89 54.4895 491.518 54.3572C492.179 54.225 492.89 54.1589 493.65 54.1589C494.675 54.1589 495.666 54.3077 496.625 54.6052C497.584 54.9027 498.228 55.5307 498.559 56.4893L498.906 54.5556H501.583V76.9172C501.583 78.2064 501.418 79.3303 501.087 80.2889C500.79 81.2805 500.344 82.1069 499.749 82.768C499.154 83.4621 498.41 83.9745 497.518 84.305C496.625 84.6356 495.6 84.8009 494.443 84.8009ZM494.691 75.876C495.782 75.876 496.592 75.6116 497.121 75.0827C497.683 74.5208 498.046 73.8266 498.212 73.0002C498.41 72.1408 498.509 71.2814 498.509 70.422V58.3734C498.41 58.0759 498.212 57.7454 497.914 57.3818C497.65 57.0182 497.253 56.7041 496.724 56.4397C496.228 56.1753 495.551 56.043 494.691 56.043C493.468 56.043 492.592 56.3405 492.063 56.9355C491.535 57.5305 491.27 58.6213 491.27 60.208V72.1078C491.27 72.9672 491.386 73.6613 491.617 74.1902C491.849 74.7191 492.146 75.0992 492.51 75.3306C492.906 75.562 493.303 75.7107 493.7 75.7769C494.096 75.843 494.427 75.876 494.691 75.876Z" fill="black"/>
<path d="M511.967 79.3964C510.744 79.3964 509.736 79.2476 508.942 78.9501C508.149 78.6196 507.521 78.1733 507.058 77.6114C506.629 77.0164 506.331 76.2892 506.166 75.4298C506.001 74.5373 505.918 73.5291 505.918 72.4052V60.1584C505.918 59.2659 506.001 58.4561 506.166 57.7288C506.364 56.9686 506.678 56.324 507.108 55.7951C507.538 55.2332 508.116 54.8035 508.843 54.506C509.57 54.1754 510.496 54.0102 511.62 54.0102C512.942 54.0102 513.967 54.2085 514.694 54.6052C515.454 55.0018 516 55.4811 516.33 56.043V47.7628H519.404V78.9997H517.272L516.975 76.6693C516.776 77.099 516.479 77.5288 516.082 77.9585C515.719 78.3551 515.206 78.7022 514.545 78.9997C513.917 79.2641 513.058 79.3964 511.967 79.3964ZM512.512 77.5122C513.471 77.5122 514.215 77.347 514.744 77.0164C515.272 76.6528 515.636 76.19 515.834 75.6281C516.066 75.0662 516.198 74.4547 516.231 73.7936C516.297 73.0994 516.33 72.4218 516.33 71.7607V58.3238C516.231 58.0263 516.049 57.6958 515.785 57.3322C515.553 56.9686 515.19 56.6546 514.694 56.3901C514.198 56.1257 513.521 55.9935 512.661 55.9935C511.703 55.9935 510.975 56.1257 510.479 56.3901C509.984 56.6546 509.62 57.0182 509.389 57.4809C509.19 57.9107 509.075 58.4065 509.042 58.9684C509.009 59.5303 508.992 60.1088 508.992 60.7038V72.8019C508.992 73.5952 509.042 74.3555 509.141 75.0827C509.24 75.8099 509.537 76.4049 510.033 76.8677C510.529 77.2974 511.355 77.5122 512.512 77.5122Z" fill="black"/>
<path d="M529.084 79.3468C528.324 79.3468 527.547 79.2311 526.754 78.9997C525.994 78.8014 525.333 78.3221 524.771 77.5618C524.242 76.7685 523.977 75.5455 523.977 73.8927V71.5128C523.977 69.86 524.473 68.5378 525.465 67.5462C526.49 66.5215 527.878 65.6125 529.63 64.8191C530.754 64.2572 531.663 63.7614 532.357 63.3317C533.084 62.9019 533.63 62.4227 533.993 61.8938C534.357 61.3649 534.539 60.6542 534.539 59.7617V58.7205C534.539 57.9272 534.373 57.3157 534.043 56.8859C533.712 56.4562 533.266 56.1587 532.704 55.9935C532.175 55.8282 531.613 55.7456 531.018 55.7456C529.531 55.7456 528.556 56.1587 528.093 56.9851C527.63 57.7784 527.399 58.9684 527.399 60.555V62.6375H524.572V60.2576C524.572 59.0345 524.738 57.9602 525.068 57.0347C525.399 56.0761 526.027 55.3324 526.952 54.8035C527.878 54.2416 529.233 53.9606 531.018 53.9606C532.902 53.9606 534.307 54.1754 535.233 54.6052C536.191 55.0349 536.819 55.6464 537.117 56.4397C537.447 57.233 537.613 58.1751 537.613 59.2659V78.9997H534.588L534.539 75.9256C534.142 77.0495 533.431 77.9089 532.407 78.5039C531.382 79.0658 530.274 79.3468 529.084 79.3468ZM530.225 77.2643C531.712 77.2643 532.787 76.7354 533.448 75.6777C534.142 74.6199 534.489 73.2151 534.489 71.4632V63.6292C534.158 64.158 533.613 64.6373 532.853 65.067C532.092 65.4968 531.316 65.9265 530.522 66.3562C529.399 67.0173 528.523 67.7114 527.895 68.4387C527.3 69.1328 527.002 70.1079 527.002 71.364V73.2977C527.002 74.4877 527.167 75.3637 527.498 75.9256C527.828 76.4875 528.242 76.8511 528.737 77.0164C529.233 77.1817 529.729 77.2643 530.225 77.2643Z" fill="black"/>
<path d="M547.746 79.0493C547.019 79.0493 546.358 78.9667 545.763 78.8014C545.168 78.6361 544.655 78.3717 544.226 78.0081C543.796 77.6114 543.465 77.1156 543.234 76.5206C543.003 75.8925 542.887 75.1158 542.887 74.1902V56.3901H540.705V54.8035L543.085 54.4564L543.631 49.8452H545.961V54.4564H551.266V56.3901H545.961V73.6448C545.961 74.5703 546.126 75.3471 546.457 75.9752C546.787 76.6032 547.515 76.9172 548.639 76.9172C549.101 76.9172 549.597 76.9007 550.126 76.8677C550.655 76.8016 551.035 76.7685 551.266 76.7685V78.7518C551.002 78.7518 550.539 78.8014 549.878 78.9005C549.217 78.9997 548.506 79.0493 547.746 79.0493Z" fill="black"/>
<path d="M558.911 79.3468C558.151 79.3468 557.374 79.2311 556.581 78.9997C555.821 78.8014 555.16 78.3221 554.598 77.5618C554.069 76.7685 553.804 75.5455 553.804 73.8927V71.5128C553.804 69.86 554.3 68.5378 555.292 67.5462C556.317 66.5215 557.705 65.6125 559.457 64.8191C560.581 64.2572 561.49 63.7614 562.184 63.3317C562.911 62.9019 563.456 62.4227 563.82 61.8938C564.184 61.3649 564.365 60.6542 564.365 59.7617V58.7205C564.365 57.9272 564.2 57.3157 563.87 56.8859C563.539 56.4562 563.093 56.1587 562.531 55.9935C562.002 55.8282 561.44 55.7456 560.845 55.7456C559.358 55.7456 558.383 56.1587 557.92 56.9851C557.457 57.7784 557.226 58.9684 557.226 60.555V62.6375H554.399V60.2576C554.399 59.0345 554.565 57.9602 554.895 57.0347C555.226 56.0761 555.854 55.3324 556.779 54.8035C557.705 54.2416 559.06 53.9606 560.845 53.9606C562.729 53.9606 564.134 54.1754 565.06 54.6052C566.018 55.0349 566.646 55.6464 566.944 56.4397C567.274 57.233 567.44 58.1751 567.44 59.2659V78.9997H564.415L564.365 75.9256C563.969 77.0495 563.258 77.9089 562.233 78.5039C561.209 79.0658 560.101 79.3468 558.911 79.3468ZM560.052 77.2643C561.539 77.2643 562.614 76.7354 563.275 75.6777C563.969 74.6199 564.316 73.2151 564.316 71.4632V63.6292C563.985 64.158 563.44 64.6373 562.68 65.067C561.919 65.4968 561.143 65.9265 560.349 66.3562C559.225 67.0173 558.349 67.7114 557.721 68.4387C557.126 69.1328 556.829 70.1079 556.829 71.364V73.2977C556.829 74.4877 556.994 75.3637 557.325 75.9256C557.655 76.4875 558.069 76.8511 558.564 77.0164C559.06 77.1817 559.556 77.2643 560.052 77.2643Z" fill="black"/>
<path d="M579.337 78.9997L585.039 49.6965H591.683L597.286 78.9997H592.03L590.84 73.0498H585.485L584.394 78.9997H579.337ZM585.584 70.6203H590.79L588.212 54.3077L585.584 70.6203Z" fill="black"/>
<path d="M600.448 84.7513V54.4564H603.324L603.423 56.638C603.721 55.9439 604.2 55.3489 604.861 54.8531C605.522 54.3572 606.613 54.1093 608.134 54.1093C609.687 54.1093 610.877 54.3738 611.704 54.9027C612.53 55.4315 613.108 56.1587 613.439 57.0843C613.769 58.0098 613.935 59.0841 613.935 60.3071V72.4052C613.935 73.7605 613.786 74.967 613.488 76.0248C613.191 77.0825 612.629 77.9089 611.803 78.5039C610.976 79.0658 609.753 79.3468 608.134 79.3468C606.878 79.3468 605.869 79.1485 605.109 78.7518C604.382 78.3551 603.836 77.8593 603.473 77.2643V84.7513H600.448ZM607.192 77.4627C608.117 77.4627 608.828 77.3304 609.324 77.066C609.819 76.8016 610.183 76.4545 610.414 76.0248C610.646 75.562 610.778 75.0662 610.811 74.5373C610.844 73.9754 610.861 73.3804 610.861 72.7523V60.803C610.861 60.1749 610.844 59.5965 610.811 59.0676C610.778 58.5056 610.646 57.9933 610.414 57.5305C610.183 57.0678 609.819 56.7041 609.324 56.4397C608.828 56.1753 608.117 56.043 607.192 56.043C606.266 56.043 605.555 56.2083 605.059 56.5389C604.564 56.8694 604.2 57.3157 603.969 57.8776C603.737 58.4065 603.605 58.9849 603.572 59.613C603.539 60.241 603.522 60.836 603.522 61.3979V73.0994C603.522 73.8927 603.589 74.6365 603.721 75.3306C603.886 75.9917 604.217 76.5206 604.712 76.9172C605.241 77.2809 606.068 77.4627 607.192 77.4627Z" fill="black"/>
<path d="M618.558 84.7513V54.4564H621.433L621.532 56.638C621.83 55.9439 622.309 55.3489 622.97 54.8531C623.631 54.3572 624.722 54.1093 626.243 54.1093C627.796 54.1093 628.986 54.3738 629.813 54.9027C630.639 55.4315 631.218 56.1587 631.548 57.0843C631.879 58.0098 632.044 59.0841 632.044 60.3071V72.4052C632.044 73.7605 631.895 74.967 631.598 76.0248C631.3 77.0825 630.738 77.9089 629.912 78.5039C629.086 79.0658 627.862 79.3468 626.243 79.3468C624.987 79.3468 623.979 79.1485 623.218 78.7518C622.491 78.3551 621.946 77.8593 621.582 77.2643V84.7513H618.558ZM625.301 77.4627C626.226 77.4627 626.937 77.3304 627.433 77.066C627.929 76.8016 628.292 76.4545 628.524 76.0248C628.755 75.562 628.887 75.0662 628.92 74.5373C628.953 73.9754 628.97 73.3804 628.97 72.7523V60.803C628.97 60.1749 628.953 59.5965 628.92 59.0676C628.887 58.5056 628.755 57.9933 628.524 57.5305C628.292 57.0678 627.929 56.7041 627.433 56.4397C626.937 56.1753 626.226 56.043 625.301 56.043C624.375 56.043 623.665 56.2083 623.169 56.5389C622.673 56.8694 622.309 57.3157 622.078 57.8776C621.846 58.4065 621.714 58.9849 621.681 59.613C621.648 60.241 621.632 60.836 621.632 61.3979V73.0994C621.632 73.8927 621.698 74.6365 621.83 75.3306C621.995 75.9917 622.326 76.5206 622.822 76.9172C623.35 77.2809 624.177 77.4627 625.301 77.4627Z" fill="black"/>
<path d="M636.667 78.9997V47.5645H639.691V78.9997H636.667Z" fill="black"/>
<path d="M644.947 78.9997V54.4564H647.971V78.9997H644.947ZM646.484 51.4319C645.955 51.4319 645.509 51.2666 645.145 50.9361C644.781 50.5725 644.6 50.1262 644.6 49.5973C644.6 49.1015 644.781 48.6883 645.145 48.3578C645.509 47.9942 645.955 47.8124 646.484 47.8124C646.979 47.8124 647.409 47.9942 647.773 48.3578C648.169 48.6883 648.368 49.1015 648.368 49.5973C648.368 50.1262 648.169 50.5725 647.773 50.9361C647.409 51.2666 646.979 51.4319 646.484 51.4319Z" fill="black"/>
<path d="M659.523 79.446C657.904 79.446 656.582 79.2642 655.557 78.9005C654.532 78.5039 653.788 77.8097 653.326 76.8181C652.863 75.7934 652.631 74.3059 652.631 72.3557V60.2576C652.631 57.8445 653.144 56.2083 654.169 55.3489C655.226 54.4564 656.962 54.0102 659.375 54.0102C661.722 54.0102 663.407 54.4399 664.432 55.2993C665.49 56.1587 666.019 57.7454 666.019 60.0592V63.2821H662.945V59.9601C662.945 58.5387 662.713 57.514 662.25 56.8859C661.788 56.2248 660.829 55.8943 659.375 55.8943C657.92 55.8943 656.945 56.2248 656.449 56.8859C655.954 57.514 655.706 58.5387 655.706 59.9601V73.149C655.706 74.7356 655.954 75.8595 656.449 76.5206C656.945 77.1486 657.953 77.4627 659.474 77.4627C660.862 77.4627 661.788 77.1486 662.25 76.5206C662.713 75.8925 662.945 74.7687 662.945 73.149V69.827H666.019V72.3557C666.019 74.2398 665.787 75.6942 665.325 76.7189C664.862 77.7436 664.151 78.4543 663.193 78.851C662.234 79.2476 661.011 79.446 659.523 79.446Z" fill="black"/>
<path d="M674.878 79.3468C674.118 79.3468 673.341 79.2311 672.548 78.9997C671.787 78.8014 671.126 78.3221 670.564 77.5618C670.036 76.7685 669.771 75.5455 669.771 73.8927V71.5128C669.771 69.86 670.267 68.5378 671.259 67.5462C672.283 66.5215 673.672 65.6125 675.424 64.8191C676.547 64.2572 677.456 63.7614 678.151 63.3317C678.878 62.9019 679.423 62.4227 679.787 61.8938C680.15 61.3649 680.332 60.6542 680.332 59.7617V58.7205C680.332 57.9272 680.167 57.3157 679.836 56.8859C679.506 56.4562 679.06 56.1587 678.498 55.9935C677.969 55.8282 677.407 55.7456 676.812 55.7456C675.324 55.7456 674.349 56.1587 673.886 56.9851C673.424 57.7784 673.192 58.9684 673.192 60.555V62.6375H670.366V60.2576C670.366 59.0345 670.531 57.9602 670.862 57.0347C671.192 56.0761 671.821 55.3324 672.746 54.8035C673.672 54.2416 675.027 53.9606 676.812 53.9606C678.696 53.9606 680.101 54.1754 681.026 54.6052C681.985 55.0349 682.613 55.6464 682.91 56.4397C683.241 57.233 683.406 58.1751 683.406 59.2659V78.9997H680.382L680.332 75.9256C679.936 77.0495 679.225 77.9089 678.2 78.5039C677.175 79.0658 676.068 79.3468 674.878 79.3468ZM676.019 77.2643C677.506 77.2643 678.58 76.7354 679.241 75.6777C679.936 74.6199 680.283 73.2151 680.283 71.4632V63.6292C679.952 64.158 679.407 64.6373 678.646 65.067C677.886 65.4968 677.109 65.9265 676.316 66.3562C675.192 67.0173 674.316 67.7114 673.688 68.4387C673.093 69.1328 672.796 70.1079 672.796 71.364V73.2977C672.796 74.4877 672.961 75.3637 673.292 75.9256C673.622 76.4875 674.035 76.8511 674.531 77.0164C675.027 77.1817 675.523 77.2643 676.019 77.2643Z" fill="black"/>
<path d="M693.54 79.0493C692.812 79.0493 692.151 78.9667 691.556 78.8014C690.961 78.6361 690.449 78.3717 690.019 78.0081C689.59 77.6114 689.259 77.1156 689.028 76.5206C688.796 75.8925 688.681 75.1158 688.681 74.1902V56.3901H686.499V54.8035L688.879 54.4564L689.424 49.8452H691.755V54.4564H697.06V56.3901H691.755V73.6448C691.755 74.5703 691.92 75.3471 692.251 75.9752C692.581 76.6032 693.308 76.9172 694.432 76.9172C694.895 76.9172 695.391 76.9007 695.92 76.8677C696.449 76.8016 696.829 76.7685 697.06 76.7685V78.7518C696.796 78.7518 696.333 78.8014 695.672 78.9005C695.011 78.9997 694.3 79.0493 693.54 79.0493Z" fill="black"/>
<path d="M700.243 78.9997V54.4564H703.267V78.9997H700.243ZM701.78 51.4319C701.251 51.4319 700.805 51.2666 700.441 50.9361C700.077 50.5725 699.896 50.1262 699.896 49.5973C699.896 49.1015 700.077 48.6883 700.441 48.3578C700.805 47.9942 701.251 47.8124 701.78 47.8124C702.275 47.8124 702.705 47.9942 703.069 48.3578C703.465 48.6883 703.664 49.1015 703.664 49.5973C703.664 50.1262 703.465 50.5725 703.069 50.9361C702.705 51.2666 702.275 51.4319 701.78 51.4319Z" fill="black"/>
<path d="M714.671 79.3468C712.82 79.3468 711.398 79.0658 710.407 78.5039C709.448 77.942 708.787 77.1321 708.423 76.0743C708.093 74.9835 707.927 73.6779 707.927 72.1573V60.7038C707.927 59.4147 708.093 58.2743 708.423 57.2826C708.754 56.291 709.415 55.5142 710.407 54.9522C711.398 54.3572 712.82 54.0597 714.671 54.0597C716.555 54.0597 717.976 54.3572 718.935 54.9522C719.893 55.5142 720.538 56.291 720.869 57.2826C721.232 58.2743 721.414 59.4147 721.414 60.7038V72.1573C721.414 73.6779 721.232 74.9835 720.869 76.0743C720.505 77.1321 719.827 77.942 718.836 78.5039C717.877 79.0658 716.489 79.3468 714.671 79.3468ZM714.671 77.4627C715.828 77.4627 716.654 77.2313 717.15 76.7685C717.646 76.3057 717.96 75.7273 718.092 75.0331C718.257 74.3059 718.34 73.5622 718.34 72.8019V60.555C718.34 59.7948 718.257 59.0676 718.092 58.3734C717.96 57.6793 717.646 57.1173 717.15 56.6876C716.654 56.2248 715.828 55.9935 714.671 55.9935C713.547 55.9935 712.72 56.2248 712.192 56.6876C711.663 57.1173 711.332 57.6793 711.2 58.3734C711.068 59.0676 711.002 59.7948 711.002 60.555V72.8019C711.002 73.5622 711.068 74.3059 711.2 75.0331C711.332 75.7273 711.663 76.3057 712.192 76.7685C712.72 77.2313 713.547 77.4627 714.671 77.4627Z" fill="black"/>
<path d="M726.002 78.9997V54.4564H728.531L728.928 57.1339C729.258 56.043 729.886 55.2663 730.812 54.8035C731.737 54.3077 732.712 54.0597 733.737 54.0597C735.489 54.0597 736.762 54.3738 737.555 55.0018C738.381 55.5968 738.91 56.3901 739.142 57.3818C739.373 58.3404 739.489 59.3981 739.489 60.555V78.9997H736.415V60.9517C736.415 60.3898 736.398 59.8278 736.365 59.2659C736.332 58.704 736.2 58.2081 735.968 57.7784C735.77 57.3157 735.423 56.9521 734.927 56.6876C734.431 56.4232 733.704 56.291 732.745 56.291C731.919 56.291 731.241 56.4562 730.713 56.7868C730.217 57.0843 729.837 57.4479 729.572 57.8776C729.341 58.2743 729.176 58.6544 729.076 59.018V78.9997H726.002Z" fill="black"/>
<path d="M393.124 136V106.696H402.346C403.999 106.696 405.338 107.093 406.363 107.886C407.387 108.647 407.9 109.87 407.9 111.555V116.315C407.9 118.001 407.387 119.307 406.363 120.232C405.371 121.158 404.016 121.654 402.297 121.72V121.67C403.355 121.736 404.148 122.117 404.677 122.811C405.206 123.472 405.668 124.513 406.065 125.934L409.09 136H405.718L403.041 126.133C402.875 125.505 402.66 124.926 402.396 124.397C402.131 123.835 401.801 123.373 401.404 123.009C401.041 122.645 400.545 122.464 399.917 122.464H396.347V136H393.124ZM396.347 120.332H400.71C402.065 120.332 403.09 120.018 403.784 119.39C404.478 118.728 404.825 117.621 404.825 116.067V112.101C404.825 110.845 404.495 109.936 403.834 109.374C403.173 108.812 402.396 108.531 401.503 108.531H396.347V120.332Z" fill="black"/>
<path d="M419.505 136.446C417.852 136.446 416.513 136.264 415.489 135.9C414.464 135.504 413.72 134.793 413.258 133.768C412.795 132.744 412.563 131.256 412.563 129.306V117.059C412.563 114.778 413.076 113.208 414.1 112.349C415.158 111.489 416.894 111.06 419.307 111.06C421.654 111.06 423.339 111.489 424.364 112.349C425.422 113.208 425.951 114.778 425.951 117.059V123.406H415.638V130.347C415.638 131.934 415.885 133.041 416.381 133.669C416.877 134.264 417.885 134.562 419.406 134.562C420.794 134.562 421.72 134.264 422.182 133.669C422.645 133.074 422.877 131.967 422.877 130.347V127.174H425.951V129.256C425.951 131.174 425.719 132.661 425.257 133.719C424.794 134.744 424.083 135.454 423.124 135.851C422.199 136.248 420.992 136.446 419.505 136.446ZM415.638 121.819H422.877V116.811C422.877 115.423 422.645 114.415 422.182 113.787C421.72 113.159 420.761 112.845 419.307 112.845C417.852 112.845 416.877 113.159 416.381 113.787C415.885 114.415 415.638 115.423 415.638 116.811V121.819Z" fill="black"/>
<path d="M436.298 136.396C434.711 136.396 433.455 136.214 432.529 135.851C431.604 135.454 430.926 134.942 430.496 134.314C430.067 133.653 429.786 132.909 429.653 132.083C429.521 131.256 429.455 130.38 429.455 129.455V127.62H432.579V129.901C432.579 130.76 432.612 131.554 432.678 132.281C432.777 132.975 433.091 133.537 433.62 133.967C434.149 134.363 435.025 134.562 436.248 134.562C437.372 134.562 438.182 134.363 438.677 133.967C439.206 133.537 439.52 133.008 439.62 132.38C439.752 131.752 439.818 131.174 439.818 130.645V129.256C439.818 128.43 439.669 127.719 439.372 127.124C439.074 126.529 438.595 126.017 437.934 125.587C437.306 125.125 436.479 124.695 435.455 124.298C434.364 123.868 433.405 123.406 432.579 122.91C431.752 122.414 431.091 121.786 430.596 121.026C430.133 120.232 429.901 119.224 429.901 118.001V116.514C429.901 114.795 430.397 113.44 431.389 112.448C432.414 111.456 434.132 110.961 436.545 110.961C438.132 110.961 439.388 111.175 440.314 111.605C441.272 112.035 441.966 112.729 442.396 113.688C442.859 114.646 443.09 115.902 443.09 117.456V119.538H440.066V117.109C440.066 115.456 439.785 114.332 439.223 113.737C438.661 113.109 437.768 112.795 436.545 112.795C435.157 112.795 434.215 113.126 433.719 113.787C433.256 114.448 433.025 115.274 433.025 116.266V117.605C433.025 118.563 433.223 119.34 433.62 119.935C434.05 120.53 434.645 121.042 435.405 121.472C436.165 121.869 437.074 122.282 438.132 122.712C439.091 123.108 439.934 123.538 440.661 124.001C441.421 124.463 442.016 125.075 442.446 125.835C442.875 126.595 443.09 127.653 443.09 129.009V130.149C443.09 131.24 442.925 132.264 442.595 133.223C442.264 134.149 441.619 134.909 440.661 135.504C439.702 136.099 438.248 136.396 436.298 136.396Z" fill="black"/>
<path d="M453.883 136.446C452.231 136.446 450.892 136.264 449.867 135.9C448.843 135.504 448.099 134.793 447.636 133.768C447.173 132.744 446.942 131.256 446.942 129.306V117.059C446.942 114.778 447.454 113.208 448.479 112.349C449.537 111.489 451.272 111.06 453.685 111.06C456.032 111.06 457.718 111.489 458.742 112.349C459.8 113.208 460.329 114.778 460.329 117.059V123.406H450.016V130.347C450.016 131.934 450.264 133.041 450.76 133.669C451.256 134.264 452.264 134.562 453.784 134.562C455.173 134.562 456.098 134.264 456.561 133.669C457.024 133.074 457.255 131.967 457.255 130.347V127.174H460.329V129.256C460.329 131.174 460.098 132.661 459.635 133.719C459.172 134.744 458.462 135.454 457.503 135.851C456.577 136.248 455.371 136.446 453.883 136.446ZM450.016 121.819H457.255V116.811C457.255 115.423 457.024 114.415 456.561 113.787C456.098 113.159 455.139 112.845 453.685 112.845C452.231 112.845 451.256 113.159 450.76 113.787C450.264 114.415 450.016 115.423 450.016 116.811V121.819Z" fill="black"/>
<path d="M469.188 136.347C468.428 136.347 467.651 136.231 466.858 136C466.098 135.801 465.437 135.322 464.875 134.562C464.346 133.768 464.082 132.545 464.082 130.893V128.513C464.082 126.86 464.577 125.538 465.569 124.546C466.594 123.521 467.982 122.612 469.734 121.819C470.858 121.257 471.767 120.761 472.461 120.332C473.188 119.902 473.734 119.423 474.097 118.894C474.461 118.365 474.643 117.654 474.643 116.762V115.72C474.643 114.927 474.477 114.316 474.147 113.886C473.816 113.456 473.37 113.159 472.808 112.993C472.279 112.828 471.717 112.745 471.122 112.745C469.635 112.745 468.66 113.159 468.197 113.985C467.734 114.778 467.503 115.968 467.503 117.555V119.637H464.676V117.257C464.676 116.034 464.842 114.96 465.172 114.035C465.503 113.076 466.131 112.332 467.056 111.803C467.982 111.241 469.337 110.961 471.122 110.961C473.006 110.961 474.411 111.175 475.337 111.605C476.295 112.035 476.923 112.646 477.221 113.44C477.551 114.233 477.717 115.175 477.717 116.266V136H474.692L474.643 132.926C474.246 134.049 473.535 134.909 472.511 135.504C471.486 136.066 470.378 136.347 469.188 136.347ZM470.329 134.264C471.816 134.264 472.891 133.735 473.552 132.678C474.246 131.62 474.593 130.215 474.593 128.463V120.629C474.262 121.158 473.717 121.637 472.957 122.067C472.196 122.497 471.42 122.926 470.626 123.356C469.503 124.017 468.627 124.711 467.999 125.439C467.404 126.133 467.106 127.108 467.106 128.364V130.298C467.106 131.488 467.271 132.364 467.602 132.926C467.932 133.487 468.346 133.851 468.841 134.016C469.337 134.182 469.833 134.264 470.329 134.264Z" fill="black"/>
<path d="M482.545 136V111.456H485.123L485.47 114.084C485.834 113.159 486.429 112.498 487.255 112.101C488.081 111.704 488.908 111.456 489.734 111.357C490.66 111.159 491.552 111.142 492.412 111.308V113.688C492.279 113.621 492.048 113.572 491.718 113.539C491.387 113.506 491.023 113.506 490.627 113.539C490.263 113.539 489.916 113.605 489.585 113.737C488.462 113.836 487.52 114.249 486.759 114.977C485.999 115.671 485.619 116.596 485.619 117.753V136H482.545Z" fill="black"/>
<path d="M501.383 136.446C499.763 136.446 498.441 136.264 497.416 135.9C496.391 135.504 495.648 134.81 495.185 133.818C494.722 132.793 494.491 131.306 494.491 129.356V117.257C494.491 114.844 495.003 113.208 496.028 112.349C497.085 111.456 498.821 111.01 501.234 111.01C503.581 111.01 505.267 111.44 506.291 112.299C507.349 113.159 507.878 114.745 507.878 117.059V120.282H504.804V116.96C504.804 115.539 504.572 114.514 504.11 113.886C503.647 113.225 502.688 112.894 501.234 112.894C499.779 112.894 498.804 113.225 498.308 113.886C497.813 114.514 497.565 115.539 497.565 116.96V130.149C497.565 131.736 497.813 132.859 498.308 133.521C498.804 134.149 499.812 134.463 501.333 134.463C502.721 134.463 503.647 134.149 504.11 133.521C504.572 132.892 504.804 131.769 504.804 130.149V126.827H507.878V129.356C507.878 131.24 507.647 132.694 507.184 133.719C506.721 134.744 506.01 135.454 505.052 135.851C504.093 136.248 502.87 136.446 501.383 136.446Z" fill="black"/>
<path d="M512.275 136V104.763H515.2V113.539C515.531 112.779 516.109 112.184 516.936 111.754C517.762 111.291 518.787 111.06 520.01 111.06C521.762 111.06 523.034 111.374 523.828 112.002C524.654 112.597 525.183 113.39 525.414 114.382C525.646 115.34 525.761 116.398 525.761 117.555V136H522.687V118.2C522.687 117.704 522.671 117.191 522.638 116.662C522.605 116.101 522.472 115.588 522.241 115.125C522.043 114.663 521.679 114.283 521.15 113.985C520.654 113.688 519.944 113.539 519.018 113.539C518.159 113.539 517.464 113.671 516.936 113.935C516.407 114.2 516.01 114.53 515.746 114.927C515.514 115.291 515.382 115.605 515.349 115.869V136H512.275Z" fill="black"/>
<path d="M547.215 136.595C545.761 136.595 544.471 136.429 543.348 136.099C542.257 135.768 541.381 135.091 540.72 134.066C540.092 133.008 539.778 131.422 539.778 129.306V112.795C539.778 110.944 540.092 109.556 540.72 108.63C541.381 107.705 542.273 107.093 543.397 106.796C544.554 106.465 545.843 106.3 547.265 106.3C548.719 106.3 549.992 106.465 551.082 106.796C552.173 107.126 553.033 107.754 553.661 108.68C554.289 109.605 554.603 110.977 554.603 112.795V117.952H551.479V112.745C551.479 111.456 551.297 110.498 550.934 109.87C550.57 109.209 550.058 108.779 549.397 108.581C548.769 108.382 548.041 108.283 547.215 108.283C546.389 108.283 545.645 108.382 544.984 108.581C544.356 108.779 543.86 109.209 543.496 109.87C543.166 110.498 543 111.456 543 112.745V130.149C543 131.471 543.166 132.463 543.496 133.124C543.86 133.752 544.356 134.165 544.984 134.363C545.645 134.562 546.389 134.661 547.215 134.661C548.074 134.661 548.818 134.562 549.446 134.363C550.074 134.165 550.57 133.752 550.934 133.124C551.297 132.463 551.479 131.471 551.479 130.149V125.736H554.603V129.256C554.603 131.405 554.289 133.008 553.661 134.066C553.033 135.091 552.173 135.768 551.082 136.099C549.992 136.429 548.702 136.595 547.215 136.595Z" fill="black"/>
<path d="M565.928 136.446C564.275 136.446 562.937 136.264 561.912 135.9C560.887 135.504 560.143 134.793 559.681 133.768C559.218 132.744 558.987 131.256 558.987 129.306V117.059C558.987 114.778 559.499 113.208 560.524 112.349C561.581 111.489 563.317 111.06 565.73 111.06C568.077 111.06 569.762 111.489 570.787 112.349C571.845 113.208 572.374 114.778 572.374 117.059V123.406H562.061V130.347C562.061 131.934 562.309 133.041 562.804 133.669C563.3 134.264 564.308 134.562 565.829 134.562C567.217 134.562 568.143 134.264 568.606 133.669C569.068 133.074 569.3 131.967 569.3 130.347V127.174H572.374V129.256C572.374 131.174 572.142 132.661 571.68 133.719C571.217 134.744 570.506 135.454 569.548 135.851C568.622 136.248 567.416 136.446 565.928 136.446ZM562.061 121.819H569.3V116.811C569.3 115.423 569.068 114.415 568.606 113.787C568.143 113.159 567.184 112.845 565.73 112.845C564.275 112.845 563.3 113.159 562.804 113.787C562.309 114.415 562.061 115.423 562.061 116.811V121.819Z" fill="black"/>
<path d="M576.771 136V111.456H579.299L579.696 114.134C580.027 113.043 580.655 112.266 581.58 111.803C582.506 111.308 583.481 111.06 584.506 111.06C586.258 111.06 587.53 111.374 588.323 112.002C589.15 112.597 589.679 113.39 589.91 114.382C590.141 115.34 590.257 116.398 590.257 117.555V136H587.183V117.952C587.183 117.39 587.167 116.828 587.133 116.266C587.1 115.704 586.968 115.208 586.737 114.778C586.538 114.316 586.191 113.952 585.696 113.688C585.2 113.423 584.473 113.291 583.514 113.291C582.688 113.291 582.01 113.456 581.481 113.787C580.985 114.084 580.605 114.448 580.341 114.878C580.109 115.274 579.944 115.654 579.845 116.018V136H576.771Z" fill="black"/>
<path d="M600.427 136.049C599.7 136.049 599.039 135.967 598.444 135.801C597.849 135.636 597.337 135.372 596.907 135.008C596.477 134.611 596.147 134.115 595.915 133.521C595.684 132.892 595.568 132.116 595.568 131.19V113.39H593.387V111.803L595.767 111.456L596.312 106.845H598.642V111.456H603.948V113.39H598.642V130.645C598.642 131.57 598.808 132.347 599.138 132.975C599.469 133.603 600.196 133.917 601.32 133.917C601.783 133.917 602.278 133.901 602.807 133.868C603.336 133.801 603.716 133.768 603.948 133.768V135.752C603.683 135.752 603.221 135.801 602.559 135.9C601.898 136 601.188 136.049 600.427 136.049Z" fill="black"/>
<path d="M613.428 136.446C611.776 136.446 610.437 136.264 609.412 135.9C608.388 135.504 607.644 134.793 607.181 133.768C606.718 132.744 606.487 131.256 606.487 129.306V117.059C606.487 114.778 606.999 113.208 608.024 112.349C609.082 111.489 610.817 111.06 613.23 111.06C615.577 111.06 617.263 111.489 618.287 112.349C619.345 113.208 619.874 114.778 619.874 117.059V123.406H609.561V130.347C609.561 131.934 609.809 133.041 610.305 133.669C610.801 134.264 611.809 134.562 613.329 134.562C614.718 134.562 615.643 134.264 616.106 133.669C616.569 133.074 616.8 131.967 616.8 130.347V127.174H619.874V129.256C619.874 131.174 619.643 132.661 619.18 133.719C618.717 134.744 618.007 135.454 617.048 135.851C616.122 136.248 614.916 136.446 613.428 136.446ZM609.561 121.819H616.8V116.811C616.8 115.423 616.569 114.415 616.106 113.787C615.643 113.159 614.685 112.845 613.23 112.845C611.776 112.845 610.801 113.159 610.305 113.787C609.809 114.415 609.561 115.423 609.561 116.811V121.819Z" fill="black"/>
<path d="M624.271 136V111.456H626.849L627.196 114.084C627.56 113.159 628.155 112.498 628.981 112.101C629.808 111.704 630.634 111.456 631.461 111.357C632.386 111.159 633.279 111.142 634.138 111.308V113.688C634.006 113.621 633.774 113.572 633.444 113.539C633.113 113.506 632.75 113.506 632.353 113.539C631.989 113.539 631.642 113.605 631.312 113.737C630.188 113.836 629.246 114.249 628.486 114.977C627.725 115.671 627.345 116.596 627.345 117.753V136H624.271Z" fill="black"/>
<path d="M151 12.5C151 19.4036 145.404 25 138.5 25C131.596 25 126 19.4036 126 12.5C126 5.59644 131.596 0 138.5 0C145.404 0 151 5.59644 151 12.5Z" fill="#0066B3"/>
<path fill-rule="evenodd" clip-rule="evenodd" d="M244 92C244 124.585 217.585 151 185 151C152.415 151 126 124.585 126 92V35C126 33.8954 126.895 33 128 33H149C150.105 33 151 33.8954 151 35V39.9145C151 41.5364 152.841 42.4999 154.224 41.6527C163.184 36.164 173.723 33 185 33C217.585 33 244 59.4152 244 92ZM185 126C203.778 126 219 110.778 219 92C219 73.2223 203.778 58 185 58C166.222 58 151 73.2223 151 92C151 110.778 166.222 126 185 126Z" fill="#0066B3"/>
<path fill-rule="evenodd" clip-rule="evenodd" d="M252 92C252 59.4152 278.415 33 311 33C343.585 33 370 59.4152 370 92V149C370 150.105 369.105 151 368 151H347C345.895 151 345 150.105 345 149V144.085C345 142.464 343.159 141.5 341.776 142.347C332.816 147.836 322.277 151 311 151C278.415 151 252 124.585 252 92ZM311 58C292.222 58 277 73.2223 277 92C277 110.778 292.222 126 311 126C329.778 126 345 110.778 345 92C345 73.2223 329.778 58 311 58Z" fill="#0066B3"/>
<path fill-rule="evenodd" clip-rule="evenodd" d="M59 126C45.4716 126 33.7886 118.099 28.3139 106.659C27.7103 105.398 28.6723 104 30.0704 104H115.15C116.098 104 116.92 103.334 117.086 102.4C117.687 99.0242 118 95.5487 118 92C118 87.8882 117.579 83.8746 116.779 80C111.235 53.1693 87.473 33 59 33C30.527 33 6.76479 53.1693 1.22117 80C0.420618 83.8746 0 87.8882 0 92C0 96.1118 0.420618 100.125 1.22117 104C6.76479 130.831 30.527 151 59 151C82.7587 151 103.237 136.957 112.588 116.718C113.182 115.432 112.218 114 110.802 114H85.8491C85.2622 114 84.7073 114.26 84.3154 114.697C78.0906 121.635 69.055 126 59 126ZM59 58C45.4716 58 33.7886 65.9011 28.3139 77.3405C27.7103 78.6017 28.6723 80 30.0704 80H87.9296C89.3277 80 90.2897 78.6017 89.6861 77.3405C84.2114 65.9011 72.5284 58 59 58Z" fill="#0066B3"/>
</svg>
